<?xml version="1.0" encoding="utf-8" standalone="no"?>
<!DOCTYPE svg PUBLIC "-//W3C//DTD SVG 1.1//EN"
  "http://www.w3.org/Graphics/SVG/1.1/DTD/svg11.dtd">
<!-- Created with matplotlib (http://matplotlib.org/) -->
<svg height="733.5pt" version="1.1" viewBox="0 0 1380.75 733.5" width="1380.75pt" xmlns="http://www.w3.org/2000/svg" xmlns:xlink="http://www.w3.org/1999/xlink">
 <defs>
  <style type="text/css">
*{stroke-linecap:butt;stroke-linejoin:round;}
  </style>
 </defs>
 <g id="figure_1">
  <g id="patch_1">
   <path d="M 0 733.5 
L 1380.75 733.5 
L 1380.75 0 
L 0 0 
z
" style="fill:#ffffff;"/>
  </g>
  <g id="axes_1">
   <g id="patch_2">
    <path d="M 397.933269 652.815 
L 1017.335481 652.815 
L 1017.335481 88.02 
L 397.933269 88.02 
z
" style="fill:#ffffff;"/>
   </g>
   <g id="matplotlib.axis_1">
    <g id="xtick_1">
     <g id="line2d_1">
      <defs>
       <path d="M 0 0 
L 0 3.5 
" id="m736cebdd1e" style="stroke:#000000;stroke-width:0.8;"/>
      </defs>
      <g>
       <use style="stroke:#000000;stroke-width:0.8;" x="426.087915" xlink:href="#m736cebdd1e" y="652.815"/>
      </g>
     </g>
     <g id="text_1">
      <!-- 0 -->
      <defs>
       <path d="M 31.78125 66.40625 
Q 24.171875 66.40625 20.328125 58.90625 
Q 16.5 51.421875 16.5 36.375 
Q 16.5 21.390625 20.328125 13.890625 
Q 24.171875 6.390625 31.78125 6.390625 
Q 39.453125 6.390625 43.28125 13.890625 
Q 47.125 21.390625 47.125 36.375 
Q 47.125 51.421875 43.28125 58.90625 
Q 39.453125 66.40625 31.78125 66.40625 
z
M 31.78125 74.21875 
Q 44.046875 74.21875 50.515625 64.515625 
Q 56.984375 54.828125 56.984375 36.375 
Q 56.984375 17.96875 50.515625 8.265625 
Q 44.046875 -1.421875 31.78125 -1.421875 
Q 19.53125 -1.421875 13.0625 8.265625 
Q 6.59375 17.96875 6.59375 36.375 
Q 6.59375 54.828125 13.0625 64.515625 
Q 19.53125 74.21875 31.78125 74.21875 
z
" id="DejaVuSans-30"/>
      </defs>
      <g transform="translate(422.906665 667.413437)scale(0.1 -0.1)">
       <use xlink:href="#DejaVuSans-30"/>
      </g>
     </g>
    </g>
    <g id="xtick_2">
     <g id="line2d_2">
      <g>
       <use style="stroke:#000000;stroke-width:0.8;" x="538.706499" xlink:href="#m736cebdd1e" y="652.815"/>
      </g>
     </g>
     <g id="text_2">
      <!-- 2 -->
      <defs>
       <path d="M 19.1875 8.296875 
L 53.609375 8.296875 
L 53.609375 0 
L 7.328125 0 
L 7.328125 8.296875 
Q 12.9375 14.109375 22.625 23.890625 
Q 32.328125 33.6875 34.8125 36.53125 
Q 39.546875 41.84375 41.421875 45.53125 
Q 43.3125 49.21875 43.3125 52.78125 
Q 43.3125 58.59375 39.234375 62.25 
Q 35.15625 65.921875 28.609375 65.921875 
Q 23.96875 65.921875 18.8125 64.3125 
Q 13.671875 62.703125 7.8125 59.421875 
L 7.8125 69.390625 
Q 13.765625 71.78125 18.9375 73 
Q 24.125 74.21875 28.421875 74.21875 
Q 39.75 74.21875 46.484375 68.546875 
Q 53.21875 62.890625 53.21875 53.421875 
Q 53.21875 48.921875 51.53125 44.890625 
Q 49.859375 40.875 45.40625 35.40625 
Q 44.1875 33.984375 37.640625 27.21875 
Q 31.109375 20.453125 19.1875 8.296875 
z
" id="DejaVuSans-32"/>
      </defs>
      <g transform="translate(535.525249 667.413437)scale(0.1 -0.1)">
       <use xlink:href="#DejaVuSans-32"/>
      </g>
     </g>
    </g>
    <g id="xtick_3">
     <g id="line2d_3">
      <g>
       <use style="stroke:#000000;stroke-width:0.8;" x="651.325083" xlink:href="#m736cebdd1e" y="652.815"/>
      </g>
     </g>
     <g id="text_3">
      <!-- 4 -->
      <defs>
       <path d="M 37.796875 64.3125 
L 12.890625 25.390625 
L 37.796875 25.390625 
z
M 35.203125 72.90625 
L 47.609375 72.90625 
L 47.609375 25.390625 
L 58.015625 25.390625 
L 58.015625 17.1875 
L 47.609375 17.1875 
L 47.609375 0 
L 37.796875 0 
L 37.796875 17.1875 
L 4.890625 17.1875 
L 4.890625 26.703125 
z
" id="DejaVuSans-34"/>
      </defs>
      <g transform="translate(648.143833 667.413437)scale(0.1 -0.1)">
       <use xlink:href="#DejaVuSans-34"/>
      </g>
     </g>
    </g>
    <g id="xtick_4">
     <g id="line2d_4">
      <g>
       <use style="stroke:#000000;stroke-width:0.8;" x="763.943667" xlink:href="#m736cebdd1e" y="652.815"/>
      </g>
     </g>
     <g id="text_4">
      <!-- 6 -->
      <defs>
       <path d="M 33.015625 40.375 
Q 26.375 40.375 22.484375 35.828125 
Q 18.609375 31.296875 18.609375 23.390625 
Q 18.609375 15.53125 22.484375 10.953125 
Q 26.375 6.390625 33.015625 6.390625 
Q 39.65625 6.390625 43.53125 10.953125 
Q 47.40625 15.53125 47.40625 23.390625 
Q 47.40625 31.296875 43.53125 35.828125 
Q 39.65625 40.375 33.015625 40.375 
z
M 52.59375 71.296875 
L 52.59375 62.3125 
Q 48.875 64.0625 45.09375 64.984375 
Q 41.3125 65.921875 37.59375 65.921875 
Q 27.828125 65.921875 22.671875 59.328125 
Q 17.53125 52.734375 16.796875 39.40625 
Q 19.671875 43.65625 24.015625 45.921875 
Q 28.375 48.1875 33.59375 48.1875 
Q 44.578125 48.1875 50.953125 41.515625 
Q 57.328125 34.859375 57.328125 23.390625 
Q 57.328125 12.15625 50.6875 5.359375 
Q 44.046875 -1.421875 33.015625 -1.421875 
Q 20.359375 -1.421875 13.671875 8.265625 
Q 6.984375 17.96875 6.984375 36.375 
Q 6.984375 53.65625 15.1875 63.9375 
Q 23.390625 74.21875 37.203125 74.21875 
Q 40.921875 74.21875 44.703125 73.484375 
Q 48.484375 72.75 52.59375 71.296875 
z
" id="DejaVuSans-36"/>
      </defs>
      <g transform="translate(760.762417 667.413437)scale(0.1 -0.1)">
       <use xlink:href="#DejaVuSans-36"/>
      </g>
     </g>
    </g>
    <g id="xtick_5">
     <g id="line2d_5">
      <g>
       <use style="stroke:#000000;stroke-width:0.8;" x="876.562251" xlink:href="#m736cebdd1e" y="652.815"/>
      </g>
     </g>
     <g id="text_5">
      <!-- 8 -->
      <defs>
       <path d="M 31.78125 34.625 
Q 24.75 34.625 20.71875 30.859375 
Q 16.703125 27.09375 16.703125 20.515625 
Q 16.703125 13.921875 20.71875 10.15625 
Q 24.75 6.390625 31.78125 6.390625 
Q 38.8125 6.390625 42.859375 10.171875 
Q 46.921875 13.96875 46.921875 20.515625 
Q 46.921875 27.09375 42.890625 30.859375 
Q 38.875 34.625 31.78125 34.625 
z
M 21.921875 38.8125 
Q 15.578125 40.375 12.03125 44.71875 
Q 8.5 49.078125 8.5 55.328125 
Q 8.5 64.0625 14.71875 69.140625 
Q 20.953125 74.21875 31.78125 74.21875 
Q 42.671875 74.21875 48.875 69.140625 
Q 55.078125 64.0625 55.078125 55.328125 
Q 55.078125 49.078125 51.53125 44.71875 
Q 48 40.375 41.703125 38.8125 
Q 48.828125 37.15625 52.796875 32.3125 
Q 56.78125 27.484375 56.78125 20.515625 
Q 56.78125 9.90625 50.3125 4.234375 
Q 43.84375 -1.421875 31.78125 -1.421875 
Q 19.734375 -1.421875 13.25 4.234375 
Q 6.78125 9.90625 6.78125 20.515625 
Q 6.78125 27.484375 10.78125 32.3125 
Q 14.796875 37.15625 21.921875 38.8125 
z
M 18.3125 54.390625 
Q 18.3125 48.734375 21.84375 45.5625 
Q 25.390625 42.390625 31.78125 42.390625 
Q 38.140625 42.390625 41.71875 45.5625 
Q 45.3125 48.734375 45.3125 54.390625 
Q 45.3125 60.0625 41.71875 63.234375 
Q 38.140625 66.40625 31.78125 66.40625 
Q 25.390625 66.40625 21.84375 63.234375 
Q 18.3125 60.0625 18.3125 54.390625 
z
" id="DejaVuSans-38"/>
      </defs>
      <g transform="translate(873.381001 667.413437)scale(0.1 -0.1)">
       <use xlink:href="#DejaVuSans-38"/>
      </g>
     </g>
    </g>
    <g id="xtick_6">
     <g id="line2d_6">
      <g>
       <use style="stroke:#000000;stroke-width:0.8;" x="989.180835" xlink:href="#m736cebdd1e" y="652.815"/>
      </g>
     </g>
     <g id="text_6">
      <!-- 10 -->
      <defs>
       <path d="M 12.40625 8.296875 
L 28.515625 8.296875 
L 28.515625 63.921875 
L 10.984375 60.40625 
L 10.984375 69.390625 
L 28.421875 72.90625 
L 38.28125 72.90625 
L 38.28125 8.296875 
L 54.390625 8.296875 
L 54.390625 0 
L 12.40625 0 
z
" id="DejaVuSans-31"/>
      </defs>
      <g transform="translate(982.818335 667.413437)scale(0.1 -0.1)">
       <use xlink:href="#DejaVuSans-31"/>
       <use x="63.623047" xlink:href="#DejaVuSans-30"/>
      </g>
     </g>
    </g>
   </g>
   <g id="matplotlib.axis_2">
    <g id="ytick_1">
     <g id="line2d_7">
      <defs>
       <path d="M 0 0 
L -3.5 0 
" id="m97274ecc3d" style="stroke:#000000;stroke-width:0.8;"/>
      </defs>
      <g>
       <use style="stroke:#000000;stroke-width:0.8;" x="397.933269" xlink:href="#m97274ecc3d" y="564.166837"/>
      </g>
     </g>
     <g id="text_7">
      <!-- −8 -->
      <defs>
       <path d="M 10.59375 35.5 
L 73.1875 35.5 
L 73.1875 27.203125 
L 10.59375 27.203125 
z
" id="DejaVuSans-2212"/>
      </defs>
      <g transform="translate(376.191081 567.966055)scale(0.1 -0.1)">
       <use xlink:href="#DejaVuSans-2212"/>
       <use x="83.789062" xlink:href="#DejaVuSans-38"/>
      </g>
     </g>
    </g>
    <g id="ytick_2">
     <g id="line2d_8">
      <g>
       <use style="stroke:#000000;stroke-width:0.8;" x="397.933269" xlink:href="#m97274ecc3d" y="451.548253"/>
      </g>
     </g>
     <g id="text_8">
      <!-- −6 -->
      <g transform="translate(376.191081 455.347471)scale(0.1 -0.1)">
       <use xlink:href="#DejaVuSans-2212"/>
       <use x="83.789062" xlink:href="#DejaVuSans-36"/>
      </g>
     </g>
    </g>
    <g id="ytick_3">
     <g id="line2d_9">
      <g>
       <use style="stroke:#000000;stroke-width:0.8;" x="397.933269" xlink:href="#m97274ecc3d" y="338.929668"/>
      </g>
     </g>
     <g id="text_9">
      <!-- −4 -->
      <g transform="translate(376.191081 342.728887)scale(0.1 -0.1)">
       <use xlink:href="#DejaVuSans-2212"/>
       <use x="83.789062" xlink:href="#DejaVuSans-34"/>
      </g>
     </g>
    </g>
    <g id="ytick_4">
     <g id="line2d_10">
      <g>
       <use style="stroke:#000000;stroke-width:0.8;" x="397.933269" xlink:href="#m97274ecc3d" y="226.311084"/>
      </g>
     </g>
     <g id="text_10">
      <!-- −2 -->
      <g transform="translate(376.191081 230.110303)scale(0.1 -0.1)">
       <use xlink:href="#DejaVuSans-2212"/>
       <use x="83.789062" xlink:href="#DejaVuSans-32"/>
      </g>
     </g>
    </g>
    <g id="ytick_5">
     <g id="line2d_11">
      <g>
       <use style="stroke:#000000;stroke-width:0.8;" x="397.933269" xlink:href="#m97274ecc3d" y="113.6925"/>
      </g>
     </g>
     <g id="text_11">
      <!-- 0 -->
      <g transform="translate(384.570769 117.491719)scale(0.1 -0.1)">
       <use xlink:href="#DejaVuSans-30"/>
      </g>
     </g>
    </g>
   </g>
   <g id="line2d_12">
    <path clip-path="url(#p703539bae7)" d="M 426.087915 113.6925 
L 463.627443 113.6925 
L 538.706499 113.6925 
L 651.325083 113.6925 
L 763.943667 113.6925 
L 876.562251 113.6925 
L 951.641307 113.6925 
L 989.180835 113.6925 
" style="fill:none;stroke:#68bccc;stroke-dasharray:9.6,2.4,1.5,2.4;stroke-dashoffset:0;stroke-width:1.5;"/>
    <defs>
     <path d="M 0 3 
C 0.795609 3 1.55874 2.683901 2.12132 2.12132 
C 2.683901 1.55874 3 0.795609 3 0 
C 3 -0.795609 2.683901 -1.55874 2.12132 -2.12132 
C 1.55874 -2.683901 0.795609 -3 0 -3 
C -0.795609 -3 -1.55874 -2.683901 -2.12132 -2.12132 
C -2.683901 -1.55874 -3 -0.795609 -3 0 
C -3 0.795609 -2.683901 1.55874 -2.12132 2.12132 
C -1.55874 2.683901 -0.795609 3 0 3 
z
" id="md2207e4e28" style="stroke:#68bccc;"/>
    </defs>
    <g clip-path="url(#p703539bae7)">
     <use style="fill:#68bccc;stroke:#68bccc;" x="426.087915" xlink:href="#md2207e4e28" y="113.6925"/>
     <use style="fill:#68bccc;stroke:#68bccc;" x="463.627443" xlink:href="#md2207e4e28" y="113.6925"/>
     <use style="fill:#68bccc;stroke:#68bccc;" x="538.706499" xlink:href="#md2207e4e28" y="113.6925"/>
     <use style="fill:#68bccc;stroke:#68bccc;" x="651.325083" xlink:href="#md2207e4e28" y="113.6925"/>
     <use style="fill:#68bccc;stroke:#68bccc;" x="763.943667" xlink:href="#md2207e4e28" y="113.6925"/>
     <use style="fill:#68bccc;stroke:#68bccc;" x="876.562251" xlink:href="#md2207e4e28" y="113.6925"/>
     <use style="fill:#68bccc;stroke:#68bccc;" x="951.641307" xlink:href="#md2207e4e28" y="113.6925"/>
     <use style="fill:#68bccc;stroke:#68bccc;" x="989.180835" xlink:href="#md2207e4e28" y="113.6925"/>
    </g>
   </g>
   <g id="line2d_13">
    <path clip-path="url(#p703539bae7)" d="M 426.087915 113.6925 
L 454.242561 113.6925 
L 482.397207 113.6925 
L 510.551853 113.6925 
L 538.706499 113.6925 
L 566.861145 113.6925 
L 595.015791 113.6925 
L 623.170437 113.6925 
L 651.325083 113.6925 
L 679.479729 113.6925 
L 707.634375 113.6925 
L 735.789021 113.6925 
L 763.943667 113.6925 
L 792.098313 113.6925 
L 820.252959 113.6925 
L 848.407605 113.6925 
L 876.562251 113.6925 
L 904.716897 113.6925 
L 932.871543 113.6925 
L 961.026189 113.6925 
L 989.180835 113.6925 
" style="fill:none;stroke:#8946a0;stroke-linecap:square;stroke-width:1.5;"/>
   </g>
   <g id="line2d_14">
    <path clip-path="url(#p703539bae7)" d="M 426.087915 113.6925 
L 463.681048 113.6925 
L 538.04786 132.17507 
L 632.120366 196.316417 
L 707.532239 280.631584 
L 769.749662 374.704519 
L 806.733697 440.074162 
L 825.230195 472.751971 
" style="fill:none;stroke:#dc7aa1;stroke-dasharray:9.6,2.4,1.5,2.4;stroke-dashoffset:0;stroke-width:1.5;"/>
    <defs>
     <path d="M 0 3 
C 0.795609 3 1.55874 2.683901 2.12132 2.12132 
C 2.683901 1.55874 3 0.795609 3 0 
C 3 -0.795609 2.683901 -1.55874 2.12132 -2.12132 
C 1.55874 -2.683901 0.795609 -3 0 -3 
C -0.795609 -3 -1.55874 -2.683901 -2.12132 -2.12132 
C -2.683901 -1.55874 -3 -0.795609 -3 0 
C -3 0.795609 -2.683901 1.55874 -2.12132 2.12132 
C -1.55874 2.683901 -0.795609 3 0 3 
z
" id="m6a60194153" style="stroke:#dc7aa1;"/>
    </defs>
    <g clip-path="url(#p703539bae7)">
     <use style="fill:#dc7aa1;stroke:#dc7aa1;" x="426.087915" xlink:href="#m6a60194153" y="113.6925"/>
     <use style="fill:#dc7aa1;stroke:#dc7aa1;" x="463.681048" xlink:href="#m6a60194153" y="113.6925"/>
     <use style="fill:#dc7aa1;stroke:#dc7aa1;" x="538.04786" xlink:href="#m6a60194153" y="132.17507"/>
     <use style="fill:#dc7aa1;stroke:#dc7aa1;" x="632.120366" xlink:href="#m6a60194153" y="196.316417"/>
     <use style="fill:#dc7aa1;stroke:#dc7aa1;" x="707.532239" xlink:href="#m6a60194153" y="280.631584"/>
     <use style="fill:#dc7aa1;stroke:#dc7aa1;" x="769.749662" xlink:href="#m6a60194153" y="374.704519"/>
     <use style="fill:#dc7aa1;stroke:#dc7aa1;" x="806.733697" xlink:href="#m6a60194153" y="440.074162"/>
     <use style="fill:#dc7aa1;stroke:#dc7aa1;" x="825.230195" xlink:href="#m6a60194153" y="472.751971"/>
    </g>
   </g>
   <g id="line2d_15">
    <path clip-path="url(#p703539bae7)" d="M 426.087915 113.6925 
L 454.166828 115.375683 
L 481.857416 120.227001 
L 508.925002 127.949106 
L 535.134908 138.244652 
L 560.28849 150.823547 
L 584.331231 165.424729 
L 607.244649 181.794389 
L 629.01026 199.67872 
L 649.626898 218.839091 
L 669.162655 239.097575 
L 687.70294 260.291421 
L 705.333164 282.257879 
L 722.141304 304.846279 
L 738.225621 327.954287 
L 753.686943 351.491648 
L 768.6261 375.368107 
L 783.144743 399.497977 
L 797.347803 423.813823 
L 811.341036 448.252777 
L 825.230195 472.751971 
" style="fill:none;stroke:#f06fe5;stroke-linecap:square;stroke-width:1.5;"/>
   </g>
   <g id="line2d_16">
    <path clip-path="url(#p703539bae7)" d="M 426.087915 113.6925 
L 463.78434 113.6925 
L 536.955688 140.878153 
L 614.517488 225.220398 
L 664.570461 326.764112 
L 698.875129 434.242002 
L 716.79605 507.20369 
L 725.772096 543.677264 
" style="fill:none;stroke:#c93322;stroke-dasharray:9.6,2.4,1.5,2.4;stroke-dashoffset:0;stroke-width:1.5;"/>
    <defs>
     <path d="M 0 3 
C 0.795609 3 1.55874 2.683901 2.12132 2.12132 
C 2.683901 1.55874 3 0.795609 3 0 
C 3 -0.795609 2.683901 -1.55874 2.12132 -2.12132 
C 1.55874 -2.683901 0.795609 -3 0 -3 
C -0.795609 -3 -1.55874 -2.683901 -2.12132 -2.12132 
C -2.683901 -1.55874 -3 -0.795609 -3 0 
C -3 0.795609 -2.683901 1.55874 -2.12132 2.12132 
C -1.55874 2.683901 -0.795609 3 0 3 
z
" id="mb6bbe804a1" style="stroke:#c93322;"/>
    </defs>
    <g clip-path="url(#p703539bae7)">
     <use style="fill:#c93322;stroke:#c93322;" x="426.087915" xlink:href="#mb6bbe804a1" y="113.6925"/>
     <use style="fill:#c93322;stroke:#c93322;" x="463.78434" xlink:href="#mb6bbe804a1" y="113.6925"/>
     <use style="fill:#c93322;stroke:#c93322;" x="536.955688" xlink:href="#mb6bbe804a1" y="140.878153"/>
     <use style="fill:#c93322;stroke:#c93322;" x="614.517488" xlink:href="#mb6bbe804a1" y="225.220398"/>
     <use style="fill:#c93322;stroke:#c93322;" x="664.570461" xlink:href="#mb6bbe804a1" y="326.764112"/>
     <use style="fill:#c93322;stroke:#c93322;" x="698.875129" xlink:href="#mb6bbe804a1" y="434.242002"/>
     <use style="fill:#c93322;stroke:#c93322;" x="716.79605" xlink:href="#mb6bbe804a1" y="507.20369"/>
     <use style="fill:#c93322;stroke:#c93322;" x="725.772096" xlink:href="#mb6bbe804a1" y="543.677264"/>
    </g>
   </g>
   <g id="line2d_17">
    <path clip-path="url(#p703539bae7)" d="M 426.087915 113.6925 
L 454.085482 116.142214 
L 481.267599 123.095595 
L 507.235351 133.958998 
L 531.589818 148.13878 
L 554.010774 165.071587 
L 574.492754 184.315218 
L 593.108982 205.457762 
L 609.932684 228.087309 
L 625.055506 251.831258 
L 638.642784 276.474247 
L 650.878277 301.840225 
L 661.945743 327.753141 
L 672.019994 354.055947 
L 681.240053 380.667615 
L 689.736001 407.526122 
L 697.637914 434.569442 
L 705.073768 461.74066 
L 712.163116 489.003289 
L 719.023409 516.32595 
L 725.772096 543.677264 
" style="fill:none;stroke:#b0a405;stroke-linecap:square;stroke-width:1.5;"/>
   </g>
   <g id="line2d_18">
    <path clip-path="url(#p703539bae7)" d="M 426.087915 113.6925 
L 463.899231 113.6925 
L 535.796458 146.884312 
L 600.837417 241.675284 
L 635.302191 349.481286 
L 654.923967 460.652471 
L 663.500371 535.351793 
L 667.816197 572.699091 
" style="fill:none;stroke:#c61bc6;stroke-dasharray:9.6,2.4,1.5,2.4;stroke-dashoffset:0;stroke-width:1.5;"/>
    <defs>
     <path d="M 0 3 
C 0.795609 3 1.55874 2.683901 2.12132 2.12132 
C 2.683901 1.55874 3 0.795609 3 0 
C 3 -0.795609 2.683901 -1.55874 2.12132 -2.12132 
C 1.55874 -2.683901 0.795609 -3 0 -3 
C -0.795609 -3 -1.55874 -2.683901 -2.12132 -2.12132 
C -2.683901 -1.55874 -3 -0.795609 -3 0 
C -3 0.795609 -2.683901 1.55874 -2.12132 2.12132 
C -1.55874 2.683901 -0.795609 3 0 3 
z
" id="mf030ddf202" style="stroke:#c61bc6;"/>
    </defs>
    <g clip-path="url(#p703539bae7)">
     <use style="fill:#c61bc6;stroke:#c61bc6;" x="426.087915" xlink:href="#mf030ddf202" y="113.6925"/>
     <use style="fill:#c61bc6;stroke:#c61bc6;" x="463.899231" xlink:href="#mf030ddf202" y="113.6925"/>
     <use style="fill:#c61bc6;stroke:#c61bc6;" x="535.796458" xlink:href="#mf030ddf202" y="146.884312"/>
     <use style="fill:#c61bc6;stroke:#c61bc6;" x="600.837417" xlink:href="#mf030ddf202" y="241.675284"/>
     <use style="fill:#c61bc6;stroke:#c61bc6;" x="635.302191" xlink:href="#mf030ddf202" y="349.481286"/>
     <use style="fill:#c61bc6;stroke:#c61bc6;" x="654.923967" xlink:href="#mf030ddf202" y="460.652471"/>
     <use style="fill:#c61bc6;stroke:#c61bc6;" x="663.500371" xlink:href="#mf030ddf202" y="535.351793"/>
     <use style="fill:#c61bc6;stroke:#c61bc6;" x="667.816197" xlink:href="#mf030ddf202" y="572.699091"/>
    </g>
   </g>
   <g id="line2d_19">
    <path clip-path="url(#p703539bae7)" d="M 426.087915 113.6925 
L 454.014779 116.662117 
L 480.748932 125.002509 
L 505.796175 137.860985 
L 528.662311 154.384854 
L 548.967354 173.78024 
L 566.788165 195.488512 
L 582.315818 219.009856 
L 595.741386 243.844456 
L 607.265069 269.550667 
L 617.123571 295.919539 
L 625.562724 322.800293 
L 632.828358 350.04215 
L 639.14639 377.512982 
L 644.663075 405.155274 
L 649.504756 432.930158 
L 653.797772 460.798771 
L 657.665437 488.7264 
L 661.218949 516.694955 
L 664.566479 544.690498 
L 667.816197 572.699091 
" style="fill:none;stroke:#6f819f;stroke-linecap:square;stroke-width:1.5;"/>
   </g>
   <g id="line2d_20">
    <path clip-path="url(#p703539bae7)" d="M 426.087915 113.6925 
L 464.010464 113.6925 
L 534.693761 151.281668 
L 590.48047 251.952479 
L 615.68544 362.186809 
L 627.916156 474.456628 
L 632.182704 549.552598 
L 634.353522 587.106936 
" style="fill:none;stroke:#adcc25;stroke-dasharray:9.6,2.4,1.5,2.4;stroke-dashoffset:0;stroke-width:1.5;"/>
    <defs>
     <path d="M 0 3 
C 0.795609 3 1.55874 2.683901 2.12132 2.12132 
C 2.683901 1.55874 3 0.795609 3 0 
C 3 -0.795609 2.683901 -1.55874 2.12132 -2.12132 
C 1.55874 -2.683901 0.795609 -3 0 -3 
C -0.795609 -3 -1.55874 -2.683901 -2.12132 -2.12132 
C -2.683901 -1.55874 -3 -0.795609 -3 0 
C -3 0.795609 -2.683901 1.55874 -2.12132 2.12132 
C -1.55874 2.683901 -0.795609 3 0 3 
z
" id="m808aebb0fd" style="stroke:#adcc25;"/>
    </defs>
    <g clip-path="url(#p703539bae7)">
     <use style="fill:#adcc25;stroke:#adcc25;" x="426.087915" xlink:href="#m808aebb0fd" y="113.6925"/>
     <use style="fill:#adcc25;stroke:#adcc25;" x="464.010464" xlink:href="#m808aebb0fd" y="113.6925"/>
     <use style="fill:#adcc25;stroke:#adcc25;" x="534.693761" xlink:href="#m808aebb0fd" y="151.281668"/>
     <use style="fill:#adcc25;stroke:#adcc25;" x="590.48047" xlink:href="#m808aebb0fd" y="251.952479"/>
     <use style="fill:#adcc25;stroke:#adcc25;" x="615.68544" xlink:href="#m808aebb0fd" y="362.186809"/>
     <use style="fill:#adcc25;stroke:#adcc25;" x="627.916156" xlink:href="#m808aebb0fd" y="474.456628"/>
     <use style="fill:#adcc25;stroke:#adcc25;" x="632.182704" xlink:href="#m808aebb0fd" y="549.552598"/>
     <use style="fill:#adcc25;stroke:#adcc25;" x="634.353522" xlink:href="#m808aebb0fd" y="587.106936"/>
    </g>
   </g>
   <g id="line2d_21">
    <path clip-path="url(#p703539bae7)" d="M 426.087915 113.6925 
L 453.955406 117.03815 
L 480.312046 126.361762 
L 504.614822 140.593329 
L 526.320722 158.662845 
L 545.028422 179.58821 
L 560.903366 202.738961 
L 574.252685 227.572542 
L 585.383513 253.546399 
L 594.597647 280.188797 
L 602.175538 307.31129 
L 608.392305 334.796252 
L 613.523064 362.526057 
L 617.815682 390.398358 
L 621.409024 418.371919 
L 624.414705 446.42078 
L 626.94434 474.518984 
L 629.106713 502.644022 
L 630.999283 530.787194 
L 632.716677 558.943249 
L 634.353522 587.106936 
" style="fill:none;stroke:#e3e4d5;stroke-linecap:square;stroke-width:1.5;"/>
   </g>
   <g id="line2d_22">
    <path clip-path="url(#p703539bae7)" d="M 426.087915 113.6925 
L 464.10152 113.6925 
L 533.807931 154.028153 
L 584.693124 257.116942 
L 608.101772 367.635356 
L 621.325553 479.874828 
L 627.130497 554.908154 
L 630.076873 592.440646 
" style="fill:none;stroke:#a80417;stroke-dasharray:9.6,2.4,1.5,2.4;stroke-dashoffset:0;stroke-width:1.5;"/>
    <defs>
     <path d="M 0 3 
C 0.795609 3 1.55874 2.683901 2.12132 2.12132 
C 2.683901 1.55874 3 0.795609 3 0 
C 3 -0.795609 2.683901 -1.55874 2.12132 -2.12132 
C 1.55874 -2.683901 0.795609 -3 0 -3 
C -0.795609 -3 -1.55874 -2.683901 -2.12132 -2.12132 
C -2.683901 -1.55874 -3 -0.795609 -3 0 
C -3 0.795609 -2.683901 1.55874 -2.12132 2.12132 
C -1.55874 2.683901 -0.795609 3 0 3 
z
" id="m0162ee69c7" style="stroke:#a80417;"/>
    </defs>
    <g clip-path="url(#p703539bae7)">
     <use style="fill:#a80417;stroke:#a80417;" x="426.087915" xlink:href="#m0162ee69c7" y="113.6925"/>
     <use style="fill:#a80417;stroke:#a80417;" x="464.10152" xlink:href="#m0162ee69c7" y="113.6925"/>
     <use style="fill:#a80417;stroke:#a80417;" x="533.807931" xlink:href="#m0162ee69c7" y="154.028153"/>
     <use style="fill:#a80417;stroke:#a80417;" x="584.693124" xlink:href="#m0162ee69c7" y="257.116942"/>
     <use style="fill:#a80417;stroke:#a80417;" x="608.101772" xlink:href="#m0162ee69c7" y="367.635356"/>
     <use style="fill:#a80417;stroke:#a80417;" x="621.325553" xlink:href="#m0162ee69c7" y="479.874828"/>
     <use style="fill:#a80417;stroke:#a80417;" x="627.130497" xlink:href="#m0162ee69c7" y="554.908154"/>
     <use style="fill:#a80417;stroke:#a80417;" x="630.076873" xlink:href="#m0162ee69c7" y="592.440646"/>
    </g>
   </g>
   <g id="line2d_23">
    <path clip-path="url(#p703539bae7)" d="M 426.087915 113.6925 
L 453.915148 117.269744 
L 480.014856 127.184585 
L 503.844663 142.211685 
L 524.862194 161.125704 
L 542.683693 182.813978 
L 557.559882 206.614525 
L 569.900104 231.978039 
L 580.1137 258.355213 
L 588.586818 285.273423 
L 595.612835 312.566788 
L 601.461933 340.146112 
L 606.404294 367.922199 
L 610.679832 395.817045 
L 614.407387 423.797417 
L 617.675528 451.841275 
L 620.572825 479.926581 
L 623.185536 508.034406 
L 625.590658 536.15827 
L 627.862876 564.294806 
L 630.076873 592.440646 
" style="fill:none;stroke:#34ac7f;stroke-linecap:square;stroke-width:1.5;"/>
   </g>
   <g id="line2d_24">
    <path clip-path="url(#p703539bae7)" d="M 426.087915 113.6925 
L 464.221451 113.6925 
L 532.624099 157.927048 
L 574.261067 265.308626 
L 588.363944 377.3831 
L 592.933176 490.422708 
L 593.229912 565.729941 
L 593.42382 603.413209 
" style="fill:none;stroke:#b26200;stroke-dasharray:9.6,2.4,1.5,2.4;stroke-dashoffset:0;stroke-width:1.5;"/>
    <defs>
     <path d="M 0 3 
C 0.795609 3 1.55874 2.683901 2.12132 2.12132 
C 2.683901 1.55874 3 0.795609 3 0 
C 3 -0.795609 2.683901 -1.55874 2.12132 -2.12132 
C 1.55874 -2.683901 0.795609 -3 0 -3 
C -0.795609 -3 -1.55874 -2.683901 -2.12132 -2.12132 
C -2.683901 -1.55874 -3 -0.795609 -3 0 
C -3 0.795609 -2.683901 1.55874 -2.12132 2.12132 
C -1.55874 2.683901 -0.795609 3 0 3 
z
" id="mad042e5697" style="stroke:#b26200;"/>
    </defs>
    <g clip-path="url(#p703539bae7)">
     <use style="fill:#b26200;stroke:#b26200;" x="426.087915" xlink:href="#mad042e5697" y="113.6925"/>
     <use style="fill:#b26200;stroke:#b26200;" x="464.221451" xlink:href="#mad042e5697" y="113.6925"/>
     <use style="fill:#b26200;stroke:#b26200;" x="532.624099" xlink:href="#mad042e5697" y="157.927048"/>
     <use style="fill:#b26200;stroke:#b26200;" x="574.261067" xlink:href="#mad042e5697" y="265.308626"/>
     <use style="fill:#b26200;stroke:#b26200;" x="588.363944" xlink:href="#mad042e5697" y="377.3831"/>
     <use style="fill:#b26200;stroke:#b26200;" x="592.933176" xlink:href="#mad042e5697" y="490.422708"/>
     <use style="fill:#b26200;stroke:#b26200;" x="593.229912" xlink:href="#mad042e5697" y="565.729941"/>
     <use style="fill:#b26200;stroke:#b26200;" x="593.42382" xlink:href="#mad042e5697" y="603.413209"/>
    </g>
   </g>
   <g id="line2d_25">
    <path clip-path="url(#p703539bae7)" d="M 426.087915 113.6925 
L 453.85345 117.600755 
L 479.560441 128.370583 
L 502.624923 144.56958 
L 522.462932 164.765341 
L 538.674896 187.669568 
L 551.598811 212.570392 
L 561.757066 238.900049 
L 569.672052 266.090775 
L 575.825969 293.659727 
L 580.540261 321.463739 
L 584.096187 349.444564 
L 586.775003 377.543956 
L 588.825177 405.710658 
L 590.364023 433.92137 
L 591.476063 462.159782 
L 592.245821 490.409582 
L 592.755186 518.657846 
L 593.075501 546.905198 
L 593.275476 575.155649 
L 593.42382 603.413209 
" style="fill:none;stroke:#89dffa;stroke-linecap:square;stroke-width:1.5;"/>
   </g>
   <g id="line2d_26">
    <path clip-path="url(#p703539bae7)" d="M 426.087915 113.6925 
L 464.317556 113.6925 
L 531.679909 160.515252 
L 567.765709 269.869975 
L 578.420984 382.271112 
L 580.665544 495.463395 
L 579.802255 570.79367 
L 579.413827 608.500191 
" style="fill:none;stroke:#12afa4;stroke-dasharray:9.6,2.4,1.5,2.4;stroke-dashoffset:0;stroke-width:1.5;"/>
    <defs>
     <path d="M 0 3 
C 0.795609 3 1.55874 2.683901 2.12132 2.12132 
C 2.683901 1.55874 3 0.795609 3 0 
C 3 -0.795609 2.683901 -1.55874 2.12132 -2.12132 
C 1.55874 -2.683901 0.795609 -3 0 -3 
C -0.795609 -3 -1.55874 -2.683901 -2.12132 -2.12132 
C -2.683901 -1.55874 -3 -0.795609 -3 0 
C -3 0.795609 -2.683901 1.55874 -2.12132 2.12132 
C -1.55874 2.683901 -0.795609 3 0 3 
z
" id="m20d7299414" style="stroke:#12afa4;"/>
    </defs>
    <g clip-path="url(#p703539bae7)">
     <use style="fill:#12afa4;stroke:#12afa4;" x="426.087915" xlink:href="#m20d7299414" y="113.6925"/>
     <use style="fill:#12afa4;stroke:#12afa4;" x="464.317556" xlink:href="#m20d7299414" y="113.6925"/>
     <use style="fill:#12afa4;stroke:#12afa4;" x="531.679909" xlink:href="#m20d7299414" y="160.515252"/>
     <use style="fill:#12afa4;stroke:#12afa4;" x="567.765709" xlink:href="#m20d7299414" y="269.869975"/>
     <use style="fill:#12afa4;stroke:#12afa4;" x="578.420984" xlink:href="#m20d7299414" y="382.271112"/>
     <use style="fill:#12afa4;stroke:#12afa4;" x="580.665544" xlink:href="#m20d7299414" y="495.463395"/>
     <use style="fill:#12afa4;stroke:#12afa4;" x="579.802255" xlink:href="#m20d7299414" y="570.79367"/>
     <use style="fill:#12afa4;stroke:#12afa4;" x="579.413827" xlink:href="#m20d7299414" y="608.500191"/>
    </g>
   </g>
   <g id="line2d_27">
    <path clip-path="url(#p703539bae7)" d="M 426.087915 113.6925 
L 453.809218 117.818207 
L 479.2363 129.139622 
L 501.780617 146.073189 
L 520.853621 167.035351 
L 536.067793 190.612533 
L 547.83972 216.071093 
L 556.787014 242.847372 
L 563.527288 270.37771 
L 568.619541 298.18652 
L 572.388321 326.150493 
L 575.099561 354.234388 
L 577.019198 382.40297 
L 578.381528 410.624297 
L 579.294302 438.879634 
L 579.833631 467.153542 
L 580.075629 495.430583 
L 580.093615 523.699052 
L 579.94974 551.962173 
L 579.703358 580.2269 
L 579.413827 608.500191 
" style="fill:none;stroke:#683db0;stroke-linecap:square;stroke-width:1.5;"/>
   </g>
   <g id="line2d_28">
    <path clip-path="url(#p703539bae7)" d="M 426.087915 113.6925 
L 464.409097 113.6925 
L 530.784585 162.780403 
L 562.06429 273.570002 
L 570.513411 386.120029 
L 571.72629 499.40265 
L 570.657103 574.740247 
L 570.160437 612.46141 
" style="fill:none;stroke:#8f04ee;stroke-dasharray:9.6,2.4,1.5,2.4;stroke-dashoffset:0;stroke-width:1.5;"/>
    <defs>
     <path d="M 0 3 
C 0.795609 3 1.55874 2.683901 2.12132 2.12132 
C 2.683901 1.55874 3 0.795609 3 0 
C 3 -0.795609 2.683901 -1.55874 2.12132 -2.12132 
C 1.55874 -2.683901 0.795609 -3 0 -3 
C -0.795609 -3 -1.55874 -2.683901 -2.12132 -2.12132 
C -2.683901 -1.55874 -3 -0.795609 -3 0 
C -3 0.795609 -2.683901 1.55874 -2.12132 2.12132 
C -1.55874 2.683901 -0.795609 3 0 3 
z
" id="mc14b52d0ae" style="stroke:#8f04ee;"/>
    </defs>
    <g clip-path="url(#p703539bae7)">
     <use style="fill:#8f04ee;stroke:#8f04ee;" x="426.087915" xlink:href="#mc14b52d0ae" y="113.6925"/>
     <use style="fill:#8f04ee;stroke:#8f04ee;" x="464.409097" xlink:href="#mc14b52d0ae" y="113.6925"/>
     <use style="fill:#8f04ee;stroke:#8f04ee;" x="530.784585" xlink:href="#mc14b52d0ae" y="162.780403"/>
     <use style="fill:#8f04ee;stroke:#8f04ee;" x="562.06429" xlink:href="#mc14b52d0ae" y="273.570002"/>
     <use style="fill:#8f04ee;stroke:#8f04ee;" x="570.513411" xlink:href="#mc14b52d0ae" y="386.120029"/>
     <use style="fill:#8f04ee;stroke:#8f04ee;" x="571.72629" xlink:href="#mc14b52d0ae" y="499.40265"/>
     <use style="fill:#8f04ee;stroke:#8f04ee;" x="570.657103" xlink:href="#mc14b52d0ae" y="574.740247"/>
     <use style="fill:#8f04ee;stroke:#8f04ee;" x="570.160437" xlink:href="#mc14b52d0ae" y="612.46141"/>
    </g>
   </g>
   <g id="line2d_29">
    <path clip-path="url(#p703539bae7)" d="M 426.087915 113.6925 
L 453.76867 118.007757 
L 478.938716 129.806589 
L 501.012382 147.368593 
L 519.403997 168.973361 
L 533.743871 193.095041 
L 544.526227 218.985998 
L 552.461266 246.093148 
L 558.259192 273.863407 
L 562.55245 301.833197 
L 565.662458 329.896954 
L 567.832878 358.038617 
L 569.307371 386.242128 
L 570.300497 414.491475 
L 570.910415 442.770847 
L 571.206179 471.06448 
L 571.256847 499.356612 
L 571.127891 527.635645 
L 570.87046 555.906639 
L 570.53212 584.178818 
L 570.160437 612.46141 
" style="fill:none;stroke:#b1ab78;stroke-linecap:square;stroke-width:1.5;"/>
   </g>
   <g id="line2d_30">
    <path clip-path="url(#p703539bae7)" d="M 426.087915 113.6925 
L 464.494752 113.6925 
L 529.941343 164.793778 
L 556.876137 276.68947 
L 563.426471 389.339472 
L 563.422443 502.700272 
L 561.85847 578.046907 
L 561.106442 615.782177 
" style="fill:none;stroke:#e76d47;stroke-dasharray:9.6,2.4,1.5,2.4;stroke-dashoffset:0;stroke-width:1.5;"/>
    <defs>
     <path d="M 0 3 
C 0.795609 3 1.55874 2.683901 2.12132 2.12132 
C 2.683901 1.55874 3 0.795609 3 0 
C 3 -0.795609 2.683901 -1.55874 2.12132 -2.12132 
C 1.55874 -2.683901 0.795609 -3 0 -3 
C -0.795609 -3 -1.55874 -2.683901 -2.12132 -2.12132 
C -2.683901 -1.55874 -3 -0.795609 -3 0 
C -3 0.795609 -2.683901 1.55874 -2.12132 2.12132 
C -1.55874 2.683901 -0.795609 3 0 3 
z
" id="m4872e957d5" style="stroke:#e76d47;"/>
    </defs>
    <g clip-path="url(#p703539bae7)">
     <use style="fill:#e76d47;stroke:#e76d47;" x="426.087915" xlink:href="#m4872e957d5" y="113.6925"/>
     <use style="fill:#e76d47;stroke:#e76d47;" x="464.494752" xlink:href="#m4872e957d5" y="113.6925"/>
     <use style="fill:#e76d47;stroke:#e76d47;" x="529.941343" xlink:href="#m4872e957d5" y="164.793778"/>
     <use style="fill:#e76d47;stroke:#e76d47;" x="556.876137" xlink:href="#m4872e957d5" y="276.68947"/>
     <use style="fill:#e76d47;stroke:#e76d47;" x="563.426471" xlink:href="#m4872e957d5" y="389.339472"/>
     <use style="fill:#e76d47;stroke:#e76d47;" x="563.422443" xlink:href="#m4872e957d5" y="502.700272"/>
     <use style="fill:#e76d47;stroke:#e76d47;" x="561.85847" xlink:href="#m4872e957d5" y="578.046907"/>
     <use style="fill:#e76d47;stroke:#e76d47;" x="561.106442" xlink:href="#m4872e957d5" y="615.782177"/>
    </g>
   </g>
   <g id="line2d_31">
    <path clip-path="url(#p703539bae7)" d="M 426.087915 113.6925 
L 453.730676 118.175797 
L 478.661893 130.395895 
L 500.301349 148.508106 
L 518.068828 170.667741 
L 531.613239 195.247743 
L 541.499999 221.491584 
L 548.523648 248.860365 
L 553.478727 276.815188 
L 557.06337 304.906859 
L 559.590079 333.044994 
L 561.27495 361.228914 
L 562.334078 389.457938 
L 562.958512 417.728762 
L 563.239118 446.027579 
L 563.241714 474.337957 
L 563.032121 502.643464 
L 562.671754 530.932262 
L 562.204418 559.210891 
L 561.669513 587.490485 
L 561.106442 615.782177 
" style="fill:none;stroke:#21cbfc;stroke-linecap:square;stroke-width:1.5;"/>
   </g>
   <g id="line2d_32">
    <path clip-path="url(#p703539bae7)" d="M 426.087915 113.6925 
L 464.575945 113.6925 
L 529.138871 166.618704 
L 552.083227 279.383809 
L 557.036348 392.115485 
L 555.866263 505.560778 
L 553.787914 580.931829 
L 552.768508 618.687597 
" style="fill:none;stroke:#a89abd;stroke-dasharray:9.6,2.4,1.5,2.4;stroke-dashoffset:0;stroke-width:1.5;"/>
    <defs>
     <path d="M 0 3 
C 0.795609 3 1.55874 2.683901 2.12132 2.12132 
C 2.683901 1.55874 3 0.795609 3 0 
C 3 -0.795609 2.683901 -1.55874 2.12132 -2.12132 
C 1.55874 -2.683901 0.795609 -3 0 -3 
C -0.795609 -3 -1.55874 -2.683901 -2.12132 -2.12132 
C -2.683901 -1.55874 -3 -0.795609 -3 0 
C -3 0.795609 -2.683901 1.55874 -2.12132 2.12132 
C -1.55874 2.683901 -0.795609 3 0 3 
z
" id="ma5483b5371" style="stroke:#a89abd;"/>
    </defs>
    <g clip-path="url(#p703539bae7)">
     <use style="fill:#a89abd;stroke:#a89abd;" x="426.087915" xlink:href="#ma5483b5371" y="113.6925"/>
     <use style="fill:#a89abd;stroke:#a89abd;" x="464.575945" xlink:href="#ma5483b5371" y="113.6925"/>
     <use style="fill:#a89abd;stroke:#a89abd;" x="529.138871" xlink:href="#ma5483b5371" y="166.618704"/>
     <use style="fill:#a89abd;stroke:#a89abd;" x="552.083227" xlink:href="#ma5483b5371" y="279.383809"/>
     <use style="fill:#a89abd;stroke:#a89abd;" x="557.036348" xlink:href="#ma5483b5371" y="392.115485"/>
     <use style="fill:#a89abd;stroke:#a89abd;" x="555.866263" xlink:href="#ma5483b5371" y="505.560778"/>
     <use style="fill:#a89abd;stroke:#a89abd;" x="553.787914" xlink:href="#ma5483b5371" y="580.931829"/>
     <use style="fill:#a89abd;stroke:#a89abd;" x="552.768508" xlink:href="#ma5483b5371" y="618.687597"/>
    </g>
   </g>
   <g id="line2d_33">
    <path clip-path="url(#p703539bae7)" d="M 426.087915 113.6925 
L 453.694736 118.327762 
L 478.401271 130.927268 
L 499.6347 149.531599 
L 516.822199 172.181337 
L 529.632012 197.156629 
L 538.696647 223.695889 
L 544.889681 251.277099 
L 549.084688 279.378238 
L 552.040553 307.566236 
L 554.057403 335.763818 
L 555.320678 363.982655 
L 556.015814 392.234421 
L 556.308217 420.525972 
L 556.283167 448.844901 
L 556.005909 477.173982 
L 555.54169 505.495992 
L 554.950262 533.798688 
L 554.269401 562.089748 
L 553.531389 590.381831 
L 552.768508 618.687597 
" style="fill:none;stroke:#ae7867;stroke-linecap:square;stroke-width:1.5;"/>
   </g>
   <g id="line2d_34">
    <path clip-path="url(#p703539bae7)" d="M 426.087915 113.6925 
L 464.653055 113.6925 
L 528.37528 168.27922 
L 547.662314 281.72095 
L 551.355204 394.52074 
L 549.225725 508.050254 
L 546.757675 583.454924 
L 545.531636 621.234413 
" style="fill:none;stroke:#1c7664;stroke-dasharray:9.6,2.4,1.5,2.4;stroke-dashoffset:0;stroke-width:1.5;"/>
    <defs>
     <path d="M 0 3 
C 0.795609 3 1.55874 2.683901 2.12132 2.12132 
C 2.683901 1.55874 3 0.795609 3 0 
C 3 -0.795609 2.683901 -1.55874 2.12132 -2.12132 
C 1.55874 -2.683901 0.795609 -3 0 -3 
C -0.795609 -3 -1.55874 -2.683901 -2.12132 -2.12132 
C -2.683901 -1.55874 -3 -0.795609 -3 0 
C -3 0.795609 -2.683901 1.55874 -2.12132 2.12132 
C -1.55874 2.683901 -0.795609 3 0 3 
z
" id="m63b9cb214b" style="stroke:#1c7664;"/>
    </defs>
    <g clip-path="url(#p703539bae7)">
     <use style="fill:#1c7664;stroke:#1c7664;" x="426.087915" xlink:href="#m63b9cb214b" y="113.6925"/>
     <use style="fill:#1c7664;stroke:#1c7664;" x="464.653055" xlink:href="#m63b9cb214b" y="113.6925"/>
     <use style="fill:#1c7664;stroke:#1c7664;" x="528.37528" xlink:href="#m63b9cb214b" y="168.27922"/>
     <use style="fill:#1c7664;stroke:#1c7664;" x="547.662314" xlink:href="#m63b9cb214b" y="281.72095"/>
     <use style="fill:#1c7664;stroke:#1c7664;" x="551.355204" xlink:href="#m63b9cb214b" y="394.52074"/>
     <use style="fill:#1c7664;stroke:#1c7664;" x="549.225725" xlink:href="#m63b9cb214b" y="508.050254"/>
     <use style="fill:#1c7664;stroke:#1c7664;" x="546.757675" xlink:href="#m63b9cb214b" y="583.454924"/>
     <use style="fill:#1c7664;stroke:#1c7664;" x="545.531636" xlink:href="#m63b9cb214b" y="621.234413"/>
    </g>
   </g>
   <g id="line2d_35">
    <path clip-path="url(#p703539bae7)" d="M 426.087915 113.6925 
L 453.660827 118.465738 
L 478.156102 131.408384 
L 499.010112 150.454837 
L 515.65923 173.539495 
L 527.791845 198.85716 
L 536.104413 225.644246 
L 541.545404 253.397573 
L 545.06329 281.61396 
L 547.473911 309.877661 
L 549.062581 338.122674 
L 549.981986 366.370429 
L 550.384809 394.642361 
L 550.409354 422.953327 
L 550.136403 451.291897 
L 549.632359 479.640068 
L 548.963626 507.979836 
L 548.189758 536.298503 
L 547.342924 564.604598 
L 546.448443 592.911957 
L 545.531636 621.234413 
" style="fill:none;stroke:#1bdcc9;stroke-linecap:square;stroke-width:1.5;"/>
   </g>
   <g id="line2d_36">
    <path clip-path="url(#p703539bae7)" d="M 426.087915 113.6925 
L 464.726049 113.6925 
L 527.651565 169.788698 
L 543.601048 283.748206 
L 546.337859 396.603675 
L 543.455963 510.206444 
L 540.720729 585.644236 
L 539.34837 623.445717 
" style="fill:none;stroke:#7ded1b;stroke-dasharray:9.6,2.4,1.5,2.4;stroke-dashoffset:0;stroke-width:1.5;"/>
    <defs>
     <path d="M 0 3 
C 0.795609 3 1.55874 2.683901 2.12132 2.12132 
C 2.683901 1.55874 3 0.795609 3 0 
C 3 -0.795609 2.683901 -1.55874 2.12132 -2.12132 
C 1.55874 -2.683901 0.795609 -3 0 -3 
C -0.795609 -3 -1.55874 -2.683901 -2.12132 -2.12132 
C -2.683901 -1.55874 -3 -0.795609 -3 0 
C -3 0.795609 -2.683901 1.55874 -2.12132 2.12132 
C -1.55874 2.683901 -0.795609 3 0 3 
z
" id="m808470bbb2" style="stroke:#7ded1b;"/>
    </defs>
    <g clip-path="url(#p703539bae7)">
     <use style="fill:#7ded1b;stroke:#7ded1b;" x="426.087915" xlink:href="#m808470bbb2" y="113.6925"/>
     <use style="fill:#7ded1b;stroke:#7ded1b;" x="464.726049" xlink:href="#m808470bbb2" y="113.6925"/>
     <use style="fill:#7ded1b;stroke:#7ded1b;" x="527.651565" xlink:href="#m808470bbb2" y="169.788698"/>
     <use style="fill:#7ded1b;stroke:#7ded1b;" x="543.601048" xlink:href="#m808470bbb2" y="283.748206"/>
     <use style="fill:#7ded1b;stroke:#7ded1b;" x="546.337859" xlink:href="#m808470bbb2" y="396.603675"/>
     <use style="fill:#7ded1b;stroke:#7ded1b;" x="543.455963" xlink:href="#m808470bbb2" y="510.206444"/>
     <use style="fill:#7ded1b;stroke:#7ded1b;" x="540.720729" xlink:href="#m808470bbb2" y="585.644236"/>
     <use style="fill:#7ded1b;stroke:#7ded1b;" x="539.34837" xlink:href="#m808470bbb2" y="623.445717"/>
    </g>
   </g>
   <g id="line2d_37">
    <path clip-path="url(#p703539bae7)" d="M 426.087915 113.6925 
L 453.62898 118.590911 
L 477.926364 131.843712 
L 498.427154 151.287257 
L 514.578433 174.7579 
L 526.0893 200.372082 
L 533.716901 227.366601 
L 538.480394 255.258345 
L 541.398936 283.5642 
L 543.341603 311.886392 
L 544.577133 340.168509 
L 545.224183 368.439477 
L 545.401408 396.728225 
L 545.21914 425.05575 
L 544.754418 453.411335 
L 544.075956 481.776333 
L 543.25247 510.132097 
L 542.344328 538.465541 
L 541.378508 566.785817 
L 540.373645 595.107639 
L 539.34837 623.445717 
" style="fill:none;stroke:#02817b;stroke-linecap:square;stroke-width:1.5;"/>
   </g>
   <g id="line2d_38">
    <path clip-path="url(#p703539bae7)" d="M 426.087915 113.6925 
L 464.79524 113.6925 
L 526.964603 171.169711 
L 539.845151 285.525743 
L 541.83076 398.434202 
L 538.307183 512.103059 
L 535.356913 587.574852 
L 533.863676 625.397364 
" style="fill:none;stroke:#5d53fb;stroke-dasharray:9.6,2.4,1.5,2.4;stroke-dashoffset:0;stroke-width:1.5;"/>
    <defs>
     <path d="M 0 3 
C 0.795609 3 1.55874 2.683901 2.12132 2.12132 
C 2.683901 1.55874 3 0.795609 3 0 
C 3 -0.795609 2.683901 -1.55874 2.12132 -2.12132 
C 1.55874 -2.683901 0.795609 -3 0 -3 
C -0.795609 -3 -1.55874 -2.683901 -2.12132 -2.12132 
C -2.683901 -1.55874 -3 -0.795609 -3 0 
C -3 0.795609 -2.683901 1.55874 -2.12132 2.12132 
C -1.55874 2.683901 -0.795609 3 0 3 
z
" id="m905e5fad62" style="stroke:#5d53fb;"/>
    </defs>
    <g clip-path="url(#p703539bae7)">
     <use style="fill:#5d53fb;stroke:#5d53fb;" x="426.087915" xlink:href="#m905e5fad62" y="113.6925"/>
     <use style="fill:#5d53fb;stroke:#5d53fb;" x="464.79524" xlink:href="#m905e5fad62" y="113.6925"/>
     <use style="fill:#5d53fb;stroke:#5d53fb;" x="526.964603" xlink:href="#m905e5fad62" y="171.169711"/>
     <use style="fill:#5d53fb;stroke:#5d53fb;" x="539.845151" xlink:href="#m905e5fad62" y="285.525743"/>
     <use style="fill:#5d53fb;stroke:#5d53fb;" x="541.83076" xlink:href="#m905e5fad62" y="398.434202"/>
     <use style="fill:#5d53fb;stroke:#5d53fb;" x="538.307183" xlink:href="#m905e5fad62" y="512.103059"/>
     <use style="fill:#5d53fb;stroke:#5d53fb;" x="535.356913" xlink:href="#m905e5fad62" y="587.574852"/>
     <use style="fill:#5d53fb;stroke:#5d53fb;" x="533.863676" xlink:href="#m905e5fad62" y="625.397364"/>
    </g>
   </g>
   <g id="line2d_39">
    <path clip-path="url(#p703539bae7)" d="M 426.087915 113.6925 
L 453.598961 118.70523 
L 477.710302 132.240383 
L 497.880727 152.043407 
L 513.56902 175.859747 
L 524.505106 201.733558 
L 531.503451 228.903824 
L 535.649658 256.908234 
L 538.029328 285.284481 
L 539.561156 313.653055 
L 540.496203 341.965656 
L 540.918621 370.256783 
L 540.912562 398.560935 
L 540.560153 426.903681 
L 539.935409 455.274864 
L 539.110321 483.655399 
L 538.156879 512.026198 
L 537.137139 540.373909 
L 536.07343 568.708123 
L 534.978144 597.044166 
L 533.863676 625.397364 
" style="fill:none;stroke:#af5438;stroke-linecap:square;stroke-width:1.5;"/>
   </g>
   <g id="line2d_40">
    <path clip-path="url(#p703539bae7)" d="M 426.087915 113.6925 
L 464.86098 113.6925 
L 526.311279 172.440064 
L 536.355877 287.097752 
L 537.744596 400.061215 
L 533.660753 513.79162 
L 530.532021 589.299302 
L 528.935797 627.1425 
" style="fill:none;stroke:#030dfe;stroke-dasharray:9.6,2.4,1.5,2.4;stroke-dashoffset:0;stroke-width:1.5;"/>
    <defs>
     <path d="M 0 3 
C 0.795609 3 1.55874 2.683901 2.12132 2.12132 
C 2.683901 1.55874 3 0.795609 3 0 
C 3 -0.795609 2.683901 -1.55874 2.12132 -2.12132 
C 1.55874 -2.683901 0.795609 -3 0 -3 
C -0.795609 -3 -1.55874 -2.683901 -2.12132 -2.12132 
C -2.683901 -1.55874 -3 -0.795609 -3 0 
C -3 0.795609 -2.683901 1.55874 -2.12132 2.12132 
C -1.55874 2.683901 -0.795609 3 0 3 
z
" id="m4663dd05f7" style="stroke:#030dfe;"/>
    </defs>
    <g clip-path="url(#p703539bae7)">
     <use style="fill:#030dfe;stroke:#030dfe;" x="426.087915" xlink:href="#m4663dd05f7" y="113.6925"/>
     <use style="fill:#030dfe;stroke:#030dfe;" x="464.86098" xlink:href="#m4663dd05f7" y="113.6925"/>
     <use style="fill:#030dfe;stroke:#030dfe;" x="526.311279" xlink:href="#m4663dd05f7" y="172.440064"/>
     <use style="fill:#030dfe;stroke:#030dfe;" x="536.355877" xlink:href="#m4663dd05f7" y="287.097752"/>
     <use style="fill:#030dfe;stroke:#030dfe;" x="537.744596" xlink:href="#m4663dd05f7" y="400.061215"/>
     <use style="fill:#030dfe;stroke:#030dfe;" x="533.660753" xlink:href="#m4663dd05f7" y="513.79162"/>
     <use style="fill:#030dfe;stroke:#030dfe;" x="530.532021" xlink:href="#m4663dd05f7" y="589.299302"/>
     <use style="fill:#030dfe;stroke:#030dfe;" x="528.935797" xlink:href="#m4663dd05f7" y="627.1425"/>
    </g>
   </g>
   <g id="line2d_41">
    <path clip-path="url(#p703539bae7)" d="M 426.087915 113.6925 
L 453.570596 118.810224 
L 477.506506 132.603954 
L 497.366843 152.734529 
L 512.622804 176.862788 
L 523.025062 202.96591 
L 529.442188 230.286452 
L 533.022228 258.38331 
L 534.91323 286.815381 
L 536.080189 315.22149 
L 536.755894 343.560165 
L 536.990085 371.869863 
L 536.832502 400.189039 
L 536.337259 428.546521 
L 535.57597 456.932627 
L 534.624624 485.328048 
L 533.55921 513.713473 
L 532.444142 542.075429 
L 531.297529 570.423783 
L 530.125903 598.774239 
L 528.935797 627.1425 
" style="fill:none;stroke:#3d963e;stroke-linecap:square;stroke-width:1.5;"/>
   </g>
   <g id="patch_3">
    <path d="M 397.933269 652.815 
L 397.933269 88.02 
" style="fill:none;stroke:#000000;stroke-linecap:square;stroke-linejoin:miter;stroke-width:0.8;"/>
   </g>
   <g id="patch_4">
    <path d="M 1017.335481 652.815 
L 1017.335481 88.02 
" style="fill:none;stroke:#000000;stroke-linecap:square;stroke-linejoin:miter;stroke-width:0.8;"/>
   </g>
   <g id="patch_5">
    <path d="M 397.933269 652.815 
L 1017.335481 652.815 
" style="fill:none;stroke:#000000;stroke-linecap:square;stroke-linejoin:miter;stroke-width:0.8;"/>
   </g>
   <g id="patch_6">
    <path d="M 397.933269 88.02 
L 1017.335481 88.02 
" style="fill:none;stroke:#000000;stroke-linecap:square;stroke-linejoin:miter;stroke-width:0.8;"/>
   </g>
  </g>
 </g>
 <defs>
  <clipPath id="p703539bae7">
   <rect height="564.795" width="619.402213" x="397.933269" y="88.02"/>
  </clipPath>
 </defs>
</svg>
