<?xml version="1.0" encoding="utf-8" standalone="no"?>
<!DOCTYPE svg PUBLIC "-//W3C//DTD SVG 1.1//EN"
  "http://www.w3.org/Graphics/SVG/1.1/DTD/svg11.dtd">
<!-- Created with matplotlib (http://matplotlib.org/) -->
<svg height="733.5pt" version="1.1" viewBox="0 0 1380.75 733.5" width="1380.75pt" xmlns="http://www.w3.org/2000/svg" xmlns:xlink="http://www.w3.org/1999/xlink">
 <defs>
  <style type="text/css">
*{stroke-linecap:butt;stroke-linejoin:round;}
  </style>
 </defs>
 <g id="figure_1">
  <g id="patch_1">
   <path d="M 0 733.5 
L 1380.75 733.5 
L 1380.75 0 
L 0 0 
z
" style="fill:#ffffff;"/>
  </g>
  <g id="axes_1">
   <g id="patch_2">
    <path d="M 337.816543 652.815 
L 1077.452207 652.815 
L 1077.452207 88.02 
L 337.816543 88.02 
z
" style="fill:#ffffff;"/>
   </g>
   <g id="matplotlib.axis_1">
    <g id="xtick_1">
     <g id="line2d_1">
      <defs>
       <path d="M 0 0 
L 0 3.5 
" id="m37cdaa8f09" style="stroke:#000000;stroke-width:0.8;"/>
      </defs>
      <g>
       <use style="stroke:#000000;stroke-width:0.8;" x="371.436346" xlink:href="#m37cdaa8f09" y="652.815"/>
      </g>
     </g>
     <g id="text_1">
      <!-- 0 -->
      <defs>
       <path d="M 31.78125 66.40625 
Q 24.171875 66.40625 20.328125 58.90625 
Q 16.5 51.421875 16.5 36.375 
Q 16.5 21.390625 20.328125 13.890625 
Q 24.171875 6.390625 31.78125 6.390625 
Q 39.453125 6.390625 43.28125 13.890625 
Q 47.125 21.390625 47.125 36.375 
Q 47.125 51.421875 43.28125 58.90625 
Q 39.453125 66.40625 31.78125 66.40625 
z
M 31.78125 74.21875 
Q 44.046875 74.21875 50.515625 64.515625 
Q 56.984375 54.828125 56.984375 36.375 
Q 56.984375 17.96875 50.515625 8.265625 
Q 44.046875 -1.421875 31.78125 -1.421875 
Q 19.53125 -1.421875 13.0625 8.265625 
Q 6.59375 17.96875 6.59375 36.375 
Q 6.59375 54.828125 13.0625 64.515625 
Q 19.53125 74.21875 31.78125 74.21875 
z
" id="DejaVuSans-30"/>
      </defs>
      <g transform="translate(368.255096 667.413437)scale(0.1 -0.1)">
       <use xlink:href="#DejaVuSans-30"/>
      </g>
     </g>
    </g>
    <g id="xtick_2">
     <g id="line2d_2">
      <g>
       <use style="stroke:#000000;stroke-width:0.8;" x="505.915558" xlink:href="#m37cdaa8f09" y="652.815"/>
      </g>
     </g>
     <g id="text_2">
      <!-- 2 -->
      <defs>
       <path d="M 19.1875 8.296875 
L 53.609375 8.296875 
L 53.609375 0 
L 7.328125 0 
L 7.328125 8.296875 
Q 12.9375 14.109375 22.625 23.890625 
Q 32.328125 33.6875 34.8125 36.53125 
Q 39.546875 41.84375 41.421875 45.53125 
Q 43.3125 49.21875 43.3125 52.78125 
Q 43.3125 58.59375 39.234375 62.25 
Q 35.15625 65.921875 28.609375 65.921875 
Q 23.96875 65.921875 18.8125 64.3125 
Q 13.671875 62.703125 7.8125 59.421875 
L 7.8125 69.390625 
Q 13.765625 71.78125 18.9375 73 
Q 24.125 74.21875 28.421875 74.21875 
Q 39.75 74.21875 46.484375 68.546875 
Q 53.21875 62.890625 53.21875 53.421875 
Q 53.21875 48.921875 51.53125 44.890625 
Q 49.859375 40.875 45.40625 35.40625 
Q 44.1875 33.984375 37.640625 27.21875 
Q 31.109375 20.453125 19.1875 8.296875 
z
" id="DejaVuSans-32"/>
      </defs>
      <g transform="translate(502.734308 667.413437)scale(0.1 -0.1)">
       <use xlink:href="#DejaVuSans-32"/>
      </g>
     </g>
    </g>
    <g id="xtick_3">
     <g id="line2d_3">
      <g>
       <use style="stroke:#000000;stroke-width:0.8;" x="640.394769" xlink:href="#m37cdaa8f09" y="652.815"/>
      </g>
     </g>
     <g id="text_3">
      <!-- 4 -->
      <defs>
       <path d="M 37.796875 64.3125 
L 12.890625 25.390625 
L 37.796875 25.390625 
z
M 35.203125 72.90625 
L 47.609375 72.90625 
L 47.609375 25.390625 
L 58.015625 25.390625 
L 58.015625 17.1875 
L 47.609375 17.1875 
L 47.609375 0 
L 37.796875 0 
L 37.796875 17.1875 
L 4.890625 17.1875 
L 4.890625 26.703125 
z
" id="DejaVuSans-34"/>
      </defs>
      <g transform="translate(637.213519 667.413437)scale(0.1 -0.1)">
       <use xlink:href="#DejaVuSans-34"/>
      </g>
     </g>
    </g>
    <g id="xtick_4">
     <g id="line2d_4">
      <g>
       <use style="stroke:#000000;stroke-width:0.8;" x="774.873981" xlink:href="#m37cdaa8f09" y="652.815"/>
      </g>
     </g>
     <g id="text_4">
      <!-- 6 -->
      <defs>
       <path d="M 33.015625 40.375 
Q 26.375 40.375 22.484375 35.828125 
Q 18.609375 31.296875 18.609375 23.390625 
Q 18.609375 15.53125 22.484375 10.953125 
Q 26.375 6.390625 33.015625 6.390625 
Q 39.65625 6.390625 43.53125 10.953125 
Q 47.40625 15.53125 47.40625 23.390625 
Q 47.40625 31.296875 43.53125 35.828125 
Q 39.65625 40.375 33.015625 40.375 
z
M 52.59375 71.296875 
L 52.59375 62.3125 
Q 48.875 64.0625 45.09375 64.984375 
Q 41.3125 65.921875 37.59375 65.921875 
Q 27.828125 65.921875 22.671875 59.328125 
Q 17.53125 52.734375 16.796875 39.40625 
Q 19.671875 43.65625 24.015625 45.921875 
Q 28.375 48.1875 33.59375 48.1875 
Q 44.578125 48.1875 50.953125 41.515625 
Q 57.328125 34.859375 57.328125 23.390625 
Q 57.328125 12.15625 50.6875 5.359375 
Q 44.046875 -1.421875 33.015625 -1.421875 
Q 20.359375 -1.421875 13.671875 8.265625 
Q 6.984375 17.96875 6.984375 36.375 
Q 6.984375 53.65625 15.1875 63.9375 
Q 23.390625 74.21875 37.203125 74.21875 
Q 40.921875 74.21875 44.703125 73.484375 
Q 48.484375 72.75 52.59375 71.296875 
z
" id="DejaVuSans-36"/>
      </defs>
      <g transform="translate(771.692731 667.413437)scale(0.1 -0.1)">
       <use xlink:href="#DejaVuSans-36"/>
      </g>
     </g>
    </g>
    <g id="xtick_5">
     <g id="line2d_5">
      <g>
       <use style="stroke:#000000;stroke-width:0.8;" x="909.353192" xlink:href="#m37cdaa8f09" y="652.815"/>
      </g>
     </g>
     <g id="text_5">
      <!-- 8 -->
      <defs>
       <path d="M 31.78125 34.625 
Q 24.75 34.625 20.71875 30.859375 
Q 16.703125 27.09375 16.703125 20.515625 
Q 16.703125 13.921875 20.71875 10.15625 
Q 24.75 6.390625 31.78125 6.390625 
Q 38.8125 6.390625 42.859375 10.171875 
Q 46.921875 13.96875 46.921875 20.515625 
Q 46.921875 27.09375 42.890625 30.859375 
Q 38.875 34.625 31.78125 34.625 
z
M 21.921875 38.8125 
Q 15.578125 40.375 12.03125 44.71875 
Q 8.5 49.078125 8.5 55.328125 
Q 8.5 64.0625 14.71875 69.140625 
Q 20.953125 74.21875 31.78125 74.21875 
Q 42.671875 74.21875 48.875 69.140625 
Q 55.078125 64.0625 55.078125 55.328125 
Q 55.078125 49.078125 51.53125 44.71875 
Q 48 40.375 41.703125 38.8125 
Q 48.828125 37.15625 52.796875 32.3125 
Q 56.78125 27.484375 56.78125 20.515625 
Q 56.78125 9.90625 50.3125 4.234375 
Q 43.84375 -1.421875 31.78125 -1.421875 
Q 19.734375 -1.421875 13.25 4.234375 
Q 6.78125 9.90625 6.78125 20.515625 
Q 6.78125 27.484375 10.78125 32.3125 
Q 14.796875 37.15625 21.921875 38.8125 
z
M 18.3125 54.390625 
Q 18.3125 48.734375 21.84375 45.5625 
Q 25.390625 42.390625 31.78125 42.390625 
Q 38.140625 42.390625 41.71875 45.5625 
Q 45.3125 48.734375 45.3125 54.390625 
Q 45.3125 60.0625 41.71875 63.234375 
Q 38.140625 66.40625 31.78125 66.40625 
Q 25.390625 66.40625 21.84375 63.234375 
Q 18.3125 60.0625 18.3125 54.390625 
z
" id="DejaVuSans-38"/>
      </defs>
      <g transform="translate(906.171942 667.413437)scale(0.1 -0.1)">
       <use xlink:href="#DejaVuSans-38"/>
      </g>
     </g>
    </g>
    <g id="xtick_6">
     <g id="line2d_6">
      <g>
       <use style="stroke:#000000;stroke-width:0.8;" x="1043.832404" xlink:href="#m37cdaa8f09" y="652.815"/>
      </g>
     </g>
     <g id="text_6">
      <!-- 10 -->
      <defs>
       <path d="M 12.40625 8.296875 
L 28.515625 8.296875 
L 28.515625 63.921875 
L 10.984375 60.40625 
L 10.984375 69.390625 
L 28.421875 72.90625 
L 38.28125 72.90625 
L 38.28125 8.296875 
L 54.390625 8.296875 
L 54.390625 0 
L 12.40625 0 
z
" id="DejaVuSans-31"/>
      </defs>
      <g transform="translate(1037.469904 667.413437)scale(0.1 -0.1)">
       <use xlink:href="#DejaVuSans-31"/>
       <use x="63.623047" xlink:href="#DejaVuSans-30"/>
      </g>
     </g>
    </g>
   </g>
   <g id="matplotlib.axis_2">
    <g id="ytick_1">
     <g id="line2d_7">
      <defs>
       <path d="M 0 0 
L -3.5 0 
" id="mcdc29c82ca" style="stroke:#000000;stroke-width:0.8;"/>
      </defs>
      <g>
       <use style="stroke:#000000;stroke-width:0.8;" x="337.816543" xlink:href="#mcdc29c82ca" y="651.609346"/>
      </g>
     </g>
     <g id="text_7">
      <!-- −8 -->
      <defs>
       <path d="M 10.59375 35.5 
L 73.1875 35.5 
L 73.1875 27.203125 
L 10.59375 27.203125 
z
" id="DejaVuSans-2212"/>
      </defs>
      <g transform="translate(316.074356 655.408565)scale(0.1 -0.1)">
       <use xlink:href="#DejaVuSans-2212"/>
       <use x="83.789062" xlink:href="#DejaVuSans-38"/>
      </g>
     </g>
    </g>
    <g id="ytick_2">
     <g id="line2d_8">
      <g>
       <use style="stroke:#000000;stroke-width:0.8;" x="337.816543" xlink:href="#mcdc29c82ca" y="584.369741"/>
      </g>
     </g>
     <g id="text_8">
      <!-- −7 -->
      <defs>
       <path d="M 8.203125 72.90625 
L 55.078125 72.90625 
L 55.078125 68.703125 
L 28.609375 0 
L 18.3125 0 
L 43.21875 64.59375 
L 8.203125 64.59375 
z
" id="DejaVuSans-37"/>
      </defs>
      <g transform="translate(316.074356 588.168959)scale(0.1 -0.1)">
       <use xlink:href="#DejaVuSans-2212"/>
       <use x="83.789062" xlink:href="#DejaVuSans-37"/>
      </g>
     </g>
    </g>
    <g id="ytick_3">
     <g id="line2d_9">
      <g>
       <use style="stroke:#000000;stroke-width:0.8;" x="337.816543" xlink:href="#mcdc29c82ca" y="517.130135"/>
      </g>
     </g>
     <g id="text_9">
      <!-- −6 -->
      <g transform="translate(316.074356 520.929353)scale(0.1 -0.1)">
       <use xlink:href="#DejaVuSans-2212"/>
       <use x="83.789062" xlink:href="#DejaVuSans-36"/>
      </g>
     </g>
    </g>
    <g id="ytick_4">
     <g id="line2d_10">
      <g>
       <use style="stroke:#000000;stroke-width:0.8;" x="337.816543" xlink:href="#mcdc29c82ca" y="449.890529"/>
      </g>
     </g>
     <g id="text_10">
      <!-- −5 -->
      <defs>
       <path d="M 10.796875 72.90625 
L 49.515625 72.90625 
L 49.515625 64.59375 
L 19.828125 64.59375 
L 19.828125 46.734375 
Q 21.96875 47.46875 24.109375 47.828125 
Q 26.265625 48.1875 28.421875 48.1875 
Q 40.625 48.1875 47.75 41.5 
Q 54.890625 34.8125 54.890625 23.390625 
Q 54.890625 11.625 47.5625 5.09375 
Q 40.234375 -1.421875 26.90625 -1.421875 
Q 22.3125 -1.421875 17.546875 -0.640625 
Q 12.796875 0.140625 7.71875 1.703125 
L 7.71875 11.625 
Q 12.109375 9.234375 16.796875 8.0625 
Q 21.484375 6.890625 26.703125 6.890625 
Q 35.15625 6.890625 40.078125 11.328125 
Q 45.015625 15.765625 45.015625 23.390625 
Q 45.015625 31 40.078125 35.4375 
Q 35.15625 39.890625 26.703125 39.890625 
Q 22.75 39.890625 18.8125 39.015625 
Q 14.890625 38.140625 10.796875 36.28125 
z
" id="DejaVuSans-35"/>
      </defs>
      <g transform="translate(316.074356 453.689748)scale(0.1 -0.1)">
       <use xlink:href="#DejaVuSans-2212"/>
       <use x="83.789062" xlink:href="#DejaVuSans-35"/>
      </g>
     </g>
    </g>
    <g id="ytick_5">
     <g id="line2d_11">
      <g>
       <use style="stroke:#000000;stroke-width:0.8;" x="337.816543" xlink:href="#mcdc29c82ca" y="382.650923"/>
      </g>
     </g>
     <g id="text_11">
      <!-- −4 -->
      <g transform="translate(316.074356 386.450142)scale(0.1 -0.1)">
       <use xlink:href="#DejaVuSans-2212"/>
       <use x="83.789062" xlink:href="#DejaVuSans-34"/>
      </g>
     </g>
    </g>
    <g id="ytick_6">
     <g id="line2d_12">
      <g>
       <use style="stroke:#000000;stroke-width:0.8;" x="337.816543" xlink:href="#mcdc29c82ca" y="315.411317"/>
      </g>
     </g>
     <g id="text_12">
      <!-- −3 -->
      <defs>
       <path d="M 40.578125 39.3125 
Q 47.65625 37.796875 51.625 33 
Q 55.609375 28.21875 55.609375 21.1875 
Q 55.609375 10.40625 48.1875 4.484375 
Q 40.765625 -1.421875 27.09375 -1.421875 
Q 22.515625 -1.421875 17.65625 -0.515625 
Q 12.796875 0.390625 7.625 2.203125 
L 7.625 11.71875 
Q 11.71875 9.328125 16.59375 8.109375 
Q 21.484375 6.890625 26.8125 6.890625 
Q 36.078125 6.890625 40.9375 10.546875 
Q 45.796875 14.203125 45.796875 21.1875 
Q 45.796875 27.640625 41.28125 31.265625 
Q 36.765625 34.90625 28.71875 34.90625 
L 20.21875 34.90625 
L 20.21875 43.015625 
L 29.109375 43.015625 
Q 36.375 43.015625 40.234375 45.921875 
Q 44.09375 48.828125 44.09375 54.296875 
Q 44.09375 59.90625 40.109375 62.90625 
Q 36.140625 65.921875 28.71875 65.921875 
Q 24.65625 65.921875 20.015625 65.03125 
Q 15.375 64.15625 9.8125 62.3125 
L 9.8125 71.09375 
Q 15.4375 72.65625 20.34375 73.4375 
Q 25.25 74.21875 29.59375 74.21875 
Q 40.828125 74.21875 47.359375 69.109375 
Q 53.90625 64.015625 53.90625 55.328125 
Q 53.90625 49.265625 50.4375 45.09375 
Q 46.96875 40.921875 40.578125 39.3125 
z
" id="DejaVuSans-33"/>
      </defs>
      <g transform="translate(316.074356 319.210536)scale(0.1 -0.1)">
       <use xlink:href="#DejaVuSans-2212"/>
       <use x="83.789062" xlink:href="#DejaVuSans-33"/>
      </g>
     </g>
    </g>
    <g id="ytick_7">
     <g id="line2d_13">
      <g>
       <use style="stroke:#000000;stroke-width:0.8;" x="337.816543" xlink:href="#mcdc29c82ca" y="248.171712"/>
      </g>
     </g>
     <g id="text_13">
      <!-- −2 -->
      <g transform="translate(316.074356 251.97093)scale(0.1 -0.1)">
       <use xlink:href="#DejaVuSans-2212"/>
       <use x="83.789062" xlink:href="#DejaVuSans-32"/>
      </g>
     </g>
    </g>
    <g id="ytick_8">
     <g id="line2d_14">
      <g>
       <use style="stroke:#000000;stroke-width:0.8;" x="337.816543" xlink:href="#mcdc29c82ca" y="180.932106"/>
      </g>
     </g>
     <g id="text_14">
      <!-- −1 -->
      <g transform="translate(316.074356 184.731325)scale(0.1 -0.1)">
       <use xlink:href="#DejaVuSans-2212"/>
       <use x="83.789062" xlink:href="#DejaVuSans-31"/>
      </g>
     </g>
    </g>
    <g id="ytick_9">
     <g id="line2d_15">
      <g>
       <use style="stroke:#000000;stroke-width:0.8;" x="337.816543" xlink:href="#mcdc29c82ca" y="113.6925"/>
      </g>
     </g>
     <g id="text_15">
      <!-- 0 -->
      <g transform="translate(324.454043 117.491719)scale(0.1 -0.1)">
       <use xlink:href="#DejaVuSans-30"/>
      </g>
     </g>
    </g>
   </g>
   <g id="line2d_16">
    <path clip-path="url(#p922f3066d0)" d="M 371.436346 113.6925 
L 416.26275 113.6925 
L 505.915558 113.6925 
L 640.394769 113.6925 
L 774.873981 113.6925 
L 909.353192 113.6925 
L 999.006 113.6925 
L 1043.832404 113.6925 
" style="fill:none;stroke:#f48379;stroke-dasharray:9.6,2.4,1.5,2.4;stroke-dashoffset:0;stroke-width:1.5;"/>
    <defs>
     <path d="M 0 3 
C 0.795609 3 1.55874 2.683901 2.12132 2.12132 
C 2.683901 1.55874 3 0.795609 3 0 
C 3 -0.795609 2.683901 -1.55874 2.12132 -2.12132 
C 1.55874 -2.683901 0.795609 -3 0 -3 
C -0.795609 -3 -1.55874 -2.683901 -2.12132 -2.12132 
C -2.683901 -1.55874 -3 -0.795609 -3 0 
C -3 0.795609 -2.683901 1.55874 -2.12132 2.12132 
C -1.55874 2.683901 -0.795609 3 0 3 
z
" id="mcebfd359c6" style="stroke:#f48379;"/>
    </defs>
    <g clip-path="url(#p922f3066d0)">
     <use style="fill:#f48379;stroke:#f48379;" x="371.436346" xlink:href="#mcebfd359c6" y="113.6925"/>
     <use style="fill:#f48379;stroke:#f48379;" x="416.26275" xlink:href="#mcebfd359c6" y="113.6925"/>
     <use style="fill:#f48379;stroke:#f48379;" x="505.915558" xlink:href="#mcebfd359c6" y="113.6925"/>
     <use style="fill:#f48379;stroke:#f48379;" x="640.394769" xlink:href="#mcebfd359c6" y="113.6925"/>
     <use style="fill:#f48379;stroke:#f48379;" x="774.873981" xlink:href="#mcebfd359c6" y="113.6925"/>
     <use style="fill:#f48379;stroke:#f48379;" x="909.353192" xlink:href="#mcebfd359c6" y="113.6925"/>
     <use style="fill:#f48379;stroke:#f48379;" x="999.006" xlink:href="#mcebfd359c6" y="113.6925"/>
     <use style="fill:#f48379;stroke:#f48379;" x="1043.832404" xlink:href="#mcebfd359c6" y="113.6925"/>
    </g>
   </g>
   <g id="line2d_17">
    <path clip-path="url(#p922f3066d0)" d="M 371.436346 113.6925 
L 405.056149 113.6925 
L 438.675952 113.6925 
L 472.295755 113.6925 
L 505.915558 113.6925 
L 539.535361 113.6925 
L 573.155163 113.6925 
L 606.774966 113.6925 
L 640.394769 113.6925 
L 674.014572 113.6925 
L 707.634375 113.6925 
L 741.254178 113.6925 
L 774.873981 113.6925 
L 808.493784 113.6925 
L 842.113587 113.6925 
L 875.733389 113.6925 
L 909.353192 113.6925 
L 942.972995 113.6925 
L 976.592798 113.6925 
L 1010.212601 113.6925 
L 1043.832404 113.6925 
" style="fill:none;stroke:#355920;stroke-linecap:square;stroke-width:1.5;"/>
   </g>
   <g id="line2d_18">
    <path clip-path="url(#p922f3066d0)" d="M 371.436346 113.6925 
L 416.32676 113.6925 
L 505.12907 135.76276 
L 617.462184 212.354717 
L 707.512413 313.036476 
L 781.80699 425.370105 
L 825.970073 503.428784 
L 848.056963 542.449751 
" style="fill:none;stroke:#4478c9;stroke-dasharray:9.6,2.4,1.5,2.4;stroke-dashoffset:0;stroke-width:1.5;"/>
    <defs>
     <path d="M 0 3 
C 0.795609 3 1.55874 2.683901 2.12132 2.12132 
C 2.683901 1.55874 3 0.795609 3 0 
C 3 -0.795609 2.683901 -1.55874 2.12132 -2.12132 
C 1.55874 -2.683901 0.795609 -3 0 -3 
C -0.795609 -3 -1.55874 -2.683901 -2.12132 -2.12132 
C -2.683901 -1.55874 -3 -0.795609 -3 0 
C -3 0.795609 -2.683901 1.55874 -2.12132 2.12132 
C -1.55874 2.683901 -0.795609 3 0 3 
z
" id="m43aa6ee2c3" style="stroke:#4478c9;"/>
    </defs>
    <g clip-path="url(#p922f3066d0)">
     <use style="fill:#4478c9;stroke:#4478c9;" x="371.436346" xlink:href="#m43aa6ee2c3" y="113.6925"/>
     <use style="fill:#4478c9;stroke:#4478c9;" x="416.32676" xlink:href="#m43aa6ee2c3" y="113.6925"/>
     <use style="fill:#4478c9;stroke:#4478c9;" x="505.12907" xlink:href="#m43aa6ee2c3" y="135.76276"/>
     <use style="fill:#4478c9;stroke:#4478c9;" x="617.462184" xlink:href="#m43aa6ee2c3" y="212.354717"/>
     <use style="fill:#4478c9;stroke:#4478c9;" x="707.512413" xlink:href="#m43aa6ee2c3" y="313.036476"/>
     <use style="fill:#4478c9;stroke:#4478c9;" x="781.80699" xlink:href="#m43aa6ee2c3" y="425.370105"/>
     <use style="fill:#4478c9;stroke:#4478c9;" x="825.970073" xlink:href="#m43aa6ee2c3" y="503.428784"/>
     <use style="fill:#4478c9;stroke:#4478c9;" x="848.056963" xlink:href="#m43aa6ee2c3" y="542.449751"/>
    </g>
   </g>
   <g id="line2d_19">
    <path clip-path="url(#p922f3066d0)" d="M 371.436346 113.6925 
L 404.965715 115.702409 
L 438.031381 121.495426 
L 470.353113 130.716485 
L 501.650678 143.010521 
L 531.686874 158.031132 
L 560.396601 175.46658 
L 587.75779 195.013788 
L 613.74837 216.369684 
L 638.366946 239.249315 
L 661.694829 263.440215 
L 683.834008 288.748043 
L 704.886471 314.978455 
L 724.957274 341.951537 
L 744.163751 369.545088 
L 762.626303 397.651334 
L 780.465331 426.162503 
L 797.802217 454.976272 
L 814.762263 484.012118 
L 831.471751 513.194968 
L 848.056963 542.449751 
" style="fill:none;stroke:#4c0283;stroke-linecap:square;stroke-width:1.5;"/>
   </g>
   <g id="line2d_20">
    <path clip-path="url(#p922f3066d0)" d="M 371.436346 113.6925 
L 416.450103 113.6925 
L 503.824894 146.155216 
L 596.442375 246.86931 
L 656.211235 368.123885 
L 697.174853 496.464532 
L 718.574442 583.588965 
L 729.292847 627.1425 
" style="fill:none;stroke:#d346a7;stroke-dasharray:9.6,2.4,1.5,2.4;stroke-dashoffset:0;stroke-width:1.5;"/>
    <defs>
     <path d="M 0 3 
C 0.795609 3 1.55874 2.683901 2.12132 2.12132 
C 2.683901 1.55874 3 0.795609 3 0 
C 3 -0.795609 2.683901 -1.55874 2.12132 -2.12132 
C 1.55874 -2.683901 0.795609 -3 0 -3 
C -0.795609 -3 -1.55874 -2.683901 -2.12132 -2.12132 
C -2.683901 -1.55874 -3 -0.795609 -3 0 
C -3 0.795609 -2.683901 1.55874 -2.12132 2.12132 
C -1.55874 2.683901 -0.795609 3 0 3 
z
" id="mb9ef2a79a4" style="stroke:#d346a7;"/>
    </defs>
    <g clip-path="url(#p922f3066d0)">
     <use style="fill:#d346a7;stroke:#d346a7;" x="371.436346" xlink:href="#mb9ef2a79a4" y="113.6925"/>
     <use style="fill:#d346a7;stroke:#d346a7;" x="416.450103" xlink:href="#mb9ef2a79a4" y="113.6925"/>
     <use style="fill:#d346a7;stroke:#d346a7;" x="503.824894" xlink:href="#mb9ef2a79a4" y="146.155216"/>
     <use style="fill:#d346a7;stroke:#d346a7;" x="596.442375" xlink:href="#mb9ef2a79a4" y="246.86931"/>
     <use style="fill:#d346a7;stroke:#d346a7;" x="656.211235" xlink:href="#mb9ef2a79a4" y="368.123885"/>
     <use style="fill:#d346a7;stroke:#d346a7;" x="697.174853" xlink:href="#mb9ef2a79a4" y="496.464532"/>
     <use style="fill:#d346a7;stroke:#d346a7;" x="718.574442" xlink:href="#mb9ef2a79a4" y="583.588965"/>
     <use style="fill:#d346a7;stroke:#d346a7;" x="729.292847" xlink:href="#mb9ef2a79a4" y="627.1425"/>
    </g>
   </g>
   <g id="line2d_21">
    <path clip-path="url(#p922f3066d0)" d="M 371.436346 113.6925 
L 404.868579 116.617733 
L 437.327074 124.920849 
L 468.33548 137.89297 
L 497.417443 154.825219 
L 524.190578 175.044888 
L 548.648357 198.02394 
L 570.87822 223.270508 
L 590.967605 250.292723 
L 609.02595 278.64566 
L 625.250683 308.072151 
L 639.861233 338.361971 
L 653.077028 369.304897 
L 665.106812 400.713395 
L 676.116597 432.49071 
L 686.26171 464.562777 
L 695.697481 496.855532 
L 704.576723 529.301012 
L 713.042199 561.855647 
L 721.234158 594.481966 
L 729.292847 627.1425 
" style="fill:none;stroke:#e6ad49;stroke-linecap:square;stroke-width:1.5;"/>
   </g>
   <g id="patch_3">
    <path d="M 337.816543 652.815 
L 337.816543 88.02 
" style="fill:none;stroke:#000000;stroke-linecap:square;stroke-linejoin:miter;stroke-width:0.8;"/>
   </g>
   <g id="patch_4">
    <path d="M 1077.452207 652.815 
L 1077.452207 88.02 
" style="fill:none;stroke:#000000;stroke-linecap:square;stroke-linejoin:miter;stroke-width:0.8;"/>
   </g>
   <g id="patch_5">
    <path d="M 337.816543 652.815 
L 1077.452207 652.815 
" style="fill:none;stroke:#000000;stroke-linecap:square;stroke-linejoin:miter;stroke-width:0.8;"/>
   </g>
   <g id="patch_6">
    <path d="M 337.816543 88.02 
L 1077.452207 88.02 
" style="fill:none;stroke:#000000;stroke-linecap:square;stroke-linejoin:miter;stroke-width:0.8;"/>
   </g>
  </g>
 </g>
 <defs>
  <clipPath id="p922f3066d0">
   <rect height="564.795" width="739.635664" x="337.816543" y="88.02"/>
  </clipPath>
 </defs>
</svg>
