<?xml version="1.0" encoding="utf-8" standalone="no"?>
<!DOCTYPE svg PUBLIC "-//W3C//DTD SVG 1.1//EN"
  "http://www.w3.org/Graphics/SVG/1.1/DTD/svg11.dtd">
<!-- Created with matplotlib (http://matplotlib.org/) -->
<svg height="733.5pt" version="1.1" viewBox="0 0 1380.75 733.5" width="1380.75pt" xmlns="http://www.w3.org/2000/svg" xmlns:xlink="http://www.w3.org/1999/xlink">
 <defs>
  <style type="text/css">
*{stroke-linecap:butt;stroke-linejoin:round;}
  </style>
 </defs>
 <g id="figure_1">
  <g id="patch_1">
   <path d="M 0 733.5 
L 1380.75 733.5 
L 1380.75 0 
L 0 0 
z
" style="fill:#ffffff;"/>
  </g>
  <g id="axes_1">
   <g id="patch_2">
    <path d="M 356.381594 652.815 
L 1058.887156 652.815 
L 1058.887156 88.02 
L 356.381594 88.02 
z
" style="fill:#ffffff;"/>
   </g>
   <g id="matplotlib.axis_1">
    <g id="xtick_1">
     <g id="line2d_1">
      <defs>
       <path d="M 0 0 
L 0 3.5 
" id="m771ba9570d" style="stroke:#000000;stroke-width:0.8;"/>
      </defs>
      <g>
       <use style="stroke:#000000;stroke-width:0.8;" x="388.313665" xlink:href="#m771ba9570d" y="652.815"/>
      </g>
     </g>
     <g id="text_1">
      <!-- 0 -->
      <defs>
       <path d="M 31.78125 66.40625 
Q 24.171875 66.40625 20.328125 58.90625 
Q 16.5 51.421875 16.5 36.375 
Q 16.5 21.390625 20.328125 13.890625 
Q 24.171875 6.390625 31.78125 6.390625 
Q 39.453125 6.390625 43.28125 13.890625 
Q 47.125 21.390625 47.125 36.375 
Q 47.125 51.421875 43.28125 58.90625 
Q 39.453125 66.40625 31.78125 66.40625 
z
M 31.78125 74.21875 
Q 44.046875 74.21875 50.515625 64.515625 
Q 56.984375 54.828125 56.984375 36.375 
Q 56.984375 17.96875 50.515625 8.265625 
Q 44.046875 -1.421875 31.78125 -1.421875 
Q 19.53125 -1.421875 13.0625 8.265625 
Q 6.59375 17.96875 6.59375 36.375 
Q 6.59375 54.828125 13.0625 64.515625 
Q 19.53125 74.21875 31.78125 74.21875 
z
" id="DejaVuSans-30"/>
      </defs>
      <g transform="translate(385.132415 667.413437)scale(0.1 -0.1)">
       <use xlink:href="#DejaVuSans-30"/>
      </g>
     </g>
    </g>
    <g id="xtick_2">
     <g id="line2d_2">
      <g>
       <use style="stroke:#000000;stroke-width:0.8;" x="516.041949" xlink:href="#m771ba9570d" y="652.815"/>
      </g>
     </g>
     <g id="text_2">
      <!-- 2 -->
      <defs>
       <path d="M 19.1875 8.296875 
L 53.609375 8.296875 
L 53.609375 0 
L 7.328125 0 
L 7.328125 8.296875 
Q 12.9375 14.109375 22.625 23.890625 
Q 32.328125 33.6875 34.8125 36.53125 
Q 39.546875 41.84375 41.421875 45.53125 
Q 43.3125 49.21875 43.3125 52.78125 
Q 43.3125 58.59375 39.234375 62.25 
Q 35.15625 65.921875 28.609375 65.921875 
Q 23.96875 65.921875 18.8125 64.3125 
Q 13.671875 62.703125 7.8125 59.421875 
L 7.8125 69.390625 
Q 13.765625 71.78125 18.9375 73 
Q 24.125 74.21875 28.421875 74.21875 
Q 39.75 74.21875 46.484375 68.546875 
Q 53.21875 62.890625 53.21875 53.421875 
Q 53.21875 48.921875 51.53125 44.890625 
Q 49.859375 40.875 45.40625 35.40625 
Q 44.1875 33.984375 37.640625 27.21875 
Q 31.109375 20.453125 19.1875 8.296875 
z
" id="DejaVuSans-32"/>
      </defs>
      <g transform="translate(512.860699 667.413437)scale(0.1 -0.1)">
       <use xlink:href="#DejaVuSans-32"/>
      </g>
     </g>
    </g>
    <g id="xtick_3">
     <g id="line2d_3">
      <g>
       <use style="stroke:#000000;stroke-width:0.8;" x="643.770233" xlink:href="#m771ba9570d" y="652.815"/>
      </g>
     </g>
     <g id="text_3">
      <!-- 4 -->
      <defs>
       <path d="M 37.796875 64.3125 
L 12.890625 25.390625 
L 37.796875 25.390625 
z
M 35.203125 72.90625 
L 47.609375 72.90625 
L 47.609375 25.390625 
L 58.015625 25.390625 
L 58.015625 17.1875 
L 47.609375 17.1875 
L 47.609375 0 
L 37.796875 0 
L 37.796875 17.1875 
L 4.890625 17.1875 
L 4.890625 26.703125 
z
" id="DejaVuSans-34"/>
      </defs>
      <g transform="translate(640.588983 667.413437)scale(0.1 -0.1)">
       <use xlink:href="#DejaVuSans-34"/>
      </g>
     </g>
    </g>
    <g id="xtick_4">
     <g id="line2d_4">
      <g>
       <use style="stroke:#000000;stroke-width:0.8;" x="771.498517" xlink:href="#m771ba9570d" y="652.815"/>
      </g>
     </g>
     <g id="text_4">
      <!-- 6 -->
      <defs>
       <path d="M 33.015625 40.375 
Q 26.375 40.375 22.484375 35.828125 
Q 18.609375 31.296875 18.609375 23.390625 
Q 18.609375 15.53125 22.484375 10.953125 
Q 26.375 6.390625 33.015625 6.390625 
Q 39.65625 6.390625 43.53125 10.953125 
Q 47.40625 15.53125 47.40625 23.390625 
Q 47.40625 31.296875 43.53125 35.828125 
Q 39.65625 40.375 33.015625 40.375 
z
M 52.59375 71.296875 
L 52.59375 62.3125 
Q 48.875 64.0625 45.09375 64.984375 
Q 41.3125 65.921875 37.59375 65.921875 
Q 27.828125 65.921875 22.671875 59.328125 
Q 17.53125 52.734375 16.796875 39.40625 
Q 19.671875 43.65625 24.015625 45.921875 
Q 28.375 48.1875 33.59375 48.1875 
Q 44.578125 48.1875 50.953125 41.515625 
Q 57.328125 34.859375 57.328125 23.390625 
Q 57.328125 12.15625 50.6875 5.359375 
Q 44.046875 -1.421875 33.015625 -1.421875 
Q 20.359375 -1.421875 13.671875 8.265625 
Q 6.984375 17.96875 6.984375 36.375 
Q 6.984375 53.65625 15.1875 63.9375 
Q 23.390625 74.21875 37.203125 74.21875 
Q 40.921875 74.21875 44.703125 73.484375 
Q 48.484375 72.75 52.59375 71.296875 
z
" id="DejaVuSans-36"/>
      </defs>
      <g transform="translate(768.317267 667.413437)scale(0.1 -0.1)">
       <use xlink:href="#DejaVuSans-36"/>
      </g>
     </g>
    </g>
    <g id="xtick_5">
     <g id="line2d_5">
      <g>
       <use style="stroke:#000000;stroke-width:0.8;" x="899.226801" xlink:href="#m771ba9570d" y="652.815"/>
      </g>
     </g>
     <g id="text_5">
      <!-- 8 -->
      <defs>
       <path d="M 31.78125 34.625 
Q 24.75 34.625 20.71875 30.859375 
Q 16.703125 27.09375 16.703125 20.515625 
Q 16.703125 13.921875 20.71875 10.15625 
Q 24.75 6.390625 31.78125 6.390625 
Q 38.8125 6.390625 42.859375 10.171875 
Q 46.921875 13.96875 46.921875 20.515625 
Q 46.921875 27.09375 42.890625 30.859375 
Q 38.875 34.625 31.78125 34.625 
z
M 21.921875 38.8125 
Q 15.578125 40.375 12.03125 44.71875 
Q 8.5 49.078125 8.5 55.328125 
Q 8.5 64.0625 14.71875 69.140625 
Q 20.953125 74.21875 31.78125 74.21875 
Q 42.671875 74.21875 48.875 69.140625 
Q 55.078125 64.0625 55.078125 55.328125 
Q 55.078125 49.078125 51.53125 44.71875 
Q 48 40.375 41.703125 38.8125 
Q 48.828125 37.15625 52.796875 32.3125 
Q 56.78125 27.484375 56.78125 20.515625 
Q 56.78125 9.90625 50.3125 4.234375 
Q 43.84375 -1.421875 31.78125 -1.421875 
Q 19.734375 -1.421875 13.25 4.234375 
Q 6.78125 9.90625 6.78125 20.515625 
Q 6.78125 27.484375 10.78125 32.3125 
Q 14.796875 37.15625 21.921875 38.8125 
z
M 18.3125 54.390625 
Q 18.3125 48.734375 21.84375 45.5625 
Q 25.390625 42.390625 31.78125 42.390625 
Q 38.140625 42.390625 41.71875 45.5625 
Q 45.3125 48.734375 45.3125 54.390625 
Q 45.3125 60.0625 41.71875 63.234375 
Q 38.140625 66.40625 31.78125 66.40625 
Q 25.390625 66.40625 21.84375 63.234375 
Q 18.3125 60.0625 18.3125 54.390625 
z
" id="DejaVuSans-38"/>
      </defs>
      <g transform="translate(896.045551 667.413437)scale(0.1 -0.1)">
       <use xlink:href="#DejaVuSans-38"/>
      </g>
     </g>
    </g>
    <g id="xtick_6">
     <g id="line2d_6">
      <g>
       <use style="stroke:#000000;stroke-width:0.8;" x="1026.955085" xlink:href="#m771ba9570d" y="652.815"/>
      </g>
     </g>
     <g id="text_6">
      <!-- 10 -->
      <defs>
       <path d="M 12.40625 8.296875 
L 28.515625 8.296875 
L 28.515625 63.921875 
L 10.984375 60.40625 
L 10.984375 69.390625 
L 28.421875 72.90625 
L 38.28125 72.90625 
L 38.28125 8.296875 
L 54.390625 8.296875 
L 54.390625 0 
L 12.40625 0 
z
" id="DejaVuSans-31"/>
      </defs>
      <g transform="translate(1020.592585 667.413437)scale(0.1 -0.1)">
       <use xlink:href="#DejaVuSans-31"/>
       <use x="63.623047" xlink:href="#DejaVuSans-30"/>
      </g>
     </g>
    </g>
   </g>
   <g id="matplotlib.axis_2">
    <g id="ytick_1">
     <g id="line2d_7">
      <defs>
       <path d="M 0 0 
L -3.5 0 
" id="m19ba9984d9" style="stroke:#000000;stroke-width:0.8;"/>
      </defs>
      <g>
       <use style="stroke:#000000;stroke-width:0.8;" x="356.381594" xlink:href="#m19ba9984d9" y="624.605636"/>
      </g>
     </g>
     <g id="text_7">
      <!-- −8 -->
      <defs>
       <path d="M 10.59375 35.5 
L 73.1875 35.5 
L 73.1875 27.203125 
L 10.59375 27.203125 
z
" id="DejaVuSans-2212"/>
      </defs>
      <g transform="translate(334.639407 628.404855)scale(0.1 -0.1)">
       <use xlink:href="#DejaVuSans-2212"/>
       <use x="83.789062" xlink:href="#DejaVuSans-38"/>
      </g>
     </g>
    </g>
    <g id="ytick_2">
     <g id="line2d_8">
      <g>
       <use style="stroke:#000000;stroke-width:0.8;" x="356.381594" xlink:href="#m19ba9984d9" y="560.741494"/>
      </g>
     </g>
     <g id="text_8">
      <!-- −7 -->
      <defs>
       <path d="M 8.203125 72.90625 
L 55.078125 72.90625 
L 55.078125 68.703125 
L 28.609375 0 
L 18.3125 0 
L 43.21875 64.59375 
L 8.203125 64.59375 
z
" id="DejaVuSans-37"/>
      </defs>
      <g transform="translate(334.639407 564.540713)scale(0.1 -0.1)">
       <use xlink:href="#DejaVuSans-2212"/>
       <use x="83.789062" xlink:href="#DejaVuSans-37"/>
      </g>
     </g>
    </g>
    <g id="ytick_3">
     <g id="line2d_9">
      <g>
       <use style="stroke:#000000;stroke-width:0.8;" x="356.381594" xlink:href="#m19ba9984d9" y="496.877352"/>
      </g>
     </g>
     <g id="text_9">
      <!-- −6 -->
      <g transform="translate(334.639407 500.676571)scale(0.1 -0.1)">
       <use xlink:href="#DejaVuSans-2212"/>
       <use x="83.789062" xlink:href="#DejaVuSans-36"/>
      </g>
     </g>
    </g>
    <g id="ytick_4">
     <g id="line2d_10">
      <g>
       <use style="stroke:#000000;stroke-width:0.8;" x="356.381594" xlink:href="#m19ba9984d9" y="433.01321"/>
      </g>
     </g>
     <g id="text_10">
      <!-- −5 -->
      <defs>
       <path d="M 10.796875 72.90625 
L 49.515625 72.90625 
L 49.515625 64.59375 
L 19.828125 64.59375 
L 19.828125 46.734375 
Q 21.96875 47.46875 24.109375 47.828125 
Q 26.265625 48.1875 28.421875 48.1875 
Q 40.625 48.1875 47.75 41.5 
Q 54.890625 34.8125 54.890625 23.390625 
Q 54.890625 11.625 47.5625 5.09375 
Q 40.234375 -1.421875 26.90625 -1.421875 
Q 22.3125 -1.421875 17.546875 -0.640625 
Q 12.796875 0.140625 7.71875 1.703125 
L 7.71875 11.625 
Q 12.109375 9.234375 16.796875 8.0625 
Q 21.484375 6.890625 26.703125 6.890625 
Q 35.15625 6.890625 40.078125 11.328125 
Q 45.015625 15.765625 45.015625 23.390625 
Q 45.015625 31 40.078125 35.4375 
Q 35.15625 39.890625 26.703125 39.890625 
Q 22.75 39.890625 18.8125 39.015625 
Q 14.890625 38.140625 10.796875 36.28125 
z
" id="DejaVuSans-35"/>
      </defs>
      <g transform="translate(334.639407 436.812429)scale(0.1 -0.1)">
       <use xlink:href="#DejaVuSans-2212"/>
       <use x="83.789062" xlink:href="#DejaVuSans-35"/>
      </g>
     </g>
    </g>
    <g id="ytick_5">
     <g id="line2d_11">
      <g>
       <use style="stroke:#000000;stroke-width:0.8;" x="356.381594" xlink:href="#m19ba9984d9" y="369.149068"/>
      </g>
     </g>
     <g id="text_11">
      <!-- −4 -->
      <g transform="translate(334.639407 372.948287)scale(0.1 -0.1)">
       <use xlink:href="#DejaVuSans-2212"/>
       <use x="83.789062" xlink:href="#DejaVuSans-34"/>
      </g>
     </g>
    </g>
    <g id="ytick_6">
     <g id="line2d_12">
      <g>
       <use style="stroke:#000000;stroke-width:0.8;" x="356.381594" xlink:href="#m19ba9984d9" y="305.284926"/>
      </g>
     </g>
     <g id="text_12">
      <!-- −3 -->
      <defs>
       <path d="M 40.578125 39.3125 
Q 47.65625 37.796875 51.625 33 
Q 55.609375 28.21875 55.609375 21.1875 
Q 55.609375 10.40625 48.1875 4.484375 
Q 40.765625 -1.421875 27.09375 -1.421875 
Q 22.515625 -1.421875 17.65625 -0.515625 
Q 12.796875 0.390625 7.625 2.203125 
L 7.625 11.71875 
Q 11.71875 9.328125 16.59375 8.109375 
Q 21.484375 6.890625 26.8125 6.890625 
Q 36.078125 6.890625 40.9375 10.546875 
Q 45.796875 14.203125 45.796875 21.1875 
Q 45.796875 27.640625 41.28125 31.265625 
Q 36.765625 34.90625 28.71875 34.90625 
L 20.21875 34.90625 
L 20.21875 43.015625 
L 29.109375 43.015625 
Q 36.375 43.015625 40.234375 45.921875 
Q 44.09375 48.828125 44.09375 54.296875 
Q 44.09375 59.90625 40.109375 62.90625 
Q 36.140625 65.921875 28.71875 65.921875 
Q 24.65625 65.921875 20.015625 65.03125 
Q 15.375 64.15625 9.8125 62.3125 
L 9.8125 71.09375 
Q 15.4375 72.65625 20.34375 73.4375 
Q 25.25 74.21875 29.59375 74.21875 
Q 40.828125 74.21875 47.359375 69.109375 
Q 53.90625 64.015625 53.90625 55.328125 
Q 53.90625 49.265625 50.4375 45.09375 
Q 46.96875 40.921875 40.578125 39.3125 
z
" id="DejaVuSans-33"/>
      </defs>
      <g transform="translate(334.639407 309.084145)scale(0.1 -0.1)">
       <use xlink:href="#DejaVuSans-2212"/>
       <use x="83.789062" xlink:href="#DejaVuSans-33"/>
      </g>
     </g>
    </g>
    <g id="ytick_7">
     <g id="line2d_13">
      <g>
       <use style="stroke:#000000;stroke-width:0.8;" x="356.381594" xlink:href="#m19ba9984d9" y="241.420784"/>
      </g>
     </g>
     <g id="text_13">
      <!-- −2 -->
      <g transform="translate(334.639407 245.220003)scale(0.1 -0.1)">
       <use xlink:href="#DejaVuSans-2212"/>
       <use x="83.789062" xlink:href="#DejaVuSans-32"/>
      </g>
     </g>
    </g>
    <g id="ytick_8">
     <g id="line2d_14">
      <g>
       <use style="stroke:#000000;stroke-width:0.8;" x="356.381594" xlink:href="#m19ba9984d9" y="177.556642"/>
      </g>
     </g>
     <g id="text_14">
      <!-- −1 -->
      <g transform="translate(334.639407 181.355861)scale(0.1 -0.1)">
       <use xlink:href="#DejaVuSans-2212"/>
       <use x="83.789062" xlink:href="#DejaVuSans-31"/>
      </g>
     </g>
    </g>
    <g id="ytick_9">
     <g id="line2d_15">
      <g>
       <use style="stroke:#000000;stroke-width:0.8;" x="356.381594" xlink:href="#m19ba9984d9" y="113.6925"/>
      </g>
     </g>
     <g id="text_15">
      <!-- 0 -->
      <g transform="translate(343.019094 117.491719)scale(0.1 -0.1)">
       <use xlink:href="#DejaVuSans-30"/>
      </g>
     </g>
    </g>
   </g>
   <g id="line2d_16">
    <path clip-path="url(#p636d61872d)" d="M 388.313665 113.6925 
L 430.88976 113.6925 
L 516.041949 113.6925 
L 643.770233 113.6925 
L 771.498517 113.6925 
L 899.226801 113.6925 
L 984.37899 113.6925 
L 1026.955085 113.6925 
" style="fill:none;stroke:#fef893;stroke-dasharray:9.6,2.4,1.5,2.4;stroke-dashoffset:0;stroke-width:1.5;"/>
    <defs>
     <path d="M 0 3 
C 0.795609 3 1.55874 2.683901 2.12132 2.12132 
C 2.683901 1.55874 3 0.795609 3 0 
C 3 -0.795609 2.683901 -1.55874 2.12132 -2.12132 
C 1.55874 -2.683901 0.795609 -3 0 -3 
C -0.795609 -3 -1.55874 -2.683901 -2.12132 -2.12132 
C -2.683901 -1.55874 -3 -0.795609 -3 0 
C -3 0.795609 -2.683901 1.55874 -2.12132 2.12132 
C -1.55874 2.683901 -0.795609 3 0 3 
z
" id="mfc91046ded" style="stroke:#fef893;"/>
    </defs>
    <g clip-path="url(#p636d61872d)">
     <use style="fill:#fef893;stroke:#fef893;" x="388.313665" xlink:href="#mfc91046ded" y="113.6925"/>
     <use style="fill:#fef893;stroke:#fef893;" x="430.88976" xlink:href="#mfc91046ded" y="113.6925"/>
     <use style="fill:#fef893;stroke:#fef893;" x="516.041949" xlink:href="#mfc91046ded" y="113.6925"/>
     <use style="fill:#fef893;stroke:#fef893;" x="643.770233" xlink:href="#mfc91046ded" y="113.6925"/>
     <use style="fill:#fef893;stroke:#fef893;" x="771.498517" xlink:href="#mfc91046ded" y="113.6925"/>
     <use style="fill:#fef893;stroke:#fef893;" x="899.226801" xlink:href="#mfc91046ded" y="113.6925"/>
     <use style="fill:#fef893;stroke:#fef893;" x="984.37899" xlink:href="#mfc91046ded" y="113.6925"/>
     <use style="fill:#fef893;stroke:#fef893;" x="1026.955085" xlink:href="#mfc91046ded" y="113.6925"/>
    </g>
   </g>
   <g id="line2d_17">
    <path clip-path="url(#p636d61872d)" d="M 388.313665 113.6925 
L 420.245736 113.6925 
L 452.177807 113.6925 
L 484.109878 113.6925 
L 516.041949 113.6925 
L 547.97402 113.6925 
L 579.906091 113.6925 
L 611.838162 113.6925 
L 643.770233 113.6925 
L 675.702304 113.6925 
L 707.634375 113.6925 
L 739.566446 113.6925 
L 771.498517 113.6925 
L 803.430588 113.6925 
L 835.362659 113.6925 
L 867.29473 113.6925 
L 899.226801 113.6925 
L 931.158872 113.6925 
L 963.090943 113.6925 
L 995.023014 113.6925 
L 1026.955085 113.6925 
" style="fill:none;stroke:#4751d0;stroke-linecap:square;stroke-width:1.5;"/>
   </g>
   <g id="line2d_18">
    <path clip-path="url(#p636d61872d)" d="M 388.313665 113.6925 
L 430.896124 113.6925 
L 515.949825 122.036693 
L 639.925047 153.933271 
L 759.331852 199.67036 
L 874.911794 254.155202 
L 950.539825 293.2999 
L 988.353314 312.870847 
" style="fill:none;stroke:#6c0b40;stroke-dasharray:9.6,2.4,1.5,2.4;stroke-dashoffset:0;stroke-width:1.5;"/>
    <defs>
     <path d="M 0 3 
C 0.795609 3 1.55874 2.683901 2.12132 2.12132 
C 2.683901 1.55874 3 0.795609 3 0 
C 3 -0.795609 2.683901 -1.55874 2.12132 -2.12132 
C 1.55874 -2.683901 0.795609 -3 0 -3 
C -0.795609 -3 -1.55874 -2.683901 -2.12132 -2.12132 
C -2.683901 -1.55874 -3 -0.795609 -3 0 
C -3 0.795609 -2.683901 1.55874 -2.12132 2.12132 
C -1.55874 2.683901 -0.795609 3 0 3 
z
" id="m33cd9beafe" style="stroke:#6c0b40;"/>
    </defs>
    <g clip-path="url(#p636d61872d)">
     <use style="fill:#6c0b40;stroke:#6c0b40;" x="388.313665" xlink:href="#m33cd9beafe" y="113.6925"/>
     <use style="fill:#6c0b40;stroke:#6c0b40;" x="430.896124" xlink:href="#m33cd9beafe" y="113.6925"/>
     <use style="fill:#6c0b40;stroke:#6c0b40;" x="515.949825" xlink:href="#m33cd9beafe" y="122.036693"/>
     <use style="fill:#6c0b40;stroke:#6c0b40;" x="639.925047" xlink:href="#m33cd9beafe" y="153.933271"/>
     <use style="fill:#6c0b40;stroke:#6c0b40;" x="759.331852" xlink:href="#m33cd9beafe" y="199.67036"/>
     <use style="fill:#6c0b40;stroke:#6c0b40;" x="874.911794" xlink:href="#m33cd9beafe" y="254.155202"/>
     <use style="fill:#6c0b40;stroke:#6c0b40;" x="950.539825" xlink:href="#m33cd9beafe" y="293.2999"/>
     <use style="fill:#6c0b40;stroke:#6c0b40;" x="988.353314" xlink:href="#m33cd9beafe" y="312.870847"/>
    </g>
   </g>
   <g id="line2d_19">
    <path clip-path="url(#p636d61872d)" d="M 388.313665 113.6925 
L 420.231562 114.460049 
L 452.077487 116.703816 
L 483.800318 120.335486 
L 515.348936 125.266741 
L 546.678234 131.409557 
L 577.76715 138.677082 
L 608.600636 146.982757 
L 639.163644 156.240023 
L 669.445566 166.363485 
L 699.453548 177.272404 
L 729.199178 188.887207 
L 758.694042 201.128319 
L 787.952194 213.917668 
L 816.997557 227.183197 
L 845.856522 240.854349 
L 874.555478 254.860569 
L 903.121977 269.132019 
L 931.588212 283.601721 
L 959.987539 298.203417 
L 988.353314 312.870847 
" style="fill:none;stroke:#e8de39;stroke-linecap:square;stroke-width:1.5;"/>
   </g>
   <g id="line2d_20">
    <path clip-path="url(#p636d61872d)" d="M 388.313665 113.6925 
L 430.914167 113.6925 
L 515.717244 128.470881 
L 632.249061 182.708875 
L 736.171453 257.596135 
L 830.255032 344.171832 
L 889.453437 405.404028 
L 919.053513 436.015167 
" style="fill:none;stroke:#ceb6aa;stroke-dasharray:9.6,2.4,1.5,2.4;stroke-dashoffset:0;stroke-width:1.5;"/>
    <defs>
     <path d="M 0 3 
C 0.795609 3 1.55874 2.683901 2.12132 2.12132 
C 2.683901 1.55874 3 0.795609 3 0 
C 3 -0.795609 2.683901 -1.55874 2.12132 -2.12132 
C 1.55874 -2.683901 0.795609 -3 0 -3 
C -0.795609 -3 -1.55874 -2.683901 -2.12132 -2.12132 
C -2.683901 -1.55874 -3 -0.795609 -3 0 
C -3 0.795609 -2.683901 1.55874 -2.12132 2.12132 
C -1.55874 2.683901 -0.795609 3 0 3 
z
" id="mca553405ef" style="stroke:#ceb6aa;"/>
    </defs>
    <g clip-path="url(#p636d61872d)">
     <use style="fill:#ceb6aa;stroke:#ceb6aa;" x="388.313665" xlink:href="#mca553405ef" y="113.6925"/>
     <use style="fill:#ceb6aa;stroke:#ceb6aa;" x="430.914167" xlink:href="#mca553405ef" y="113.6925"/>
     <use style="fill:#ceb6aa;stroke:#ceb6aa;" x="515.717244" xlink:href="#mca553405ef" y="128.470881"/>
     <use style="fill:#ceb6aa;stroke:#ceb6aa;" x="632.249061" xlink:href="#mca553405ef" y="182.708875"/>
     <use style="fill:#ceb6aa;stroke:#ceb6aa;" x="736.171453" xlink:href="#mca553405ef" y="257.596135"/>
     <use style="fill:#ceb6aa;stroke:#ceb6aa;" x="830.255032" xlink:href="#mca553405ef" y="344.171832"/>
     <use style="fill:#ceb6aa;stroke:#ceb6aa;" x="889.453437" xlink:href="#mca553405ef" y="405.404028"/>
     <use style="fill:#ceb6aa;stroke:#ceb6aa;" x="919.053513" xlink:href="#mca553405ef" y="436.015167"/>
    </g>
   </g>
   <g id="line2d_21">
    <path clip-path="url(#p636d61872d)" d="M 388.313665 113.6925 
L 420.202051 115.046034 
L 451.867716 118.978878 
L 483.16255 125.299396 
L 513.938445 133.815951 
L 544.06693 144.339105 
L 573.498107 156.688204 
L 602.201713 170.684794 
L 630.147491 186.150419 
L 657.317437 202.91303 
L 683.742586 220.826207 
L 709.466227 239.749937 
L 734.531651 259.544208 
L 758.986791 280.075633 
L 782.898143 301.237339 
L 806.336846 322.929076 
L 829.374037 345.050598 
L 852.082778 367.504558 
L 874.543821 390.205205 
L 896.839841 413.069691 
L 919.053513 436.015167 
" style="fill:none;stroke:#e0b3a4;stroke-linecap:square;stroke-width:1.5;"/>
   </g>
   <g id="line2d_22">
    <path clip-path="url(#p636d61872d)" d="M 388.313665 113.6925 
L 430.940521 113.6925 
L 515.407908 133.297812 
L 624.430759 202.259952 
L 714.101221 293.962828 
L 789.75512 397.097354 
L 835.360768 469.040347 
L 858.167529 505.0044 
" style="fill:none;stroke:#c11f66;stroke-dasharray:9.6,2.4,1.5,2.4;stroke-dashoffset:0;stroke-width:1.5;"/>
    <defs>
     <path d="M 0 3 
C 0.795609 3 1.55874 2.683901 2.12132 2.12132 
C 2.683901 1.55874 3 0.795609 3 0 
C 3 -0.795609 2.683901 -1.55874 2.12132 -2.12132 
C 1.55874 -2.683901 0.795609 -3 0 -3 
C -0.795609 -3 -1.55874 -2.683901 -2.12132 -2.12132 
C -2.683901 -1.55874 -3 -0.795609 -3 0 
C -3 0.795609 -2.683901 1.55874 -2.12132 2.12132 
C -1.55874 2.683901 -0.795609 3 0 3 
z
" id="ma79b2baaf0" style="stroke:#c11f66;"/>
    </defs>
    <g clip-path="url(#p636d61872d)">
     <use style="fill:#c11f66;stroke:#c11f66;" x="388.313665" xlink:href="#ma79b2baaf0" y="113.6925"/>
     <use style="fill:#c11f66;stroke:#c11f66;" x="430.940521" xlink:href="#ma79b2baaf0" y="113.6925"/>
     <use style="fill:#c11f66;stroke:#c11f66;" x="515.407908" xlink:href="#ma79b2baaf0" y="133.297812"/>
     <use style="fill:#c11f66;stroke:#c11f66;" x="624.430759" xlink:href="#ma79b2baaf0" y="202.259952"/>
     <use style="fill:#c11f66;stroke:#c11f66;" x="714.101221" xlink:href="#ma79b2baaf0" y="293.962828"/>
     <use style="fill:#c11f66;stroke:#c11f66;" x="789.75512" xlink:href="#ma79b2baaf0" y="397.097354"/>
     <use style="fill:#c11f66;stroke:#c11f66;" x="835.360768" xlink:href="#ma79b2baaf0" y="469.040347"/>
     <use style="fill:#c11f66;stroke:#c11f66;" x="858.167529" xlink:href="#ma79b2baaf0" y="505.0044"/>
    </g>
   </g>
   <g id="line2d_23">
    <path clip-path="url(#p636d61872d)" d="M 388.313665 113.6925 
L 420.170195 115.480337 
L 451.639926 120.643205 
L 482.483494 128.880139 
L 512.461537 139.890174 
L 541.370223 153.37872 
L 569.147862 169.076693 
L 595.768294 186.721381 
L 621.205361 206.050075 
L 645.451158 226.814399 
L 668.570803 248.823315 
L 690.647669 271.900117 
L 711.765127 295.868103 
L 732.010288 320.562695 
L 751.485212 345.867833 
L 770.295699 371.679584 
L 788.547548 397.894015 
L 806.347855 424.411951 
L 823.808902 451.153251 
L 841.044266 478.042529 
L 858.167529 505.0044 
" style="fill:none;stroke:#4c47ba;stroke-linecap:square;stroke-width:1.5;"/>
   </g>
   <g id="line2d_24">
    <path clip-path="url(#p636d61872d)" d="M 388.313665 113.6925 
L 430.971923 113.6925 
L 515.060015 137.085702 
L 617.402021 216.210377 
L 695.551814 318.02636 
L 757.37432 430.031867 
L 793.145064 507.348078 
L 811.037876 545.997572 
" style="fill:none;stroke:#c41091;stroke-dasharray:9.6,2.4,1.5,2.4;stroke-dashoffset:0;stroke-width:1.5;"/>
    <defs>
     <path d="M 0 3 
C 0.795609 3 1.55874 2.683901 2.12132 2.12132 
C 2.683901 1.55874 3 0.795609 3 0 
C 3 -0.795609 2.683901 -1.55874 2.12132 -2.12132 
C 1.55874 -2.683901 0.795609 -3 0 -3 
C -0.795609 -3 -1.55874 -2.683901 -2.12132 -2.12132 
C -2.683901 -1.55874 -3 -0.795609 -3 0 
C -3 0.795609 -2.683901 1.55874 -2.12132 2.12132 
C -1.55874 2.683901 -0.795609 3 0 3 
z
" id="mf1cca97d83" style="stroke:#c41091;"/>
    </defs>
    <g clip-path="url(#p636d61872d)">
     <use style="fill:#c41091;stroke:#c41091;" x="388.313665" xlink:href="#mf1cca97d83" y="113.6925"/>
     <use style="fill:#c41091;stroke:#c41091;" x="430.971923" xlink:href="#mf1cca97d83" y="113.6925"/>
     <use style="fill:#c41091;stroke:#c41091;" x="515.060015" xlink:href="#mf1cca97d83" y="137.085702"/>
     <use style="fill:#c41091;stroke:#c41091;" x="617.402021" xlink:href="#mf1cca97d83" y="216.210377"/>
     <use style="fill:#c41091;stroke:#c41091;" x="695.551814" xlink:href="#mf1cca97d83" y="318.02636"/>
     <use style="fill:#c41091;stroke:#c41091;" x="757.37432" xlink:href="#mf1cca97d83" y="430.031867"/>
     <use style="fill:#c41091;stroke:#c41091;" x="793.145064" xlink:href="#mf1cca97d83" y="507.348078"/>
     <use style="fill:#c41091;stroke:#c41091;" x="811.037876" xlink:href="#mf1cca97d83" y="545.997572"/>
    </g>
   </g>
   <g id="line2d_25">
    <path clip-path="url(#p636d61872d)" d="M 388.313665 113.6925 
L 420.139837 115.817527 
L 451.421542 121.920269 
L 481.84464 131.592212 
L 511.094993 144.424847 
L 538.909772 160.022164 
L 565.231386 178.038168 
L 590.053551 198.139365 
L 613.369985 219.992261 
L 635.195935 243.28639 
L 655.632761 267.803386 
L 674.803353 293.347907 
L 692.8306 319.724614 
L 709.838162 346.754523 
L 725.952782 374.324079 
L 741.301975 402.336082 
L 756.013255 430.693335 
L 770.214266 459.304368 
L 784.033175 488.100632 
L 797.598279 517.019307 
L 811.037876 545.997572 
" style="fill:none;stroke:#bbb268;stroke-linecap:square;stroke-width:1.5;"/>
   </g>
   <g id="line2d_26">
    <path clip-path="url(#p636d61872d)" d="M 388.313665 113.6925 
L 431.006923 113.6925 
L 514.685904 140.303809 
L 610.915622 227.195271 
L 679.303938 335.870834 
L 730.065523 453.323289 
L 758.179439 533.751423 
L 772.247519 573.95651 
" style="fill:none;stroke:#e03094;stroke-dasharray:9.6,2.4,1.5,2.4;stroke-dashoffset:0;stroke-width:1.5;"/>
    <defs>
     <path d="M 0 3 
C 0.795609 3 1.55874 2.683901 2.12132 2.12132 
C 2.683901 1.55874 3 0.795609 3 0 
C 3 -0.795609 2.683901 -1.55874 2.12132 -2.12132 
C 1.55874 -2.683901 0.795609 -3 0 -3 
C -0.795609 -3 -1.55874 -2.683901 -2.12132 -2.12132 
C -2.683901 -1.55874 -3 -0.795609 -3 0 
C -3 0.795609 -2.683901 1.55874 -2.12132 2.12132 
C -1.55874 2.683901 -0.795609 3 0 3 
z
" id="m3269ec9140" style="stroke:#e03094;"/>
    </defs>
    <g clip-path="url(#p636d61872d)">
     <use style="fill:#e03094;stroke:#e03094;" x="388.313665" xlink:href="#m3269ec9140" y="113.6925"/>
     <use style="fill:#e03094;stroke:#e03094;" x="431.006923" xlink:href="#m3269ec9140" y="113.6925"/>
     <use style="fill:#e03094;stroke:#e03094;" x="514.685904" xlink:href="#m3269ec9140" y="140.303809"/>
     <use style="fill:#e03094;stroke:#e03094;" x="610.915622" xlink:href="#m3269ec9140" y="227.195271"/>
     <use style="fill:#e03094;stroke:#e03094;" x="679.303938" xlink:href="#m3269ec9140" y="335.870834"/>
     <use style="fill:#e03094;stroke:#e03094;" x="730.065523" xlink:href="#m3269ec9140" y="453.323289"/>
     <use style="fill:#e03094;stroke:#e03094;" x="758.179439" xlink:href="#m3269ec9140" y="533.751423"/>
     <use style="fill:#e03094;stroke:#e03094;" x="772.247519" xlink:href="#m3269ec9140" y="573.95651"/>
    </g>
   </g>
   <g id="line2d_27">
    <path clip-path="url(#p636d61872d)" d="M 388.313665 113.6925 
L 420.110595 116.101739 
L 451.209765 122.987169 
L 481.233581 133.835363 
L 509.804445 148.132892 
L 536.611465 165.386298 
L 561.610552 185.182011 
L 584.824321 207.126429 
L 606.275389 230.825954 
L 626.0092 255.918712 
L 644.162527 282.169739 
L 660.894976 309.375798 
L 676.366149 337.333649 
L 690.732583 365.859379 
L 704.138534 394.846366 
L 716.725189 424.207311 
L 728.633738 453.854914 
L 740.004381 483.707978 
L 750.973377 513.70972 
L 761.675999 543.809458 
L 772.247519 573.95651 
" style="fill:none;stroke:#e38df0;stroke-linecap:square;stroke-width:1.5;"/>
   </g>
   <g id="line2d_28">
    <path clip-path="url(#p636d61872d)" d="M 388.313665 113.6925 
L 431.042732 113.6925 
L 514.313061 142.905302 
L 605.521314 235.318204 
L 666.74697 348.184299 
L 710.141886 468.555913 
L 733.404308 550.525764 
L 745.050514 591.501996 
" style="fill:none;stroke:#5e5511;stroke-dasharray:9.6,2.4,1.5,2.4;stroke-dashoffset:0;stroke-width:1.5;"/>
    <defs>
     <path d="M 0 3 
C 0.795609 3 1.55874 2.683901 2.12132 2.12132 
C 2.683901 1.55874 3 0.795609 3 0 
C 3 -0.795609 2.683901 -1.55874 2.12132 -2.12132 
C 1.55874 -2.683901 0.795609 -3 0 -3 
C -0.795609 -3 -1.55874 -2.683901 -2.12132 -2.12132 
C -2.683901 -1.55874 -3 -0.795609 -3 0 
C -3 0.795609 -2.683901 1.55874 -2.12132 2.12132 
C -1.55874 2.683901 -0.795609 3 0 3 
z
" id="m7aa35abc48" style="stroke:#5e5511;"/>
    </defs>
    <g clip-path="url(#p636d61872d)">
     <use style="fill:#5e5511;stroke:#5e5511;" x="388.313665" xlink:href="#m7aa35abc48" y="113.6925"/>
     <use style="fill:#5e5511;stroke:#5e5511;" x="431.042732" xlink:href="#m7aa35abc48" y="113.6925"/>
     <use style="fill:#5e5511;stroke:#5e5511;" x="514.313061" xlink:href="#m7aa35abc48" y="142.905302"/>
     <use style="fill:#5e5511;stroke:#5e5511;" x="605.521314" xlink:href="#m7aa35abc48" y="235.318204"/>
     <use style="fill:#5e5511;stroke:#5e5511;" x="666.74697" xlink:href="#m7aa35abc48" y="348.184299"/>
     <use style="fill:#5e5511;stroke:#5e5511;" x="710.141886" xlink:href="#m7aa35abc48" y="468.555913"/>
     <use style="fill:#5e5511;stroke:#5e5511;" x="733.404308" xlink:href="#m7aa35abc48" y="550.525764"/>
     <use style="fill:#5e5511;stroke:#5e5511;" x="745.050514" xlink:href="#m7aa35abc48" y="591.501996"/>
    </g>
   </g>
   <g id="line2d_29">
    <path clip-path="url(#p636d61872d)" d="M 388.313665 113.6925 
L 420.084697 116.329521 
L 451.02155 123.833869 
L 480.700258 135.595471 
L 508.696854 151.004252 
L 534.667707 169.478536 
L 558.590524 190.55023 
L 580.523346 213.77964 
L 600.524214 238.727069 
L 618.673142 264.992389 
L 635.13803 292.333725 
L 650.108752 320.548771 
L 663.77518 349.435219 
L 676.319836 378.811662 
L 687.895844 408.580287 
L 698.648976 438.664184 
L 708.725006 468.98644 
L 718.267782 499.4761 
L 727.413467 530.08603 
L 736.296298 560.775055 
L 745.050514 591.501996 
" style="fill:none;stroke:#2d694c;stroke-linecap:square;stroke-width:1.5;"/>
   </g>
   <g id="line2d_30">
    <path clip-path="url(#p636d61872d)" d="M 388.313665 113.6925 
L 431.079267 113.6925 
L 513.939129 145.168709 
L 600.710644 241.94861 
L 656.117169 357.772178 
L 693.934177 480.030317 
L 713.648793 562.946472 
L 723.525131 604.396609 
" style="fill:none;stroke:#7e580b;stroke-dasharray:9.6,2.4,1.5,2.4;stroke-dashoffset:0;stroke-width:1.5;"/>
    <defs>
     <path d="M 0 3 
C 0.795609 3 1.55874 2.683901 2.12132 2.12132 
C 2.683901 1.55874 3 0.795609 3 0 
C 3 -0.795609 2.683901 -1.55874 2.12132 -2.12132 
C 1.55874 -2.683901 0.795609 -3 0 -3 
C -0.795609 -3 -1.55874 -2.683901 -2.12132 -2.12132 
C -2.683901 -1.55874 -3 -0.795609 -3 0 
C -3 0.795609 -2.683901 1.55874 -2.12132 2.12132 
C -1.55874 2.683901 -0.795609 3 0 3 
z
" id="m9d9340eae8" style="stroke:#7e580b;"/>
    </defs>
    <g clip-path="url(#p636d61872d)">
     <use style="fill:#7e580b;stroke:#7e580b;" x="388.313665" xlink:href="#m9d9340eae8" y="113.6925"/>
     <use style="fill:#7e580b;stroke:#7e580b;" x="431.079267" xlink:href="#m9d9340eae8" y="113.6925"/>
     <use style="fill:#7e580b;stroke:#7e580b;" x="513.939129" xlink:href="#m9d9340eae8" y="145.168709"/>
     <use style="fill:#7e580b;stroke:#7e580b;" x="600.710644" xlink:href="#m9d9340eae8" y="241.94861"/>
     <use style="fill:#7e580b;stroke:#7e580b;" x="656.117169" xlink:href="#m9d9340eae8" y="357.772178"/>
     <use style="fill:#7e580b;stroke:#7e580b;" x="693.934177" xlink:href="#m9d9340eae8" y="480.030317"/>
     <use style="fill:#7e580b;stroke:#7e580b;" x="713.648793" xlink:href="#m9d9340eae8" y="562.946472"/>
     <use style="fill:#7e580b;stroke:#7e580b;" x="723.525131" xlink:href="#m9d9340eae8" y="604.396609"/>
    </g>
   </g>
   <g id="line2d_31">
    <path clip-path="url(#p636d61872d)" d="M 388.313665 113.6925 
L 420.060594 116.526564 
L 450.845643 124.561432 
L 480.207807 137.096119 
L 507.686083 153.42964 
L 532.912324 172.898357 
L 555.889818 194.988019 
L 576.71471 219.22172 
L 595.483145 245.122554 
L 612.311118 272.260266 
L 627.394021 300.391191 
L 640.947095 329.31831 
L 653.185583 358.844607 
L 664.313187 388.794654 
L 674.487452 419.079386 
L 683.854387 449.631327 
L 692.559997 480.382999 
L 700.747723 511.272539 
L 708.550745 542.260526 
L 716.099677 573.313152 
L 723.525131 604.396609 
" style="fill:none;stroke:#49779b;stroke-linecap:square;stroke-width:1.5;"/>
   </g>
   <g id="line2d_32">
    <path clip-path="url(#p636d61872d)" d="M 388.313665 113.6925 
L 431.118687 113.6925 
L 513.538045 147.441217 
L 595.557291 248.484522 
L 644.629745 367.110171 
L 676.130575 491.133605 
L 691.704485 574.916716 
L 699.514605 616.80157 
" style="fill:none;stroke:#e65ba4;stroke-dasharray:9.6,2.4,1.5,2.4;stroke-dashoffset:0;stroke-width:1.5;"/>
    <defs>
     <path d="M 0 3 
C 0.795609 3 1.55874 2.683901 2.12132 2.12132 
C 2.683901 1.55874 3 0.795609 3 0 
C 3 -0.795609 2.683901 -1.55874 2.12132 -2.12132 
C 1.55874 -2.683901 0.795609 -3 0 -3 
C -0.795609 -3 -1.55874 -2.683901 -2.12132 -2.12132 
C -2.683901 -1.55874 -3 -0.795609 -3 0 
C -3 0.795609 -2.683901 1.55874 -2.12132 2.12132 
C -1.55874 2.683901 -0.795609 3 0 3 
z
" id="mbdec9c0340" style="stroke:#e65ba4;"/>
    </defs>
    <g clip-path="url(#p636d61872d)">
     <use style="fill:#e65ba4;stroke:#e65ba4;" x="388.313665" xlink:href="#mbdec9c0340" y="113.6925"/>
     <use style="fill:#e65ba4;stroke:#e65ba4;" x="431.118687" xlink:href="#mbdec9c0340" y="113.6925"/>
     <use style="fill:#e65ba4;stroke:#e65ba4;" x="513.538045" xlink:href="#mbdec9c0340" y="147.441217"/>
     <use style="fill:#e65ba4;stroke:#e65ba4;" x="595.557291" xlink:href="#mbdec9c0340" y="248.484522"/>
     <use style="fill:#e65ba4;stroke:#e65ba4;" x="644.629745" xlink:href="#mbdec9c0340" y="367.110171"/>
     <use style="fill:#e65ba4;stroke:#e65ba4;" x="676.130575" xlink:href="#mbdec9c0340" y="491.133605"/>
     <use style="fill:#e65ba4;stroke:#e65ba4;" x="691.704485" xlink:href="#mbdec9c0340" y="574.916716"/>
     <use style="fill:#e65ba4;stroke:#e65ba4;" x="699.514605" xlink:href="#mbdec9c0340" y="616.80157"/>
    </g>
   </g>
   <g id="line2d_33">
    <path clip-path="url(#p636d61872d)" d="M 388.313665 113.6925 
L 420.034873 116.724083 
L 450.657238 125.289395 
L 479.68017 138.594282 
L 506.60308 155.844588 
L 531.031369 176.293003 
L 552.994406 199.379589 
L 572.627549 224.591257 
L 590.066159 251.414912 
L 605.463074 279.391249 
L 619.041051 308.276099 
L 631.040328 337.879078 
L 641.701141 368.009802 
L 651.24825 398.499862 
L 659.844502 429.268743 
L 667.637267 460.257906 
L 674.773914 491.408811 
L 681.398812 522.668269 
L 687.644321 554.004501 
L 693.639799 585.391078 
L 699.514605 616.80157 
" style="fill:none;stroke:#3e7b6a;stroke-linecap:square;stroke-width:1.5;"/>
   </g>
   <g id="line2d_34">
    <path clip-path="url(#p636d61872d)" d="M 388.313665 113.6925 
L 431.159233 113.6925 
L 513.129221 149.554923 
L 590.628596 254.298383 
L 633.943214 375.161828 
L 659.874674 500.523142 
L 671.847546 584.939304 
L 677.861318 627.1425 
" style="fill:none;stroke:#51ba5f;stroke-dasharray:9.6,2.4,1.5,2.4;stroke-dashoffset:0;stroke-width:1.5;"/>
    <defs>
     <path d="M 0 3 
C 0.795609 3 1.55874 2.683901 2.12132 2.12132 
C 2.683901 1.55874 3 0.795609 3 0 
C 3 -0.795609 2.683901 -1.55874 2.12132 -2.12132 
C 1.55874 -2.683901 0.795609 -3 0 -3 
C -0.795609 -3 -1.55874 -2.683901 -2.12132 -2.12132 
C -2.683901 -1.55874 -3 -0.795609 -3 0 
C -3 0.795609 -2.683901 1.55874 -2.12132 2.12132 
C -1.55874 2.683901 -0.795609 3 0 3 
z
" id="m931acc3329" style="stroke:#51ba5f;"/>
    </defs>
    <g clip-path="url(#p636d61872d)">
     <use style="fill:#51ba5f;stroke:#51ba5f;" x="388.313665" xlink:href="#m931acc3329" y="113.6925"/>
     <use style="fill:#51ba5f;stroke:#51ba5f;" x="431.159233" xlink:href="#m931acc3329" y="113.6925"/>
     <use style="fill:#51ba5f;stroke:#51ba5f;" x="513.129221" xlink:href="#m931acc3329" y="149.554923"/>
     <use style="fill:#51ba5f;stroke:#51ba5f;" x="590.628596" xlink:href="#m931acc3329" y="254.298383"/>
     <use style="fill:#51ba5f;stroke:#51ba5f;" x="633.943214" xlink:href="#m931acc3329" y="375.161828"/>
     <use style="fill:#51ba5f;stroke:#51ba5f;" x="659.874674" xlink:href="#m931acc3329" y="500.523142"/>
     <use style="fill:#51ba5f;stroke:#51ba5f;" x="671.847546" xlink:href="#m931acc3329" y="584.939304"/>
     <use style="fill:#51ba5f;stroke:#51ba5f;" x="677.861318" xlink:href="#m931acc3329" y="627.1425"/>
    </g>
   </g>
   <g id="line2d_35">
    <path clip-path="url(#p636d61872d)" d="M 388.313665 113.6925 
L 420.009681 116.907109 
L 450.472167 125.960962 
L 479.165307 139.969099 
L 505.553287 158.046561 
L 529.218945 179.365177 
L 550.219734 203.323941 
L 568.731763 229.378636 
L 584.931137 256.985047 
L 599.008366 285.659394 
L 611.211574 315.159644 
L 621.803284 345.304202 
L 631.046021 375.911473 
L 639.183065 406.821702 
L 646.380709 437.962502 
L 652.785999 469.283327 
L 658.545982 500.73363 
L 663.804386 532.267926 
L 668.691658 563.860964 
L 673.334926 595.492552 
L 677.861318 627.1425 
" style="fill:none;stroke:#294e73;stroke-linecap:square;stroke-width:1.5;"/>
   </g>
   <g id="patch_3">
    <path d="M 356.381594 652.815 
L 356.381594 88.02 
" style="fill:none;stroke:#000000;stroke-linecap:square;stroke-linejoin:miter;stroke-width:0.8;"/>
   </g>
   <g id="patch_4">
    <path d="M 1058.887156 652.815 
L 1058.887156 88.02 
" style="fill:none;stroke:#000000;stroke-linecap:square;stroke-linejoin:miter;stroke-width:0.8;"/>
   </g>
   <g id="patch_5">
    <path d="M 356.381594 652.815 
L 1058.887156 652.815 
" style="fill:none;stroke:#000000;stroke-linecap:square;stroke-linejoin:miter;stroke-width:0.8;"/>
   </g>
   <g id="patch_6">
    <path d="M 356.381594 88.02 
L 1058.887156 88.02 
" style="fill:none;stroke:#000000;stroke-linecap:square;stroke-linejoin:miter;stroke-width:0.8;"/>
   </g>
   <g id="legend_1">
    <g id="patch_7">
     <path d="M 363.381594 647.815 
L 514.922219 647.815 
Q 516.922219 647.815 516.922219 645.815 
L 516.922219 353.2525 
Q 516.922219 351.2525 514.922219 351.2525 
L 363.381594 351.2525 
Q 361.381594 351.2525 361.381594 353.2525 
L 361.381594 645.815 
Q 361.381594 647.815 363.381594 647.815 
z
" style="fill:#ffffff;opacity:0.8;stroke:#cccccc;stroke-linejoin:miter;"/>
    </g>
    <g id="line2d_36">
     <path d="M 365.381594 359.350937 
L 385.381594 359.350937 
" style="fill:none;stroke:#fef893;stroke-dasharray:9.6,2.4,1.5,2.4;stroke-dashoffset:0;stroke-width:1.5;"/>
    </g>
    <g id="line2d_37">
     <g>
      <use style="fill:#fef893;stroke:#fef893;" x="375.381594" xlink:href="#mfc91046ded" y="359.350937"/>
     </g>
    </g>
    <g id="text_16">
     <!-- Control Points for Curve -->
     <defs>
      <path d="M 64.40625 67.28125 
L 64.40625 56.890625 
Q 59.421875 61.53125 53.78125 63.8125 
Q 48.140625 66.109375 41.796875 66.109375 
Q 29.296875 66.109375 22.65625 58.46875 
Q 16.015625 50.828125 16.015625 36.375 
Q 16.015625 21.96875 22.65625 14.328125 
Q 29.296875 6.6875 41.796875 6.6875 
Q 48.140625 6.6875 53.78125 8.984375 
Q 59.421875 11.28125 64.40625 15.921875 
L 64.40625 5.609375 
Q 59.234375 2.09375 53.4375 0.328125 
Q 47.65625 -1.421875 41.21875 -1.421875 
Q 24.65625 -1.421875 15.125 8.703125 
Q 5.609375 18.84375 5.609375 36.375 
Q 5.609375 53.953125 15.125 64.078125 
Q 24.65625 74.21875 41.21875 74.21875 
Q 47.75 74.21875 53.53125 72.484375 
Q 59.328125 70.75 64.40625 67.28125 
z
" id="DejaVuSans-43"/>
      <path d="M 30.609375 48.390625 
Q 23.390625 48.390625 19.1875 42.75 
Q 14.984375 37.109375 14.984375 27.296875 
Q 14.984375 17.484375 19.15625 11.84375 
Q 23.34375 6.203125 30.609375 6.203125 
Q 37.796875 6.203125 41.984375 11.859375 
Q 46.1875 17.53125 46.1875 27.296875 
Q 46.1875 37.015625 41.984375 42.703125 
Q 37.796875 48.390625 30.609375 48.390625 
z
M 30.609375 56 
Q 42.328125 56 49.015625 48.375 
Q 55.71875 40.765625 55.71875 27.296875 
Q 55.71875 13.875 49.015625 6.21875 
Q 42.328125 -1.421875 30.609375 -1.421875 
Q 18.84375 -1.421875 12.171875 6.21875 
Q 5.515625 13.875 5.515625 27.296875 
Q 5.515625 40.765625 12.171875 48.375 
Q 18.84375 56 30.609375 56 
z
" id="DejaVuSans-6f"/>
      <path d="M 54.890625 33.015625 
L 54.890625 0 
L 45.90625 0 
L 45.90625 32.71875 
Q 45.90625 40.484375 42.875 44.328125 
Q 39.84375 48.1875 33.796875 48.1875 
Q 26.515625 48.1875 22.3125 43.546875 
Q 18.109375 38.921875 18.109375 30.90625 
L 18.109375 0 
L 9.078125 0 
L 9.078125 54.6875 
L 18.109375 54.6875 
L 18.109375 46.1875 
Q 21.34375 51.125 25.703125 53.5625 
Q 30.078125 56 35.796875 56 
Q 45.21875 56 50.046875 50.171875 
Q 54.890625 44.34375 54.890625 33.015625 
z
" id="DejaVuSans-6e"/>
      <path d="M 18.3125 70.21875 
L 18.3125 54.6875 
L 36.8125 54.6875 
L 36.8125 47.703125 
L 18.3125 47.703125 
L 18.3125 18.015625 
Q 18.3125 11.328125 20.140625 9.421875 
Q 21.96875 7.515625 27.59375 7.515625 
L 36.8125 7.515625 
L 36.8125 0 
L 27.59375 0 
Q 17.1875 0 13.234375 3.875 
Q 9.28125 7.765625 9.28125 18.015625 
L 9.28125 47.703125 
L 2.6875 47.703125 
L 2.6875 54.6875 
L 9.28125 54.6875 
L 9.28125 70.21875 
z
" id="DejaVuSans-74"/>
      <path d="M 41.109375 46.296875 
Q 39.59375 47.171875 37.8125 47.578125 
Q 36.03125 48 33.890625 48 
Q 26.265625 48 22.1875 43.046875 
Q 18.109375 38.09375 18.109375 28.8125 
L 18.109375 0 
L 9.078125 0 
L 9.078125 54.6875 
L 18.109375 54.6875 
L 18.109375 46.1875 
Q 20.953125 51.171875 25.484375 53.578125 
Q 30.03125 56 36.53125 56 
Q 37.453125 56 38.578125 55.875 
Q 39.703125 55.765625 41.0625 55.515625 
z
" id="DejaVuSans-72"/>
      <path d="M 9.421875 75.984375 
L 18.40625 75.984375 
L 18.40625 0 
L 9.421875 0 
z
" id="DejaVuSans-6c"/>
      <path id="DejaVuSans-20"/>
      <path d="M 19.671875 64.796875 
L 19.671875 37.40625 
L 32.078125 37.40625 
Q 38.96875 37.40625 42.71875 40.96875 
Q 46.484375 44.53125 46.484375 51.125 
Q 46.484375 57.671875 42.71875 61.234375 
Q 38.96875 64.796875 32.078125 64.796875 
z
M 9.8125 72.90625 
L 32.078125 72.90625 
Q 44.34375 72.90625 50.609375 67.359375 
Q 56.890625 61.8125 56.890625 51.125 
Q 56.890625 40.328125 50.609375 34.8125 
Q 44.34375 29.296875 32.078125 29.296875 
L 19.671875 29.296875 
L 19.671875 0 
L 9.8125 0 
z
" id="DejaVuSans-50"/>
      <path d="M 9.421875 54.6875 
L 18.40625 54.6875 
L 18.40625 0 
L 9.421875 0 
z
M 9.421875 75.984375 
L 18.40625 75.984375 
L 18.40625 64.59375 
L 9.421875 64.59375 
z
" id="DejaVuSans-69"/>
      <path d="M 44.28125 53.078125 
L 44.28125 44.578125 
Q 40.484375 46.53125 36.375 47.5 
Q 32.28125 48.484375 27.875 48.484375 
Q 21.1875 48.484375 17.84375 46.4375 
Q 14.5 44.390625 14.5 40.28125 
Q 14.5 37.15625 16.890625 35.375 
Q 19.28125 33.59375 26.515625 31.984375 
L 29.59375 31.296875 
Q 39.15625 29.25 43.1875 25.515625 
Q 47.21875 21.78125 47.21875 15.09375 
Q 47.21875 7.46875 41.1875 3.015625 
Q 35.15625 -1.421875 24.609375 -1.421875 
Q 20.21875 -1.421875 15.453125 -0.5625 
Q 10.6875 0.296875 5.421875 2 
L 5.421875 11.28125 
Q 10.40625 8.6875 15.234375 7.390625 
Q 20.0625 6.109375 24.8125 6.109375 
Q 31.15625 6.109375 34.5625 8.28125 
Q 37.984375 10.453125 37.984375 14.40625 
Q 37.984375 18.0625 35.515625 20.015625 
Q 33.0625 21.96875 24.703125 23.78125 
L 21.578125 24.515625 
Q 13.234375 26.265625 9.515625 29.90625 
Q 5.8125 33.546875 5.8125 39.890625 
Q 5.8125 47.609375 11.28125 51.796875 
Q 16.75 56 26.8125 56 
Q 31.78125 56 36.171875 55.265625 
Q 40.578125 54.546875 44.28125 53.078125 
z
" id="DejaVuSans-73"/>
      <path d="M 37.109375 75.984375 
L 37.109375 68.5 
L 28.515625 68.5 
Q 23.6875 68.5 21.796875 66.546875 
Q 19.921875 64.59375 19.921875 59.515625 
L 19.921875 54.6875 
L 34.71875 54.6875 
L 34.71875 47.703125 
L 19.921875 47.703125 
L 19.921875 0 
L 10.890625 0 
L 10.890625 47.703125 
L 2.296875 47.703125 
L 2.296875 54.6875 
L 10.890625 54.6875 
L 10.890625 58.5 
Q 10.890625 67.625 15.140625 71.796875 
Q 19.390625 75.984375 28.609375 75.984375 
z
" id="DejaVuSans-66"/>
      <path d="M 8.5 21.578125 
L 8.5 54.6875 
L 17.484375 54.6875 
L 17.484375 21.921875 
Q 17.484375 14.15625 20.5 10.265625 
Q 23.53125 6.390625 29.59375 6.390625 
Q 36.859375 6.390625 41.078125 11.03125 
Q 45.3125 15.671875 45.3125 23.6875 
L 45.3125 54.6875 
L 54.296875 54.6875 
L 54.296875 0 
L 45.3125 0 
L 45.3125 8.40625 
Q 42.046875 3.421875 37.71875 1 
Q 33.40625 -1.421875 27.6875 -1.421875 
Q 18.265625 -1.421875 13.375 4.4375 
Q 8.5 10.296875 8.5 21.578125 
z
M 31.109375 56 
z
" id="DejaVuSans-75"/>
      <path d="M 2.984375 54.6875 
L 12.5 54.6875 
L 29.59375 8.796875 
L 46.6875 54.6875 
L 56.203125 54.6875 
L 35.6875 0 
L 23.484375 0 
z
" id="DejaVuSans-76"/>
      <path d="M 56.203125 29.59375 
L 56.203125 25.203125 
L 14.890625 25.203125 
Q 15.484375 15.921875 20.484375 11.0625 
Q 25.484375 6.203125 34.421875 6.203125 
Q 39.59375 6.203125 44.453125 7.46875 
Q 49.3125 8.734375 54.109375 11.28125 
L 54.109375 2.78125 
Q 49.265625 0.734375 44.1875 -0.34375 
Q 39.109375 -1.421875 33.890625 -1.421875 
Q 20.796875 -1.421875 13.15625 6.1875 
Q 5.515625 13.8125 5.515625 26.8125 
Q 5.515625 40.234375 12.765625 48.109375 
Q 20.015625 56 32.328125 56 
Q 43.359375 56 49.78125 48.890625 
Q 56.203125 41.796875 56.203125 29.59375 
z
M 47.21875 32.234375 
Q 47.125 39.59375 43.09375 43.984375 
Q 39.0625 48.390625 32.421875 48.390625 
Q 24.90625 48.390625 20.390625 44.140625 
Q 15.875 39.890625 15.1875 32.171875 
z
" id="DejaVuSans-65"/>
     </defs>
     <g transform="translate(393.381594 362.850937)scale(0.1 -0.1)">
      <use xlink:href="#DejaVuSans-43"/>
      <use x="69.824219" xlink:href="#DejaVuSans-6f"/>
      <use x="131.005859" xlink:href="#DejaVuSans-6e"/>
      <use x="194.384766" xlink:href="#DejaVuSans-74"/>
      <use x="233.59375" xlink:href="#DejaVuSans-72"/>
      <use x="274.675781" xlink:href="#DejaVuSans-6f"/>
      <use x="335.857422" xlink:href="#DejaVuSans-6c"/>
      <use x="363.640625" xlink:href="#DejaVuSans-20"/>
      <use x="395.427734" xlink:href="#DejaVuSans-50"/>
      <use x="455.683594" xlink:href="#DejaVuSans-6f"/>
      <use x="516.865234" xlink:href="#DejaVuSans-69"/>
      <use x="544.648438" xlink:href="#DejaVuSans-6e"/>
      <use x="608.027344" xlink:href="#DejaVuSans-74"/>
      <use x="647.236328" xlink:href="#DejaVuSans-73"/>
      <use x="699.335938" xlink:href="#DejaVuSans-20"/>
      <use x="731.123047" xlink:href="#DejaVuSans-66"/>
      <use x="766.328125" xlink:href="#DejaVuSans-6f"/>
      <use x="827.509766" xlink:href="#DejaVuSans-72"/>
      <use x="868.623047" xlink:href="#DejaVuSans-20"/>
      <use x="900.410156" xlink:href="#DejaVuSans-43"/>
      <use x="970.234375" xlink:href="#DejaVuSans-75"/>
      <use x="1033.613281" xlink:href="#DejaVuSans-72"/>
      <use x="1074.726562" xlink:href="#DejaVuSans-76"/>
      <use x="1133.90625" xlink:href="#DejaVuSans-65"/>
     </g>
    </g>
    <g id="line2d_38">
     <path d="M 365.381594 374.029063 
L 385.381594 374.029063 
" style="fill:none;stroke:#4751d0;stroke-linecap:square;stroke-width:1.5;"/>
    </g>
    <g id="line2d_39"/>
    <g id="text_17">
     <!-- Curve -->
     <g transform="translate(393.381594 377.529063)scale(0.1 -0.1)">
      <use xlink:href="#DejaVuSans-43"/>
      <use x="69.824219" xlink:href="#DejaVuSans-75"/>
      <use x="133.203125" xlink:href="#DejaVuSans-72"/>
      <use x="174.316406" xlink:href="#DejaVuSans-76"/>
      <use x="233.496094" xlink:href="#DejaVuSans-65"/>
     </g>
    </g>
    <g id="line2d_40">
     <path d="M 365.381594 388.707188 
L 385.381594 388.707188 
" style="fill:none;stroke:#6c0b40;stroke-dasharray:9.6,2.4,1.5,2.4;stroke-dashoffset:0;stroke-width:1.5;"/>
    </g>
    <g id="line2d_41">
     <g>
      <use style="fill:#6c0b40;stroke:#6c0b40;" x="375.381594" xlink:href="#m33cd9beafe" y="388.707188"/>
     </g>
    </g>
    <g id="text_18">
     <!-- Control Points for Curve -->
     <g transform="translate(393.381594 392.207188)scale(0.1 -0.1)">
      <use xlink:href="#DejaVuSans-43"/>
      <use x="69.824219" xlink:href="#DejaVuSans-6f"/>
      <use x="131.005859" xlink:href="#DejaVuSans-6e"/>
      <use x="194.384766" xlink:href="#DejaVuSans-74"/>
      <use x="233.59375" xlink:href="#DejaVuSans-72"/>
      <use x="274.675781" xlink:href="#DejaVuSans-6f"/>
      <use x="335.857422" xlink:href="#DejaVuSans-6c"/>
      <use x="363.640625" xlink:href="#DejaVuSans-20"/>
      <use x="395.427734" xlink:href="#DejaVuSans-50"/>
      <use x="455.683594" xlink:href="#DejaVuSans-6f"/>
      <use x="516.865234" xlink:href="#DejaVuSans-69"/>
      <use x="544.648438" xlink:href="#DejaVuSans-6e"/>
      <use x="608.027344" xlink:href="#DejaVuSans-74"/>
      <use x="647.236328" xlink:href="#DejaVuSans-73"/>
      <use x="699.335938" xlink:href="#DejaVuSans-20"/>
      <use x="731.123047" xlink:href="#DejaVuSans-66"/>
      <use x="766.328125" xlink:href="#DejaVuSans-6f"/>
      <use x="827.509766" xlink:href="#DejaVuSans-72"/>
      <use x="868.623047" xlink:href="#DejaVuSans-20"/>
      <use x="900.410156" xlink:href="#DejaVuSans-43"/>
      <use x="970.234375" xlink:href="#DejaVuSans-75"/>
      <use x="1033.613281" xlink:href="#DejaVuSans-72"/>
      <use x="1074.726562" xlink:href="#DejaVuSans-76"/>
      <use x="1133.90625" xlink:href="#DejaVuSans-65"/>
     </g>
    </g>
    <g id="line2d_42">
     <path d="M 365.381594 403.385312 
L 385.381594 403.385312 
" style="fill:none;stroke:#e8de39;stroke-linecap:square;stroke-width:1.5;"/>
    </g>
    <g id="line2d_43"/>
    <g id="text_19">
     <!-- Curve -->
     <g transform="translate(393.381594 406.885312)scale(0.1 -0.1)">
      <use xlink:href="#DejaVuSans-43"/>
      <use x="69.824219" xlink:href="#DejaVuSans-75"/>
      <use x="133.203125" xlink:href="#DejaVuSans-72"/>
      <use x="174.316406" xlink:href="#DejaVuSans-76"/>
      <use x="233.496094" xlink:href="#DejaVuSans-65"/>
     </g>
    </g>
    <g id="line2d_44">
     <path d="M 365.381594 418.063438 
L 385.381594 418.063438 
" style="fill:none;stroke:#ceb6aa;stroke-dasharray:9.6,2.4,1.5,2.4;stroke-dashoffset:0;stroke-width:1.5;"/>
    </g>
    <g id="line2d_45">
     <g>
      <use style="fill:#ceb6aa;stroke:#ceb6aa;" x="375.381594" xlink:href="#mca553405ef" y="418.063438"/>
     </g>
    </g>
    <g id="text_20">
     <!-- Control Points for Curve -->
     <g transform="translate(393.381594 421.563438)scale(0.1 -0.1)">
      <use xlink:href="#DejaVuSans-43"/>
      <use x="69.824219" xlink:href="#DejaVuSans-6f"/>
      <use x="131.005859" xlink:href="#DejaVuSans-6e"/>
      <use x="194.384766" xlink:href="#DejaVuSans-74"/>
      <use x="233.59375" xlink:href="#DejaVuSans-72"/>
      <use x="274.675781" xlink:href="#DejaVuSans-6f"/>
      <use x="335.857422" xlink:href="#DejaVuSans-6c"/>
      <use x="363.640625" xlink:href="#DejaVuSans-20"/>
      <use x="395.427734" xlink:href="#DejaVuSans-50"/>
      <use x="455.683594" xlink:href="#DejaVuSans-6f"/>
      <use x="516.865234" xlink:href="#DejaVuSans-69"/>
      <use x="544.648438" xlink:href="#DejaVuSans-6e"/>
      <use x="608.027344" xlink:href="#DejaVuSans-74"/>
      <use x="647.236328" xlink:href="#DejaVuSans-73"/>
      <use x="699.335938" xlink:href="#DejaVuSans-20"/>
      <use x="731.123047" xlink:href="#DejaVuSans-66"/>
      <use x="766.328125" xlink:href="#DejaVuSans-6f"/>
      <use x="827.509766" xlink:href="#DejaVuSans-72"/>
      <use x="868.623047" xlink:href="#DejaVuSans-20"/>
      <use x="900.410156" xlink:href="#DejaVuSans-43"/>
      <use x="970.234375" xlink:href="#DejaVuSans-75"/>
      <use x="1033.613281" xlink:href="#DejaVuSans-72"/>
      <use x="1074.726562" xlink:href="#DejaVuSans-76"/>
      <use x="1133.90625" xlink:href="#DejaVuSans-65"/>
     </g>
    </g>
    <g id="line2d_46">
     <path d="M 365.381594 432.741562 
L 385.381594 432.741562 
" style="fill:none;stroke:#e0b3a4;stroke-linecap:square;stroke-width:1.5;"/>
    </g>
    <g id="line2d_47"/>
    <g id="text_21">
     <!-- Curve -->
     <g transform="translate(393.381594 436.241562)scale(0.1 -0.1)">
      <use xlink:href="#DejaVuSans-43"/>
      <use x="69.824219" xlink:href="#DejaVuSans-75"/>
      <use x="133.203125" xlink:href="#DejaVuSans-72"/>
      <use x="174.316406" xlink:href="#DejaVuSans-76"/>
      <use x="233.496094" xlink:href="#DejaVuSans-65"/>
     </g>
    </g>
    <g id="line2d_48">
     <path d="M 365.381594 447.419688 
L 385.381594 447.419688 
" style="fill:none;stroke:#c11f66;stroke-dasharray:9.6,2.4,1.5,2.4;stroke-dashoffset:0;stroke-width:1.5;"/>
    </g>
    <g id="line2d_49">
     <g>
      <use style="fill:#c11f66;stroke:#c11f66;" x="375.381594" xlink:href="#ma79b2baaf0" y="447.419688"/>
     </g>
    </g>
    <g id="text_22">
     <!-- Control Points for Curve -->
     <g transform="translate(393.381594 450.919688)scale(0.1 -0.1)">
      <use xlink:href="#DejaVuSans-43"/>
      <use x="69.824219" xlink:href="#DejaVuSans-6f"/>
      <use x="131.005859" xlink:href="#DejaVuSans-6e"/>
      <use x="194.384766" xlink:href="#DejaVuSans-74"/>
      <use x="233.59375" xlink:href="#DejaVuSans-72"/>
      <use x="274.675781" xlink:href="#DejaVuSans-6f"/>
      <use x="335.857422" xlink:href="#DejaVuSans-6c"/>
      <use x="363.640625" xlink:href="#DejaVuSans-20"/>
      <use x="395.427734" xlink:href="#DejaVuSans-50"/>
      <use x="455.683594" xlink:href="#DejaVuSans-6f"/>
      <use x="516.865234" xlink:href="#DejaVuSans-69"/>
      <use x="544.648438" xlink:href="#DejaVuSans-6e"/>
      <use x="608.027344" xlink:href="#DejaVuSans-74"/>
      <use x="647.236328" xlink:href="#DejaVuSans-73"/>
      <use x="699.335938" xlink:href="#DejaVuSans-20"/>
      <use x="731.123047" xlink:href="#DejaVuSans-66"/>
      <use x="766.328125" xlink:href="#DejaVuSans-6f"/>
      <use x="827.509766" xlink:href="#DejaVuSans-72"/>
      <use x="868.623047" xlink:href="#DejaVuSans-20"/>
      <use x="900.410156" xlink:href="#DejaVuSans-43"/>
      <use x="970.234375" xlink:href="#DejaVuSans-75"/>
      <use x="1033.613281" xlink:href="#DejaVuSans-72"/>
      <use x="1074.726562" xlink:href="#DejaVuSans-76"/>
      <use x="1133.90625" xlink:href="#DejaVuSans-65"/>
     </g>
    </g>
    <g id="line2d_50">
     <path d="M 365.381594 462.097812 
L 385.381594 462.097812 
" style="fill:none;stroke:#4c47ba;stroke-linecap:square;stroke-width:1.5;"/>
    </g>
    <g id="line2d_51"/>
    <g id="text_23">
     <!-- Curve -->
     <g transform="translate(393.381594 465.597812)scale(0.1 -0.1)">
      <use xlink:href="#DejaVuSans-43"/>
      <use x="69.824219" xlink:href="#DejaVuSans-75"/>
      <use x="133.203125" xlink:href="#DejaVuSans-72"/>
      <use x="174.316406" xlink:href="#DejaVuSans-76"/>
      <use x="233.496094" xlink:href="#DejaVuSans-65"/>
     </g>
    </g>
    <g id="line2d_52">
     <path d="M 365.381594 476.775937 
L 385.381594 476.775937 
" style="fill:none;stroke:#c41091;stroke-dasharray:9.6,2.4,1.5,2.4;stroke-dashoffset:0;stroke-width:1.5;"/>
    </g>
    <g id="line2d_53">
     <g>
      <use style="fill:#c41091;stroke:#c41091;" x="375.381594" xlink:href="#mf1cca97d83" y="476.775937"/>
     </g>
    </g>
    <g id="text_24">
     <!-- Control Points for Curve -->
     <g transform="translate(393.381594 480.275937)scale(0.1 -0.1)">
      <use xlink:href="#DejaVuSans-43"/>
      <use x="69.824219" xlink:href="#DejaVuSans-6f"/>
      <use x="131.005859" xlink:href="#DejaVuSans-6e"/>
      <use x="194.384766" xlink:href="#DejaVuSans-74"/>
      <use x="233.59375" xlink:href="#DejaVuSans-72"/>
      <use x="274.675781" xlink:href="#DejaVuSans-6f"/>
      <use x="335.857422" xlink:href="#DejaVuSans-6c"/>
      <use x="363.640625" xlink:href="#DejaVuSans-20"/>
      <use x="395.427734" xlink:href="#DejaVuSans-50"/>
      <use x="455.683594" xlink:href="#DejaVuSans-6f"/>
      <use x="516.865234" xlink:href="#DejaVuSans-69"/>
      <use x="544.648438" xlink:href="#DejaVuSans-6e"/>
      <use x="608.027344" xlink:href="#DejaVuSans-74"/>
      <use x="647.236328" xlink:href="#DejaVuSans-73"/>
      <use x="699.335938" xlink:href="#DejaVuSans-20"/>
      <use x="731.123047" xlink:href="#DejaVuSans-66"/>
      <use x="766.328125" xlink:href="#DejaVuSans-6f"/>
      <use x="827.509766" xlink:href="#DejaVuSans-72"/>
      <use x="868.623047" xlink:href="#DejaVuSans-20"/>
      <use x="900.410156" xlink:href="#DejaVuSans-43"/>
      <use x="970.234375" xlink:href="#DejaVuSans-75"/>
      <use x="1033.613281" xlink:href="#DejaVuSans-72"/>
      <use x="1074.726562" xlink:href="#DejaVuSans-76"/>
      <use x="1133.90625" xlink:href="#DejaVuSans-65"/>
     </g>
    </g>
    <g id="line2d_54">
     <path d="M 365.381594 491.454062 
L 385.381594 491.454062 
" style="fill:none;stroke:#bbb268;stroke-linecap:square;stroke-width:1.5;"/>
    </g>
    <g id="line2d_55"/>
    <g id="text_25">
     <!-- Curve -->
     <g transform="translate(393.381594 494.954062)scale(0.1 -0.1)">
      <use xlink:href="#DejaVuSans-43"/>
      <use x="69.824219" xlink:href="#DejaVuSans-75"/>
      <use x="133.203125" xlink:href="#DejaVuSans-72"/>
      <use x="174.316406" xlink:href="#DejaVuSans-76"/>
      <use x="233.496094" xlink:href="#DejaVuSans-65"/>
     </g>
    </g>
    <g id="line2d_56">
     <path d="M 365.381594 506.132187 
L 385.381594 506.132187 
" style="fill:none;stroke:#e03094;stroke-dasharray:9.6,2.4,1.5,2.4;stroke-dashoffset:0;stroke-width:1.5;"/>
    </g>
    <g id="line2d_57">
     <g>
      <use style="fill:#e03094;stroke:#e03094;" x="375.381594" xlink:href="#m3269ec9140" y="506.132187"/>
     </g>
    </g>
    <g id="text_26">
     <!-- Control Points for Curve -->
     <g transform="translate(393.381594 509.632187)scale(0.1 -0.1)">
      <use xlink:href="#DejaVuSans-43"/>
      <use x="69.824219" xlink:href="#DejaVuSans-6f"/>
      <use x="131.005859" xlink:href="#DejaVuSans-6e"/>
      <use x="194.384766" xlink:href="#DejaVuSans-74"/>
      <use x="233.59375" xlink:href="#DejaVuSans-72"/>
      <use x="274.675781" xlink:href="#DejaVuSans-6f"/>
      <use x="335.857422" xlink:href="#DejaVuSans-6c"/>
      <use x="363.640625" xlink:href="#DejaVuSans-20"/>
      <use x="395.427734" xlink:href="#DejaVuSans-50"/>
      <use x="455.683594" xlink:href="#DejaVuSans-6f"/>
      <use x="516.865234" xlink:href="#DejaVuSans-69"/>
      <use x="544.648438" xlink:href="#DejaVuSans-6e"/>
      <use x="608.027344" xlink:href="#DejaVuSans-74"/>
      <use x="647.236328" xlink:href="#DejaVuSans-73"/>
      <use x="699.335938" xlink:href="#DejaVuSans-20"/>
      <use x="731.123047" xlink:href="#DejaVuSans-66"/>
      <use x="766.328125" xlink:href="#DejaVuSans-6f"/>
      <use x="827.509766" xlink:href="#DejaVuSans-72"/>
      <use x="868.623047" xlink:href="#DejaVuSans-20"/>
      <use x="900.410156" xlink:href="#DejaVuSans-43"/>
      <use x="970.234375" xlink:href="#DejaVuSans-75"/>
      <use x="1033.613281" xlink:href="#DejaVuSans-72"/>
      <use x="1074.726562" xlink:href="#DejaVuSans-76"/>
      <use x="1133.90625" xlink:href="#DejaVuSans-65"/>
     </g>
    </g>
    <g id="line2d_58">
     <path d="M 365.381594 520.810313 
L 385.381594 520.810313 
" style="fill:none;stroke:#e38df0;stroke-linecap:square;stroke-width:1.5;"/>
    </g>
    <g id="line2d_59"/>
    <g id="text_27">
     <!-- Curve -->
     <g transform="translate(393.381594 524.310313)scale(0.1 -0.1)">
      <use xlink:href="#DejaVuSans-43"/>
      <use x="69.824219" xlink:href="#DejaVuSans-75"/>
      <use x="133.203125" xlink:href="#DejaVuSans-72"/>
      <use x="174.316406" xlink:href="#DejaVuSans-76"/>
      <use x="233.496094" xlink:href="#DejaVuSans-65"/>
     </g>
    </g>
    <g id="line2d_60">
     <path d="M 365.381594 535.488437 
L 385.381594 535.488437 
" style="fill:none;stroke:#5e5511;stroke-dasharray:9.6,2.4,1.5,2.4;stroke-dashoffset:0;stroke-width:1.5;"/>
    </g>
    <g id="line2d_61">
     <g>
      <use style="fill:#5e5511;stroke:#5e5511;" x="375.381594" xlink:href="#m7aa35abc48" y="535.488437"/>
     </g>
    </g>
    <g id="text_28">
     <!-- Control Points for Curve -->
     <g transform="translate(393.381594 538.988437)scale(0.1 -0.1)">
      <use xlink:href="#DejaVuSans-43"/>
      <use x="69.824219" xlink:href="#DejaVuSans-6f"/>
      <use x="131.005859" xlink:href="#DejaVuSans-6e"/>
      <use x="194.384766" xlink:href="#DejaVuSans-74"/>
      <use x="233.59375" xlink:href="#DejaVuSans-72"/>
      <use x="274.675781" xlink:href="#DejaVuSans-6f"/>
      <use x="335.857422" xlink:href="#DejaVuSans-6c"/>
      <use x="363.640625" xlink:href="#DejaVuSans-20"/>
      <use x="395.427734" xlink:href="#DejaVuSans-50"/>
      <use x="455.683594" xlink:href="#DejaVuSans-6f"/>
      <use x="516.865234" xlink:href="#DejaVuSans-69"/>
      <use x="544.648438" xlink:href="#DejaVuSans-6e"/>
      <use x="608.027344" xlink:href="#DejaVuSans-74"/>
      <use x="647.236328" xlink:href="#DejaVuSans-73"/>
      <use x="699.335938" xlink:href="#DejaVuSans-20"/>
      <use x="731.123047" xlink:href="#DejaVuSans-66"/>
      <use x="766.328125" xlink:href="#DejaVuSans-6f"/>
      <use x="827.509766" xlink:href="#DejaVuSans-72"/>
      <use x="868.623047" xlink:href="#DejaVuSans-20"/>
      <use x="900.410156" xlink:href="#DejaVuSans-43"/>
      <use x="970.234375" xlink:href="#DejaVuSans-75"/>
      <use x="1033.613281" xlink:href="#DejaVuSans-72"/>
      <use x="1074.726562" xlink:href="#DejaVuSans-76"/>
      <use x="1133.90625" xlink:href="#DejaVuSans-65"/>
     </g>
    </g>
    <g id="line2d_62">
     <path d="M 365.381594 550.166562 
L 385.381594 550.166562 
" style="fill:none;stroke:#2d694c;stroke-linecap:square;stroke-width:1.5;"/>
    </g>
    <g id="line2d_63"/>
    <g id="text_29">
     <!-- Curve -->
     <g transform="translate(393.381594 553.666562)scale(0.1 -0.1)">
      <use xlink:href="#DejaVuSans-43"/>
      <use x="69.824219" xlink:href="#DejaVuSans-75"/>
      <use x="133.203125" xlink:href="#DejaVuSans-72"/>
      <use x="174.316406" xlink:href="#DejaVuSans-76"/>
      <use x="233.496094" xlink:href="#DejaVuSans-65"/>
     </g>
    </g>
    <g id="line2d_64">
     <path d="M 365.381594 564.844687 
L 385.381594 564.844687 
" style="fill:none;stroke:#7e580b;stroke-dasharray:9.6,2.4,1.5,2.4;stroke-dashoffset:0;stroke-width:1.5;"/>
    </g>
    <g id="line2d_65">
     <g>
      <use style="fill:#7e580b;stroke:#7e580b;" x="375.381594" xlink:href="#m9d9340eae8" y="564.844687"/>
     </g>
    </g>
    <g id="text_30">
     <!-- Control Points for Curve -->
     <g transform="translate(393.381594 568.344687)scale(0.1 -0.1)">
      <use xlink:href="#DejaVuSans-43"/>
      <use x="69.824219" xlink:href="#DejaVuSans-6f"/>
      <use x="131.005859" xlink:href="#DejaVuSans-6e"/>
      <use x="194.384766" xlink:href="#DejaVuSans-74"/>
      <use x="233.59375" xlink:href="#DejaVuSans-72"/>
      <use x="274.675781" xlink:href="#DejaVuSans-6f"/>
      <use x="335.857422" xlink:href="#DejaVuSans-6c"/>
      <use x="363.640625" xlink:href="#DejaVuSans-20"/>
      <use x="395.427734" xlink:href="#DejaVuSans-50"/>
      <use x="455.683594" xlink:href="#DejaVuSans-6f"/>
      <use x="516.865234" xlink:href="#DejaVuSans-69"/>
      <use x="544.648438" xlink:href="#DejaVuSans-6e"/>
      <use x="608.027344" xlink:href="#DejaVuSans-74"/>
      <use x="647.236328" xlink:href="#DejaVuSans-73"/>
      <use x="699.335938" xlink:href="#DejaVuSans-20"/>
      <use x="731.123047" xlink:href="#DejaVuSans-66"/>
      <use x="766.328125" xlink:href="#DejaVuSans-6f"/>
      <use x="827.509766" xlink:href="#DejaVuSans-72"/>
      <use x="868.623047" xlink:href="#DejaVuSans-20"/>
      <use x="900.410156" xlink:href="#DejaVuSans-43"/>
      <use x="970.234375" xlink:href="#DejaVuSans-75"/>
      <use x="1033.613281" xlink:href="#DejaVuSans-72"/>
      <use x="1074.726562" xlink:href="#DejaVuSans-76"/>
      <use x="1133.90625" xlink:href="#DejaVuSans-65"/>
     </g>
    </g>
    <g id="line2d_66">
     <path d="M 365.381594 579.522812 
L 385.381594 579.522812 
" style="fill:none;stroke:#49779b;stroke-linecap:square;stroke-width:1.5;"/>
    </g>
    <g id="line2d_67"/>
    <g id="text_31">
     <!-- Curve -->
     <g transform="translate(393.381594 583.022812)scale(0.1 -0.1)">
      <use xlink:href="#DejaVuSans-43"/>
      <use x="69.824219" xlink:href="#DejaVuSans-75"/>
      <use x="133.203125" xlink:href="#DejaVuSans-72"/>
      <use x="174.316406" xlink:href="#DejaVuSans-76"/>
      <use x="233.496094" xlink:href="#DejaVuSans-65"/>
     </g>
    </g>
    <g id="line2d_68">
     <path d="M 365.381594 594.200937 
L 385.381594 594.200937 
" style="fill:none;stroke:#e65ba4;stroke-dasharray:9.6,2.4,1.5,2.4;stroke-dashoffset:0;stroke-width:1.5;"/>
    </g>
    <g id="line2d_69">
     <g>
      <use style="fill:#e65ba4;stroke:#e65ba4;" x="375.381594" xlink:href="#mbdec9c0340" y="594.200937"/>
     </g>
    </g>
    <g id="text_32">
     <!-- Control Points for Curve -->
     <g transform="translate(393.381594 597.700937)scale(0.1 -0.1)">
      <use xlink:href="#DejaVuSans-43"/>
      <use x="69.824219" xlink:href="#DejaVuSans-6f"/>
      <use x="131.005859" xlink:href="#DejaVuSans-6e"/>
      <use x="194.384766" xlink:href="#DejaVuSans-74"/>
      <use x="233.59375" xlink:href="#DejaVuSans-72"/>
      <use x="274.675781" xlink:href="#DejaVuSans-6f"/>
      <use x="335.857422" xlink:href="#DejaVuSans-6c"/>
      <use x="363.640625" xlink:href="#DejaVuSans-20"/>
      <use x="395.427734" xlink:href="#DejaVuSans-50"/>
      <use x="455.683594" xlink:href="#DejaVuSans-6f"/>
      <use x="516.865234" xlink:href="#DejaVuSans-69"/>
      <use x="544.648438" xlink:href="#DejaVuSans-6e"/>
      <use x="608.027344" xlink:href="#DejaVuSans-74"/>
      <use x="647.236328" xlink:href="#DejaVuSans-73"/>
      <use x="699.335938" xlink:href="#DejaVuSans-20"/>
      <use x="731.123047" xlink:href="#DejaVuSans-66"/>
      <use x="766.328125" xlink:href="#DejaVuSans-6f"/>
      <use x="827.509766" xlink:href="#DejaVuSans-72"/>
      <use x="868.623047" xlink:href="#DejaVuSans-20"/>
      <use x="900.410156" xlink:href="#DejaVuSans-43"/>
      <use x="970.234375" xlink:href="#DejaVuSans-75"/>
      <use x="1033.613281" xlink:href="#DejaVuSans-72"/>
      <use x="1074.726562" xlink:href="#DejaVuSans-76"/>
      <use x="1133.90625" xlink:href="#DejaVuSans-65"/>
     </g>
    </g>
    <g id="line2d_70">
     <path d="M 365.381594 608.879062 
L 385.381594 608.879062 
" style="fill:none;stroke:#3e7b6a;stroke-linecap:square;stroke-width:1.5;"/>
    </g>
    <g id="line2d_71"/>
    <g id="text_33">
     <!-- Curve -->
     <g transform="translate(393.381594 612.379062)scale(0.1 -0.1)">
      <use xlink:href="#DejaVuSans-43"/>
      <use x="69.824219" xlink:href="#DejaVuSans-75"/>
      <use x="133.203125" xlink:href="#DejaVuSans-72"/>
      <use x="174.316406" xlink:href="#DejaVuSans-76"/>
      <use x="233.496094" xlink:href="#DejaVuSans-65"/>
     </g>
    </g>
    <g id="line2d_72">
     <path d="M 365.381594 623.557187 
L 385.381594 623.557187 
" style="fill:none;stroke:#51ba5f;stroke-dasharray:9.6,2.4,1.5,2.4;stroke-dashoffset:0;stroke-width:1.5;"/>
    </g>
    <g id="line2d_73">
     <g>
      <use style="fill:#51ba5f;stroke:#51ba5f;" x="375.381594" xlink:href="#m931acc3329" y="623.557187"/>
     </g>
    </g>
    <g id="text_34">
     <!-- Control Points for Curve -->
     <g transform="translate(393.381594 627.057187)scale(0.1 -0.1)">
      <use xlink:href="#DejaVuSans-43"/>
      <use x="69.824219" xlink:href="#DejaVuSans-6f"/>
      <use x="131.005859" xlink:href="#DejaVuSans-6e"/>
      <use x="194.384766" xlink:href="#DejaVuSans-74"/>
      <use x="233.59375" xlink:href="#DejaVuSans-72"/>
      <use x="274.675781" xlink:href="#DejaVuSans-6f"/>
      <use x="335.857422" xlink:href="#DejaVuSans-6c"/>
      <use x="363.640625" xlink:href="#DejaVuSans-20"/>
      <use x="395.427734" xlink:href="#DejaVuSans-50"/>
      <use x="455.683594" xlink:href="#DejaVuSans-6f"/>
      <use x="516.865234" xlink:href="#DejaVuSans-69"/>
      <use x="544.648438" xlink:href="#DejaVuSans-6e"/>
      <use x="608.027344" xlink:href="#DejaVuSans-74"/>
      <use x="647.236328" xlink:href="#DejaVuSans-73"/>
      <use x="699.335938" xlink:href="#DejaVuSans-20"/>
      <use x="731.123047" xlink:href="#DejaVuSans-66"/>
      <use x="766.328125" xlink:href="#DejaVuSans-6f"/>
      <use x="827.509766" xlink:href="#DejaVuSans-72"/>
      <use x="868.623047" xlink:href="#DejaVuSans-20"/>
      <use x="900.410156" xlink:href="#DejaVuSans-43"/>
      <use x="970.234375" xlink:href="#DejaVuSans-75"/>
      <use x="1033.613281" xlink:href="#DejaVuSans-72"/>
      <use x="1074.726562" xlink:href="#DejaVuSans-76"/>
      <use x="1133.90625" xlink:href="#DejaVuSans-65"/>
     </g>
    </g>
    <g id="line2d_74">
     <path d="M 365.381594 638.235312 
L 385.381594 638.235312 
" style="fill:none;stroke:#294e73;stroke-linecap:square;stroke-width:1.5;"/>
    </g>
    <g id="line2d_75"/>
    <g id="text_35">
     <!-- Curve -->
     <g transform="translate(393.381594 641.735312)scale(0.1 -0.1)">
      <use xlink:href="#DejaVuSans-43"/>
      <use x="69.824219" xlink:href="#DejaVuSans-75"/>
      <use x="133.203125" xlink:href="#DejaVuSans-72"/>
      <use x="174.316406" xlink:href="#DejaVuSans-76"/>
      <use x="233.496094" xlink:href="#DejaVuSans-65"/>
     </g>
    </g>
   </g>
  </g>
 </g>
 <defs>
  <clipPath id="p636d61872d">
   <rect height="564.795" width="702.505562" x="356.381594" y="88.02"/>
  </clipPath>
 </defs>
</svg>
