<?xml version="1.0" encoding="UTF-8" standalone="no"?>
<!DOCTYPE svg PUBLIC "-//W3C//DTD SVG 1.1//EN" "http://www.w3.org/Graphics/SVG/1.1/DTD/svg11.dtd">
<svg width="841.92pt" height="595.32pt" viewBox="0 0 841.92 595.32" overflow="visible" version="1.1" xmlns="http://www.w3.org/2000/svg">
  <path d="M198.72,197.8773 C203.1358,197.8772 207.5506,198.2052 211.9212,198.8338 C216.2922,199.4622 220.619,200.3909 224.8691,201.5885 C229.1196,202.786 233.2935,204.2522 237.3679,205.9546 C241.4426,207.657 245.4179,209.5954 249.279,211.7382 C253.1403,213.8811 256.8875,216.2283 260.5125,218.7501 C264.1377,221.272 267.6407,223.9686 271.0186,226.813 C274.3967,229.6575 277.6497,232.6498 280.7784,235.7662 C283.9073,238.8827 286.9121,242.1233 289.7964,245.4673 C292.6807,248.8115 295.4446,252.2591 298.0936,255.7925 C300.7426,259.326 303.2766,262.9454 305.7025,266.6355 C308.1284,270.3258 310.4462,274.0869 312.6631,277.9063 C314.8801,281.7258 316.9962,285.6035 319.0193,289.5291 C321.0424,293.4547 322.9724,297.4281 324.817,301.4406 C326.6615,305.4532 328.4207,309.5049 330.1021,313.5886 C331.7834,317.6723 333.3869,321.7879 334.9198,325.9296 C336.4527,330.0713 337.9151,334.239 339.3138,338.4279 L343.3253,351.0543 L346.9936,363.7848 L350.3555,376.5996 L353.4454,389.4829 L356.2954,402.4214 L358.9356,415.4044 L361.3942,428.423 L363.6977,441.4701 L365.8709,454.5394 L367.9376,467.6261 L369.9203,480.7257 L371.8407,493.8347 L373.72,506.9496 L375.5789,520.0674" stroke="#000000" stroke-width="0.48" fill-opacity="0" />
  <path d="M198.72,197.8773 C203.1358,197.8772 207.5507,198.1966 211.9236,198.8094 C216.2968,199.4221 220.628,200.3279 224.886,201.4971 C229.1444,202.6662 233.3297,204.0986 237.4197,205.7634 C241.5099,207.4282 245.5048,209.3252 249.3898,211.4243 C253.2751,213.5235 257.0505,215.8246 260.7078,218.2994 C264.3653,220.7742 267.9047,223.4227 271.3226,226.2188 C274.7406,229.0151 278.0373,231.9591 281.2129,235.0278 C284.3885,238.0966 287.4432,241.2901 290.3799,244.5883 C293.3166,247.8865 296.1354,251.2893 298.8412,254.7794 C301.5471,258.2695 304.14,261.8469 306.626,265.4968 C309.1122,269.1467 311.4915,272.8692 313.7711,276.6515 C316.0506,280.434 318.2303,284.2764 320.3174,288.1682 C322.4045,292.0602 324.399,296.0016 326.3084,299.9836 C328.2178,303.9658 330.042,307.9886 331.7883,312.0449 C333.5346,316.1013 335.203,320.191 336.8005,324.3082 C338.398,328.4254 339.9247,332.5699 341.3873,336.737 L345.5892,349.3013 L349.4447,361.9763 L352.9901,374.7415 L356.2596,387.5804 L359.2854,400.4788 L362.0976,413.4256 L364.7245,426.4113 L367.1929,439.4281 L369.528,452.4694 L371.7541,465.5299 L373.894,478.6047 L375.9701,491.6899 L378.0039,504.7817 L380.0167,517.8767" stroke="#000000" stroke-width="0.48" fill-opacity="0" />
  <path d="M198.72,197.8773 C203.1359,197.8772 207.5508,198.1878 211.9259,198.7843 C216.3014,199.3806 220.6371,200.2627 224.9031,201.4025 C229.1695,202.5423 233.3663,203.9395 237.472,205.565 C241.5779,207.1906 245.5928,209.0444 249.5022,211.0977 C253.4119,213.151 257.2161,215.4039 260.9065,217.829 C264.5971,220.2542 268.1738,222.8518 271.6329,225.5968 C275.0922,228.342 278.4339,231.2346 281.6578,234.2524 C284.8818,237.2703 287.9882,240.4135 290.9793,243.6623 C293.9705,246.9112 296.8465,250.2658 299.6117,253.709 C302.3769,257.1523 305.0313,260.6842 307.5806,264.2903 C310.1299,267.8963 312.5741,271.5765 314.9195,275.3183 C317.265,279.0602 319.5117,282.8638 321.6667,286.7185 C323.8216,290.5733 325.8847,294.4792 327.8629,298.4276 C329.8412,302.3759 331.7347,306.3666 333.5503,310.3924 C335.3659,314.4181 337.1037,318.4789 338.7705,322.5685 C340.4373,326.6581 342.0331,330.7766 343.5644,334.9188 L347.9716,347.4125 L352.0296,360.024 L355.7744,372.7322 L359.2398,385.5195 L362.4578,398.3714 L365.4585,411.2757 L368.2705,424.2225 L370.9208,437.2035 L373.4349,450.2115 L375.8374,463.2406 L378.1517,476.2857 L380.4005,489.3422 L382.6061,502.4061 L384.7901,515.4737" stroke="#000000" stroke-width="0.48" fill-opacity="0" />
  <path d="M198.72,197.8773 C203.1359,197.8772 207.5509,198.1786 211.9283,198.7582 C216.306,199.3377 220.6462,200.1953 224.9203,201.3044 C229.1947,202.4136 233.4032,203.7742 237.5249,205.3588 C241.6468,206.9434 245.682,208.7519 249.6163,210.7571 C253.5509,212.7623 257.3846,214.9642 261.1089,217.3369 C264.8334,219.7097 268.4485,222.2533 271.95,224.944 C275.4518,227.6348 278.84,230.4726 282.114,233.436 C285.3882,236.3995 288.5482,239.4886 291.5959,242.6843 C294.6438,245.8801 297.5795,249.1825 300.4068,252.5749 C303.2341,255.9673 305.953,259.4498 308.5687,263.008 C311.1844,266.5662 313.6968,270.2001 316.1119,273.8973 C318.527,277.5947 320.8447,281.3553 323.0716,285.169 C325.2984,288.9826 327.4344,292.8492 329.4861,296.7599 C331.5377,300.6706 333.5051,304.6254 335.395,308.6168 C337.2848,312.6082 339.097,316.6363 340.8382,320.6948 C342.5795,324.7532 344.2497,328.8421 345.8553,332.9561 L350.4843,345.3693 L354.7623,357.9079 L358.7242,370.55 L362.4037,383.2773 L365.8326,396.0744 L369.0408,408.9287 L372.057,421.8294 L374.9085,434.7676 L377.621,447.7357 L380.2195,460.7271 L382.7278,473.7362 L385.1691,486.7581 L387.5661,499.7882 L389.941,512.8224" stroke="#000000" stroke-width="0.48" fill-opacity="0" />
  <path d="M198.72,197.8773 C203.1359,197.8772 207.551,198.1691 211.9307,198.7312 C216.3107,199.2932 220.6554,200.1252 224.9377,201.2025 C229.2203,202.2797 233.4406,203.6021 237.5785,205.1438 C241.7166,206.6855 245.7725,208.4464 249.7323,210.4009 C253.6923,212.3554 257.5562,214.5035 261.3153,216.8207 C265.0746,219.1379 268.7291,221.6242 272.2745,224.2569 C275.8199,226.8897 279.2563,229.6689 282.5823,232.5739 C285.9084,235.4789 289.1242,238.5098 292.2311,241.648 C295.338,244.7864 298.336,248.0322 301.2284,251.3693 C304.1208,254.7065 306.9075,258.1349 309.593,261.6406 C312.2786,265.1463 314.8631,268.7293 317.3518,272.3773 C319.8406,276.0255 322.2337,279.7387 324.537,283.5066 C326.8403,287.2746 329.0539,291.0972 331.184,294.9657 C333.3141,298.8343 335.3607,302.7486 337.3301,306.7014 C339.2996,310.6541 341.1919,314.6452 343.0133,318.6682 C344.8348,322.6913 346.5854,326.7465 348.2713,330.8282 L353.1411,343.1489 L357.6584,355.6032 L361.8577,368.1684 L365.7721,380.8254 L369.4329,393.558 L372.8702,406.3529 L376.1126,419.1987 L379.1873,432.0856 L382.1206,445.0054 L384.9376,457.9512 L387.6625,470.9167 L390.319,483.8963 L392.9301,496.8852 L395.5187,509.8786" stroke="#000000" stroke-width="0.48" fill-opacity="0" />
  <path d="M198.72,197.8773 C203.1359,197.8772 207.5511,198.1593 211.9332,198.7032 C216.3155,199.2469 220.6647,200.0523 224.9553,201.0962 C229.2461,202.1401 233.4783,203.4224 237.6328,204.919 C241.7875,206.4155 245.8645,208.1263 249.8502,210.0273 C253.8362,211.9282 257.731,214.0193 261.5259,216.2774 C265.3209,218.5356 269.0161,220.9608 272.6068,223.5314 C276.1975,226.1022 279.6836,228.8184 283.0636,231.6603 C286.4437,234.5024 289.7176,237.4703 292.8861,240.5462 C296.0547,243.6223 299.1181,246.8065 302.0787,250.0831 C305.0394,253.3598 307.8974,256.729 310.6567,260.1769 C313.4161,263.6248 316.0768,267.1516 318.6437,270.7451 C321.2106,274.3386 323.6837,277.9989 326.0686,281.7158 C328.4534,285.4326 330.75,289.2061 332.964,293.0271 C335.1781,296.8481 337.3097,300.7169 339.3648,304.6257 C341.42,308.5346 343.3986,312.4836 345.3068,316.4662 C347.215,320.4489 349.0526,324.4653 350.8258,328.5099 C352.5989,332.5545 354.3075,336.6273 355.9574,340.7238 L360.7362,353.0801 L365.1959,365.5552 L369.3687,378.1293 L373.2859,390.7854 L376.977,403.5094 L380.4707,416.289 L383.7943,429.114 L386.974,441.9753 L390.0355,454.8654 L393.0031,467.7775 L395.9011,480.7053 L398.7527,493.6435 L401.5814,506.5867" stroke="#000000" stroke-width="0.48" fill-opacity="0" />
  <path d="M198.72,197.8773 C203.1359,197.8772 207.5512,198.1491 211.9356,198.6739 C216.3202,199.1986 220.6741,199.9761 224.973,200.985 C229.2722,201.9939 233.5166,203.2341 237.6879,204.6831 C241.8594,206.1321 245.9579,207.7899 249.9703,209.6341 C253.9828,211.4782 257.9093,213.5087 261.741,215.7037 C265.5729,217.8988 269.3101,220.2585 272.9475,222.7625 C276.585,225.2665 280.1229,227.9148 283.559,230.6887 C286.9952,233.4626 290.3297,236.362 293.5628,239.3701 C296.796,242.3782 299.9278,245.4949 302.9602,248.7052 C305.9928,251.9155 308.926,255.2193 311.7634,258.6033 C314.6008,261.9873 317.3423,265.4515 319.9922,268.9842 C322.6423,272.5169 325.2007,276.118 327.6727,279.7775 C330.1447,283.437 332.5301,287.1548 334.8344,290.9221 C337.1387,294.6895 339.3618,298.5063 341.5094,302.3651 C343.657,306.224 345.7291,310.1247 347.7313,314.0609 C349.7335,317.9972 351.6659,321.9688 353.534,325.9704 C355.4022,329.972 357.2061,334.0035 358.9514,338.0602 L364.017,350.3017 L368.7632,362.6707 L373.2217,375.1462 L377.423,387.7109 L381.3964,400.3495 L385.1705,413.0491 L388.7724,425.7986 L392.2286,438.5884 L395.5647,451.4102 L398.8055,464.2563 L401.9755,477.1201 L405.0984,489.9955 L408.1978,502.8765" stroke="#000000" stroke-width="0.48" fill-opacity="0" />
  <path d="M198.72,197.8773 C203.1359,197.8772 207.5513,198.1384 211.938,198.6432 C216.3251,199.1479 220.6835,199.8962 224.991,200.8683 C229.2987,201.8403 233.5554,203.036 237.7439,204.4347 C241.9325,205.8334 246.053,207.435 250.0926,209.2186 C254.1324,211.0022 258.0915,212.9679 261.9612,215.0953 C265.8309,217.2228 269.6114,219.5121 273.2974,221.9441 C276.9834,224.3761 280.575,226.9509 284.0696,229.6506 C287.5644,232.3504 290.9622,235.1751 294.263,238.1088 C297.5638,241.0425 300.7676,244.0851 303.8759,247.222 C306.9841,250.359 309.9969,253.5904 312.917,256.9033 C315.8371,260.2162 318.6645,263.6105 321.4031,267.0749 C324.1417,270.5394 326.7914,274.0739 329.3567,277.6685 C331.9221,281.2632 334.403,284.9179 336.8045,288.624 C339.206,292.3302 341.528,296.0877 343.7758,299.889 C346.0235,303.6903 348.197,307.5355 350.3015,311.4179 C352.4061,315.3004 354.4417,319.2202 356.4137,323.1716 C358.3857,327.123 360.2942,331.1061 362.1443,335.116 L367.5254,347.2221 L372.5883,359.4648 L377.3636,371.8226 L381.8812,384.2769 L386.17,396.812 L390.2582,409.4139 L394.1728,422.0709 L397.9403,434.7725 L401.5863,447.5095 L405.1359,460.2737 L408.6136,473.0577 L412.0437,485.8546 L415.45,498.6579" stroke="#000000" stroke-width="0.48" fill-opacity="0" />
  <path d="M198.72,197.8773 C203.1359,197.8772 207.5513,198.1272 211.9405,198.6109 C216.3299,199.0946 220.6931,199.8121 225.0092,200.7452 C229.3255,201.6782 233.5947,202.8268 237.8007,204.172 C242.0069,205.5171 246.1498,207.0587 250.2175,208.7775 C254.2852,210.4964 258.2778,212.3925 262.1866,214.4471 C266.0956,216.5018 269.9209,218.7149 273.6572,221.0688 C277.3936,223.4227 281.0411,225.9173 284.5969,228.5359 C288.1528,231.1547 291.617,233.8975 294.9889,236.7491 C298.3608,239.6008 301.6404,242.5613 304.8287,245.6169 C308.017,248.6725 311.1141,251.8231 314.1221,255.0563 C317.1302,258.2895 320.0492,261.6053 322.8825,264.9927 C325.7158,268.3802 328.4633,271.8392 331.129,275.36 C333.7947,278.8808 336.3787,282.4635 338.8852,286.0993 C341.3918,289.7352 343.821,293.4243 346.1775,297.1591 C348.5341,300.894 350.8181,304.6745 353.0344,308.4943 C355.2506,312.314 357.3993,316.173 359.4853,320.0654 C361.5713,323.9579 363.5947,327.8838 365.5605,331.8383 L371.2902,343.7833 L376.7043,355.8747 L381.8326,368.0901 L386.7039,380.4104 L391.3467,392.8187 L395.7883,405.3004 L400.0559,417.8427 L404.1755,430.4345 L408.1728,443.0656 L412.073,455.7271 L415.9006,468.4107 L419.6801,481.1087 L423.4357,493.8139" stroke="#000000" stroke-width="0.48" fill-opacity="0" />
  <path d="M198.72,197.8773 C203.1359,197.8772 207.5514,198.1153 211.9431,198.5768 C216.3348,199.0383 220.7027,199.723 225.0276,200.6147 C229.3527,201.5063 233.6347,202.6047 237.8586,203.8925 C242.0827,205.1804 246.2486,206.6577 250.345,208.3068 C254.4415,209.956 258.4686,211.777 262.4179,213.7527 C266.3674,215.7284 270.2391,217.8587 274.0279,220.1273 C277.8167,222.3959 281.5225,224.8027 285.1423,227.3322 C288.7621,229.8617 292.296,232.5139 295.7427,235.2746 C299.1895,238.0354 302.5492,240.9045 305.8223,243.869 C309.0955,246.8335 312.2821,249.8934 315.3839,253.0367 C318.4857,256.1801 321.5027,259.407 324.4375,262.7068 C327.3723,266.0067 330.2251,269.3794 332.9991,272.8155 C335.7731,276.2516 338.4684,279.7512 341.0889,283.3058 C343.7094,286.8604 346.2551,290.47 348.7303,294.1273 C351.2056,297.7845 353.6104,301.4894 355.9492,305.2354 C358.288,308.9814 360.5609,312.7684 362.7725,316.5909 C364.984,320.4134 367.1344,324.2712 369.2281,328.1595 L375.3446,339.9111 L381.1504,351.8194 L386.6736,363.8614 L391.9423,376.0169 L396.9839,388.2686 L401.8253,400.6007 L406.4929,412.9996 L411.0128,425.4533 L415.4102,437.9507 L419.7103,450.482 L423.9377,463.038 L428.1168,475.6101 L432.2717,488.1903" stroke="#000000" stroke-width="0.48" fill-opacity="0" />
  <path d="M198.72,197.8773 C203.1359,197.8773 207.5515,198.1028 211.9456,198.5406 C216.3398,198.9783 220.7125,199.6282 225.0464,200.4755 C229.3803,201.3228 233.6754,202.3673 237.9176,203.5935 C242.1599,204.8198 246.3495,206.2276 250.4755,207.8013 C254.6016,209.3749 258.6643,211.1143 262.6555,213.0038 C266.6469,214.8934 270.567,216.9331 274.4103,219.1078 C278.2538,221.2826 282.0205,223.5924 285.7074,226.023 C289.3944,228.4537 293.0015,231.0052 296.5273,233.6642 C300.0531,236.3232 303.4976,239.0897 306.8609,241.9515 C310.2242,244.8134 313.5062,247.7705 316.7082,250.8117 C319.9102,253.8529 323.0322,256.9782 326.0763,260.1775 C329.1204,263.3768 332.0866,266.6501 334.9778,269.9882 C337.869,273.3263 340.6852,276.7293 343.4298,280.189 C346.1744,283.6487 348.8474,287.1651 351.4525,290.7309 C354.0577,294.2968 356.5951,297.9121 359.0688,301.5703 C361.5424,305.2287 363.9524,308.93 366.303,312.6686 C368.6536,316.4072 370.9447,320.1831 373.1808,323.9913 L379.7285,335.5081 L385.9726,347.1925 L391.94,359.0206 L397.6572,370.9718 L403.1507,383.0275 L408.4464,395.1714 L413.5702,407.3889 L418.5474,419.6669 L423.403,431.9935 L428.1619,444.3578 L432.8483,456.7497 L437.4866,469.1598 L442.1009,481.5788" stroke="#000000" stroke-width="0.48" fill-opacity="0" />
  <path d="M198.72,197.8773 C203.136,197.8773 207.5516,198.0894 211.9482,198.5017 C216.3448,198.914 220.7225,199.5266 225.0654,200.326 C229.4084,201.1255 233.7167,202.1119 237.9777,203.2713 C242.2388,204.4307 246.4526,205.7631 250.6091,207.2543 C254.7658,208.7455 258.8652,210.3955 262.9,212.1903 C266.9348,213.9851 270.9051,215.9247 274.8055,217.9954 C278.7059,220.0662 282.5366,222.2681 286.294,224.5882 C290.0515,226.9084 293.7357,229.3467 297.3451,231.891 C300.9546,234.4354 304.4891,237.0857 307.9484,239.8307 C311.4076,242.5758 314.7916,245.4155 318.1011,248.3394 C321.4105,251.2634 324.6454,254.2715 327.8074,257.3543 C330.9693,260.4372 334.0584,263.5947 337.0768,266.8182 C340.0952,270.0418 343.043,273.3313 345.9231,276.679 C348.8032,280.0268 351.6155,283.4327 354.3634,286.8897 C357.1113,290.3467 359.7948,293.8549 362.4175,297.4079 C365.0402,300.9609 367.6021,304.5587 370.107,308.1956 L377.4549,319.2191 L384.4851,330.4479 L391.2222,341.855 L397.6911,353.4165 L403.9169,365.1107 L409.9245,376.9186 L415.739,388.8228 L421.385,400.8079 L426.8872,412.8597 L432.27,424.9654 L437.5574,437.113 L442.7735,449.2914 L447.9422,461.4901 L453.0872,473.6987" stroke="#000000" stroke-width="0.48" fill-opacity="0" />
  <path d="M198.72,197.8773 C203.136,197.8773 207.5517,198.075 211.9508,198.4598 C216.3499,198.8446 220.7325,199.4166 225.0847,200.1641 C229.437,200.9116 233.7589,201.8346 238.0391,202.9209 C242.3194,204.0072 246.5581,205.2568 250.7461,206.6572 C254.9342,208.0576 259.0717,209.6088 263.1516,211.2984 C267.2317,212.9881 271.2542,214.8161 275.2142,216.7704 C279.1743,218.7248 283.0718,220.8055 286.9035,223.0008 C290.7352,225.1962 294.501,227.5062 298.199,229.9199 C301.8971,232.3337 305.5273,234.8511 309.089,237.4618 C312.6507,240.0726 316.1439,242.7767 319.5687,245.5645 C322.9936,248.3524 326.3502,251.2239 329.6396,254.1703 C332.9291,257.1168 336.1514,260.1381 339.3083,263.2261 C342.4652,266.3141 345.5567,269.4688 348.5852,272.6829 C351.6137,275.8969 354.5792,279.1703 357.4845,282.4962 C360.3897,285.8221 363.2347,289.2005 366.0226,292.6254 C368.8105,296.0503 371.5413,299.5216 374.2183,303.0338 L382.0916,313.6882 L389.664,324.5587 L396.9577,335.6183 L403.9955,346.8425 L410.8003,358.2095 L417.3958,369.6994 L423.8051,381.2941 L430.052,392.9772 L436.1597,404.7337 L442.1517,416.5497 L448.0512,428.412 L453.8815,440.3086 L459.6656,452.2277 L465.4267,464.158" stroke="#000000" stroke-width="0.48" fill-opacity="0" />
  <path d="M198.72,197.8773 C203.136,197.8773 207.5518,198.0592 211.9534,198.4141 C216.3551,198.7689 220.7427,199.2965 225.1043,199.9869 C229.466,200.6774 233.8018,201.5306 238.1017,202.5361 C242.4017,203.5416 246.666,204.6994 250.8865,205.9987 C255.1071,207.298 259.2839,208.7388 263.4108,210.3104 C267.5377,211.882 271.6147,213.5844 275.637,215.407 C279.6594,217.2296 283.6271,219.1724 287.537,221.2253 C291.4469,223.2782 295.2989,225.4411 299.0909,227.7043 C302.883,229.9675 306.6151,232.3309 310.2861,234.7854 C313.9572,237.24 317.5674,239.7855 321.1164,242.4134 C324.6655,245.0414 328.1534,247.7516 331.581,250.5362 C335.0085,253.3208 338.3756,256.1797 341.6835,259.1053 C344.9915,262.0309 348.2402,265.0234 351.4317,268.0757 C354.6231,271.128 357.7573,274.2401 360.8363,277.4058 C363.9153,280.5715 366.9393,283.7907 369.9107,287.0575 C372.8822,290.3244 375.8012,293.639 378.6705,296.9959 L387.1328,307.1888 L395.3162,317.6071 L403.2401,328.2242 L410.9249,339.0157 L418.3914,349.9595 L425.6609,361.0351 L432.755,372.224 L439.6954,383.5089 L446.504,394.8738 L453.2028,406.3039 L459.8136,417.785 L466.3585,429.3039 L472.8595,440.8476 L479.3385,452.4037" stroke="#000000" stroke-width="0.48" fill-opacity="0" />
  <path d="M198.72,197.8773 C203.136,197.8773 207.5518,198.042 211.9561,198.3636 C216.3603,198.6852 220.753,199.1637 225.1242,199.7907 C229.4955,200.4177 233.8453,201.1932 238.1654,202.1083 C242.4856,203.0234 246.7761,204.0782 251.03,205.2635 C255.284,206.4489 259.5014,207.7648 263.6769,209.2023 C267.8525,210.6397 271.9861,212.1987 276.0735,213.8703 C280.1609,215.5419 284.2023,217.326 288.1943,219.2141 C292.1864,221.1021 296.1293,223.094 300.0209,225.1813 C303.9125,227.2686 307.7529,229.4514 311.5407,231.7216 C315.3286,233.9918 319.0639,236.3494 322.7464,238.7868 C326.4289,241.2242 330.0585,243.7414 333.6355,246.3312 C337.2125,248.921 340.7368,251.5834 344.2094,254.3116 C347.6819,257.0398 351.1026,259.8339 354.4728,262.6876 C357.8431,265.5413 361.1628,268.4545 364.4338,271.4214 C367.7047,274.3884 370.9269,277.409 374.1024,280.4779 L383.491,289.8246 L392.6136,299.4311 L401.4856,309.2696 L410.1235,319.3143 L418.5449,329.5414 L426.7679,339.9287 L434.8112,350.4558 L442.694,361.1037 L450.4359,371.8545 L458.0567,382.6916 L465.5762,393.5991 L473.0147,404.5622 L480.3923,415.5663 L487.7292,426.5975 L495.0458,437.6423" stroke="#000000" stroke-width="0.48" fill-opacity="0" />
  <path d="M198.72,197.8773 C203.136,197.8773 207.5519,198.0227 211.9587,198.3071 C216.3656,198.5915 220.7633,199.0149 225.1442,199.5705 C229.5252,200.126 233.8893,200.8136 238.2299,201.6261 C242.5705,202.4387 246.8876,203.3761 251.1758,204.4312 C255.4639,205.4862 259.7231,206.6588 263.9486,207.9417 C268.1743,209.2245 272.3663,210.6176 276.5213,212.1135 C280.6762,213.6094 284.7941,215.2082 288.8721,216.9026 C292.9501,218.5971 296.9883,220.3873 300.9847,222.2661 C304.9812,224.1449 308.9359,226.1125 312.8475,228.162 C316.7592,230.2114 320.6279,232.3429 324.453,234.5498 C328.2781,236.7567 332.0595,239.039 335.7974,241.3907 C339.5352,243.7424 343.2294,246.1633 346.8803,248.6477 C350.5313,251.1322 354.139,253.68 357.7043,256.2858 C361.2697,258.8916 364.7926,261.5553 368.2744,264.2717 L378.5979,272.5741 L388.6839,281.1635 L398.5432,290.0125 L408.1878,299.0949 L417.631,308.3866 L426.8872,317.8648 L435.9713,327.5081 L444.8991,337.2963 L453.6868,347.2105 L462.3511,357.2328 L470.909,367.3461 L479.3781,377.534 L487.7756,387.7809 L496.1195,398.0716 L504.4275,408.3912 L512.7175,418.7253" stroke="#000000" stroke-width="0.48" fill-opacity="0" />
  <path d="M198.72,197.8773 C203.136,197.8773 207.552,198.0009 211.9613,198.243 C216.3707,198.485 220.7735,198.8456 225.1641,199.3193 C229.5546,199.793 233.9329,200.3799 238.294,201.0742 C242.6551,201.7686 246.999,202.5706 251.3215,203.4744 C255.6441,204.3782 259.9453,205.3839 264.2217,206.4857 C268.498,207.5876 272.7496,208.7856 276.9735,210.074 C281.1974,211.3625 285.3937,212.7414 289.5601,214.2051 C293.7265,215.6688 297.8631,217.2173 301.9681,218.8452 C306.0732,220.473 310.1469,222.1802 314.1878,223.9612 C318.2288,225.7423 322.2372,227.5972 326.2122,229.5209 C330.1873,231.4445 334.1291,233.4369 338.0373,235.4929 C341.9456,237.549 345.8203,239.6687 349.6616,241.8472 L361.0858,248.5546 L372.3127,255.5874 L383.347,262.919 L394.1945,270.5241 L404.8631,278.3785 L415.3613,286.4593 L425.6989,294.7444 L435.8868,303.2132 L445.9364,311.8457 L455.8598,320.6229 L465.6699,329.5267 L475.3799,338.5396 L485.0033,347.6449 L494.5541,356.8263 L504.0466,366.068 L513.4952,375.3547 L522.9144,384.6711 L532.3188,394.0024" stroke="#000000" stroke-width="0.48" fill-opacity="0" />
  <path d="M198.72,197.8773 C203.136,197.8773 207.552,197.9758 211.9638,198.169 C216.3757,198.3622 220.7833,198.6502 225.183,199.029 C229.5828,199.4077 233.9747,199.8773 238.3556,200.4337 C242.7364,200.99 247.1062,201.6332 251.4622,202.359 C255.8182,203.0848 260.1604,203.8934 264.4864,204.7805 C268.8124,205.6676 273.1223,206.6333 277.4141,207.6735 C281.7059,208.7136 285.9797,209.8283 290.2338,211.0133 C294.4879,212.1983 298.7223,213.4537 302.9359,214.7754 C307.1496,216.0972 311.3423,217.4852 315.5134,218.9357 L327.9609,223.4703 L340.2749,228.3559 L352.4536,233.5696 L364.4968,239.0894 L376.4056,244.8936 L388.1823,250.9614 L399.8305,257.2724 L411.3548,263.8071 L422.7605,270.5466 L434.0541,277.4724 L445.2426,284.5668 L456.3337,291.8127 L467.3356,299.1932 L478.257,306.6923 L489.1073,314.2942 L499.8958,321.9833 L510.6325,329.7448 L521.3274,337.5637 L531.9908,345.4255 L542.6331,353.3158 L553.2649,361.2204" stroke="#000000" stroke-width="0.48" fill-opacity="0" />
  <path d="M198.72,197.8773 C203.1361,197.8773 207.5521,197.9467 211.966,198.0832 L225.1998,198.6908 L238.4101,199.685 L251.5873,201.0502 L264.7229,202.7709 L277.8095,204.8315 L290.841,207.2162 L303.8122,209.9094 L316.7192,212.8956 L329.5589,216.1593 L342.329,219.6852 L355.0284,223.4583 L367.6564,227.4637 L380.2133,231.6868 L392.7001,236.1131 L405.1183,240.7285 L417.4699,245.5191 L429.7577,250.4711 L441.9848,255.5712 L454.1549,260.8061 L466.2718,266.1628 L478.34,271.6284 L490.3641,277.1905 L502.349,282.8365 L514.2999,288.5542 L526.2221,294.3314 L538.1212,300.1561 L550.0029,306.0162 L561.8729,311.9 L573.737,317.7957" stroke="#000000" stroke-width="0.48" fill-opacity="0" />
  <polygon fill="#FF0000" fill-opacity="1.0" points="512.7175,418.7253 515.6415,407.0296 509.7936,407.0296" />
  <path d="M198.72,197.8773 L211.9676,197.9847 L225.2119,198.302 L238.4498,198.8218 L251.6786,199.5366 L264.8959,200.4389 L278.0997,201.5212 L291.2883,202.776 L304.4601,204.1959 L317.614,205.7732 L330.749,207.5006 L343.8645,209.3707 L356.96,211.3759 L370.0354,213.5089 L383.0905,215.7623 L396.1255,218.1289 L409.141,220.6012 L422.1374,223.1721 L435.1153,225.8343 L448.0757,228.5807 L461.0195,231.4041 L473.948,234.2974 L486.8622,237.2534 L499.7635,240.2652 L512.6533,243.3257 L525.5332,246.428 L538.4047,249.5649 L551.2693,252.7296 L564.1289,255.9151 L576.985,259.1145 L589.8394,262.3207" stroke="#000000" stroke-width="0.48" fill-opacity="0" />
  <polygon fill="#FF0000" fill-opacity="1.0" points="495.0459,437.6423 497.9698,425.9466 492.1219,425.9466" />
  <path d="M512.7175,378.9807 L512.7175,407.0296" stroke="#FF0000" stroke-width="0.48" fill-opacity="0" />
  <polygon fill="#FF0000" fill-opacity="1.0" points="415.45,498.6579 418.3739,486.9622 412.5261,486.9622" />
  <path d="M495.0458,397.8976 L495.0458,425.9466" stroke="#FF0000" stroke-width="0.48" fill-opacity="0" />
  <polygon fill="#FF0000" fill-opacity="1.0" points="479.3385,452.4037 482.2625,440.708 476.4146,440.708" />
  <path d="M415.45,458.9133 L415.45,486.9622" stroke="#FF0000" stroke-width="0.48" fill-opacity="0" />
  <polygon fill="#FF0000" fill-opacity="1.0" points="465.4267,464.158 468.3506,452.4623 462.5028,452.4623" />
  <path d="M479.3385,412.659 L479.3385,440.7079" stroke="#FF0000" stroke-width="0.48" fill-opacity="0" />
  <polygon fill="#FF0000" fill-opacity="1.0" points="408.1978,502.8765 411.1218,491.1808 405.2739,491.1808" />
  <path d="M465.4267,424.4134 L465.4267,452.4623" stroke="#FF0000" stroke-width="0.48" fill-opacity="0" />
  <polygon fill="#FF0000" fill-opacity="1.0" points="389.941,512.8224 392.8649,501.1267 387.0171,501.1267" />
  <path d="M408.1978,463.1318 L408.1978,491.1808" stroke="#FF0000" stroke-width="0.48" fill-opacity="0" />
  <polygon fill="#FF0000" fill-opacity="1.0" points="453.0872,473.6988 456.0111,462.0031 450.1633,462.0031" />
  <path d="M389.941,473.0778 L389.941,501.1267" stroke="#FF0000" stroke-width="0.48" fill-opacity="0" />
  <polygon fill="#FF0000" fill-opacity="1.0" points="380.0167,517.8768 382.9406,506.1811 377.0928,506.1811" />
  <path d="M453.0872,433.9541 L453.0872,462.003" stroke="#FF0000" stroke-width="0.48" fill-opacity="0" />
  <polygon fill="#FF0000" fill-opacity="1.0" points="442.1009,481.5788 445.0248,469.8831 439.177,469.8831" />
  <path d="M380.0167,478.1321 L380.0167,506.181" stroke="#FF0000" stroke-width="0.48" fill-opacity="0" />
  <polygon fill="#FF0000" fill-opacity="1.0" points="596.1664,197.8773 599.0903,186.1816 593.2424,186.1816" />
  <path d="M442.1009,441.8341 L442.1009,469.8831" stroke="#FF0000" stroke-width="0.48" fill-opacity="0" />
  <polygon fill="#FF0000" fill-opacity="1.0" points="401.5814,506.5867 404.5053,494.891 398.6575,494.891" />
  <path d="M596.1663,158.1327 L596.1663,186.1816" stroke="#FF0000" stroke-width="0.48" fill-opacity="0" />
  <polygon fill="#FF0000" fill-opacity="1.0" points="589.8394,262.3208 592.7634,250.6251 586.9155,250.6251" />
  <path d="M401.5814,466.842 L401.5814,494.891" stroke="#FF0000" stroke-width="0.48" fill-opacity="0" />
  <polygon fill="#FF0000" fill-opacity="1.0" points="573.737,317.7957 576.6609,306.1 570.8131,306.1" />
  <path d="M589.8394,222.5761 L589.8394,250.625" stroke="#FF0000" stroke-width="0.48" fill-opacity="0" />
  <polygon fill="#FF0000" fill-opacity="1.0" points="432.2717,488.1903 435.1956,476.4946 429.3478,476.4946" />
  <path d="M573.737,278.051 L573.737,306.0999" stroke="#FF0000" stroke-width="0.48" fill-opacity="0" />
  <polygon fill="#FF0000" fill-opacity="1.0" points="553.2649,361.2204 556.1888,349.5247 550.341,349.5247" />
  <path d="M432.2717,448.4457 L432.2717,476.4946" stroke="#FF0000" stroke-width="0.48" fill-opacity="0" />
  <polygon fill="#FF0000" fill-opacity="1.0" points="532.3189,394.0024 535.2428,382.3067 529.395,382.3067" />
  <path d="M553.2649,321.4758 L553.2649,349.5247" stroke="#FF0000" stroke-width="0.48" fill-opacity="0" />
  <polygon fill="#FF0000" fill-opacity="1.0" points="423.4357,493.8139 426.3596,482.1182 420.5117,482.1182" />
  <path d="M532.3188,354.2578 L532.3188,382.3067" stroke="#FF0000" stroke-width="0.48" fill-opacity="0" />
  <polygon fill="#FF0000" fill-opacity="1.0" points="395.5187,509.8786 398.4427,498.1829 392.5948,498.1829" />
  <path d="M423.4357,454.0693 L423.4357,482.1182" stroke="#FF0000" stroke-width="0.48" fill-opacity="0" />
  <polygon fill="#FF0000" fill-opacity="1.0" points="384.7901,515.4737 387.714,503.778 381.8661,503.778" />
  <path d="M395.5187,470.1339 L395.5187,498.1829" stroke="#FF0000" stroke-width="0.48" fill-opacity="0" />
  <polygon fill="#00FF00" fill-opacity="1.0" points="198.72,197.8773 210.4157,200.8012 210.4157,194.9534" />
  <path d="M384.7901,475.729 L384.7901,503.778" stroke="#FF0000" stroke-width="0.48" fill-opacity="0" />
  <polygon fill="#00FF00" fill-opacity="1.0" points="198.72,197.8773 198.72,197.8773 198.72,197.8773" />
  <polygon fill="#00FF00" fill-opacity="1.0" points="198.72,197.8773 201.6439,186.1816 195.7961,186.1816" />
  <path d="M199.1175,197.8773 L198.72,197.8773 L198.72,197.8773" stroke="#00FF00" stroke-width="0.48" fill-opacity="0" />
  <path d="M198.72,197.8773 L211.9682,197.8773 L225.2164,197.8773 L238.4646,197.8773 L251.7129,197.8773 L264.9611,197.8773 L278.2093,197.8773 L291.4575,197.8773 L304.7057,197.8773 L317.9539,197.8773 L331.2021,197.8773 L344.4503,197.8773 L357.6985,197.8773 L370.9467,197.8773 L384.195,197.8773 L397.4432,197.8773 L410.6914,197.8773 L423.9396,197.8773 L437.1878,197.8773 L450.436,197.8773 L463.6842,197.8773 L476.9324,197.8773 L490.1807,197.8773 L503.4289,197.8773 L516.6771,197.8773 L529.9253,197.8773 L543.1735,197.8773 L556.4217,197.8773 L569.6699,197.8773 L582.9182,197.8773 L596.1663,197.8773" stroke="#000000" stroke-width="0.48" fill-opacity="0" />
  <path d="M198.72,197.8773 z" stroke="#00FF00" stroke-width="0.48" fill-opacity="0" />
</svg>