<?xml version="1.0" encoding="UTF-8" standalone="no"?>
<!DOCTYPE svg PUBLIC "-//W3C//DTD SVG 1.1//EN" "http://www.w3.org/Graphics/SVG/1.1/DTD/svg11.dtd">
<svg width="841.92pt" height="595.32pt" viewBox="0 0 841.92 595.32" overflow="visible" version="1.1" xmlns="http://www.w3.org/2000/svg">
  <path d="M198.72,197.8773 C203.136,197.8773 207.552,198.0009 211.9613,198.243 C216.3707,198.485 220.7735,198.8456 225.1641,199.3193 C229.5546,199.793 233.9329,200.3799 238.294,201.0742 C242.6551,201.7686 246.999,202.5706 251.3215,203.4744 C255.6441,204.3782 259.9453,205.3839 264.2217,206.4857 C268.498,207.5876 272.7496,208.7856 276.9735,210.074 C281.1974,211.3625 285.3937,212.7414 289.5601,214.2051 C293.7265,215.6688 297.8631,217.2173 301.9681,218.8452 C306.0732,220.473 310.1469,222.1802 314.1878,223.9612 C318.2288,225.7423 322.2372,227.5972 326.2122,229.5209 C330.1873,231.4445 334.1291,233.4369 338.0373,235.4929 C341.9456,237.549 345.8203,239.6687 349.6616,241.8472 L361.0858,248.5546 L372.3127,255.5874 L383.347,262.919 L394.1945,270.5241 L404.8631,278.3785 L415.3613,286.4593 L425.6989,294.7444 L435.8868,303.2132 L445.9364,311.8457 L455.8598,320.6229 L465.6699,329.5267 L475.3798,338.5396 L485.0032,347.6449 L494.5541,356.8263 L504.0466,366.068 L513.4952,375.3547 L522.9144,384.6711 L532.3188,394.0024" stroke="#000000" stroke-width="0.48" fill-opacity="0" />
  <path d="M198.72,197.8773 C203.136,197.8773 207.552,197.9913 211.9624,198.2147 C216.3727,198.4381 220.7775,198.7709 225.1718,199.2084 C229.5661,199.6459 233.95,200.188 238.3191,200.8298 C242.6883,201.4716 247.0427,202.2132 251.3789,203.0493 C255.715,203.8855 260.0329,204.8164 264.3294,205.8368 C268.6259,206.8573 272.9011,207.9673 277.1525,209.1619 C281.4039,210.3565 285.6315,211.6356 289.8334,212.9943 C294.0352,214.3529 298.2114,215.7911 302.3602,217.3039 C306.5091,218.8167 310.6307,220.4041 314.724,222.0612 C318.8174,223.7184 322.8824,225.4453 326.9185,227.2374 C330.9547,229.0294 334.9619,230.8865 338.9398,232.8042 L350.7861,238.7343 L362.4577,245.0016 L373.9566,251.5804 L385.2864,258.4465 L396.4521,265.5764 L407.4601,272.9476 L418.3177,280.5386 L429.0334,288.3287 L439.6163,296.2983 L450.0766,304.4283 L460.4248,312.7005 L470.6721,321.0973 L480.8302,329.6019 L490.9112,338.1979 L500.9274,346.8692 L510.8915,355.6004 L520.8163,364.3762 L530.7149,373.1816 L540.6003,382.0017" stroke="#000000" stroke-width="0.48" fill-opacity="0" />
  <path d="M198.72,197.8773 C203.136,197.8773 207.552,197.9811 211.9634,198.1847 C216.3747,198.3883 220.7814,198.6917 225.1794,199.0906 C229.5773,199.4896 233.9666,199.9841 238.3436,200.5699 C242.7207,201.1557 247.0854,201.8327 251.4349,202.5965 C255.7844,203.3604 260.1186,204.2112 264.4349,205.1443 C268.7512,206.0774 273.0497,207.093 277.3282,208.1866 C281.6067,209.2801 285.8653,210.4517 290.1021,211.6968 C294.339,212.942 298.5542,214.2608 302.7465,215.6488 C306.9387,217.0368 311.108,218.4941 315.2534,220.0164 C319.3988,221.5387 323.5203,223.1261 327.6172,224.7742 L339.8343,229.8973 L351.9028,235.3613 L363.8226,241.1426 L375.5951,247.2184 L387.2231,253.5666 L398.7104,260.1658 L410.0624,266.9953 L421.2851,274.0354 L432.3855,281.2668 L443.3713,288.6712 L454.2511,296.2306 L465.0339,303.9277 L475.7292,311.746 L486.3472,319.669 L496.8981,327.6812 L507.3927,335.7669 L517.842,343.9112 L528.2571,352.0991 L538.6493,360.316 L549.0301,368.5474" stroke="#000000" stroke-width="0.48" fill-opacity="0" />
  <path d="M198.72,197.8773 C203.1361,197.8773 207.5521,197.9703 211.9643,198.1529 C216.3766,198.3354 220.7851,198.6075 225.1866,198.9654 C229.5881,199.3233 233.9826,199.7671 238.3672,200.2931 C242.7519,200.8191 247.1266,201.4272 251.489,202.1137 C255.8513,202.8001 260.2013,203.565 264.5369,204.4044 C268.8724,205.2439 273.1935,206.1578 277.4983,207.1426 C281.8032,208.1273 286.0918,209.1828 290.3629,210.3053 C294.6339,211.4278 298.8873,212.6173 303.1219,213.87 L315.7689,217.8141 L328.2989,222.1155 L340.7087,226.7526 L352.9965,231.704 L365.1618,236.9491 L377.2057,242.4675 L389.1302,248.2397 L400.9381,254.2464 L412.6338,260.4692 L424.2219,266.8901 L435.7082,273.4915 L447.0989,280.2565 L458.4009,287.1686 L469.6219,294.2117 L480.7695,301.3702 L491.8523,308.6289 L502.8788,315.9728 L513.8579,323.3872 L524.799,330.8578 L535.7112,338.3703 L546.6043,345.9107 L557.4877,353.4651" stroke="#000000" stroke-width="0.48" fill-opacity="0" />
  <path d="M198.72,197.8773 C203.1361,197.8773 207.5521,197.9589 211.9652,198.119 C216.3784,198.2792 220.7886,198.518 225.1935,198.8322 C229.5983,199.1465 233.9978,199.5363 238.3896,199.9984 C242.7814,200.4605 247.1656,200.995 251.5401,201.5987 C255.9147,202.2023 260.2798,202.8752 264.6336,203.614 L277.66,206.0253 L290.611,208.8132 L303.4799,211.9588 L316.2614,215.443 L328.9514,219.2471 L341.5471,223.3526 L354.047,227.7413 L366.4505,232.3954 L378.7582,237.2974 L390.9715,242.4303 L403.0926,247.7773 L415.1245,253.322 L427.071,259.0486 L438.9364,264.9414 L450.7256,270.9853 L462.4441,277.1653 L474.0976,283.4669 L485.6925,289.8758 L497.2353,296.3779 L508.733,302.9596 L520.1927,309.6072 L531.6218,316.3073 L543.0278,323.0468 L554.4183,329.8123 L565.801,336.5909" stroke="#000000" stroke-width="0.48" fill-opacity="0" />
  <path d="M198.72,197.8773 C203.1361,197.8773 207.5521,197.9467 211.966,198.0832 L225.1998,198.6908 L238.4101,199.685 L251.5873,201.0502 L264.7229,202.7709 L277.8095,204.8315 L290.841,207.2162 L303.8122,209.9094 L316.7192,212.8956 L329.5589,216.1593 L342.329,219.6852 L355.0284,223.4583 L367.6564,227.4637 L380.2133,231.6868 L392.7001,236.1131 L405.1183,240.7285 L417.4699,245.5191 L429.7577,250.4711 L441.9848,255.5712 L454.1549,260.8061 L466.2718,266.1628 L478.34,271.6284 L490.3641,277.1905 L502.349,282.8365 L514.2999,288.5542 L526.2221,294.3314 L538.1212,300.1561 L550.0029,306.0162 L561.8729,311.9 L573.737,317.7957" stroke="#000000" stroke-width="0.48" fill-opacity="0" />
  <path d="M198.72,197.8773 L211.9668,198.0452 L225.2053,198.5411 L238.4283,199.3528 L251.6292,200.4682 L264.8022,201.875 L277.9424,203.561 L291.0457,205.5138 L304.1085,207.7211 L317.1281,210.1707 L330.1023,212.8505 L343.0295,215.7483 L355.9089,218.8521 L368.7399,222.15 L381.5227,225.6304 L394.2578,229.2815 L406.9461,233.0919 L419.5891,237.0503 L432.1885,241.1453 L444.7464,245.3659 L457.2652,249.7012 L469.7475,254.1402 L482.1964,258.6723 L494.615,263.2868 L507.0066,267.9732 L519.3749,272.7211 L531.7233,277.5201 L544.0559,282.3599 L556.3764,287.2302 L568.6889,292.1209 L580.9973,297.0218" stroke="#000000" stroke-width="0.48" fill-opacity="0" />
  <path d="M198.72,197.8773 L211.9674,198.0053 L225.21,198.3835 L238.4435,199.0028 L251.6642,199.8543 L264.8686,200.9289 L278.0538,202.2175 L291.2174,203.7111 L304.3573,205.4007 L317.4719,207.2771 L330.5597,209.3313 L343.62,211.5544 L356.652,213.9375 L369.6555,216.4716 L382.6306,219.1479 L395.5773,221.9577 L408.4964,224.8922 L421.3886,227.9427 L434.2549,231.1008 L447.0964,234.3578 L459.9147,237.7053 L472.7113,241.1348 L485.488,244.638 L498.2465,248.2066 L510.9889,251.8323 L523.7173,255.5069 L536.434,259.2221 L549.1411,262.9698 L561.8409,266.7419 L574.536,270.5302 L587.2286,274.3265" stroke="#000000" stroke-width="0.48" fill-opacity="0" />
  <path d="M198.72,197.8773 L211.9678,197.9637 L225.2135,198.2191 L238.455,198.6374 L251.6906,199.2127 L264.9189,199.9392 L278.1383,200.8108 L291.3478,201.8215 L304.5465,202.9654 L317.7335,204.2366 L330.9083,205.6291 L344.0704,207.137 L357.2195,208.7543 L370.3554,210.4751 L383.4782,212.2936 L396.5879,214.2039 L409.6849,216.2001 L422.7693,218.2764 L435.8418,220.4269 L448.9029,222.646 L461.9531,224.9277 L474.9933,227.2663 L488.0241,229.6562 L501.0466,232.0915 L514.0615,234.5666 L527.07,237.0757 L540.0729,239.6131 L553.0714,242.1733 L566.0665,244.7504 L579.0594,247.3389 L592.0512,249.933" stroke="#000000" stroke-width="0.48" fill-opacity="0" />
  <polygon fill="#FF0000" fill-opacity="1.0" points="587.2286,274.3265 590.1526,262.6308 584.3047,262.6308" />
  <path d="M198.72,197.8773 L211.9681,197.9209 L225.2157,198.0495 L238.4622,198.2604 L251.7072,198.5506 L264.9503,198.917 L278.1912,199.3567 L291.4296,199.8669 L304.6652,200.4444 L317.8978,201.0865 L331.1273,201.79 L344.3536,202.5522 L357.5765,203.3699 L370.7961,204.2404 L384.0123,205.1606 L397.2252,206.1275 L410.4348,207.1384 L423.6412,208.1901 L436.8445,209.2798 L450.0449,210.4046 L463.2425,211.5615 L476.4375,212.7475 L489.6301,213.9599 L502.8206,215.1956 L516.0091,216.4517 L529.1959,217.7253 L542.3813,219.0134 L555.5657,220.3133 L568.7491,221.6219 L581.9319,222.9363 L595.1145,224.2536" stroke="#000000" stroke-width="0.48" fill-opacity="0" />
  <polygon fill="#FF0000" fill-opacity="1.0" points="580.9973,297.0218 583.9213,285.3261 578.0734,285.3261" />
  <path d="M587.2286,234.5819 L587.2286,262.6308" stroke="#FF0000" stroke-width="0.48" fill-opacity="0" />
  <polygon fill="#FF0000" fill-opacity="1.0" points="557.4877,353.4651 560.4117,341.7694 554.5638,341.7694" />
  <path d="M580.9973,257.2771 L580.9973,285.3261" stroke="#FF0000" stroke-width="0.48" fill-opacity="0" />
  <polygon fill="#FF0000" fill-opacity="1.0" points="540.6004,382.0017 543.5243,370.3061 537.6765,370.3061" />
  <path d="M557.4877,313.7204 L557.4877,341.7694" stroke="#FF0000" stroke-width="0.48" fill-opacity="0" />
  <polygon fill="#FF0000" fill-opacity="1.0" points="573.737,317.7957 576.6609,306.1 570.8131,306.1" />
  <path d="M540.6003,342.2571 L540.6003,370.306" stroke="#FF0000" stroke-width="0.48" fill-opacity="0" />
  <polygon fill="#FF0000" fill-opacity="1.0" points="596.1664,197.8773 599.0903,186.1816 593.2424,186.1816" />
  <path d="M573.737,278.051 L573.737,306.0999" stroke="#FF0000" stroke-width="0.48" fill-opacity="0" />
  <polygon fill="#FF0000" fill-opacity="1.0" points="595.1145,224.2536 598.0385,212.5579 592.1906,212.5579" />
  <path d="M596.1663,158.1327 L596.1663,186.1816" stroke="#FF0000" stroke-width="0.48" fill-opacity="0" />
  <polygon fill="#FF0000" fill-opacity="1.0" points="592.0512,249.933 594.9752,238.2373 589.1273,238.2373" />
  <path d="M595.1145,184.509 L595.1145,212.5579" stroke="#FF0000" stroke-width="0.48" fill-opacity="0" />
  <polygon fill="#FF0000" fill-opacity="1.0" points="565.8011,336.5909 568.725,324.8952 562.8771,324.8952" />
  <path d="M592.0512,210.1884 L592.0512,238.2373" stroke="#FF0000" stroke-width="0.48" fill-opacity="0" />
  <polygon fill="#FF0000" fill-opacity="1.0" points="549.0301,368.5475 551.954,356.8517 546.1062,356.8517" />
  <path d="M565.801,296.8463 L565.801,324.8952" stroke="#FF0000" stroke-width="0.48" fill-opacity="0" />
  <polygon fill="#00FF00" fill-opacity="1.0" points="198.72,197.8773 210.4157,200.8012 210.4157,194.9534" />
  <path d="M549.0301,328.8028 L549.0301,356.8517" stroke="#FF0000" stroke-width="0.48" fill-opacity="0" />
  <polygon fill="#00FF00" fill-opacity="1.0" points="198.72,197.8773 198.72,197.8773 198.72,197.8773" />
  <polygon fill="#00FF00" fill-opacity="1.0" points="198.72,197.8773 201.6439,186.1816 195.7961,186.1816" />
  <path d="M199.1175,197.8773 L198.72,197.8773 L198.72,197.8773" stroke="#00FF00" stroke-width="0.48" fill-opacity="0" />
  <path d="M198.72,197.8773 L211.9682,197.8773 L225.2164,197.8773 L238.4646,197.8773 L251.7129,197.8773 L264.9611,197.8773 L278.2093,197.8773 L291.4575,197.8773 L304.7057,197.8773 L317.9539,197.8773 L331.2021,197.8773 L344.4503,197.8773 L357.6985,197.8773 L370.9467,197.8773 L384.195,197.8773 L397.4432,197.8773 L410.6914,197.8773 L423.9396,197.8773 L437.1878,197.8773 L450.436,197.8773 L463.6842,197.8773 L476.9324,197.8773 L490.1807,197.8773 L503.4289,197.8773 L516.6771,197.8773 L529.9253,197.8773 L543.1735,197.8773 L556.4217,197.8773 L569.6699,197.8773 L582.9182,197.8773 L596.1663,197.8773" stroke="#000000" stroke-width="0.48" fill-opacity="0" />
  <path d="M198.72,197.8773 z" stroke="#00FF00" stroke-width="0.48" fill-opacity="0" />
</svg>