<?xml version="1.0" encoding="UTF-8" standalone="no"?>
<!DOCTYPE svg PUBLIC "-//W3C//DTD SVG 1.1//EN" "http://www.w3.org/Graphics/SVG/1.1/DTD/svg11.dtd">
<svg width="841.92pt" height="595.32pt" viewBox="0 0 841.92 595.32" overflow="visible" version="1.1" xmlns="http://www.w3.org/2000/svg">
  <polygon fill="#00FF00" fill-opacity="1.0" points="198.72,197.8773 201.6439,186.1816 195.7961,186.1816" />
  <polygon fill="#00FF00" fill-opacity="1.0" points="198.72,197.8773 210.4157,200.8012 210.4157,194.9534" />
  <polygon fill="#00FF00" fill-opacity="1.0" points="198.72,197.8773 198.72,197.8773 198.72,197.8773" />
  <path d="M198.72,197.4798 L198.72,197.8773 L198.72,197.8773" stroke="#00FF00" stroke-width="0.48" fill-opacity="0" />
  <path d="M198.72,197.8773 L211.9682,197.8773 L225.2164,197.8773 L238.4646,197.8773 L251.7129,197.8773 L264.9611,197.8773 L278.2093,197.8773 L291.4575,197.8773 L304.7057,197.8773 L317.9539,197.8773 L331.2021,197.8773 L344.4503,197.8773 L357.6985,197.8773 L370.9467,197.8773 L384.195,197.8773 L397.4432,197.8773 L410.6914,197.8773 L423.9396,197.8773 L437.1878,197.8773 L450.436,197.8773 L463.6842,197.8773 L476.9324,197.8773 L490.1807,197.8773 L503.4289,197.8773 L516.6771,197.8773 L529.9253,197.8773 L543.1735,197.8773 L556.4217,197.8773 L569.6699,197.8773 L582.9182,197.8773 L596.1663,197.8773" stroke="#000000" stroke-width="0.48" fill-opacity="0" />
  <path d="M198.72,197.8773 z" stroke="#00FF00" stroke-width="0.48" fill-opacity="0" />
  <path d="M198.72,197.8773 L200.9281,197.8773 L205.3441,197.8773 L211.9682,197.8773 L220.8004,197.8773 L231.8405,197.8773 L245.0888,197.8773 L258.337,197.8773 L271.5852,197.8773 L284.8334,197.8773 L298.0816,197.8773 L311.3298,197.8773 L324.578,197.8773 L337.8262,197.8773 L351.0745,197.8773 L364.3227,197.8773 L377.5709,197.8773 L390.8191,197.8773 L404.0673,197.8773 L417.3155,197.8773 L430.5637,197.8773 L443.8119,197.8773 L457.0602,197.8773 L470.3083,197.8773 L483.5565,197.8773 L496.8048,197.8773 L510.053,197.8773 L523.3012,197.8773 L536.5494,197.8773 L549.7976,197.8773 L563.0458,197.8773 L574.086,197.8773 L582.9182,197.8773 L589.5422,197.8773 L593.9583,197.8773 L596.1664,197.8773" stroke="#000000" stroke-width="0.12" fill-opacity="0" />
  <circle cx="198.72" cy="197.8773" r="0.36" stroke="#000000" stroke-width="0.12" fill="#FFFFFF" fill-opacity="1.0" />
  <circle cx="200.928" cy="197.8773" r="0.36" stroke="#000000" stroke-width="0.12" fill="#FFFFFF" fill-opacity="1.0" />
  <circle cx="205.3441" cy="197.8773" r="0.36" stroke="#000000" stroke-width="0.12" fill="#FFFFFF" fill-opacity="1.0" />
  <circle cx="211.9682" cy="197.8773" r="0.36" stroke="#000000" stroke-width="0.12" fill="#FFFFFF" fill-opacity="1.0" />
  <circle cx="220.8004" cy="197.8773" r="0.36" stroke="#000000" stroke-width="0.12" fill="#FFFFFF" fill-opacity="1.0" />
  <circle cx="231.8406" cy="197.8773" r="0.36" stroke="#000000" stroke-width="0.12" fill="#FFFFFF" fill-opacity="1.0" />
  <circle cx="245.0888" cy="197.8773" r="0.36" stroke="#000000" stroke-width="0.12" fill="#FFFFFF" fill-opacity="1.0" />
  <circle cx="258.337" cy="197.8773" r="0.36" stroke="#000000" stroke-width="0.12" fill="#FFFFFF" fill-opacity="1.0" />
  <circle cx="271.5852" cy="197.8773" r="0.36" stroke="#000000" stroke-width="0.12" fill="#FFFFFF" fill-opacity="1.0" />
  <circle cx="284.8334" cy="197.8773" r="0.36" stroke="#000000" stroke-width="0.12" fill="#FFFFFF" fill-opacity="1.0" />
  <circle cx="298.0816" cy="197.8773" r="0.36" stroke="#000000" stroke-width="0.12" fill="#FFFFFF" fill-opacity="1.0" />
  <circle cx="311.3298" cy="197.8773" r="0.36" stroke="#000000" stroke-width="0.12" fill="#FFFFFF" fill-opacity="1.0" />
  <circle cx="324.578" cy="197.8773" r="0.36" stroke="#000000" stroke-width="0.12" fill="#FFFFFF" fill-opacity="1.0" />
  <circle cx="337.8263" cy="197.8773" r="0.36" stroke="#000000" stroke-width="0.12" fill="#FFFFFF" fill-opacity="1.0" />
  <circle cx="351.0744" cy="197.8773" r="0.36" stroke="#000000" stroke-width="0.12" fill="#FFFFFF" fill-opacity="1.0" />
  <circle cx="364.3227" cy="197.8773" r="0.36" stroke="#000000" stroke-width="0.12" fill="#FFFFFF" fill-opacity="1.0" />
  <circle cx="377.5709" cy="197.8773" r="0.36" stroke="#000000" stroke-width="0.12" fill="#FFFFFF" fill-opacity="1.0" />
  <circle cx="390.8191" cy="197.8773" r="0.36" stroke="#000000" stroke-width="0.12" fill="#FFFFFF" fill-opacity="1.0" />
  <circle cx="404.0673" cy="197.8773" r="0.36" stroke="#000000" stroke-width="0.12" fill="#FFFFFF" fill-opacity="1.0" />
  <circle cx="417.3155" cy="197.8773" r="0.36" stroke="#000000" stroke-width="0.12" fill="#FFFFFF" fill-opacity="1.0" />
  <circle cx="430.5637" cy="197.8773" r="0.36" stroke="#000000" stroke-width="0.12" fill="#FFFFFF" fill-opacity="1.0" />
  <circle cx="443.8119" cy="197.8773" r="0.36" stroke="#000000" stroke-width="0.12" fill="#FFFFFF" fill-opacity="1.0" />
  <circle cx="457.0602" cy="197.8773" r="0.36" stroke="#000000" stroke-width="0.12" fill="#FFFFFF" fill-opacity="1.0" />
  <circle cx="470.3083" cy="197.8773" r="0.36" stroke="#000000" stroke-width="0.12" fill="#FFFFFF" fill-opacity="1.0" />
  <circle cx="483.5565" cy="197.8773" r="0.36" stroke="#000000" stroke-width="0.12" fill="#FFFFFF" fill-opacity="1.0" />
  <circle cx="496.8047" cy="197.8773" r="0.36" stroke="#000000" stroke-width="0.12" fill="#FFFFFF" fill-opacity="1.0" />
  <circle cx="510.053" cy="197.8773" r="0.36" stroke="#000000" stroke-width="0.12" fill="#FFFFFF" fill-opacity="1.0" />
  <circle cx="523.3012" cy="197.8773" r="0.36" stroke="#000000" stroke-width="0.12" fill="#FFFFFF" fill-opacity="1.0" />
  <circle cx="536.5494" cy="197.8773" r="0.36" stroke="#000000" stroke-width="0.12" fill="#FFFFFF" fill-opacity="1.0" />
  <circle cx="549.7976" cy="197.8773" r="0.36" stroke="#000000" stroke-width="0.12" fill="#FFFFFF" fill-opacity="1.0" />
  <circle cx="563.0458" cy="197.8773" r="0.36" stroke="#000000" stroke-width="0.12" fill="#FFFFFF" fill-opacity="1.0" />
  <circle cx="574.086" cy="197.8773" r="0.36" stroke="#000000" stroke-width="0.12" fill="#FFFFFF" fill-opacity="1.0" />
  <circle cx="582.9182" cy="197.8773" r="0.36" stroke="#000000" stroke-width="0.12" fill="#FFFFFF" fill-opacity="1.0" />
  <circle cx="589.5422" cy="197.8773" r="0.36" stroke="#000000" stroke-width="0.12" fill="#FFFFFF" fill-opacity="1.0" />
  <circle cx="593.9583" cy="197.8773" r="0.36" stroke="#000000" stroke-width="0.12" fill="#FFFFFF" fill-opacity="1.0" />
  <circle cx="596.1663" cy="197.8773" r="0.36" stroke="#000000" stroke-width="0.12" fill="#FFFFFF" fill-opacity="1.0" />
</svg>