<?xml version="1.0" encoding="utf-8" standalone="no"?>
<!DOCTYPE svg PUBLIC "-//W3C//DTD SVG 1.1//EN"
  "http://www.w3.org/Graphics/SVG/1.1/DTD/svg11.dtd">
<!-- Created with matplotlib (http://matplotlib.org/) -->
<svg height="733.5pt" version="1.1" viewBox="0 0 1380.75 733.5" width="1380.75pt" xmlns="http://www.w3.org/2000/svg" xmlns:xlink="http://www.w3.org/1999/xlink">
 <defs>
  <style type="text/css">
*{stroke-linecap:butt;stroke-linejoin:round;}
  </style>
 </defs>
 <g id="figure_1">
  <g id="patch_1">
   <path d="M 0 733.5 
L 1380.75 733.5 
L 1380.75 0 
L 0 0 
z
" style="fill:#ffffff;"/>
  </g>
  <g id="axes_1">
   <g id="patch_2">
    <path d="M 463.620827 652.815 
L 951.647923 652.815 
L 951.647923 88.02 
L 463.620827 88.02 
z
" style="fill:#ffffff;"/>
   </g>
   <g id="matplotlib.axis_1">
    <g id="xtick_1">
     <g id="line2d_1">
      <defs>
       <path d="M 0 0 
L 0 3.5 
" id="m37543406d0" style="stroke:#000000;stroke-width:0.8;"/>
      </defs>
      <g>
       <use style="stroke:#000000;stroke-width:0.8;" x="495.595981" xlink:href="#m37543406d0" y="652.815"/>
      </g>
     </g>
     <g id="text_1">
      <!-- 0 -->
      <defs>
       <path d="M 31.78125 66.40625 
Q 24.171875 66.40625 20.328125 58.90625 
Q 16.5 51.421875 16.5 36.375 
Q 16.5 21.390625 20.328125 13.890625 
Q 24.171875 6.390625 31.78125 6.390625 
Q 39.453125 6.390625 43.28125 13.890625 
Q 47.125 21.390625 47.125 36.375 
Q 47.125 51.421875 43.28125 58.90625 
Q 39.453125 66.40625 31.78125 66.40625 
z
M 31.78125 74.21875 
Q 44.046875 74.21875 50.515625 64.515625 
Q 56.984375 54.828125 56.984375 36.375 
Q 56.984375 17.96875 50.515625 8.265625 
Q 44.046875 -1.421875 31.78125 -1.421875 
Q 19.53125 -1.421875 13.0625 8.265625 
Q 6.59375 17.96875 6.59375 36.375 
Q 6.59375 54.828125 13.0625 64.515625 
Q 19.53125 74.21875 31.78125 74.21875 
z
" id="DejaVuSans-30"/>
      </defs>
      <g transform="translate(492.414731 667.413437)scale(0.1 -0.1)">
       <use xlink:href="#DejaVuSans-30"/>
      </g>
     </g>
    </g>
    <g id="xtick_2">
     <g id="line2d_2">
      <g>
       <use style="stroke:#000000;stroke-width:0.8;" x="554.718521" xlink:href="#m37543406d0" y="652.815"/>
      </g>
     </g>
     <g id="text_2">
      <!-- 1 -->
      <defs>
       <path d="M 12.40625 8.296875 
L 28.515625 8.296875 
L 28.515625 63.921875 
L 10.984375 60.40625 
L 10.984375 69.390625 
L 28.421875 72.90625 
L 38.28125 72.90625 
L 38.28125 8.296875 
L 54.390625 8.296875 
L 54.390625 0 
L 12.40625 0 
z
" id="DejaVuSans-31"/>
      </defs>
      <g transform="translate(551.537271 667.413437)scale(0.1 -0.1)">
       <use xlink:href="#DejaVuSans-31"/>
      </g>
     </g>
    </g>
    <g id="xtick_3">
     <g id="line2d_3">
      <g>
       <use style="stroke:#000000;stroke-width:0.8;" x="613.841062" xlink:href="#m37543406d0" y="652.815"/>
      </g>
     </g>
     <g id="text_3">
      <!-- 2 -->
      <defs>
       <path d="M 19.1875 8.296875 
L 53.609375 8.296875 
L 53.609375 0 
L 7.328125 0 
L 7.328125 8.296875 
Q 12.9375 14.109375 22.625 23.890625 
Q 32.328125 33.6875 34.8125 36.53125 
Q 39.546875 41.84375 41.421875 45.53125 
Q 43.3125 49.21875 43.3125 52.78125 
Q 43.3125 58.59375 39.234375 62.25 
Q 35.15625 65.921875 28.609375 65.921875 
Q 23.96875 65.921875 18.8125 64.3125 
Q 13.671875 62.703125 7.8125 59.421875 
L 7.8125 69.390625 
Q 13.765625 71.78125 18.9375 73 
Q 24.125 74.21875 28.421875 74.21875 
Q 39.75 74.21875 46.484375 68.546875 
Q 53.21875 62.890625 53.21875 53.421875 
Q 53.21875 48.921875 51.53125 44.890625 
Q 49.859375 40.875 45.40625 35.40625 
Q 44.1875 33.984375 37.640625 27.21875 
Q 31.109375 20.453125 19.1875 8.296875 
z
" id="DejaVuSans-32"/>
      </defs>
      <g transform="translate(610.659812 667.413437)scale(0.1 -0.1)">
       <use xlink:href="#DejaVuSans-32"/>
      </g>
     </g>
    </g>
    <g id="xtick_4">
     <g id="line2d_4">
      <g>
       <use style="stroke:#000000;stroke-width:0.8;" x="672.963603" xlink:href="#m37543406d0" y="652.815"/>
      </g>
     </g>
     <g id="text_4">
      <!-- 3 -->
      <defs>
       <path d="M 40.578125 39.3125 
Q 47.65625 37.796875 51.625 33 
Q 55.609375 28.21875 55.609375 21.1875 
Q 55.609375 10.40625 48.1875 4.484375 
Q 40.765625 -1.421875 27.09375 -1.421875 
Q 22.515625 -1.421875 17.65625 -0.515625 
Q 12.796875 0.390625 7.625 2.203125 
L 7.625 11.71875 
Q 11.71875 9.328125 16.59375 8.109375 
Q 21.484375 6.890625 26.8125 6.890625 
Q 36.078125 6.890625 40.9375 10.546875 
Q 45.796875 14.203125 45.796875 21.1875 
Q 45.796875 27.640625 41.28125 31.265625 
Q 36.765625 34.90625 28.71875 34.90625 
L 20.21875 34.90625 
L 20.21875 43.015625 
L 29.109375 43.015625 
Q 36.375 43.015625 40.234375 45.921875 
Q 44.09375 48.828125 44.09375 54.296875 
Q 44.09375 59.90625 40.109375 62.90625 
Q 36.140625 65.921875 28.71875 65.921875 
Q 24.65625 65.921875 20.015625 65.03125 
Q 15.375 64.15625 9.8125 62.3125 
L 9.8125 71.09375 
Q 15.4375 72.65625 20.34375 73.4375 
Q 25.25 74.21875 29.59375 74.21875 
Q 40.828125 74.21875 47.359375 69.109375 
Q 53.90625 64.015625 53.90625 55.328125 
Q 53.90625 49.265625 50.4375 45.09375 
Q 46.96875 40.921875 40.578125 39.3125 
z
" id="DejaVuSans-33"/>
      </defs>
      <g transform="translate(669.782353 667.413437)scale(0.1 -0.1)">
       <use xlink:href="#DejaVuSans-33"/>
      </g>
     </g>
    </g>
    <g id="xtick_5">
     <g id="line2d_5">
      <g>
       <use style="stroke:#000000;stroke-width:0.8;" x="732.086144" xlink:href="#m37543406d0" y="652.815"/>
      </g>
     </g>
     <g id="text_5">
      <!-- 4 -->
      <defs>
       <path d="M 37.796875 64.3125 
L 12.890625 25.390625 
L 37.796875 25.390625 
z
M 35.203125 72.90625 
L 47.609375 72.90625 
L 47.609375 25.390625 
L 58.015625 25.390625 
L 58.015625 17.1875 
L 47.609375 17.1875 
L 47.609375 0 
L 37.796875 0 
L 37.796875 17.1875 
L 4.890625 17.1875 
L 4.890625 26.703125 
z
" id="DejaVuSans-34"/>
      </defs>
      <g transform="translate(728.904894 667.413437)scale(0.1 -0.1)">
       <use xlink:href="#DejaVuSans-34"/>
      </g>
     </g>
    </g>
    <g id="xtick_6">
     <g id="line2d_6">
      <g>
       <use style="stroke:#000000;stroke-width:0.8;" x="791.208684" xlink:href="#m37543406d0" y="652.815"/>
      </g>
     </g>
     <g id="text_6">
      <!-- 5 -->
      <defs>
       <path d="M 10.796875 72.90625 
L 49.515625 72.90625 
L 49.515625 64.59375 
L 19.828125 64.59375 
L 19.828125 46.734375 
Q 21.96875 47.46875 24.109375 47.828125 
Q 26.265625 48.1875 28.421875 48.1875 
Q 40.625 48.1875 47.75 41.5 
Q 54.890625 34.8125 54.890625 23.390625 
Q 54.890625 11.625 47.5625 5.09375 
Q 40.234375 -1.421875 26.90625 -1.421875 
Q 22.3125 -1.421875 17.546875 -0.640625 
Q 12.796875 0.140625 7.71875 1.703125 
L 7.71875 11.625 
Q 12.109375 9.234375 16.796875 8.0625 
Q 21.484375 6.890625 26.703125 6.890625 
Q 35.15625 6.890625 40.078125 11.328125 
Q 45.015625 15.765625 45.015625 23.390625 
Q 45.015625 31 40.078125 35.4375 
Q 35.15625 39.890625 26.703125 39.890625 
Q 22.75 39.890625 18.8125 39.015625 
Q 14.890625 38.140625 10.796875 36.28125 
z
" id="DejaVuSans-35"/>
      </defs>
      <g transform="translate(788.027434 667.413437)scale(0.1 -0.1)">
       <use xlink:href="#DejaVuSans-35"/>
      </g>
     </g>
    </g>
    <g id="xtick_7">
     <g id="line2d_7">
      <g>
       <use style="stroke:#000000;stroke-width:0.8;" x="850.331225" xlink:href="#m37543406d0" y="652.815"/>
      </g>
     </g>
     <g id="text_7">
      <!-- 6 -->
      <defs>
       <path d="M 33.015625 40.375 
Q 26.375 40.375 22.484375 35.828125 
Q 18.609375 31.296875 18.609375 23.390625 
Q 18.609375 15.53125 22.484375 10.953125 
Q 26.375 6.390625 33.015625 6.390625 
Q 39.65625 6.390625 43.53125 10.953125 
Q 47.40625 15.53125 47.40625 23.390625 
Q 47.40625 31.296875 43.53125 35.828125 
Q 39.65625 40.375 33.015625 40.375 
z
M 52.59375 71.296875 
L 52.59375 62.3125 
Q 48.875 64.0625 45.09375 64.984375 
Q 41.3125 65.921875 37.59375 65.921875 
Q 27.828125 65.921875 22.671875 59.328125 
Q 17.53125 52.734375 16.796875 39.40625 
Q 19.671875 43.65625 24.015625 45.921875 
Q 28.375 48.1875 33.59375 48.1875 
Q 44.578125 48.1875 50.953125 41.515625 
Q 57.328125 34.859375 57.328125 23.390625 
Q 57.328125 12.15625 50.6875 5.359375 
Q 44.046875 -1.421875 33.015625 -1.421875 
Q 20.359375 -1.421875 13.671875 8.265625 
Q 6.984375 17.96875 6.984375 36.375 
Q 6.984375 53.65625 15.1875 63.9375 
Q 23.390625 74.21875 37.203125 74.21875 
Q 40.921875 74.21875 44.703125 73.484375 
Q 48.484375 72.75 52.59375 71.296875 
z
" id="DejaVuSans-36"/>
      </defs>
      <g transform="translate(847.149975 667.413437)scale(0.1 -0.1)">
       <use xlink:href="#DejaVuSans-36"/>
      </g>
     </g>
    </g>
    <g id="xtick_8">
     <g id="line2d_8">
      <g>
       <use style="stroke:#000000;stroke-width:0.8;" x="909.453766" xlink:href="#m37543406d0" y="652.815"/>
      </g>
     </g>
     <g id="text_8">
      <!-- 7 -->
      <defs>
       <path d="M 8.203125 72.90625 
L 55.078125 72.90625 
L 55.078125 68.703125 
L 28.609375 0 
L 18.3125 0 
L 43.21875 64.59375 
L 8.203125 64.59375 
z
" id="DejaVuSans-37"/>
      </defs>
      <g transform="translate(906.272516 667.413437)scale(0.1 -0.1)">
       <use xlink:href="#DejaVuSans-37"/>
      </g>
     </g>
    </g>
   </g>
   <g id="matplotlib.axis_2">
    <g id="ytick_1">
     <g id="line2d_9">
      <defs>
       <path d="M 0 0 
L -3.5 0 
" id="m48432a553c" style="stroke:#000000;stroke-width:0.8;"/>
      </defs>
      <g>
       <use style="stroke:#000000;stroke-width:0.8;" x="463.620827" xlink:href="#m48432a553c" y="633.781849"/>
      </g>
     </g>
     <g id="text_9">
      <!-- −8 -->
      <defs>
       <path d="M 10.59375 35.5 
L 73.1875 35.5 
L 73.1875 27.203125 
L 10.59375 27.203125 
z
" id="DejaVuSans-2212"/>
       <path d="M 31.78125 34.625 
Q 24.75 34.625 20.71875 30.859375 
Q 16.703125 27.09375 16.703125 20.515625 
Q 16.703125 13.921875 20.71875 10.15625 
Q 24.75 6.390625 31.78125 6.390625 
Q 38.8125 6.390625 42.859375 10.171875 
Q 46.921875 13.96875 46.921875 20.515625 
Q 46.921875 27.09375 42.890625 30.859375 
Q 38.875 34.625 31.78125 34.625 
z
M 21.921875 38.8125 
Q 15.578125 40.375 12.03125 44.71875 
Q 8.5 49.078125 8.5 55.328125 
Q 8.5 64.0625 14.71875 69.140625 
Q 20.953125 74.21875 31.78125 74.21875 
Q 42.671875 74.21875 48.875 69.140625 
Q 55.078125 64.0625 55.078125 55.328125 
Q 55.078125 49.078125 51.53125 44.71875 
Q 48 40.375 41.703125 38.8125 
Q 48.828125 37.15625 52.796875 32.3125 
Q 56.78125 27.484375 56.78125 20.515625 
Q 56.78125 9.90625 50.3125 4.234375 
Q 43.84375 -1.421875 31.78125 -1.421875 
Q 19.734375 -1.421875 13.25 4.234375 
Q 6.78125 9.90625 6.78125 20.515625 
Q 6.78125 27.484375 10.78125 32.3125 
Q 14.796875 37.15625 21.921875 38.8125 
z
M 18.3125 54.390625 
Q 18.3125 48.734375 21.84375 45.5625 
Q 25.390625 42.390625 31.78125 42.390625 
Q 38.140625 42.390625 41.71875 45.5625 
Q 45.3125 48.734375 45.3125 54.390625 
Q 45.3125 60.0625 41.71875 63.234375 
Q 38.140625 66.40625 31.78125 66.40625 
Q 25.390625 66.40625 21.84375 63.234375 
Q 18.3125 60.0625 18.3125 54.390625 
z
" id="DejaVuSans-38"/>
      </defs>
      <g transform="translate(441.878639 637.581068)scale(0.1 -0.1)">
       <use xlink:href="#DejaVuSans-2212"/>
       <use x="83.789062" xlink:href="#DejaVuSans-38"/>
      </g>
     </g>
    </g>
    <g id="ytick_2">
     <g id="line2d_10">
      <g>
       <use style="stroke:#000000;stroke-width:0.8;" x="463.620827" xlink:href="#m48432a553c" y="515.536767"/>
      </g>
     </g>
     <g id="text_10">
      <!-- −6 -->
      <g transform="translate(441.878639 519.335986)scale(0.1 -0.1)">
       <use xlink:href="#DejaVuSans-2212"/>
       <use x="83.789062" xlink:href="#DejaVuSans-36"/>
      </g>
     </g>
    </g>
    <g id="ytick_3">
     <g id="line2d_11">
      <g>
       <use style="stroke:#000000;stroke-width:0.8;" x="463.620827" xlink:href="#m48432a553c" y="397.291686"/>
      </g>
     </g>
     <g id="text_11">
      <!-- −4 -->
      <g transform="translate(441.878639 401.090905)scale(0.1 -0.1)">
       <use xlink:href="#DejaVuSans-2212"/>
       <use x="83.789062" xlink:href="#DejaVuSans-34"/>
      </g>
     </g>
    </g>
    <g id="ytick_4">
     <g id="line2d_12">
      <g>
       <use style="stroke:#000000;stroke-width:0.8;" x="463.620827" xlink:href="#m48432a553c" y="279.046604"/>
      </g>
     </g>
     <g id="text_12">
      <!-- −2 -->
      <g transform="translate(441.878639 282.845823)scale(0.1 -0.1)">
       <use xlink:href="#DejaVuSans-2212"/>
       <use x="83.789062" xlink:href="#DejaVuSans-32"/>
      </g>
     </g>
    </g>
    <g id="ytick_5">
     <g id="line2d_13">
      <g>
       <use style="stroke:#000000;stroke-width:0.8;" x="463.620827" xlink:href="#m48432a553c" y="160.801523"/>
      </g>
     </g>
     <g id="text_13">
      <!-- 0 -->
      <g transform="translate(450.258327 164.600742)scale(0.1 -0.1)">
       <use xlink:href="#DejaVuSans-30"/>
      </g>
     </g>
    </g>
   </g>
   <g id="line2d_14">
    <path clip-path="url(#pd7e42b26aa)" d="M 495.595981 160.801523 
L 503.029577 160.801523 
L 518.0221 160.801523 
L 540.899693 160.801523 
L 564.143144 160.801523 
L 587.646915 160.801523 
L 611.157401 160.801523 
L 634.248949 160.801523 
L 656.547141 160.801523 
L 678.235106 160.801523 
L 700.267219 160.801523 
L 723.521565 160.801523 
L 747.152411 160.801523 
L 769.849229 160.801523 
L 784.200285 160.801523 
L 791.208684 160.801523 
" style="fill:none;stroke:#cec9e3;stroke-dasharray:9.6,2.4,1.5,2.4;stroke-dashoffset:0;stroke-width:1.5;"/>
    <defs>
     <path d="M 0 3 
C 0.795609 3 1.55874 2.683901 2.12132 2.12132 
C 2.683901 1.55874 3 0.795609 3 0 
C 3 -0.795609 2.683901 -1.55874 2.12132 -2.12132 
C 1.55874 -2.683901 0.795609 -3 0 -3 
C -0.795609 -3 -1.55874 -2.683901 -2.12132 -2.12132 
C -2.683901 -1.55874 -3 -0.795609 -3 0 
C -3 0.795609 -2.683901 1.55874 -2.12132 2.12132 
C -1.55874 2.683901 -0.795609 3 0 3 
z
" id="mc355346c7e" style="stroke:#cec9e3;"/>
    </defs>
    <g clip-path="url(#pd7e42b26aa)">
     <use style="fill:#cec9e3;stroke:#cec9e3;" x="495.595981" xlink:href="#mc355346c7e" y="160.801523"/>
     <use style="fill:#cec9e3;stroke:#cec9e3;" x="503.029577" xlink:href="#mc355346c7e" y="160.801523"/>
     <use style="fill:#cec9e3;stroke:#cec9e3;" x="518.0221" xlink:href="#mc355346c7e" y="160.801523"/>
     <use style="fill:#cec9e3;stroke:#cec9e3;" x="540.899693" xlink:href="#mc355346c7e" y="160.801523"/>
     <use style="fill:#cec9e3;stroke:#cec9e3;" x="564.143144" xlink:href="#mc355346c7e" y="160.801523"/>
     <use style="fill:#cec9e3;stroke:#cec9e3;" x="587.646915" xlink:href="#mc355346c7e" y="160.801523"/>
     <use style="fill:#cec9e3;stroke:#cec9e3;" x="611.157401" xlink:href="#mc355346c7e" y="160.801523"/>
     <use style="fill:#cec9e3;stroke:#cec9e3;" x="634.248949" xlink:href="#mc355346c7e" y="160.801523"/>
     <use style="fill:#cec9e3;stroke:#cec9e3;" x="656.547141" xlink:href="#mc355346c7e" y="160.801523"/>
     <use style="fill:#cec9e3;stroke:#cec9e3;" x="678.235106" xlink:href="#mc355346c7e" y="160.801523"/>
     <use style="fill:#cec9e3;stroke:#cec9e3;" x="700.267219" xlink:href="#mc355346c7e" y="160.801523"/>
     <use style="fill:#cec9e3;stroke:#cec9e3;" x="723.521565" xlink:href="#mc355346c7e" y="160.801523"/>
     <use style="fill:#cec9e3;stroke:#cec9e3;" x="747.152411" xlink:href="#mc355346c7e" y="160.801523"/>
     <use style="fill:#cec9e3;stroke:#cec9e3;" x="769.849229" xlink:href="#mc355346c7e" y="160.801523"/>
     <use style="fill:#cec9e3;stroke:#cec9e3;" x="784.200285" xlink:href="#mc355346c7e" y="160.801523"/>
     <use style="fill:#cec9e3;stroke:#cec9e3;" x="791.208684" xlink:href="#mc355346c7e" y="160.801523"/>
    </g>
   </g>
   <g id="line2d_15">
    <path clip-path="url(#pd7e42b26aa)" d="M 495.595981 160.801523 
L 510.171523 160.801523 
L 524.909281 160.801523 
L 539.808146 160.801523 
L 554.859098 160.801523 
L 570.037484 160.801523 
L 585.297489 160.801523 
L 600.566271 160.801523 
L 615.738995 160.801523 
L 630.703827 160.801523 
L 645.368803 160.801523 
L 659.738023 160.801523 
L 673.92598 160.801523 
L 688.177564 160.801523 
L 702.741129 160.801523 
L 717.737558 160.801523 
L 732.977434 160.801523 
L 748.153714 160.801523 
L 762.969053 160.801523 
L 777.322791 160.801523 
L 791.208684 160.801523 
" style="fill:none;stroke:#bd49fa;stroke-linecap:square;stroke-width:1.5;"/>
   </g>
   <g id="line2d_16">
    <path clip-path="url(#pd7e42b26aa)" d="M 495.595981 160.801523 
L 503.069877 160.801523 
L 517.97996 161.792926 
L 540.538492 166.712901 
L 561.469613 177.057313 
L 580.608409 196.433218 
L 599.215678 228.178996 
L 617.283059 273.791646 
L 634.668726 330.228437 
L 651.55524 390.854796 
L 668.718992 449.816297 
L 686.870625 504.01309 
L 705.369105 551.556826 
L 723.18229 592.315196 
L 734.477704 615.963728 
L 739.9994 627.1425 
" style="fill:none;stroke:#5afc5c;stroke-dasharray:9.6,2.4,1.5,2.4;stroke-dashoffset:0;stroke-width:1.5;"/>
    <defs>
     <path d="M 0 3 
C 0.795609 3 1.55874 2.683901 2.12132 2.12132 
C 2.683901 1.55874 3 0.795609 3 0 
C 3 -0.795609 2.683901 -1.55874 2.12132 -2.12132 
C 1.55874 -2.683901 0.795609 -3 0 -3 
C -0.795609 -3 -1.55874 -2.683901 -2.12132 -2.12132 
C -2.683901 -1.55874 -3 -0.795609 -3 0 
C -3 0.795609 -2.683901 1.55874 -2.12132 2.12132 
C -1.55874 2.683901 -0.795609 3 0 3 
z
" id="m1b82f37e54" style="stroke:#5afc5c;"/>
    </defs>
    <g clip-path="url(#pd7e42b26aa)">
     <use style="fill:#5afc5c;stroke:#5afc5c;" x="495.595981" xlink:href="#m1b82f37e54" y="160.801523"/>
     <use style="fill:#5afc5c;stroke:#5afc5c;" x="503.069877" xlink:href="#m1b82f37e54" y="160.801523"/>
     <use style="fill:#5afc5c;stroke:#5afc5c;" x="517.97996" xlink:href="#m1b82f37e54" y="161.792926"/>
     <use style="fill:#5afc5c;stroke:#5afc5c;" x="540.538492" xlink:href="#m1b82f37e54" y="166.712901"/>
     <use style="fill:#5afc5c;stroke:#5afc5c;" x="561.469613" xlink:href="#m1b82f37e54" y="177.057313"/>
     <use style="fill:#5afc5c;stroke:#5afc5c;" x="580.608409" xlink:href="#m1b82f37e54" y="196.433218"/>
     <use style="fill:#5afc5c;stroke:#5afc5c;" x="599.215678" xlink:href="#m1b82f37e54" y="228.178996"/>
     <use style="fill:#5afc5c;stroke:#5afc5c;" x="617.283059" xlink:href="#m1b82f37e54" y="273.791646"/>
     <use style="fill:#5afc5c;stroke:#5afc5c;" x="634.668726" xlink:href="#m1b82f37e54" y="330.228437"/>
     <use style="fill:#5afc5c;stroke:#5afc5c;" x="651.55524" xlink:href="#m1b82f37e54" y="390.854796"/>
     <use style="fill:#5afc5c;stroke:#5afc5c;" x="668.718992" xlink:href="#m1b82f37e54" y="449.816297"/>
     <use style="fill:#5afc5c;stroke:#5afc5c;" x="686.870625" xlink:href="#m1b82f37e54" y="504.01309"/>
     <use style="fill:#5afc5c;stroke:#5afc5c;" x="705.369105" xlink:href="#m1b82f37e54" y="551.556826"/>
     <use style="fill:#5afc5c;stroke:#5afc5c;" x="723.18229" xlink:href="#m1b82f37e54" y="592.315196"/>
     <use style="fill:#5afc5c;stroke:#5afc5c;" x="734.477704" xlink:href="#m1b82f37e54" y="615.963728"/>
     <use style="fill:#5afc5c;stroke:#5afc5c;" x="739.9994" xlink:href="#m1b82f37e54" y="627.1425"/>
    </g>
   </g>
   <g id="line2d_17">
    <path clip-path="url(#pd7e42b26aa)" d="M 495.595981 160.801523 
L 510.160225 161.450819 
L 524.751282 163.48958 
L 539.178062 167.242118 
L 553.015336 173.302573 
L 566.126969 182.568585 
L 578.629724 196.000167 
L 590.819446 214.465923 
L 602.782247 238.499424 
L 614.50291 268.065554 
L 625.951291 302.322832 
L 637.150731 339.750147 
L 648.200862 378.592805 
L 659.301543 417.268683 
L 670.654171 454.655737 
L 682.359618 489.98352 
L 694.275146 522.718572 
L 706.161785 552.624949 
L 717.785489 579.754941 
L 729.067145 604.461051 
L 739.9994 627.1425 
" style="fill:none;stroke:#3325ee;stroke-linecap:square;stroke-width:1.5;"/>
   </g>
   <g id="line2d_18">
    <path clip-path="url(#pd7e42b26aa)" d="M 495.595981 160.801523 
L 503.100405 160.801523 
L 517.556555 165.189163 
L 539.370316 171.958245 
L 559.776261 183.916855 
L 576.031984 200.545138 
L 589.528101 223.880288 
L 602.28739 256.070532 
L 614.370554 295.334933 
L 626.081296 337.35828 
L 637.993535 378.285895 
L 650.671168 416.151781 
L 663.713299 449.680168 
L 676.386868 478.70323 
L 684.511565 495.689858 
L 688.491425 503.765799 
" style="fill:none;stroke:#a5c601;stroke-dasharray:9.6,2.4,1.5,2.4;stroke-dashoffset:0;stroke-width:1.5;"/>
    <defs>
     <path d="M 0 3 
C 0.795609 3 1.55874 2.683901 2.12132 2.12132 
C 2.683901 1.55874 3 0.795609 3 0 
C 3 -0.795609 2.683901 -1.55874 2.12132 -2.12132 
C 1.55874 -2.683901 0.795609 -3 0 -3 
C -0.795609 -3 -1.55874 -2.683901 -2.12132 -2.12132 
C -2.683901 -1.55874 -3 -0.795609 -3 0 
C -3 0.795609 -2.683901 1.55874 -2.12132 2.12132 
C -1.55874 2.683901 -0.795609 3 0 3 
z
" id="m48572131f2" style="stroke:#a5c601;"/>
    </defs>
    <g clip-path="url(#pd7e42b26aa)">
     <use style="fill:#a5c601;stroke:#a5c601;" x="495.595981" xlink:href="#m48572131f2" y="160.801523"/>
     <use style="fill:#a5c601;stroke:#a5c601;" x="503.100405" xlink:href="#m48572131f2" y="160.801523"/>
     <use style="fill:#a5c601;stroke:#a5c601;" x="517.556555" xlink:href="#m48572131f2" y="165.189163"/>
     <use style="fill:#a5c601;stroke:#a5c601;" x="539.370316" xlink:href="#m48572131f2" y="171.958245"/>
     <use style="fill:#a5c601;stroke:#a5c601;" x="559.776261" xlink:href="#m48572131f2" y="183.916855"/>
     <use style="fill:#a5c601;stroke:#a5c601;" x="576.031984" xlink:href="#m48572131f2" y="200.545138"/>
     <use style="fill:#a5c601;stroke:#a5c601;" x="589.528101" xlink:href="#m48572131f2" y="223.880288"/>
     <use style="fill:#a5c601;stroke:#a5c601;" x="602.28739" xlink:href="#m48572131f2" y="256.070532"/>
     <use style="fill:#a5c601;stroke:#a5c601;" x="614.370554" xlink:href="#m48572131f2" y="295.334933"/>
     <use style="fill:#a5c601;stroke:#a5c601;" x="626.081296" xlink:href="#m48572131f2" y="337.35828"/>
     <use style="fill:#a5c601;stroke:#a5c601;" x="637.993535" xlink:href="#m48572131f2" y="378.285895"/>
     <use style="fill:#a5c601;stroke:#a5c601;" x="650.671168" xlink:href="#m48572131f2" y="416.151781"/>
     <use style="fill:#a5c601;stroke:#a5c601;" x="663.713299" xlink:href="#m48572131f2" y="449.680168"/>
     <use style="fill:#a5c601;stroke:#a5c601;" x="676.386868" xlink:href="#m48572131f2" y="478.70323"/>
     <use style="fill:#a5c601;stroke:#a5c601;" x="684.511565" xlink:href="#m48572131f2" y="495.689858"/>
     <use style="fill:#a5c601;stroke:#a5c601;" x="688.491425" xlink:href="#m48572131f2" y="503.765799"/>
    </g>
   </g>
   <g id="line2d_19">
    <path clip-path="url(#pd7e42b26aa)" d="M 495.595981 160.801523 
L 509.961171 162.988303 
L 524.101782 167.253975 
L 538.078501 172.361374 
L 551.44951 179.356907 
L 563.541249 188.419779 
L 574.070487 199.698048 
L 583.392566 213.726981 
L 592.016233 231.083517 
L 600.303905 251.971122 
L 608.307127 275.907592 
L 616.089134 301.92012 
L 623.755798 328.863622 
L 631.458962 355.698642 
L 639.354306 381.699608 
L 647.52934 406.372236 
L 655.897177 429.35884 
L 664.294277 450.487394 
L 672.55531 469.773452 
L 680.626521 487.441127 
L 688.491425 503.765799 
" style="fill:none;stroke:#6af41d;stroke-linecap:square;stroke-width:1.5;"/>
   </g>
   <g id="line2d_20">
    <path clip-path="url(#pd7e42b26aa)" d="M 495.595981 160.801523 
L 503.149619 160.801523 
L 517.314775 165.784369 
L 539.658124 171.224422 
L 560.173914 182.711805 
L 576.21095 200.390967 
L 587.754961 220.531788 
L 597.187563 244.431261 
L 605.84291 272.645917 
L 614.212258 302.442497 
L 622.600865 331.692478 
L 631.971423 359.042754 
L 641.299462 384.314081 
L 652.114895 405.843822 
L 656.35366 420.762093 
L 661.177777 426.177151 
" style="fill:none;stroke:#63b3fb;stroke-dasharray:9.6,2.4,1.5,2.4;stroke-dashoffset:0;stroke-width:1.5;"/>
    <defs>
     <path d="M 0 3 
C 0.795609 3 1.55874 2.683901 2.12132 2.12132 
C 2.683901 1.55874 3 0.795609 3 0 
C 3 -0.795609 2.683901 -1.55874 2.12132 -2.12132 
C 1.55874 -2.683901 0.795609 -3 0 -3 
C -0.795609 -3 -1.55874 -2.683901 -2.12132 -2.12132 
C -2.683901 -1.55874 -3 -0.795609 -3 0 
C -3 0.795609 -2.683901 1.55874 -2.12132 2.12132 
C -1.55874 2.683901 -0.795609 3 0 3 
z
" id="m5f6ed58dd6" style="stroke:#63b3fb;"/>
    </defs>
    <g clip-path="url(#pd7e42b26aa)">
     <use style="fill:#63b3fb;stroke:#63b3fb;" x="495.595981" xlink:href="#m5f6ed58dd6" y="160.801523"/>
     <use style="fill:#63b3fb;stroke:#63b3fb;" x="503.149619" xlink:href="#m5f6ed58dd6" y="160.801523"/>
     <use style="fill:#63b3fb;stroke:#63b3fb;" x="517.314775" xlink:href="#m5f6ed58dd6" y="165.784369"/>
     <use style="fill:#63b3fb;stroke:#63b3fb;" x="539.658124" xlink:href="#m5f6ed58dd6" y="171.224422"/>
     <use style="fill:#63b3fb;stroke:#63b3fb;" x="560.173914" xlink:href="#m5f6ed58dd6" y="182.711805"/>
     <use style="fill:#63b3fb;stroke:#63b3fb;" x="576.21095" xlink:href="#m5f6ed58dd6" y="200.390967"/>
     <use style="fill:#63b3fb;stroke:#63b3fb;" x="587.754961" xlink:href="#m5f6ed58dd6" y="220.531788"/>
     <use style="fill:#63b3fb;stroke:#63b3fb;" x="597.187563" xlink:href="#m5f6ed58dd6" y="244.431261"/>
     <use style="fill:#63b3fb;stroke:#63b3fb;" x="605.84291" xlink:href="#m5f6ed58dd6" y="272.645917"/>
     <use style="fill:#63b3fb;stroke:#63b3fb;" x="614.212258" xlink:href="#m5f6ed58dd6" y="302.442497"/>
     <use style="fill:#63b3fb;stroke:#63b3fb;" x="622.600865" xlink:href="#m5f6ed58dd6" y="331.692478"/>
     <use style="fill:#63b3fb;stroke:#63b3fb;" x="631.971423" xlink:href="#m5f6ed58dd6" y="359.042754"/>
     <use style="fill:#63b3fb;stroke:#63b3fb;" x="641.299462" xlink:href="#m5f6ed58dd6" y="384.314081"/>
     <use style="fill:#63b3fb;stroke:#63b3fb;" x="652.114895" xlink:href="#m5f6ed58dd6" y="405.843822"/>
     <use style="fill:#63b3fb;stroke:#63b3fb;" x="656.35366" xlink:href="#m5f6ed58dd6" y="420.762093"/>
     <use style="fill:#63b3fb;stroke:#63b3fb;" x="661.177777" xlink:href="#m5f6ed58dd6" y="426.177151"/>
    </g>
   </g>
   <g id="line2d_21">
    <path clip-path="url(#pd7e42b26aa)" d="M 495.595981 160.801523 
L 509.908033 163.182091 
L 524.072217 167.327317 
L 538.279871 171.816531 
L 551.786921 178.404292 
L 563.856616 187.573418 
L 574.060653 198.923247 
L 582.433423 211.610119 
L 589.460312 225.638263 
L 595.691949 241.290187 
L 601.493085 258.661448 
L 607.069031 277.27695 
L 612.539617 296.43853 
L 618.002541 315.560851 
L 623.657186 334.196235 
L 629.628321 352.053975 
L 635.716949 369.036467 
L 642.052664 384.855884 
L 648.622138 399.416493 
L 654.252193 413.627059 
L 661.177777 426.177151 
" style="fill:none;stroke:#5a8909;stroke-linecap:square;stroke-width:1.5;"/>
   </g>
   <g id="line2d_22">
    <path clip-path="url(#pd7e42b26aa)" d="M 495.595981 160.801523 
L 503.180084 160.801523 
L 516.939883 167.301803 
L 540.717538 167.620717 
L 562.271963 177.997082 
L 578.70868 195.175527 
L 590.975546 215.346045 
L 601.813116 235.824976 
L 606.569889 258.562856 
L 614.797325 281.010734 
L 619.857129 303.802949 
L 628.710097 325.633378 
L 634.955372 348.669306 
L 649.288834 366.911958 
L 650.49255 382.161551 
L 655.484523 387.478361 
" style="fill:none;stroke:#d5a0f5;stroke-dasharray:9.6,2.4,1.5,2.4;stroke-dashoffset:0;stroke-width:1.5;"/>
    <defs>
     <path d="M 0 3 
C 0.795609 3 1.55874 2.683901 2.12132 2.12132 
C 2.683901 1.55874 3 0.795609 3 0 
C 3 -0.795609 2.683901 -1.55874 2.12132 -2.12132 
C 1.55874 -2.683901 0.795609 -3 0 -3 
C -0.795609 -3 -1.55874 -2.683901 -2.12132 -2.12132 
C -2.683901 -1.55874 -3 -0.795609 -3 0 
C -3 0.795609 -2.683901 1.55874 -2.12132 2.12132 
C -1.55874 2.683901 -0.795609 3 0 3 
z
" id="m3994b0b1f8" style="stroke:#d5a0f5;"/>
    </defs>
    <g clip-path="url(#pd7e42b26aa)">
     <use style="fill:#d5a0f5;stroke:#d5a0f5;" x="495.595981" xlink:href="#m3994b0b1f8" y="160.801523"/>
     <use style="fill:#d5a0f5;stroke:#d5a0f5;" x="503.180084" xlink:href="#m3994b0b1f8" y="160.801523"/>
     <use style="fill:#d5a0f5;stroke:#d5a0f5;" x="516.939883" xlink:href="#m3994b0b1f8" y="167.301803"/>
     <use style="fill:#d5a0f5;stroke:#d5a0f5;" x="540.717538" xlink:href="#m3994b0b1f8" y="167.620717"/>
     <use style="fill:#d5a0f5;stroke:#d5a0f5;" x="562.271963" xlink:href="#m3994b0b1f8" y="177.997082"/>
     <use style="fill:#d5a0f5;stroke:#d5a0f5;" x="578.70868" xlink:href="#m3994b0b1f8" y="195.175527"/>
     <use style="fill:#d5a0f5;stroke:#d5a0f5;" x="590.975546" xlink:href="#m3994b0b1f8" y="215.346045"/>
     <use style="fill:#d5a0f5;stroke:#d5a0f5;" x="601.813116" xlink:href="#m3994b0b1f8" y="235.824976"/>
     <use style="fill:#d5a0f5;stroke:#d5a0f5;" x="606.569889" xlink:href="#m3994b0b1f8" y="258.562856"/>
     <use style="fill:#d5a0f5;stroke:#d5a0f5;" x="614.797325" xlink:href="#m3994b0b1f8" y="281.010734"/>
     <use style="fill:#d5a0f5;stroke:#d5a0f5;" x="619.857129" xlink:href="#m3994b0b1f8" y="303.802949"/>
     <use style="fill:#d5a0f5;stroke:#d5a0f5;" x="628.710097" xlink:href="#m3994b0b1f8" y="325.633378"/>
     <use style="fill:#d5a0f5;stroke:#d5a0f5;" x="634.955372" xlink:href="#m3994b0b1f8" y="348.669306"/>
     <use style="fill:#d5a0f5;stroke:#d5a0f5;" x="649.288834" xlink:href="#m3994b0b1f8" y="366.911958"/>
     <use style="fill:#d5a0f5;stroke:#d5a0f5;" x="650.49255" xlink:href="#m3994b0b1f8" y="382.161551"/>
     <use style="fill:#d5a0f5;stroke:#d5a0f5;" x="655.484523" xlink:href="#m3994b0b1f8" y="387.478361"/>
    </g>
   </g>
   <g id="line2d_23">
    <path clip-path="url(#pd7e42b26aa)" d="M 495.595981 160.801523 
L 509.829437 163.596822 
L 524.242591 166.903572 
L 539.211075 169.041752 
L 553.442295 174.198718 
L 566.010502 182.777806 
L 576.557576 193.822425 
L 585.352549 206.323394 
L 593.01303 219.471242 
L 599.564299 232.984569 
L 604.137124 247.234936 
L 608.157446 261.9005 
L 612.886134 276.550066 
L 617.043984 291.262072 
L 621.202832 305.869249 
L 626.323354 320.257956 
L 631.200585 334.839961 
L 636.827531 348.896556 
L 644.309 361.682348 
L 649.535595 375.031024 
L 655.484523 387.478361 
" style="fill:none;stroke:#26970a;stroke-linecap:square;stroke-width:1.5;"/>
   </g>
   <g id="line2d_24">
    <path clip-path="url(#pd7e42b26aa)" d="M 495.595981 160.801523 
L 503.168751 160.801523 
L 516.895123 168.543849 
L 540.249895 168.677991 
L 562.041185 177.34976 
L 581.668345 190.963474 
L 598.144715 208.852387 
L 613.846425 225.185765 
L 632.547081 243.206529 
L 629.465792 266.51478 
L 666.597021 281.340796 
L 684.952902 295.858291 
L 692.608624 319.641098 
L 707.61153 337.134394 
L 706.217213 353.239866 
L 710.927309 358.79237 
" style="fill:none;stroke:#5004fc;stroke-dasharray:9.6,2.4,1.5,2.4;stroke-dashoffset:0;stroke-width:1.5;"/>
    <defs>
     <path d="M 0 3 
C 0.795609 3 1.55874 2.683901 2.12132 2.12132 
C 2.683901 1.55874 3 0.795609 3 0 
C 3 -0.795609 2.683901 -1.55874 2.12132 -2.12132 
C 1.55874 -2.683901 0.795609 -3 0 -3 
C -0.795609 -3 -1.55874 -2.683901 -2.12132 -2.12132 
C -2.683901 -1.55874 -3 -0.795609 -3 0 
C -3 0.795609 -2.683901 1.55874 -2.12132 2.12132 
C -1.55874 2.683901 -0.795609 3 0 3 
z
" id="m87344c3f59" style="stroke:#5004fc;"/>
    </defs>
    <g clip-path="url(#pd7e42b26aa)">
     <use style="fill:#5004fc;stroke:#5004fc;" x="495.595981" xlink:href="#m87344c3f59" y="160.801523"/>
     <use style="fill:#5004fc;stroke:#5004fc;" x="503.168751" xlink:href="#m87344c3f59" y="160.801523"/>
     <use style="fill:#5004fc;stroke:#5004fc;" x="516.895123" xlink:href="#m87344c3f59" y="168.543849"/>
     <use style="fill:#5004fc;stroke:#5004fc;" x="540.249895" xlink:href="#m87344c3f59" y="168.677991"/>
     <use style="fill:#5004fc;stroke:#5004fc;" x="562.041185" xlink:href="#m87344c3f59" y="177.34976"/>
     <use style="fill:#5004fc;stroke:#5004fc;" x="581.668345" xlink:href="#m87344c3f59" y="190.963474"/>
     <use style="fill:#5004fc;stroke:#5004fc;" x="598.144715" xlink:href="#m87344c3f59" y="208.852387"/>
     <use style="fill:#5004fc;stroke:#5004fc;" x="613.846425" xlink:href="#m87344c3f59" y="225.185765"/>
     <use style="fill:#5004fc;stroke:#5004fc;" x="632.547081" xlink:href="#m87344c3f59" y="243.206529"/>
     <use style="fill:#5004fc;stroke:#5004fc;" x="629.465792" xlink:href="#m87344c3f59" y="266.51478"/>
     <use style="fill:#5004fc;stroke:#5004fc;" x="666.597021" xlink:href="#m87344c3f59" y="281.340796"/>
     <use style="fill:#5004fc;stroke:#5004fc;" x="684.952902" xlink:href="#m87344c3f59" y="295.858291"/>
     <use style="fill:#5004fc;stroke:#5004fc;" x="692.608624" xlink:href="#m87344c3f59" y="319.641098"/>
     <use style="fill:#5004fc;stroke:#5004fc;" x="707.61153" xlink:href="#m87344c3f59" y="337.134394"/>
     <use style="fill:#5004fc;stroke:#5004fc;" x="706.217213" xlink:href="#m87344c3f59" y="353.239866"/>
     <use style="fill:#5004fc;stroke:#5004fc;" x="710.927309" xlink:href="#m87344c3f59" y="358.79237"/>
    </g>
   </g>
   <g id="line2d_25">
    <path clip-path="url(#pd7e42b26aa)" d="M 495.595981 160.801523 
L 509.784934 164.11969 
L 524.052626 167.966279 
L 538.858843 169.891044 
L 553.230139 174.150053 
L 566.78767 181.111842 
L 579.322519 190.122423 
L 590.661089 200.824249 
L 601.223015 211.988641 
L 611.797725 222.907631 
L 622.805435 234.341459 
L 629.878017 247.239147 
L 633.484419 261.136284 
L 647.004621 272.946525 
L 666.14952 282.756547 
L 679.562631 292.879525 
L 687.708328 305.637821 
L 694.408272 319.617117 
L 702.166478 332.239088 
L 706.328923 345.787614 
L 710.927309 358.79237 
" style="fill:none;stroke:#7bbad4;stroke-linecap:square;stroke-width:1.5;"/>
   </g>
   <g id="line2d_26">
    <path clip-path="url(#pd7e42b26aa)" d="M 495.595981 160.801523 
L 503.079078 160.801523 
L 518.920104 161.092291 
L 542.222646 160.016719 
L 565.038853 166.381153 
L 585.031157 179.106173 
L 601.597339 195.930281 
L 619.583541 210.325286 
L 634.891644 226.911892 
L 642.523998 248.051168 
L 666.871903 258.287042 
L 686.216377 271.140907 
L 696.100096 293.421445 
L 704.517387 314.58078 
L 700.193401 329.908988 
L 703.300067 336.453204 
" style="fill:none;stroke:#dea4e3;stroke-dasharray:9.6,2.4,1.5,2.4;stroke-dashoffset:0;stroke-width:1.5;"/>
    <defs>
     <path d="M 0 3 
C 0.795609 3 1.55874 2.683901 2.12132 2.12132 
C 2.683901 1.55874 3 0.795609 3 0 
C 3 -0.795609 2.683901 -1.55874 2.12132 -2.12132 
C 1.55874 -2.683901 0.795609 -3 0 -3 
C -0.795609 -3 -1.55874 -2.683901 -2.12132 -2.12132 
C -2.683901 -1.55874 -3 -0.795609 -3 0 
C -3 0.795609 -2.683901 1.55874 -2.12132 2.12132 
C -1.55874 2.683901 -0.795609 3 0 3 
z
" id="m78f574bc86" style="stroke:#dea4e3;"/>
    </defs>
    <g clip-path="url(#pd7e42b26aa)">
     <use style="fill:#dea4e3;stroke:#dea4e3;" x="495.595981" xlink:href="#m78f574bc86" y="160.801523"/>
     <use style="fill:#dea4e3;stroke:#dea4e3;" x="503.079078" xlink:href="#m78f574bc86" y="160.801523"/>
     <use style="fill:#dea4e3;stroke:#dea4e3;" x="518.920104" xlink:href="#m78f574bc86" y="161.092291"/>
     <use style="fill:#dea4e3;stroke:#dea4e3;" x="542.222646" xlink:href="#m78f574bc86" y="160.016719"/>
     <use style="fill:#dea4e3;stroke:#dea4e3;" x="565.038853" xlink:href="#m78f574bc86" y="166.381153"/>
     <use style="fill:#dea4e3;stroke:#dea4e3;" x="585.031157" xlink:href="#m78f574bc86" y="179.106173"/>
     <use style="fill:#dea4e3;stroke:#dea4e3;" x="601.597339" xlink:href="#m78f574bc86" y="195.930281"/>
     <use style="fill:#dea4e3;stroke:#dea4e3;" x="619.583541" xlink:href="#m78f574bc86" y="210.325286"/>
     <use style="fill:#dea4e3;stroke:#dea4e3;" x="634.891644" xlink:href="#m78f574bc86" y="226.911892"/>
     <use style="fill:#dea4e3;stroke:#dea4e3;" x="642.523998" xlink:href="#m78f574bc86" y="248.051168"/>
     <use style="fill:#dea4e3;stroke:#dea4e3;" x="666.871903" xlink:href="#m78f574bc86" y="258.287042"/>
     <use style="fill:#dea4e3;stroke:#dea4e3;" x="686.216377" xlink:href="#m78f574bc86" y="271.140907"/>
     <use style="fill:#dea4e3;stroke:#dea4e3;" x="696.100096" xlink:href="#m78f574bc86" y="293.421445"/>
     <use style="fill:#dea4e3;stroke:#dea4e3;" x="704.517387" xlink:href="#m78f574bc86" y="314.58078"/>
     <use style="fill:#dea4e3;stroke:#dea4e3;" x="700.193401" xlink:href="#m78f574bc86" y="329.908988"/>
     <use style="fill:#dea4e3;stroke:#dea4e3;" x="703.300067" xlink:href="#m78f574bc86" y="336.453204"/>
    </g>
   </g>
   <g id="line2d_27">
    <path clip-path="url(#pd7e42b26aa)" d="M 495.595981 160.801523 
L 510.601326 160.876678 
L 525.882469 160.716679 
L 540.988059 161.133616 
L 555.80558 164.143739 
L 569.829518 170.020347 
L 582.615254 178.332826 
L 594.129974 188.354401 
L 605.312252 198.604982 
L 616.612331 208.389022 
L 627.021884 218.759097 
L 635.260229 230.542595 
L 642.413628 242.898894 
L 653.867978 252.394677 
L 668.196774 259.89204 
L 680.701965 268.597022 
L 689.813606 280.38047 
L 696.311086 294.319193 
L 701.133624 308.332691 
L 701.791054 322.663957 
L 703.300067 336.453204 
" style="fill:none;stroke:#168064;stroke-linecap:square;stroke-width:1.5;"/>
   </g>
   <g id="line2d_28">
    <path clip-path="url(#pd7e42b26aa)" d="M 495.595981 160.801523 
L 503.264219 160.801523 
L 517.507037 162.395997 
L 540.824771 172.748523 
L 556.071514 194.721721 
L 579.449988 199.79015 
L 600.772347 209.499855 
L 626.417752 209.903492 
L 640.162979 229.468968 
L 662.852019 236.141311 
L 664.393165 268.468644 
L 717.1327 228.373945 
L 754.704344 233.720184 
L 862.93726 206.590715 
L 929.464874 225.691502 
L 923.00043 231.518122 
" style="fill:none;stroke:#de6984;stroke-dasharray:9.6,2.4,1.5,2.4;stroke-dashoffset:0;stroke-width:1.5;"/>
    <defs>
     <path d="M 0 3 
C 0.795609 3 1.55874 2.683901 2.12132 2.12132 
C 2.683901 1.55874 3 0.795609 3 0 
C 3 -0.795609 2.683901 -1.55874 2.12132 -2.12132 
C 1.55874 -2.683901 0.795609 -3 0 -3 
C -0.795609 -3 -1.55874 -2.683901 -2.12132 -2.12132 
C -2.683901 -1.55874 -3 -0.795609 -3 0 
C -3 0.795609 -2.683901 1.55874 -2.12132 2.12132 
C -1.55874 2.683901 -0.795609 3 0 3 
z
" id="m8cb29d942b" style="stroke:#de6984;"/>
    </defs>
    <g clip-path="url(#pd7e42b26aa)">
     <use style="fill:#de6984;stroke:#de6984;" x="495.595981" xlink:href="#m8cb29d942b" y="160.801523"/>
     <use style="fill:#de6984;stroke:#de6984;" x="503.264219" xlink:href="#m8cb29d942b" y="160.801523"/>
     <use style="fill:#de6984;stroke:#de6984;" x="517.507037" xlink:href="#m8cb29d942b" y="162.395997"/>
     <use style="fill:#de6984;stroke:#de6984;" x="540.824771" xlink:href="#m8cb29d942b" y="172.748523"/>
     <use style="fill:#de6984;stroke:#de6984;" x="556.071514" xlink:href="#m8cb29d942b" y="194.721721"/>
     <use style="fill:#de6984;stroke:#de6984;" x="579.449988" xlink:href="#m8cb29d942b" y="199.79015"/>
     <use style="fill:#de6984;stroke:#de6984;" x="600.772347" xlink:href="#m8cb29d942b" y="209.499855"/>
     <use style="fill:#de6984;stroke:#de6984;" x="626.417752" xlink:href="#m8cb29d942b" y="209.903492"/>
     <use style="fill:#de6984;stroke:#de6984;" x="640.162979" xlink:href="#m8cb29d942b" y="229.468968"/>
     <use style="fill:#de6984;stroke:#de6984;" x="662.852019" xlink:href="#m8cb29d942b" y="236.141311"/>
     <use style="fill:#de6984;stroke:#de6984;" x="664.393165" xlink:href="#m8cb29d942b" y="268.468644"/>
     <use style="fill:#de6984;stroke:#de6984;" x="717.1327" xlink:href="#m8cb29d942b" y="228.373945"/>
     <use style="fill:#de6984;stroke:#de6984;" x="754.704344" xlink:href="#m8cb29d942b" y="233.720184"/>
     <use style="fill:#de6984;stroke:#de6984;" x="862.93726" xlink:href="#m8cb29d942b" y="206.590715"/>
     <use style="fill:#de6984;stroke:#de6984;" x="929.464874" xlink:href="#m8cb29d942b" y="225.691502"/>
     <use style="fill:#de6984;stroke:#de6984;" x="923.00043" xlink:href="#m8cb29d942b" y="231.518122"/>
    </g>
   </g>
   <g id="line2d_29">
    <path clip-path="url(#pd7e42b26aa)" d="M 495.595981 160.801523 
L 510.09554 161.957455 
L 524.577742 166.009153 
L 538.505652 173.891638 
L 550.179514 185.44787 
L 562.482609 194.812331 
L 576.863766 199.844432 
L 591.26603 204.942963 
L 606.254554 208.812032 
L 621.355383 211.799026 
L 633.228773 219.81683 
L 644.469837 229.164556 
L 656.521462 236.978807 
L 663.736654 250.299998 
L 675.88507 255.667512 
L 703.014501 241.404168 
L 732.368914 231.801921 
L 770.212866 227.724254 
L 830.302655 217.772224 
L 895.774477 219.012088 
L 923.00043 231.518122 
" style="fill:none;stroke:#7d4005;stroke-linecap:square;stroke-width:1.5;"/>
   </g>
   <g id="line2d_30">
    <path clip-path="url(#pd7e42b26aa)" d="M 495.595981 160.801523 
L 502.925422 160.801523 
L 523.890868 151.319253 
L 543.16866 163.715103 
L 560.537948 180.929563 
L 587.434149 178.859211 
L 605.207214 196.471583 
L 628.942395 199.197685 
L 648.538173 211.256207 
L 660.707645 228.978541 
L 673.88974 249.143066 
L 709.219069 221.520563 
L 736.478829 224.814809 
L 810.523969 206.406145 
L 855.978347 219.276007 
L 852.599652 223.826958 
" style="fill:none;stroke:#83101e;stroke-dasharray:9.6,2.4,1.5,2.4;stroke-dashoffset:0;stroke-width:1.5;"/>
    <defs>
     <path d="M 0 3 
C 0.795609 3 1.55874 2.683901 2.12132 2.12132 
C 2.683901 1.55874 3 0.795609 3 0 
C 3 -0.795609 2.683901 -1.55874 2.12132 -2.12132 
C 1.55874 -2.683901 0.795609 -3 0 -3 
C -0.795609 -3 -1.55874 -2.683901 -2.12132 -2.12132 
C -2.683901 -1.55874 -3 -0.795609 -3 0 
C -3 0.795609 -2.683901 1.55874 -2.12132 2.12132 
C -1.55874 2.683901 -0.795609 3 0 3 
z
" id="m4f6ad29a58" style="stroke:#83101e;"/>
    </defs>
    <g clip-path="url(#pd7e42b26aa)">
     <use style="fill:#83101e;stroke:#83101e;" x="495.595981" xlink:href="#m4f6ad29a58" y="160.801523"/>
     <use style="fill:#83101e;stroke:#83101e;" x="502.925422" xlink:href="#m4f6ad29a58" y="160.801523"/>
     <use style="fill:#83101e;stroke:#83101e;" x="523.890868" xlink:href="#m4f6ad29a58" y="151.319253"/>
     <use style="fill:#83101e;stroke:#83101e;" x="543.16866" xlink:href="#m4f6ad29a58" y="163.715103"/>
     <use style="fill:#83101e;stroke:#83101e;" x="560.537948" xlink:href="#m4f6ad29a58" y="180.929563"/>
     <use style="fill:#83101e;stroke:#83101e;" x="587.434149" xlink:href="#m4f6ad29a58" y="178.859211"/>
     <use style="fill:#83101e;stroke:#83101e;" x="605.207214" xlink:href="#m4f6ad29a58" y="196.471583"/>
     <use style="fill:#83101e;stroke:#83101e;" x="628.942395" xlink:href="#m4f6ad29a58" y="199.197685"/>
     <use style="fill:#83101e;stroke:#83101e;" x="648.538173" xlink:href="#m4f6ad29a58" y="211.256207"/>
     <use style="fill:#83101e;stroke:#83101e;" x="660.707645" xlink:href="#m4f6ad29a58" y="228.978541"/>
     <use style="fill:#83101e;stroke:#83101e;" x="673.88974" xlink:href="#m4f6ad29a58" y="249.143066"/>
     <use style="fill:#83101e;stroke:#83101e;" x="709.219069" xlink:href="#m4f6ad29a58" y="221.520563"/>
     <use style="fill:#83101e;stroke:#83101e;" x="736.478829" xlink:href="#m4f6ad29a58" y="224.814809"/>
     <use style="fill:#83101e;stroke:#83101e;" x="810.523969" xlink:href="#m4f6ad29a58" y="206.406145"/>
     <use style="fill:#83101e;stroke:#83101e;" x="855.978347" xlink:href="#m4f6ad29a58" y="219.276007"/>
     <use style="fill:#83101e;stroke:#83101e;" x="852.599652" xlink:href="#m4f6ad29a58" y="223.826958"/>
    </g>
   </g>
   <g id="line2d_31">
    <path clip-path="url(#pd7e42b26aa)" d="M 495.595981 160.801523 
L 512.462175 157.31255 
L 528.969906 156.581434 
L 541.931836 163.784453 
L 553.912894 173.400959 
L 567.908179 179.107282 
L 583.637746 181.454507 
L 597.236188 188.432224 
L 610.457582 195.758988 
L 624.961833 199.735625 
L 638.499328 205.539372 
L 649.604016 214.495613 
L 658.350209 225.649953 
L 667.00396 237.394466 
L 680.112114 240.579876 
L 699.876915 230.475634 
L 720.331428 223.719777 
L 746.866297 220.793923 
L 788.185669 213.987044 
L 832.999808 214.808217 
L 852.599652 223.826958 
" style="fill:none;stroke:#2fb640;stroke-linecap:square;stroke-width:1.5;"/>
   </g>
   <g id="line2d_32">
    <path clip-path="url(#pd7e42b26aa)" d="M 495.595981 160.801523 
L 502.950545 160.801523 
L 517.629118 155.815325 
L 542.24234 157.680046 
L 554.189686 183.234254 
L 576.048482 196.951398 
L 598.92698 201.384234 
L 620.786212 210.005061 
L 637.88426 225.534549 
L 642.250873 248.84308 
L 664.270619 260.189859 
L 688.272883 241.031663 
L 710.587954 241.543218 
L 760.316289 230.42563 
L 793.486676 236.797833 
L 787.489419 246.418918 
" style="fill:none;stroke:#a7e31f;stroke-dasharray:9.6,2.4,1.5,2.4;stroke-dashoffset:0;stroke-width:1.5;"/>
    <defs>
     <path d="M 0 3 
C 0.795609 3 1.55874 2.683901 2.12132 2.12132 
C 2.683901 1.55874 3 0.795609 3 0 
C 3 -0.795609 2.683901 -1.55874 2.12132 -2.12132 
C 1.55874 -2.683901 0.795609 -3 0 -3 
C -0.795609 -3 -1.55874 -2.683901 -2.12132 -2.12132 
C -2.683901 -1.55874 -3 -0.795609 -3 0 
C -3 0.795609 -2.683901 1.55874 -2.12132 2.12132 
C -1.55874 2.683901 -0.795609 3 0 3 
z
" id="md34f02907d" style="stroke:#a7e31f;"/>
    </defs>
    <g clip-path="url(#pd7e42b26aa)">
     <use style="fill:#a7e31f;stroke:#a7e31f;" x="495.595981" xlink:href="#md34f02907d" y="160.801523"/>
     <use style="fill:#a7e31f;stroke:#a7e31f;" x="502.950545" xlink:href="#md34f02907d" y="160.801523"/>
     <use style="fill:#a7e31f;stroke:#a7e31f;" x="517.629118" xlink:href="#md34f02907d" y="155.815325"/>
     <use style="fill:#a7e31f;stroke:#a7e31f;" x="542.24234" xlink:href="#md34f02907d" y="157.680046"/>
     <use style="fill:#a7e31f;stroke:#a7e31f;" x="554.189686" xlink:href="#md34f02907d" y="183.234254"/>
     <use style="fill:#a7e31f;stroke:#a7e31f;" x="576.048482" xlink:href="#md34f02907d" y="196.951398"/>
     <use style="fill:#a7e31f;stroke:#a7e31f;" x="598.92698" xlink:href="#md34f02907d" y="201.384234"/>
     <use style="fill:#a7e31f;stroke:#a7e31f;" x="620.786212" xlink:href="#md34f02907d" y="210.005061"/>
     <use style="fill:#a7e31f;stroke:#a7e31f;" x="637.88426" xlink:href="#md34f02907d" y="225.534549"/>
     <use style="fill:#a7e31f;stroke:#a7e31f;" x="642.250873" xlink:href="#md34f02907d" y="248.84308"/>
     <use style="fill:#a7e31f;stroke:#a7e31f;" x="664.270619" xlink:href="#md34f02907d" y="260.189859"/>
     <use style="fill:#a7e31f;stroke:#a7e31f;" x="688.272883" xlink:href="#md34f02907d" y="241.031663"/>
     <use style="fill:#a7e31f;stroke:#a7e31f;" x="710.587954" xlink:href="#md34f02907d" y="241.543218"/>
     <use style="fill:#a7e31f;stroke:#a7e31f;" x="760.316289" xlink:href="#md34f02907d" y="230.42563"/>
     <use style="fill:#a7e31f;stroke:#a7e31f;" x="793.486676" xlink:href="#md34f02907d" y="236.797833"/>
     <use style="fill:#a7e31f;stroke:#a7e31f;" x="787.489419" xlink:href="#md34f02907d" y="246.418918"/>
    </g>
   </g>
   <g id="line2d_33">
    <path clip-path="url(#pd7e42b26aa)" d="M 495.595981 160.801523 
L 510.041018 158.753868 
L 525.104487 157.015511 
L 539.201869 160.972158 
L 549.632496 172.83918 
L 560.354002 185.807123 
L 573.988235 194.449707 
L 588.61898 199.364608 
L 603.205589 203.475014 
L 617.019469 209.421448 
L 628.970801 218.075803 
L 637.246043 229.820276 
L 642.866928 243.170938 
L 652.679287 253.154104 
L 666.91135 254.570989 
L 682.158773 247.124842 
L 697.430516 241.820362 
L 716.99154 239.326025 
L 745.522643 234.890555 
L 776.76374 234.993284 
L 787.489419 246.418918 
" style="fill:none;stroke:#aca1b6;stroke-linecap:square;stroke-width:1.5;"/>
   </g>
   <g id="line2d_34">
    <path clip-path="url(#pd7e42b26aa)" d="M 495.595981 160.801523 
L 502.844593 160.801523 
L 518.345172 163.056204 
L 541.569046 167.964185 
L 553.936057 190.06375 
L 575.693603 199.844992 
L 595.526215 212.505853 
L 617.640776 220.127654 
L 634.908752 234.910161 
L 645.815506 253.99366 
L 668.441476 263.174882 
L 689.901792 247.893946 
L 710.855144 247.409064 
L 744.878653 239.750503 
L 768.661269 244.115592 
L 765.479515 252.099383 
" style="fill:none;stroke:#f356e2;stroke-dasharray:9.6,2.4,1.5,2.4;stroke-dashoffset:0;stroke-width:1.5;"/>
    <defs>
     <path d="M 0 3 
C 0.795609 3 1.55874 2.683901 2.12132 2.12132 
C 2.683901 1.55874 3 0.795609 3 0 
C 3 -0.795609 2.683901 -1.55874 2.12132 -2.12132 
C 1.55874 -2.683901 0.795609 -3 0 -3 
C -0.795609 -3 -1.55874 -2.683901 -2.12132 -2.12132 
C -2.683901 -1.55874 -3 -0.795609 -3 0 
C -3 0.795609 -2.683901 1.55874 -2.12132 2.12132 
C -1.55874 2.683901 -0.795609 3 0 3 
z
" id="m6efbd2a015" style="stroke:#f356e2;"/>
    </defs>
    <g clip-path="url(#pd7e42b26aa)">
     <use style="fill:#f356e2;stroke:#f356e2;" x="495.595981" xlink:href="#m6efbd2a015" y="160.801523"/>
     <use style="fill:#f356e2;stroke:#f356e2;" x="502.844593" xlink:href="#m6efbd2a015" y="160.801523"/>
     <use style="fill:#f356e2;stroke:#f356e2;" x="518.345172" xlink:href="#m6efbd2a015" y="163.056204"/>
     <use style="fill:#f356e2;stroke:#f356e2;" x="541.569046" xlink:href="#m6efbd2a015" y="167.964185"/>
     <use style="fill:#f356e2;stroke:#f356e2;" x="553.936057" xlink:href="#m6efbd2a015" y="190.06375"/>
     <use style="fill:#f356e2;stroke:#f356e2;" x="575.693603" xlink:href="#m6efbd2a015" y="199.844992"/>
     <use style="fill:#f356e2;stroke:#f356e2;" x="595.526215" xlink:href="#m6efbd2a015" y="212.505853"/>
     <use style="fill:#f356e2;stroke:#f356e2;" x="617.640776" xlink:href="#m6efbd2a015" y="220.127654"/>
     <use style="fill:#f356e2;stroke:#f356e2;" x="634.908752" xlink:href="#m6efbd2a015" y="234.910161"/>
     <use style="fill:#f356e2;stroke:#f356e2;" x="645.815506" xlink:href="#m6efbd2a015" y="253.99366"/>
     <use style="fill:#f356e2;stroke:#f356e2;" x="668.441476" xlink:href="#m6efbd2a015" y="263.174882"/>
     <use style="fill:#f356e2;stroke:#f356e2;" x="689.901792" xlink:href="#m6efbd2a015" y="247.893946"/>
     <use style="fill:#f356e2;stroke:#f356e2;" x="710.855144" xlink:href="#m6efbd2a015" y="247.409064"/>
     <use style="fill:#f356e2;stroke:#f356e2;" x="744.878653" xlink:href="#m6efbd2a015" y="239.750503"/>
     <use style="fill:#f356e2;stroke:#f356e2;" x="768.661269" xlink:href="#m6efbd2a015" y="244.115592"/>
     <use style="fill:#f356e2;stroke:#f356e2;" x="765.479515" xlink:href="#m6efbd2a015" y="252.099383"/>
    </g>
   </g>
   <g id="line2d_35">
    <path clip-path="url(#pd7e42b26aa)" d="M 495.595981 160.801523 
L 510.227657 161.990678 
L 525.261965 164.693202 
L 538.856487 170.175448 
L 549.211544 180.963889 
L 560.030765 191.650471 
L 573.285616 199.214731 
L 586.635672 206.712523 
L 600.137475 213.6098 
L 613.82885 219.714501 
L 626.041265 227.757696 
L 635.900229 238.207304 
L 644.62565 249.337642 
L 656.30436 257.479074 
L 670.445711 258.677123 
L 684.497962 252.690858 
L 698.404239 248.156142 
L 714.42397 246.001352 
L 734.824721 242.827915 
L 756.79379 242.941129 
L 765.479515 252.099383 
" style="fill:none;stroke:#d71025;stroke-linecap:square;stroke-width:1.5;"/>
   </g>
   <g id="line2d_36">
    <path clip-path="url(#pd7e42b26aa)" d="M 495.595981 160.801523 
L 503.542882 160.801523 
L 517.29495 164.6548 
L 538.566326 174.333288 
L 554.73491 193.375674 
L 583.585773 191.682083 
L 592.784691 219.138544 
L 615.056922 227.488908 
L 633.083076 240.861498 
L 654.550563 247.13354 
L 676.985715 252.692316 
L 698.379539 237.494779 
L 721.922525 214.963528 
L 746.558774 214.395874 
L 763.553277 215.695759 
L 768.215647 222.024429 
" style="fill:none;stroke:#076569;stroke-dasharray:9.6,2.4,1.5,2.4;stroke-dashoffset:0;stroke-width:1.5;"/>
    <defs>
     <path d="M 0 3 
C 0.795609 3 1.55874 2.683901 2.12132 2.12132 
C 2.683901 1.55874 3 0.795609 3 0 
C 3 -0.795609 2.683901 -1.55874 2.12132 -2.12132 
C 1.55874 -2.683901 0.795609 -3 0 -3 
C -0.795609 -3 -1.55874 -2.683901 -2.12132 -2.12132 
C -2.683901 -1.55874 -3 -0.795609 -3 0 
C -3 0.795609 -2.683901 1.55874 -2.12132 2.12132 
C -1.55874 2.683901 -0.795609 3 0 3 
z
" id="m6b2fb9fac5" style="stroke:#076569;"/>
    </defs>
    <g clip-path="url(#pd7e42b26aa)">
     <use style="fill:#076569;stroke:#076569;" x="495.595981" xlink:href="#m6b2fb9fac5" y="160.801523"/>
     <use style="fill:#076569;stroke:#076569;" x="503.542882" xlink:href="#m6b2fb9fac5" y="160.801523"/>
     <use style="fill:#076569;stroke:#076569;" x="517.29495" xlink:href="#m6b2fb9fac5" y="164.6548"/>
     <use style="fill:#076569;stroke:#076569;" x="538.566326" xlink:href="#m6b2fb9fac5" y="174.333288"/>
     <use style="fill:#076569;stroke:#076569;" x="554.73491" xlink:href="#m6b2fb9fac5" y="193.375674"/>
     <use style="fill:#076569;stroke:#076569;" x="583.585773" xlink:href="#m6b2fb9fac5" y="191.682083"/>
     <use style="fill:#076569;stroke:#076569;" x="592.784691" xlink:href="#m6b2fb9fac5" y="219.138544"/>
     <use style="fill:#076569;stroke:#076569;" x="615.056922" xlink:href="#m6b2fb9fac5" y="227.488908"/>
     <use style="fill:#076569;stroke:#076569;" x="633.083076" xlink:href="#m6b2fb9fac5" y="240.861498"/>
     <use style="fill:#076569;stroke:#076569;" x="654.550563" xlink:href="#m6b2fb9fac5" y="247.13354"/>
     <use style="fill:#076569;stroke:#076569;" x="676.985715" xlink:href="#m6b2fb9fac5" y="252.692316"/>
     <use style="fill:#076569;stroke:#076569;" x="698.379539" xlink:href="#m6b2fb9fac5" y="237.494779"/>
     <use style="fill:#076569;stroke:#076569;" x="721.922525" xlink:href="#m6b2fb9fac5" y="214.963528"/>
     <use style="fill:#076569;stroke:#076569;" x="746.558774" xlink:href="#m6b2fb9fac5" y="214.395874"/>
     <use style="fill:#076569;stroke:#076569;" x="763.553277" xlink:href="#m6b2fb9fac5" y="215.695759"/>
     <use style="fill:#076569;stroke:#076569;" x="768.215647" xlink:href="#m6b2fb9fac5" y="222.024429"/>
    </g>
   </g>
   <g id="line2d_37">
    <path clip-path="url(#pd7e42b26aa)" d="M 495.595981 160.801523 
L 510.058658 162.892879 
L 523.690201 167.823364 
L 536.77364 175.187534 
L 548.669658 185.112144 
L 562.788251 191.570206 
L 578.31517 195.389757 
L 588.709283 206.696154 
L 598.349132 219.184992 
L 611.288881 226.739676 
L 624.053234 234.131904 
L 636.655935 241.075112 
L 650.344142 245.808775 
L 664.657301 249.299959 
L 678.998849 248.649475 
L 693.179413 240.724513 
L 707.885705 228.452594 
L 723.310531 218.073725 
L 739.221694 214.808924 
L 755.355609 215.437014 
L 768.215647 222.024429 
" style="fill:none;stroke:#62d5d2;stroke-linecap:square;stroke-width:1.5;"/>
   </g>
   <g id="line2d_38">
    <path clip-path="url(#pd7e42b26aa)" d="M 495.595981 160.801523 
L 498.337762 160.801523 
L 524.497759 113.6925 
L 541.600573 141.857999 
L 526.679975 207.966925 
L 561.369575 194.982667 
L 575.923689 215.539376 
L 594.717645 228.887271 
L 612.721435 242.767919 
L 632.63354 249.629722 
L 656.424525 252.273694 
L 673.617786 234.501699 
L 692.836096 220.19576 
L 715.972908 213.932098 
L 728.642 217.784389 
L 745.461498 206.370756 
" style="fill:none;stroke:#a33fad;stroke-dasharray:9.6,2.4,1.5,2.4;stroke-dashoffset:0;stroke-width:1.5;"/>
    <defs>
     <path d="M 0 3 
C 0.795609 3 1.55874 2.683901 2.12132 2.12132 
C 2.683901 1.55874 3 0.795609 3 0 
C 3 -0.795609 2.683901 -1.55874 2.12132 -2.12132 
C 1.55874 -2.683901 0.795609 -3 0 -3 
C -0.795609 -3 -1.55874 -2.683901 -2.12132 -2.12132 
C -2.683901 -1.55874 -3 -0.795609 -3 0 
C -3 0.795609 -2.683901 1.55874 -2.12132 2.12132 
C -1.55874 2.683901 -0.795609 3 0 3 
z
" id="mcee3c19f82" style="stroke:#a33fad;"/>
    </defs>
    <g clip-path="url(#pd7e42b26aa)">
     <use style="fill:#a33fad;stroke:#a33fad;" x="495.595981" xlink:href="#mcee3c19f82" y="160.801523"/>
     <use style="fill:#a33fad;stroke:#a33fad;" x="498.337762" xlink:href="#mcee3c19f82" y="160.801523"/>
     <use style="fill:#a33fad;stroke:#a33fad;" x="524.497759" xlink:href="#mcee3c19f82" y="113.6925"/>
     <use style="fill:#a33fad;stroke:#a33fad;" x="541.600573" xlink:href="#mcee3c19f82" y="141.857999"/>
     <use style="fill:#a33fad;stroke:#a33fad;" x="526.679975" xlink:href="#mcee3c19f82" y="207.966925"/>
     <use style="fill:#a33fad;stroke:#a33fad;" x="561.369575" xlink:href="#mcee3c19f82" y="194.982667"/>
     <use style="fill:#a33fad;stroke:#a33fad;" x="575.923689" xlink:href="#mcee3c19f82" y="215.539376"/>
     <use style="fill:#a33fad;stroke:#a33fad;" x="594.717645" xlink:href="#mcee3c19f82" y="228.887271"/>
     <use style="fill:#a33fad;stroke:#a33fad;" x="612.721435" xlink:href="#mcee3c19f82" y="242.767919"/>
     <use style="fill:#a33fad;stroke:#a33fad;" x="632.63354" xlink:href="#mcee3c19f82" y="249.629722"/>
     <use style="fill:#a33fad;stroke:#a33fad;" x="656.424525" xlink:href="#mcee3c19f82" y="252.273694"/>
     <use style="fill:#a33fad;stroke:#a33fad;" x="673.617786" xlink:href="#mcee3c19f82" y="234.501699"/>
     <use style="fill:#a33fad;stroke:#a33fad;" x="692.836096" xlink:href="#mcee3c19f82" y="220.19576"/>
     <use style="fill:#a33fad;stroke:#a33fad;" x="715.972908" xlink:href="#mcee3c19f82" y="213.932098"/>
     <use style="fill:#a33fad;stroke:#a33fad;" x="728.642" xlink:href="#mcee3c19f82" y="217.784389"/>
     <use style="fill:#a33fad;stroke:#a33fad;" x="745.461498" xlink:href="#mcee3c19f82" y="206.370756"/>
    </g>
   </g>
   <g id="line2d_39">
    <path clip-path="url(#pd7e42b26aa)" d="M 495.595981 160.801523 
L 510.193795 141.938298 
L 528.219016 127.962629 
L 536.168964 145.873828 
L 534.09259 179.080857 
L 538.788222 199.247001 
L 555.462525 200.343142 
L 569.186174 206.598437 
L 580.043294 217.594578 
L 591.820099 226.935591 
L 603.742835 235.692466 
L 615.905715 243.076387 
L 628.984576 247.88806 
L 643.346738 250.39248 
L 657.342487 248.016569 
L 669.444617 239.135291 
L 681.419759 228.989923 
L 694.552747 221.032055 
L 708.813189 216.535798 
L 722.884529 215.933786 
L 745.461498 206.370756 
" style="fill:none;stroke:#6e6018;stroke-linecap:square;stroke-width:1.5;"/>
   </g>
   <g id="line2d_40">
    <path clip-path="url(#pd7e42b26aa)" d="M 495.595981 160.801523 
L 494.488893 160.801523 
L 514.921667 126.709774 
L 527.96039 150.511205 
L 516.938326 194.129921 
L 543.675652 196.768107 
L 565.830652 202.603473 
L 586.953855 212.6475 
L 607.522179 222.415877 
L 628.54459 224.005479 
L 652.392519 222.89296 
L 667.847126 205.361452 
L 673.377784 175.308053 
L 699.523923 171.406439 
L 711.000971 174.368039 
L 722.400272 166.366109 
" style="fill:none;stroke:#4db407;stroke-dasharray:9.6,2.4,1.5,2.4;stroke-dashoffset:0;stroke-width:1.5;"/>
    <defs>
     <path d="M 0 3 
C 0.795609 3 1.55874 2.683901 2.12132 2.12132 
C 2.683901 1.55874 3 0.795609 3 0 
C 3 -0.795609 2.683901 -1.55874 2.12132 -2.12132 
C 1.55874 -2.683901 0.795609 -3 0 -3 
C -0.795609 -3 -1.55874 -2.683901 -2.12132 -2.12132 
C -2.683901 -1.55874 -3 -0.795609 -3 0 
C -3 0.795609 -2.683901 1.55874 -2.12132 2.12132 
C -1.55874 2.683901 -0.795609 3 0 3 
z
" id="m6beaeb557a" style="stroke:#4db407;"/>
    </defs>
    <g clip-path="url(#pd7e42b26aa)">
     <use style="fill:#4db407;stroke:#4db407;" x="495.595981" xlink:href="#m6beaeb557a" y="160.801523"/>
     <use style="fill:#4db407;stroke:#4db407;" x="494.488893" xlink:href="#m6beaeb557a" y="160.801523"/>
     <use style="fill:#4db407;stroke:#4db407;" x="514.921667" xlink:href="#m6beaeb557a" y="126.709774"/>
     <use style="fill:#4db407;stroke:#4db407;" x="527.96039" xlink:href="#m6beaeb557a" y="150.511205"/>
     <use style="fill:#4db407;stroke:#4db407;" x="516.938326" xlink:href="#m6beaeb557a" y="194.129921"/>
     <use style="fill:#4db407;stroke:#4db407;" x="543.675652" xlink:href="#m6beaeb557a" y="196.768107"/>
     <use style="fill:#4db407;stroke:#4db407;" x="565.830652" xlink:href="#m6beaeb557a" y="202.603473"/>
     <use style="fill:#4db407;stroke:#4db407;" x="586.953855" xlink:href="#m6beaeb557a" y="212.6475"/>
     <use style="fill:#4db407;stroke:#4db407;" x="607.522179" xlink:href="#m6beaeb557a" y="222.415877"/>
     <use style="fill:#4db407;stroke:#4db407;" x="628.54459" xlink:href="#m6beaeb557a" y="224.005479"/>
     <use style="fill:#4db407;stroke:#4db407;" x="652.392519" xlink:href="#m6beaeb557a" y="222.89296"/>
     <use style="fill:#4db407;stroke:#4db407;" x="667.847126" xlink:href="#m6beaeb557a" y="205.361452"/>
     <use style="fill:#4db407;stroke:#4db407;" x="673.377784" xlink:href="#m6beaeb557a" y="175.308053"/>
     <use style="fill:#4db407;stroke:#4db407;" x="699.523923" xlink:href="#m6beaeb557a" y="171.406439"/>
     <use style="fill:#4db407;stroke:#4db407;" x="711.000971" xlink:href="#m6beaeb557a" y="174.368039"/>
     <use style="fill:#4db407;stroke:#4db407;" x="722.400272" xlink:href="#m6beaeb557a" y="166.366109"/>
    </g>
   </g>
   <g id="line2d_41">
    <path clip-path="url(#pd7e42b26aa)" d="M 495.595981 160.801523 
L 503.873925 147.307105 
L 517.718301 138.223406 
L 523.869905 152.154566 
L 522.449835 175.41861 
L 526.265734 191.916396 
L 540.451556 196.885932 
L 555.762797 200.142845 
L 569.966591 204.971083 
L 583.728045 211.115071 
L 597.235917 217.355552 
L 610.723562 221.815654 
L 624.581736 223.44607 
L 639.226934 223.180565 
L 652.916464 219.142858 
L 663.263797 208.821192 
L 669.922002 193.168323 
L 677.630738 178.850158 
L 691.26229 173.17161 
L 705.383305 172.93662 
L 722.400272 166.366109 
" style="fill:none;stroke:#014814;stroke-linecap:square;stroke-width:1.5;"/>
   </g>
   <g id="line2d_42">
    <path clip-path="url(#pd7e42b26aa)" d="M 495.595981 160.801523 
L 493.543186 160.801523 
L 509.817414 134.577828 
L 526.995905 160.710426 
L 515.858949 186.523153 
L 532.844452 212.205449 
L 560.317706 183.0795 
L 586.573998 170.146684 
L 603.840338 190.280907 
L 626.336372 185.656114 
L 648.657257 190.738834 
L 669.525462 176.010371 
L 674.264493 151.499736 
L 694.832483 137.565187 
L 708.45781 136.710878 
L 716.18562 131.400797 
" style="fill:none;stroke:#e655f7;stroke-dasharray:9.6,2.4,1.5,2.4;stroke-dashoffset:0;stroke-width:1.5;"/>
    <defs>
     <path d="M 0 3 
C 0.795609 3 1.55874 2.683901 2.12132 2.12132 
C 2.683901 1.55874 3 0.795609 3 0 
C 3 -0.795609 2.683901 -1.55874 2.12132 -2.12132 
C 1.55874 -2.683901 0.795609 -3 0 -3 
C -0.795609 -3 -1.55874 -2.683901 -2.12132 -2.12132 
C -2.683901 -1.55874 -3 -0.795609 -3 0 
C -3 0.795609 -2.683901 1.55874 -2.12132 2.12132 
C -1.55874 2.683901 -0.795609 3 0 3 
z
" id="mac1c564fbe" style="stroke:#e655f7;"/>
    </defs>
    <g clip-path="url(#pd7e42b26aa)">
     <use style="fill:#e655f7;stroke:#e655f7;" x="495.595981" xlink:href="#mac1c564fbe" y="160.801523"/>
     <use style="fill:#e655f7;stroke:#e655f7;" x="493.543186" xlink:href="#mac1c564fbe" y="160.801523"/>
     <use style="fill:#e655f7;stroke:#e655f7;" x="509.817414" xlink:href="#mac1c564fbe" y="134.577828"/>
     <use style="fill:#e655f7;stroke:#e655f7;" x="526.995905" xlink:href="#mac1c564fbe" y="160.710426"/>
     <use style="fill:#e655f7;stroke:#e655f7;" x="515.858949" xlink:href="#mac1c564fbe" y="186.523153"/>
     <use style="fill:#e655f7;stroke:#e655f7;" x="532.844452" xlink:href="#mac1c564fbe" y="212.205449"/>
     <use style="fill:#e655f7;stroke:#e655f7;" x="560.317706" xlink:href="#mac1c564fbe" y="183.0795"/>
     <use style="fill:#e655f7;stroke:#e655f7;" x="586.573998" xlink:href="#mac1c564fbe" y="170.146684"/>
     <use style="fill:#e655f7;stroke:#e655f7;" x="603.840338" xlink:href="#mac1c564fbe" y="190.280907"/>
     <use style="fill:#e655f7;stroke:#e655f7;" x="626.336372" xlink:href="#mac1c564fbe" y="185.656114"/>
     <use style="fill:#e655f7;stroke:#e655f7;" x="648.657257" xlink:href="#mac1c564fbe" y="190.738834"/>
     <use style="fill:#e655f7;stroke:#e655f7;" x="669.525462" xlink:href="#mac1c564fbe" y="176.010371"/>
     <use style="fill:#e655f7;stroke:#e655f7;" x="674.264493" xlink:href="#mac1c564fbe" y="151.499736"/>
     <use style="fill:#e655f7;stroke:#e655f7;" x="694.832483" xlink:href="#mac1c564fbe" y="137.565187"/>
     <use style="fill:#e655f7;stroke:#e655f7;" x="708.45781" xlink:href="#mac1c564fbe" y="136.710878"/>
     <use style="fill:#e655f7;stroke:#e655f7;" x="716.18562" xlink:href="#mac1c564fbe" y="131.400797"/>
    </g>
   </g>
   <g id="line2d_43">
    <path clip-path="url(#pd7e42b26aa)" d="M 495.595981 160.801523 
L 501.379295 150.779615 
L 514.430087 146.158776 
L 522.090679 159.359502 
L 521.024099 176.190022 
L 522.110028 192.791904 
L 532.424933 202.978009 
L 548.080395 195.802705 
L 565.453236 181.918765 
L 581.714759 175.480269 
L 595.128828 180.386882 
L 607.749882 187.058445 
L 621.829104 187.376435 
L 636.353752 187.911629 
L 650.564805 186.857325 
L 663.170492 178.953141 
L 671.009243 165.966827 
L 677.554756 152.314587 
L 688.725859 142.516494 
L 702.019053 137.486465 
L 716.18562 131.400797 
" style="fill:none;stroke:#a54c65;stroke-linecap:square;stroke-width:1.5;"/>
   </g>
   <g id="line2d_44">
    <path clip-path="url(#pd7e42b26aa)" d="M 495.595981 160.801523 
L 492.870864 160.801523 
L 506.221068 138.164286 
L 528.806942 160.097295 
L 514.539835 183.848954 
L 538.983715 203.578888 
L 558.87062 182.099324 
L 579.877457 171.752119 
L 603.573798 173.100081 
L 622.727348 187.319312 
L 645.334098 170.863483 
L 651.002621 144.81117 
L 674.038675 133.936746 
L 688.44802 115.033758 
L 705.682525 119.443403 
L 711.21486 114.067205 
" style="fill:none;stroke:#ce6fea;stroke-dasharray:9.6,2.4,1.5,2.4;stroke-dashoffset:0;stroke-width:1.5;"/>
    <defs>
     <path d="M 0 3 
C 0.795609 3 1.55874 2.683901 2.12132 2.12132 
C 2.683901 1.55874 3 0.795609 3 0 
C 3 -0.795609 2.683901 -1.55874 2.12132 -2.12132 
C 1.55874 -2.683901 0.795609 -3 0 -3 
C -0.795609 -3 -1.55874 -2.683901 -2.12132 -2.12132 
C -2.683901 -1.55874 -3 -0.795609 -3 0 
C -3 0.795609 -2.683901 1.55874 -2.12132 2.12132 
C -1.55874 2.683901 -0.795609 3 0 3 
z
" id="m5d202d3389" style="stroke:#ce6fea;"/>
    </defs>
    <g clip-path="url(#pd7e42b26aa)">
     <use style="fill:#ce6fea;stroke:#ce6fea;" x="495.595981" xlink:href="#m5d202d3389" y="160.801523"/>
     <use style="fill:#ce6fea;stroke:#ce6fea;" x="492.870864" xlink:href="#m5d202d3389" y="160.801523"/>
     <use style="fill:#ce6fea;stroke:#ce6fea;" x="506.221068" xlink:href="#m5d202d3389" y="138.164286"/>
     <use style="fill:#ce6fea;stroke:#ce6fea;" x="528.806942" xlink:href="#m5d202d3389" y="160.097295"/>
     <use style="fill:#ce6fea;stroke:#ce6fea;" x="514.539835" xlink:href="#m5d202d3389" y="183.848954"/>
     <use style="fill:#ce6fea;stroke:#ce6fea;" x="538.983715" xlink:href="#m5d202d3389" y="203.578888"/>
     <use style="fill:#ce6fea;stroke:#ce6fea;" x="558.87062" xlink:href="#m5d202d3389" y="182.099324"/>
     <use style="fill:#ce6fea;stroke:#ce6fea;" x="579.877457" xlink:href="#m5d202d3389" y="171.752119"/>
     <use style="fill:#ce6fea;stroke:#ce6fea;" x="603.573798" xlink:href="#m5d202d3389" y="173.100081"/>
     <use style="fill:#ce6fea;stroke:#ce6fea;" x="622.727348" xlink:href="#m5d202d3389" y="187.319312"/>
     <use style="fill:#ce6fea;stroke:#ce6fea;" x="645.334098" xlink:href="#m5d202d3389" y="170.863483"/>
     <use style="fill:#ce6fea;stroke:#ce6fea;" x="651.002621" xlink:href="#m5d202d3389" y="144.81117"/>
     <use style="fill:#ce6fea;stroke:#ce6fea;" x="674.038675" xlink:href="#m5d202d3389" y="133.936746"/>
     <use style="fill:#ce6fea;stroke:#ce6fea;" x="688.44802" xlink:href="#m5d202d3389" y="115.033758"/>
     <use style="fill:#ce6fea;stroke:#ce6fea;" x="705.682525" xlink:href="#m5d202d3389" y="119.443403"/>
     <use style="fill:#ce6fea;stroke:#ce6fea;" x="711.21486" xlink:href="#m5d202d3389" y="114.067205"/>
    </g>
   </g>
   <g id="line2d_45">
    <path clip-path="url(#pd7e42b26aa)" d="M 495.595981 160.801523 
L 499.732456 152.121618 
L 512.977397 147.947363 
L 522.411576 159.26173 
L 521.247163 174.222967 
L 523.360847 188.391407 
L 535.992194 196.598282 
L 549.883449 191.44788 
L 563.171223 180.995379 
L 577.002392 174.507499 
L 591.687017 172.937909 
L 605.983753 176.533123 
L 619.185172 181.875018 
L 632.7388 178.917908 
L 643.845801 167.094895 
L 650.762499 152.366523 
L 660.750205 140.922204 
L 673.526624 131.84491 
L 684.740498 122.12729 
L 697.887584 118.191741 
L 711.21486 114.067205 
" style="fill:none;stroke:#cf782d;stroke-linecap:square;stroke-width:1.5;"/>
   </g>
   <g id="line2d_46">
    <path clip-path="url(#pd7e42b26aa)" d="M 495.595981 160.801523 
L 492.077843 160.801523 
L 507.034999 139.655722 
L 529.226188 165.395768 
L 497.234787 182.980602 
L 524.132291 206.526519 
L 540.090055 178.40272 
L 565.022192 184.632829 
L 587.28874 180.968079 
L 606.093888 197.693306 
L 629.693799 183.835791 
L 628.736536 160.537346 
L 632.299788 128.393597 
L 675.08078 149.178704 
L 688.711751 163.576694 
L 694.557169 157.624384 
" style="fill:none;stroke:#66d3fe;stroke-dasharray:9.6,2.4,1.5,2.4;stroke-dashoffset:0;stroke-width:1.5;"/>
    <defs>
     <path d="M 0 3 
C 0.795609 3 1.55874 2.683901 2.12132 2.12132 
C 2.683901 1.55874 3 0.795609 3 0 
C 3 -0.795609 2.683901 -1.55874 2.12132 -2.12132 
C 1.55874 -2.683901 0.795609 -3 0 -3 
C -0.795609 -3 -1.55874 -2.683901 -2.12132 -2.12132 
C -2.683901 -1.55874 -3 -0.795609 -3 0 
C -3 0.795609 -2.683901 1.55874 -2.12132 2.12132 
C -1.55874 2.683901 -0.795609 3 0 3 
z
" id="m1ec86b8dd0" style="stroke:#66d3fe;"/>
    </defs>
    <g clip-path="url(#pd7e42b26aa)">
     <use style="fill:#66d3fe;stroke:#66d3fe;" x="495.595981" xlink:href="#m1ec86b8dd0" y="160.801523"/>
     <use style="fill:#66d3fe;stroke:#66d3fe;" x="492.077843" xlink:href="#m1ec86b8dd0" y="160.801523"/>
     <use style="fill:#66d3fe;stroke:#66d3fe;" x="507.034999" xlink:href="#m1ec86b8dd0" y="139.655722"/>
     <use style="fill:#66d3fe;stroke:#66d3fe;" x="529.226188" xlink:href="#m1ec86b8dd0" y="165.395768"/>
     <use style="fill:#66d3fe;stroke:#66d3fe;" x="497.234787" xlink:href="#m1ec86b8dd0" y="182.980602"/>
     <use style="fill:#66d3fe;stroke:#66d3fe;" x="524.132291" xlink:href="#m1ec86b8dd0" y="206.526519"/>
     <use style="fill:#66d3fe;stroke:#66d3fe;" x="540.090055" xlink:href="#m1ec86b8dd0" y="178.40272"/>
     <use style="fill:#66d3fe;stroke:#66d3fe;" x="565.022192" xlink:href="#m1ec86b8dd0" y="184.632829"/>
     <use style="fill:#66d3fe;stroke:#66d3fe;" x="587.28874" xlink:href="#m1ec86b8dd0" y="180.968079"/>
     <use style="fill:#66d3fe;stroke:#66d3fe;" x="606.093888" xlink:href="#m1ec86b8dd0" y="197.693306"/>
     <use style="fill:#66d3fe;stroke:#66d3fe;" x="629.693799" xlink:href="#m1ec86b8dd0" y="183.835791"/>
     <use style="fill:#66d3fe;stroke:#66d3fe;" x="628.736536" xlink:href="#m1ec86b8dd0" y="160.537346"/>
     <use style="fill:#66d3fe;stroke:#66d3fe;" x="632.299788" xlink:href="#m1ec86b8dd0" y="128.393597"/>
     <use style="fill:#66d3fe;stroke:#66d3fe;" x="675.08078" xlink:href="#m1ec86b8dd0" y="149.178704"/>
     <use style="fill:#66d3fe;stroke:#66d3fe;" x="688.711751" xlink:href="#m1ec86b8dd0" y="163.576694"/>
     <use style="fill:#66d3fe;stroke:#66d3fe;" x="694.557169" xlink:href="#m1ec86b8dd0" y="157.624384"/>
    </g>
   </g>
   <g id="line2d_47">
    <path clip-path="url(#pd7e42b26aa)" d="M 495.595981 160.801523 
L 499.642795 152.933879 
L 513.43458 150.625777 
L 520.374153 162.94466 
L 511.573356 176.074328 
L 508.071333 189.151729 
L 520.123264 197.89506 
L 532.991847 191.22622 
L 545.838825 182.567049 
L 561.014636 182.704858 
L 576.027819 183.019106 
L 589.757876 185.546646 
L 602.737314 191.765706 
L 616.47375 190.466055 
L 626.615094 180.357476 
L 629.229746 165.715519 
L 630.742883 147.926059 
L 640.042375 136.996188 
L 661.146125 143.22774 
L 681.173162 156.210936 
L 694.557169 157.624384 
" style="fill:none;stroke:#ba0d7b;stroke-linecap:square;stroke-width:1.5;"/>
   </g>
   <g id="line2d_48">
    <path clip-path="url(#pd7e42b26aa)" d="M 495.595981 160.801523 
L 491.839366 160.801523 
L 504.366871 136.844179 
L 527.171111 161.538633 
L 505.026528 182.075205 
L 526.706178 205.953753 
L 549.443756 188.661964 
L 571.775172 197.840899 
L 595.5861 203.395171 
L 617.106819 210.840155 
L 636.309904 190.100399 
L 616.690799 166.684664 
L 634.651547 143.220045 
L 662.933451 158.416727 
L 674.411754 168.48532 
L 681.919442 167.825496 
" style="fill:none;stroke:#c8581c;stroke-dasharray:9.6,2.4,1.5,2.4;stroke-dashoffset:0;stroke-width:1.5;"/>
    <defs>
     <path d="M 0 3 
C 0.795609 3 1.55874 2.683901 2.12132 2.12132 
C 2.683901 1.55874 3 0.795609 3 0 
C 3 -0.795609 2.683901 -1.55874 2.12132 -2.12132 
C 1.55874 -2.683901 0.795609 -3 0 -3 
C -0.795609 -3 -1.55874 -2.683901 -2.12132 -2.12132 
C -2.683901 -1.55874 -3 -0.795609 -3 0 
C -3 0.795609 -2.683901 1.55874 -2.12132 2.12132 
C -1.55874 2.683901 -0.795609 3 0 3 
z
" id="m593f0a7912" style="stroke:#c8581c;"/>
    </defs>
    <g clip-path="url(#pd7e42b26aa)">
     <use style="fill:#c8581c;stroke:#c8581c;" x="495.595981" xlink:href="#m593f0a7912" y="160.801523"/>
     <use style="fill:#c8581c;stroke:#c8581c;" x="491.839366" xlink:href="#m593f0a7912" y="160.801523"/>
     <use style="fill:#c8581c;stroke:#c8581c;" x="504.366871" xlink:href="#m593f0a7912" y="136.844179"/>
     <use style="fill:#c8581c;stroke:#c8581c;" x="527.171111" xlink:href="#m593f0a7912" y="161.538633"/>
     <use style="fill:#c8581c;stroke:#c8581c;" x="505.026528" xlink:href="#m593f0a7912" y="182.075205"/>
     <use style="fill:#c8581c;stroke:#c8581c;" x="526.706178" xlink:href="#m593f0a7912" y="205.953753"/>
     <use style="fill:#c8581c;stroke:#c8581c;" x="549.443756" xlink:href="#m593f0a7912" y="188.661964"/>
     <use style="fill:#c8581c;stroke:#c8581c;" x="571.775172" xlink:href="#m593f0a7912" y="197.840899"/>
     <use style="fill:#c8581c;stroke:#c8581c;" x="595.5861" xlink:href="#m593f0a7912" y="203.395171"/>
     <use style="fill:#c8581c;stroke:#c8581c;" x="617.106819" xlink:href="#m593f0a7912" y="210.840155"/>
     <use style="fill:#c8581c;stroke:#c8581c;" x="636.309904" xlink:href="#m593f0a7912" y="190.100399"/>
     <use style="fill:#c8581c;stroke:#c8581c;" x="616.690799" xlink:href="#m593f0a7912" y="166.684664"/>
     <use style="fill:#c8581c;stroke:#c8581c;" x="634.651547" xlink:href="#m593f0a7912" y="143.220045"/>
     <use style="fill:#c8581c;stroke:#c8581c;" x="662.933451" xlink:href="#m593f0a7912" y="158.416727"/>
     <use style="fill:#c8581c;stroke:#c8581c;" x="674.411754" xlink:href="#m593f0a7912" y="168.48532"/>
     <use style="fill:#c8581c;stroke:#c8581c;" x="681.919442" xlink:href="#m593f0a7912" y="167.825496"/>
    </g>
   </g>
   <g id="line2d_49">
    <path clip-path="url(#pd7e42b26aa)" d="M 495.595981 160.801523 
L 498.403242 151.683294 
L 511.235308 147.69986 
L 519.607988 159.711074 
L 514.982552 173.936593 
L 513.530617 188.172681 
L 524.674141 198.564287 
L 539.21675 196.551963 
L 553.877442 192.751745 
L 568.576715 196.107964 
L 583.663746 200.58191 
L 598.578443 204.689574 
L 612.601769 206.948599 
L 625.094261 200.685161 
L 629.637375 187.433773 
L 624.136835 172.528268 
L 625.338034 157.709497 
L 637.540216 149.504421 
L 653.862775 154.026319 
L 668.528944 163.454301 
L 681.919442 167.825496 
" style="fill:none;stroke:#d32ed2;stroke-linecap:square;stroke-width:1.5;"/>
   </g>
   <g id="line2d_50">
    <path clip-path="url(#pd7e42b26aa)" d="M 495.595981 160.801523 
L 493.640944 160.801523 
L 485.803876 123.440828 
L 521.009252 146.559701 
L 489.965569 163.813081 
L 506.376337 188.767694 
L 530.760965 187.601007 
L 553.667797 183.614705 
L 575.701884 189.78328 
L 597.489813 193.036159 
L 616.316649 174.712835 
L 606.538483 149.133138 
L 628.816068 130.470773 
L 650.899641 140.339252 
L 661.853382 150.628935 
L 669.473391 149.654847 
" style="fill:none;stroke:#6bcd89;stroke-dasharray:9.6,2.4,1.5,2.4;stroke-dashoffset:0;stroke-width:1.5;"/>
    <defs>
     <path d="M 0 3 
C 0.795609 3 1.55874 2.683901 2.12132 2.12132 
C 2.683901 1.55874 3 0.795609 3 0 
C 3 -0.795609 2.683901 -1.55874 2.12132 -2.12132 
C 1.55874 -2.683901 0.795609 -3 0 -3 
C -0.795609 -3 -1.55874 -2.683901 -2.12132 -2.12132 
C -2.683901 -1.55874 -3 -0.795609 -3 0 
C -3 0.795609 -2.683901 1.55874 -2.12132 2.12132 
C -1.55874 2.683901 -0.795609 3 0 3 
z
" id="m0d18600c60" style="stroke:#6bcd89;"/>
    </defs>
    <g clip-path="url(#pd7e42b26aa)">
     <use style="fill:#6bcd89;stroke:#6bcd89;" x="495.595981" xlink:href="#m0d18600c60" y="160.801523"/>
     <use style="fill:#6bcd89;stroke:#6bcd89;" x="493.640944" xlink:href="#m0d18600c60" y="160.801523"/>
     <use style="fill:#6bcd89;stroke:#6bcd89;" x="485.803876" xlink:href="#m0d18600c60" y="123.440828"/>
     <use style="fill:#6bcd89;stroke:#6bcd89;" x="521.009252" xlink:href="#m0d18600c60" y="146.559701"/>
     <use style="fill:#6bcd89;stroke:#6bcd89;" x="489.965569" xlink:href="#m0d18600c60" y="163.813081"/>
     <use style="fill:#6bcd89;stroke:#6bcd89;" x="506.376337" xlink:href="#m0d18600c60" y="188.767694"/>
     <use style="fill:#6bcd89;stroke:#6bcd89;" x="530.760965" xlink:href="#m0d18600c60" y="187.601007"/>
     <use style="fill:#6bcd89;stroke:#6bcd89;" x="553.667797" xlink:href="#m0d18600c60" y="183.614705"/>
     <use style="fill:#6bcd89;stroke:#6bcd89;" x="575.701884" xlink:href="#m0d18600c60" y="189.78328"/>
     <use style="fill:#6bcd89;stroke:#6bcd89;" x="597.489813" xlink:href="#m0d18600c60" y="193.036159"/>
     <use style="fill:#6bcd89;stroke:#6bcd89;" x="616.316649" xlink:href="#m0d18600c60" y="174.712835"/>
     <use style="fill:#6bcd89;stroke:#6bcd89;" x="606.538483" xlink:href="#m0d18600c60" y="149.133138"/>
     <use style="fill:#6bcd89;stroke:#6bcd89;" x="628.816068" xlink:href="#m0d18600c60" y="130.470773"/>
     <use style="fill:#6bcd89;stroke:#6bcd89;" x="650.899641" xlink:href="#m0d18600c60" y="140.339252"/>
     <use style="fill:#6bcd89;stroke:#6bcd89;" x="661.853382" xlink:href="#m0d18600c60" y="150.628935"/>
     <use style="fill:#6bcd89;stroke:#6bcd89;" x="669.473391" xlink:href="#m0d18600c60" y="149.654847"/>
    </g>
   </g>
   <g id="line2d_51">
    <path clip-path="url(#pd7e42b26aa)" d="M 495.595981 160.801523 
L 491.983595 145.877467 
L 498.751998 134.875408 
L 509.783258 144.567292 
L 503.384701 157.126458 
L 497.425678 170.525275 
L 505.712069 183.099834 
L 519.868111 187.651118 
L 535.215156 186.576669 
L 550.141661 185.25046 
L 564.66153 186.849811 
L 578.943166 189.960633 
L 592.879138 190.540549 
L 605.44527 184.082239 
L 611.86866 171.274457 
L 611.162452 155.995616 
L 616.601412 142.221591 
L 629.892362 135.041257 
L 643.950508 137.825276 
L 656.483489 145.733741 
L 669.473391 149.654847 
" style="fill:none;stroke:#dc6e0a;stroke-linecap:square;stroke-width:1.5;"/>
   </g>
   <g id="line2d_52">
    <path clip-path="url(#pd7e42b26aa)" d="M 495.595981 160.801523 
L 494.35825 160.801523 
L 490.969009 131.636102 
L 523.962841 146.743666 
L 512.348297 171.07135 
L 512.376413 194.065696 
L 535.206303 215.335416 
L 554.681574 198.251278 
L 577.862764 189.705429 
L 595.088657 209.447609 
L 631.077563 188.49893 
L 507.894644 154.702225 
L 542.606521 115.772984 
L 554.650203 144.533234 
L 573.735182 137.468538 
L 579.349959 138.282147 
" style="fill:none;stroke:#b4105f;stroke-dasharray:9.6,2.4,1.5,2.4;stroke-dashoffset:0;stroke-width:1.5;"/>
    <defs>
     <path d="M 0 3 
C 0.795609 3 1.55874 2.683901 2.12132 2.12132 
C 2.683901 1.55874 3 0.795609 3 0 
C 3 -0.795609 2.683901 -1.55874 2.12132 -2.12132 
C 1.55874 -2.683901 0.795609 -3 0 -3 
C -0.795609 -3 -1.55874 -2.683901 -2.12132 -2.12132 
C -2.683901 -1.55874 -3 -0.795609 -3 0 
C -3 0.795609 -2.683901 1.55874 -2.12132 2.12132 
C -1.55874 2.683901 -0.795609 3 0 3 
z
" id="m93ea71e9eb" style="stroke:#b4105f;"/>
    </defs>
    <g clip-path="url(#pd7e42b26aa)">
     <use style="fill:#b4105f;stroke:#b4105f;" x="495.595981" xlink:href="#m93ea71e9eb" y="160.801523"/>
     <use style="fill:#b4105f;stroke:#b4105f;" x="494.35825" xlink:href="#m93ea71e9eb" y="160.801523"/>
     <use style="fill:#b4105f;stroke:#b4105f;" x="490.969009" xlink:href="#m93ea71e9eb" y="131.636102"/>
     <use style="fill:#b4105f;stroke:#b4105f;" x="523.962841" xlink:href="#m93ea71e9eb" y="146.743666"/>
     <use style="fill:#b4105f;stroke:#b4105f;" x="512.348297" xlink:href="#m93ea71e9eb" y="171.07135"/>
     <use style="fill:#b4105f;stroke:#b4105f;" x="512.376413" xlink:href="#m93ea71e9eb" y="194.065696"/>
     <use style="fill:#b4105f;stroke:#b4105f;" x="535.206303" xlink:href="#m93ea71e9eb" y="215.335416"/>
     <use style="fill:#b4105f;stroke:#b4105f;" x="554.681574" xlink:href="#m93ea71e9eb" y="198.251278"/>
     <use style="fill:#b4105f;stroke:#b4105f;" x="577.862764" xlink:href="#m93ea71e9eb" y="189.705429"/>
     <use style="fill:#b4105f;stroke:#b4105f;" x="595.088657" xlink:href="#m93ea71e9eb" y="209.447609"/>
     <use style="fill:#b4105f;stroke:#b4105f;" x="631.077563" xlink:href="#m93ea71e9eb" y="188.49893"/>
     <use style="fill:#b4105f;stroke:#b4105f;" x="507.894644" xlink:href="#m93ea71e9eb" y="154.702225"/>
     <use style="fill:#b4105f;stroke:#b4105f;" x="542.606521" xlink:href="#m93ea71e9eb" y="115.772984"/>
     <use style="fill:#b4105f;stroke:#b4105f;" x="554.650203" xlink:href="#m93ea71e9eb" y="144.533234"/>
     <use style="fill:#b4105f;stroke:#b4105f;" x="573.735182" xlink:href="#m93ea71e9eb" y="137.468538"/>
     <use style="fill:#b4105f;stroke:#b4105f;" x="579.349959" xlink:href="#m93ea71e9eb" y="138.282147"/>
    </g>
   </g>
   <g id="line2d_53">
    <path clip-path="url(#pd7e42b26aa)" d="M 495.595981 160.801523 
L 494.471621 149.016572 
L 502.843224 139.574447 
L 515.939617 147.307068 
L 516.937413 161.390685 
L 513.233322 176.721771 
L 515.145993 191.556584 
L 525.186223 204.674402 
L 538.820121 208.657107 
L 552.137759 201.666228 
L 566.225306 194.74558 
L 579.847608 195.539253 
L 593.236548 202.064596 
L 609.38645 198.697326 
L 599.446436 183.557481 
L 549.378082 162.757174 
L 527.221802 139.667863 
L 539.969817 126.882726 
L 551.883109 133.959815 
L 565.260454 139.209185 
L 579.349959 138.282147 
" style="fill:none;stroke:#61d793;stroke-linecap:square;stroke-width:1.5;"/>
   </g>
   <g id="patch_3">
    <path d="M 463.620827 652.815 
L 463.620827 88.02 
" style="fill:none;stroke:#000000;stroke-linecap:square;stroke-linejoin:miter;stroke-width:0.8;"/>
   </g>
   <g id="patch_4">
    <path d="M 951.647923 652.815 
L 951.647923 88.02 
" style="fill:none;stroke:#000000;stroke-linecap:square;stroke-linejoin:miter;stroke-width:0.8;"/>
   </g>
   <g id="patch_5">
    <path d="M 463.620827 652.815 
L 951.647923 652.815 
" style="fill:none;stroke:#000000;stroke-linecap:square;stroke-linejoin:miter;stroke-width:0.8;"/>
   </g>
   <g id="patch_6">
    <path d="M 463.620827 88.02 
L 951.647923 88.02 
" style="fill:none;stroke:#000000;stroke-linecap:square;stroke-linejoin:miter;stroke-width:0.8;"/>
   </g>
  </g>
 </g>
 <defs>
  <clipPath id="pd7e42b26aa">
   <rect height="564.795" width="488.027097" x="463.620827" y="88.02"/>
  </clipPath>
 </defs>
</svg>
