<?xml version="1.0" encoding="utf-8" standalone="no"?>
<!DOCTYPE svg PUBLIC "-//W3C//DTD SVG 1.1//EN"
  "http://www.w3.org/Graphics/SVG/1.1/DTD/svg11.dtd">
<!-- Created with matplotlib (http://matplotlib.org/) -->
<svg height="733.5pt" version="1.1" viewBox="0 0 1380.75 733.5" width="1380.75pt" xmlns="http://www.w3.org/2000/svg" xmlns:xlink="http://www.w3.org/1999/xlink">
 <defs>
  <style type="text/css">
*{stroke-linecap:butt;stroke-linejoin:round;}
  </style>
 </defs>
 <g id="figure_1">
  <g id="patch_1">
   <path d="M 0 733.5 
L 1380.75 733.5 
L 1380.75 0 
L 0 0 
z
" style="fill:#ffffff;"/>
  </g>
  <g id="axes_1">
   <g id="patch_2">
    <path d="M 370.648721 652.815 
L 1044.620029 652.815 
L 1044.620029 88.02 
L 370.648721 88.02 
z
" style="fill:#ffffff;"/>
   </g>
   <g id="matplotlib.axis_1">
    <g id="xtick_1">
     <g id="line2d_1">
      <defs>
       <path d="M 0 0 
L 0 3.5 
" id="mb77c51fcae" style="stroke:#000000;stroke-width:0.8;"/>
      </defs>
      <g>
       <use style="stroke:#000000;stroke-width:0.8;" x="401.283781" xlink:href="#mb77c51fcae" y="652.815"/>
      </g>
     </g>
     <g id="text_1">
      <!-- 0 -->
      <defs>
       <path d="M 31.78125 66.40625 
Q 24.171875 66.40625 20.328125 58.90625 
Q 16.5 51.421875 16.5 36.375 
Q 16.5 21.390625 20.328125 13.890625 
Q 24.171875 6.390625 31.78125 6.390625 
Q 39.453125 6.390625 43.28125 13.890625 
Q 47.125 21.390625 47.125 36.375 
Q 47.125 51.421875 43.28125 58.90625 
Q 39.453125 66.40625 31.78125 66.40625 
z
M 31.78125 74.21875 
Q 44.046875 74.21875 50.515625 64.515625 
Q 56.984375 54.828125 56.984375 36.375 
Q 56.984375 17.96875 50.515625 8.265625 
Q 44.046875 -1.421875 31.78125 -1.421875 
Q 19.53125 -1.421875 13.0625 8.265625 
Q 6.59375 17.96875 6.59375 36.375 
Q 6.59375 54.828125 13.0625 64.515625 
Q 19.53125 74.21875 31.78125 74.21875 
z
" id="DejaVuSans-30"/>
      </defs>
      <g transform="translate(398.102531 667.413437)scale(0.1 -0.1)">
       <use xlink:href="#DejaVuSans-30"/>
      </g>
     </g>
    </g>
    <g id="xtick_2">
     <g id="line2d_2">
      <g>
       <use style="stroke:#000000;stroke-width:0.8;" x="523.824018" xlink:href="#mb77c51fcae" y="652.815"/>
      </g>
     </g>
     <g id="text_2">
      <!-- 1 -->
      <defs>
       <path d="M 12.40625 8.296875 
L 28.515625 8.296875 
L 28.515625 63.921875 
L 10.984375 60.40625 
L 10.984375 69.390625 
L 28.421875 72.90625 
L 38.28125 72.90625 
L 38.28125 8.296875 
L 54.390625 8.296875 
L 54.390625 0 
L 12.40625 0 
z
" id="DejaVuSans-31"/>
      </defs>
      <g transform="translate(520.642768 667.413437)scale(0.1 -0.1)">
       <use xlink:href="#DejaVuSans-31"/>
      </g>
     </g>
    </g>
    <g id="xtick_3">
     <g id="line2d_3">
      <g>
       <use style="stroke:#000000;stroke-width:0.8;" x="646.364256" xlink:href="#mb77c51fcae" y="652.815"/>
      </g>
     </g>
     <g id="text_3">
      <!-- 2 -->
      <defs>
       <path d="M 19.1875 8.296875 
L 53.609375 8.296875 
L 53.609375 0 
L 7.328125 0 
L 7.328125 8.296875 
Q 12.9375 14.109375 22.625 23.890625 
Q 32.328125 33.6875 34.8125 36.53125 
Q 39.546875 41.84375 41.421875 45.53125 
Q 43.3125 49.21875 43.3125 52.78125 
Q 43.3125 58.59375 39.234375 62.25 
Q 35.15625 65.921875 28.609375 65.921875 
Q 23.96875 65.921875 18.8125 64.3125 
Q 13.671875 62.703125 7.8125 59.421875 
L 7.8125 69.390625 
Q 13.765625 71.78125 18.9375 73 
Q 24.125 74.21875 28.421875 74.21875 
Q 39.75 74.21875 46.484375 68.546875 
Q 53.21875 62.890625 53.21875 53.421875 
Q 53.21875 48.921875 51.53125 44.890625 
Q 49.859375 40.875 45.40625 35.40625 
Q 44.1875 33.984375 37.640625 27.21875 
Q 31.109375 20.453125 19.1875 8.296875 
z
" id="DejaVuSans-32"/>
      </defs>
      <g transform="translate(643.183006 667.413437)scale(0.1 -0.1)">
       <use xlink:href="#DejaVuSans-32"/>
      </g>
     </g>
    </g>
    <g id="xtick_4">
     <g id="line2d_4">
      <g>
       <use style="stroke:#000000;stroke-width:0.8;" x="768.904494" xlink:href="#mb77c51fcae" y="652.815"/>
      </g>
     </g>
     <g id="text_4">
      <!-- 3 -->
      <defs>
       <path d="M 40.578125 39.3125 
Q 47.65625 37.796875 51.625 33 
Q 55.609375 28.21875 55.609375 21.1875 
Q 55.609375 10.40625 48.1875 4.484375 
Q 40.765625 -1.421875 27.09375 -1.421875 
Q 22.515625 -1.421875 17.65625 -0.515625 
Q 12.796875 0.390625 7.625 2.203125 
L 7.625 11.71875 
Q 11.71875 9.328125 16.59375 8.109375 
Q 21.484375 6.890625 26.8125 6.890625 
Q 36.078125 6.890625 40.9375 10.546875 
Q 45.796875 14.203125 45.796875 21.1875 
Q 45.796875 27.640625 41.28125 31.265625 
Q 36.765625 34.90625 28.71875 34.90625 
L 20.21875 34.90625 
L 20.21875 43.015625 
L 29.109375 43.015625 
Q 36.375 43.015625 40.234375 45.921875 
Q 44.09375 48.828125 44.09375 54.296875 
Q 44.09375 59.90625 40.109375 62.90625 
Q 36.140625 65.921875 28.71875 65.921875 
Q 24.65625 65.921875 20.015625 65.03125 
Q 15.375 64.15625 9.8125 62.3125 
L 9.8125 71.09375 
Q 15.4375 72.65625 20.34375 73.4375 
Q 25.25 74.21875 29.59375 74.21875 
Q 40.828125 74.21875 47.359375 69.109375 
Q 53.90625 64.015625 53.90625 55.328125 
Q 53.90625 49.265625 50.4375 45.09375 
Q 46.96875 40.921875 40.578125 39.3125 
z
" id="DejaVuSans-33"/>
      </defs>
      <g transform="translate(765.723244 667.413437)scale(0.1 -0.1)">
       <use xlink:href="#DejaVuSans-33"/>
      </g>
     </g>
    </g>
    <g id="xtick_5">
     <g id="line2d_5">
      <g>
       <use style="stroke:#000000;stroke-width:0.8;" x="891.444732" xlink:href="#mb77c51fcae" y="652.815"/>
      </g>
     </g>
     <g id="text_5">
      <!-- 4 -->
      <defs>
       <path d="M 37.796875 64.3125 
L 12.890625 25.390625 
L 37.796875 25.390625 
z
M 35.203125 72.90625 
L 47.609375 72.90625 
L 47.609375 25.390625 
L 58.015625 25.390625 
L 58.015625 17.1875 
L 47.609375 17.1875 
L 47.609375 0 
L 37.796875 0 
L 37.796875 17.1875 
L 4.890625 17.1875 
L 4.890625 26.703125 
z
" id="DejaVuSans-34"/>
      </defs>
      <g transform="translate(888.263482 667.413437)scale(0.1 -0.1)">
       <use xlink:href="#DejaVuSans-34"/>
      </g>
     </g>
    </g>
    <g id="xtick_6">
     <g id="line2d_6">
      <g>
       <use style="stroke:#000000;stroke-width:0.8;" x="1013.984969" xlink:href="#mb77c51fcae" y="652.815"/>
      </g>
     </g>
     <g id="text_6">
      <!-- 5 -->
      <defs>
       <path d="M 10.796875 72.90625 
L 49.515625 72.90625 
L 49.515625 64.59375 
L 19.828125 64.59375 
L 19.828125 46.734375 
Q 21.96875 47.46875 24.109375 47.828125 
Q 26.265625 48.1875 28.421875 48.1875 
Q 40.625 48.1875 47.75 41.5 
Q 54.890625 34.8125 54.890625 23.390625 
Q 54.890625 11.625 47.5625 5.09375 
Q 40.234375 -1.421875 26.90625 -1.421875 
Q 22.3125 -1.421875 17.546875 -0.640625 
Q 12.796875 0.140625 7.71875 1.703125 
L 7.71875 11.625 
Q 12.109375 9.234375 16.796875 8.0625 
Q 21.484375 6.890625 26.703125 6.890625 
Q 35.15625 6.890625 40.078125 11.328125 
Q 45.015625 15.765625 45.015625 23.390625 
Q 45.015625 31 40.078125 35.4375 
Q 35.15625 39.890625 26.703125 39.890625 
Q 22.75 39.890625 18.8125 39.015625 
Q 14.890625 38.140625 10.796875 36.28125 
z
" id="DejaVuSans-35"/>
      </defs>
      <g transform="translate(1010.803719 667.413437)scale(0.1 -0.1)">
       <use xlink:href="#DejaVuSans-35"/>
      </g>
     </g>
    </g>
   </g>
   <g id="matplotlib.axis_2">
    <g id="ytick_1">
     <g id="line2d_7">
      <defs>
       <path d="M 0 0 
L -3.5 0 
" id="m20541fefb5" style="stroke:#000000;stroke-width:0.8;"/>
      </defs>
      <g>
       <use style="stroke:#000000;stroke-width:0.8;" x="370.648721" xlink:href="#m20541fefb5" y="640.595161"/>
      </g>
     </g>
     <g id="text_7">
      <!-- −4 -->
      <defs>
       <path d="M 10.59375 35.5 
L 73.1875 35.5 
L 73.1875 27.203125 
L 10.59375 27.203125 
z
" id="DejaVuSans-2212"/>
      </defs>
      <g transform="translate(348.906534 644.39438)scale(0.1 -0.1)">
       <use xlink:href="#DejaVuSans-2212"/>
       <use x="83.789062" xlink:href="#DejaVuSans-34"/>
      </g>
     </g>
    </g>
    <g id="ytick_2">
     <g id="line2d_8">
      <g>
       <use style="stroke:#000000;stroke-width:0.8;" x="370.648721" xlink:href="#m20541fefb5" y="518.054923"/>
      </g>
     </g>
     <g id="text_8">
      <!-- −3 -->
      <g transform="translate(348.906534 521.854142)scale(0.1 -0.1)">
       <use xlink:href="#DejaVuSans-2212"/>
       <use x="83.789062" xlink:href="#DejaVuSans-33"/>
      </g>
     </g>
    </g>
    <g id="ytick_3">
     <g id="line2d_9">
      <g>
       <use style="stroke:#000000;stroke-width:0.8;" x="370.648721" xlink:href="#m20541fefb5" y="395.514685"/>
      </g>
     </g>
     <g id="text_9">
      <!-- −2 -->
      <g transform="translate(348.906534 399.313904)scale(0.1 -0.1)">
       <use xlink:href="#DejaVuSans-2212"/>
       <use x="83.789062" xlink:href="#DejaVuSans-32"/>
      </g>
     </g>
    </g>
    <g id="ytick_4">
     <g id="line2d_10">
      <g>
       <use style="stroke:#000000;stroke-width:0.8;" x="370.648721" xlink:href="#m20541fefb5" y="272.974448"/>
      </g>
     </g>
     <g id="text_10">
      <!-- −1 -->
      <g transform="translate(348.906534 276.773667)scale(0.1 -0.1)">
       <use xlink:href="#DejaVuSans-2212"/>
       <use x="83.789062" xlink:href="#DejaVuSans-31"/>
      </g>
     </g>
    </g>
    <g id="ytick_5">
     <g id="line2d_11">
      <g>
       <use style="stroke:#000000;stroke-width:0.8;" x="370.648721" xlink:href="#m20541fefb5" y="150.43421"/>
      </g>
     </g>
     <g id="text_11">
      <!-- 0 -->
      <g transform="translate(357.286221 154.233429)scale(0.1 -0.1)">
       <use xlink:href="#DejaVuSans-30"/>
      </g>
     </g>
    </g>
   </g>
   <g id="line2d_12">
    <path clip-path="url(#pb2d17a7fb2)" d="M 401.283781 150.43421 
L 415.804608 157.694386 
L 445.726925 170.50505 
L 492.989753 182.925791 
L 541.700155 187.17592 
L 590.397863 183.214241 
L 638.042939 172.729898 
L 684.58452 158.297785 
L 730.684233 142.570634 
L 777.225814 128.138522 
L 824.87089 117.654179 
L 873.568594 113.6925 
L 922.278998 117.942629 
L 969.541824 130.36337 
L 999.464142 143.174034 
L 1013.984969 150.43421 
" style="fill:none;stroke:#056b2f;stroke-dasharray:9.6,2.4,1.5,2.4;stroke-dashoffset:0;stroke-width:1.5;"/>
    <defs>
     <path d="M 0 3 
C 0.795609 3 1.55874 2.683901 2.12132 2.12132 
C 2.683901 1.55874 3 0.795609 3 0 
C 3 -0.795609 2.683901 -1.55874 2.12132 -2.12132 
C 1.55874 -2.683901 0.795609 -3 0 -3 
C -0.795609 -3 -1.55874 -2.683901 -2.12132 -2.12132 
C -2.683901 -1.55874 -3 -0.795609 -3 0 
C -3 0.795609 -2.683901 1.55874 -2.12132 2.12132 
C -1.55874 2.683901 -0.795609 3 0 3 
z
" id="mf2cf0d2bd8" style="stroke:#056b2f;"/>
    </defs>
    <g clip-path="url(#pb2d17a7fb2)">
     <use style="fill:#056b2f;stroke:#056b2f;" x="401.283781" xlink:href="#mf2cf0d2bd8" y="150.43421"/>
     <use style="fill:#056b2f;stroke:#056b2f;" x="415.804608" xlink:href="#mf2cf0d2bd8" y="157.694386"/>
     <use style="fill:#056b2f;stroke:#056b2f;" x="445.726925" xlink:href="#mf2cf0d2bd8" y="170.50505"/>
     <use style="fill:#056b2f;stroke:#056b2f;" x="492.989753" xlink:href="#mf2cf0d2bd8" y="182.925791"/>
     <use style="fill:#056b2f;stroke:#056b2f;" x="541.700155" xlink:href="#mf2cf0d2bd8" y="187.17592"/>
     <use style="fill:#056b2f;stroke:#056b2f;" x="590.397863" xlink:href="#mf2cf0d2bd8" y="183.214241"/>
     <use style="fill:#056b2f;stroke:#056b2f;" x="638.042939" xlink:href="#mf2cf0d2bd8" y="172.729898"/>
     <use style="fill:#056b2f;stroke:#056b2f;" x="684.58452" xlink:href="#mf2cf0d2bd8" y="158.297785"/>
     <use style="fill:#056b2f;stroke:#056b2f;" x="730.684233" xlink:href="#mf2cf0d2bd8" y="142.570634"/>
     <use style="fill:#056b2f;stroke:#056b2f;" x="777.225814" xlink:href="#mf2cf0d2bd8" y="128.138522"/>
     <use style="fill:#056b2f;stroke:#056b2f;" x="824.87089" xlink:href="#mf2cf0d2bd8" y="117.654179"/>
     <use style="fill:#056b2f;stroke:#056b2f;" x="873.568594" xlink:href="#mf2cf0d2bd8" y="113.6925"/>
     <use style="fill:#056b2f;stroke:#056b2f;" x="922.278998" xlink:href="#mf2cf0d2bd8" y="117.942629"/>
     <use style="fill:#056b2f;stroke:#056b2f;" x="969.541824" xlink:href="#mf2cf0d2bd8" y="130.36337"/>
     <use style="fill:#056b2f;stroke:#056b2f;" x="999.464142" xlink:href="#mf2cf0d2bd8" y="143.174034"/>
     <use style="fill:#056b2f;stroke:#056b2f;" x="1013.984969" xlink:href="#mf2cf0d2bd8" y="150.43421"/>
    </g>
   </g>
   <g id="line2d_13">
    <path clip-path="url(#pb2d17a7fb2)" d="M 401.283781 150.43421 
L 430.145522 163.431787 
L 460.048368 173.80606 
L 490.833607 181.137083 
L 522.231104 185.093099 
L 553.871106 185.591116 
L 585.400384 182.816511 
L 616.55628 177.239275 
L 647.256687 169.504822 
L 677.557535 160.327797 
L 707.634376 150.43421 
L 737.711217 140.540623 
L 768.012065 131.363598 
L 798.712473 123.629144 
L 829.868369 118.051909 
L 861.397644 115.277305 
L 893.037646 115.775321 
L 924.435143 119.731337 
L 955.220382 127.06236 
L 985.123227 137.436633 
L 1013.984969 150.43421 
" style="fill:none;stroke:#07d13f;stroke-linecap:square;stroke-width:1.5;"/>
   </g>
   <g id="line2d_14">
    <path clip-path="url(#pb2d17a7fb2)" d="M 401.283781 150.43421 
L 415.801544 157.694386 
L 445.53109 170.893193 
L 492.257511 185.050519 
L 540.587202 192.186978 
L 589.41174 192.110395 
L 637.831264 186.324831 
L 685.70058 177.264201 
L 733.427376 167.527832 
L 781.53137 159.702913 
L 830.218879 156.423246 
L 878.94998 160.135814 
L 926.335022 172.238818 
L 970.88439 192.338266 
L 998.232208 209.991918 
L 1011.328148 219.586966 
" style="fill:none;stroke:#dfeac9;stroke-dasharray:9.6,2.4,1.5,2.4;stroke-dashoffset:0;stroke-width:1.5;"/>
    <defs>
     <path d="M 0 3 
C 0.795609 3 1.55874 2.683901 2.12132 2.12132 
C 2.683901 1.55874 3 0.795609 3 0 
C 3 -0.795609 2.683901 -1.55874 2.12132 -2.12132 
C 1.55874 -2.683901 0.795609 -3 0 -3 
C -0.795609 -3 -1.55874 -2.683901 -2.12132 -2.12132 
C -2.683901 -1.55874 -3 -0.795609 -3 0 
C -3 0.795609 -2.683901 1.55874 -2.12132 2.12132 
C -1.55874 2.683901 -0.795609 3 0 3 
z
" id="m8fcab6b78c" style="stroke:#dfeac9;"/>
    </defs>
    <g clip-path="url(#pb2d17a7fb2)">
     <use style="fill:#dfeac9;stroke:#dfeac9;" x="401.283781" xlink:href="#m8fcab6b78c" y="150.43421"/>
     <use style="fill:#dfeac9;stroke:#dfeac9;" x="415.801544" xlink:href="#m8fcab6b78c" y="157.694386"/>
     <use style="fill:#dfeac9;stroke:#dfeac9;" x="445.53109" xlink:href="#m8fcab6b78c" y="170.893193"/>
     <use style="fill:#dfeac9;stroke:#dfeac9;" x="492.257511" xlink:href="#m8fcab6b78c" y="185.050519"/>
     <use style="fill:#dfeac9;stroke:#dfeac9;" x="540.587202" xlink:href="#m8fcab6b78c" y="192.186978"/>
     <use style="fill:#dfeac9;stroke:#dfeac9;" x="589.41174" xlink:href="#m8fcab6b78c" y="192.110395"/>
     <use style="fill:#dfeac9;stroke:#dfeac9;" x="637.831264" xlink:href="#m8fcab6b78c" y="186.324831"/>
     <use style="fill:#dfeac9;stroke:#dfeac9;" x="685.70058" xlink:href="#m8fcab6b78c" y="177.264201"/>
     <use style="fill:#dfeac9;stroke:#dfeac9;" x="733.427376" xlink:href="#m8fcab6b78c" y="167.527832"/>
     <use style="fill:#dfeac9;stroke:#dfeac9;" x="781.53137" xlink:href="#m8fcab6b78c" y="159.702913"/>
     <use style="fill:#dfeac9;stroke:#dfeac9;" x="830.218879" xlink:href="#m8fcab6b78c" y="156.423246"/>
     <use style="fill:#dfeac9;stroke:#dfeac9;" x="878.94998" xlink:href="#m8fcab6b78c" y="160.135814"/>
     <use style="fill:#dfeac9;stroke:#dfeac9;" x="926.335022" xlink:href="#m8fcab6b78c" y="172.238818"/>
     <use style="fill:#dfeac9;stroke:#dfeac9;" x="970.88439" xlink:href="#m8fcab6b78c" y="192.338266"/>
     <use style="fill:#dfeac9;stroke:#dfeac9;" x="998.232208" xlink:href="#m8fcab6b78c" y="209.991918"/>
     <use style="fill:#dfeac9;stroke:#dfeac9;" x="1011.328148" xlink:href="#m8fcab6b78c" y="219.586966"/>
    </g>
   </g>
   <g id="line2d_15">
    <path clip-path="url(#pb2d17a7fb2)" d="M 401.283781 150.43421 
L 430.035574 163.677313 
L 459.678176 174.786346 
L 490.150428 183.339304 
L 521.290367 188.997852 
L 552.827234 191.645804 
L 584.480349 191.423201 
L 616.021285 188.75079 
L 647.358177 184.232301 
L 678.505389 178.552268 
L 709.568867 172.421761 
L 740.681807 166.552314 
L 771.960676 161.65833 
L 803.457376 158.459307 
L 835.096871 157.645454 
L 866.672516 159.815815 
L 897.825168 165.364338 
L 928.157122 174.38655 
L 957.305099 186.70917 
L 985.055724 201.931419 
L 1011.328148 219.586966 
" style="fill:none;stroke:#bc7a91;stroke-linecap:square;stroke-width:1.5;"/>
   </g>
   <g id="line2d_16">
    <path clip-path="url(#pb2d17a7fb2)" d="M 401.283781 150.43421 
L 415.799533 157.694386 
L 445.40169 171.148925 
L 491.750963 186.419518 
L 539.756354 195.365786 
L 588.509331 197.682239 
L 637.175535 194.739379 
L 685.535918 188.857663 
L 733.83942 182.566983 
L 782.401608 178.406516 
L 831.201007 178.951296 
L 879.484667 186.542373 
L 925.746217 202.419756 
L 968.535051 226.045095 
L 994.37597 245.844153 
L 1006.658579 256.462939 
" style="fill:none;stroke:#41b0e7;stroke-dasharray:9.6,2.4,1.5,2.4;stroke-dashoffset:0;stroke-width:1.5;"/>
    <defs>
     <path d="M 0 3 
C 0.795609 3 1.55874 2.683901 2.12132 2.12132 
C 2.683901 1.55874 3 0.795609 3 0 
C 3 -0.795609 2.683901 -1.55874 2.12132 -2.12132 
C 1.55874 -2.683901 0.795609 -3 0 -3 
C -0.795609 -3 -1.55874 -2.683901 -2.12132 -2.12132 
C -2.683901 -1.55874 -3 -0.795609 -3 0 
C -3 0.795609 -2.683901 1.55874 -2.12132 2.12132 
C -1.55874 2.683901 -0.795609 3 0 3 
z
" id="m663d0c7916" style="stroke:#41b0e7;"/>
    </defs>
    <g clip-path="url(#pb2d17a7fb2)">
     <use style="fill:#41b0e7;stroke:#41b0e7;" x="401.283781" xlink:href="#m663d0c7916" y="150.43421"/>
     <use style="fill:#41b0e7;stroke:#41b0e7;" x="415.799533" xlink:href="#m663d0c7916" y="157.694386"/>
     <use style="fill:#41b0e7;stroke:#41b0e7;" x="445.40169" xlink:href="#m663d0c7916" y="171.148925"/>
     <use style="fill:#41b0e7;stroke:#41b0e7;" x="491.750963" xlink:href="#m663d0c7916" y="186.419518"/>
     <use style="fill:#41b0e7;stroke:#41b0e7;" x="539.756354" xlink:href="#m663d0c7916" y="195.365786"/>
     <use style="fill:#41b0e7;stroke:#41b0e7;" x="588.509331" xlink:href="#m663d0c7916" y="197.682239"/>
     <use style="fill:#41b0e7;stroke:#41b0e7;" x="637.175535" xlink:href="#m663d0c7916" y="194.739379"/>
     <use style="fill:#41b0e7;stroke:#41b0e7;" x="685.535918" xlink:href="#m663d0c7916" y="188.857663"/>
     <use style="fill:#41b0e7;stroke:#41b0e7;" x="733.83942" xlink:href="#m663d0c7916" y="182.566983"/>
     <use style="fill:#41b0e7;stroke:#41b0e7;" x="782.401608" xlink:href="#m663d0c7916" y="178.406516"/>
     <use style="fill:#41b0e7;stroke:#41b0e7;" x="831.201007" xlink:href="#m663d0c7916" y="178.951296"/>
     <use style="fill:#41b0e7;stroke:#41b0e7;" x="879.484667" xlink:href="#m663d0c7916" y="186.542373"/>
     <use style="fill:#41b0e7;stroke:#41b0e7;" x="925.746217" xlink:href="#m663d0c7916" y="202.419756"/>
     <use style="fill:#41b0e7;stroke:#41b0e7;" x="968.535051" xlink:href="#m663d0c7916" y="226.045095"/>
     <use style="fill:#41b0e7;stroke:#41b0e7;" x="994.37597" xlink:href="#m663d0c7916" y="245.844153"/>
     <use style="fill:#41b0e7;stroke:#41b0e7;" x="1006.658579" xlink:href="#m663d0c7916" y="256.462939"/>
    </g>
   </g>
   <g id="line2d_17">
    <path clip-path="url(#pb2d17a7fb2)" d="M 401.283781 150.43421 
L 429.961892 163.837666 
L 459.425233 175.420907 
L 489.670284 184.75219 
L 520.598901 191.481167 
L 551.997095 195.465057 
L 583.623805 196.810483 
L 615.26616 195.902286 
L 646.821631 193.31169 
L 678.275971 189.696395 
L 709.691873 185.748183 
L 741.150254 182.163607 
L 772.709564 179.642973 
L 804.359867 178.889152 
L 835.966185 180.567891 
L 867.270074 185.245553 
L 897.879328 193.274239 
L 927.389251 204.708261 
L 955.452483 219.339514 
L 981.88982 236.748398 
L 1006.658579 256.462939 
" style="fill:none;stroke:#868dab;stroke-linecap:square;stroke-width:1.5;"/>
   </g>
   <g id="line2d_18">
    <path clip-path="url(#pb2d17a7fb2)" d="M 401.283781 150.43421 
L 415.797644 157.694386 
L 445.280294 171.387276 
L 491.251903 187.703477 
L 538.895706 198.344963 
L 587.48439 202.912858 
L 636.247075 202.651392 
L 684.8986 199.757718 
L 733.541758 196.658928 
L 782.308933 195.789816 
L 830.995155 199.595185 
L 878.719664 210.254411 
L 923.968713 228.860888 
L 965.392475 254.826629 
L 990.156473 275.969388 
L 1001.864122 287.226029 
" style="fill:none;stroke:#bcc265;stroke-dasharray:9.6,2.4,1.5,2.4;stroke-dashoffset:0;stroke-width:1.5;"/>
    <defs>
     <path d="M 0 3 
C 0.795609 3 1.55874 2.683901 2.12132 2.12132 
C 2.683901 1.55874 3 0.795609 3 0 
C 3 -0.795609 2.683901 -1.55874 2.12132 -2.12132 
C 1.55874 -2.683901 0.795609 -3 0 -3 
C -0.795609 -3 -1.55874 -2.683901 -2.12132 -2.12132 
C -2.683901 -1.55874 -3 -0.795609 -3 0 
C -3 0.795609 -2.683901 1.55874 -2.12132 2.12132 
C -1.55874 2.683901 -0.795609 3 0 3 
z
" id="m73bde8362e" style="stroke:#bcc265;"/>
    </defs>
    <g clip-path="url(#pb2d17a7fb2)">
     <use style="fill:#bcc265;stroke:#bcc265;" x="401.283781" xlink:href="#m73bde8362e" y="150.43421"/>
     <use style="fill:#bcc265;stroke:#bcc265;" x="415.797644" xlink:href="#m73bde8362e" y="157.694386"/>
     <use style="fill:#bcc265;stroke:#bcc265;" x="445.280294" xlink:href="#m73bde8362e" y="171.387276"/>
     <use style="fill:#bcc265;stroke:#bcc265;" x="491.251903" xlink:href="#m73bde8362e" y="187.703477"/>
     <use style="fill:#bcc265;stroke:#bcc265;" x="538.895706" xlink:href="#m73bde8362e" y="198.344963"/>
     <use style="fill:#bcc265;stroke:#bcc265;" x="587.48439" xlink:href="#m73bde8362e" y="202.912858"/>
     <use style="fill:#bcc265;stroke:#bcc265;" x="636.247075" xlink:href="#m73bde8362e" y="202.651392"/>
     <use style="fill:#bcc265;stroke:#bcc265;" x="684.8986" xlink:href="#m73bde8362e" y="199.757718"/>
     <use style="fill:#bcc265;stroke:#bcc265;" x="733.541758" xlink:href="#m73bde8362e" y="196.658928"/>
     <use style="fill:#bcc265;stroke:#bcc265;" x="782.308933" xlink:href="#m73bde8362e" y="195.789816"/>
     <use style="fill:#bcc265;stroke:#bcc265;" x="830.995155" xlink:href="#m73bde8362e" y="199.595185"/>
     <use style="fill:#bcc265;stroke:#bcc265;" x="878.719664" xlink:href="#m73bde8362e" y="210.254411"/>
     <use style="fill:#bcc265;stroke:#bcc265;" x="923.968713" xlink:href="#m73bde8362e" y="228.860888"/>
     <use style="fill:#bcc265;stroke:#bcc265;" x="965.392475" xlink:href="#m73bde8362e" y="254.826629"/>
     <use style="fill:#bcc265;stroke:#bcc265;" x="990.156473" xlink:href="#m73bde8362e" y="275.969388"/>
     <use style="fill:#bcc265;stroke:#bcc265;" x="1001.864122" xlink:href="#m73bde8362e" y="287.226029"/>
    </g>
   </g>
   <g id="line2d_19">
    <path clip-path="url(#pb2d17a7fb2)" d="M 401.283781 150.43421 
L 429.891675 163.987487 
L 459.179267 176.0152 
L 489.1924 186.076713 
L 519.890161 193.809215 
L 551.109924 199.047331 
L 582.64701 201.868299 
L 614.303643 202.622717 
L 645.968076 201.847762 
L 677.600058 200.169288 
L 709.222588 198.250502 
L 740.869377 196.759411 
L 772.548562 196.365496 
L 804.200667 197.735927 
L 835.650158 201.495145 
L 866.611824 208.166203 
L 896.689246 218.061556 
L 925.49311 231.210859 
L 952.703534 247.398605 
L 978.16884 266.219047 
L 1001.864122 287.226029 
" style="fill:none;stroke:#c46c9c;stroke-linecap:square;stroke-width:1.5;"/>
   </g>
   <g id="line2d_20">
    <path clip-path="url(#pb2d17a7fb2)" d="M 401.283781 150.43421 
L 415.795758 157.694386 
L 445.153824 171.636119 
L 490.713297 189.013893 
L 537.911541 201.392889 
L 586.195134 208.319799 
L 634.862238 210.970859 
L 683.573435 211.45798 
L 732.285515 212.131049 
L 780.927881 215.34997 
L 829.058205 223.464789 
L 875.567019 238.499747 
L 918.820792 261.325093 
L 957.536107 291.153594 
L 980.136525 314.582178 
L 990.699979 326.912985 
" style="fill:none;stroke:#e59b36;stroke-dasharray:9.6,2.4,1.5,2.4;stroke-dashoffset:0;stroke-width:1.5;"/>
    <defs>
     <path d="M 0 3 
C 0.795609 3 1.55874 2.683901 2.12132 2.12132 
C 2.683901 1.55874 3 0.795609 3 0 
C 3 -0.795609 2.683901 -1.55874 2.12132 -2.12132 
C 1.55874 -2.683901 0.795609 -3 0 -3 
C -0.795609 -3 -1.55874 -2.683901 -2.12132 -2.12132 
C -2.683901 -1.55874 -3 -0.795609 -3 0 
C -3 0.795609 -2.683901 1.55874 -2.12132 2.12132 
C -1.55874 2.683901 -0.795609 3 0 3 
z
" id="m786920481e" style="stroke:#e59b36;"/>
    </defs>
    <g clip-path="url(#pb2d17a7fb2)">
     <use style="fill:#e59b36;stroke:#e59b36;" x="401.283781" xlink:href="#m786920481e" y="150.43421"/>
     <use style="fill:#e59b36;stroke:#e59b36;" x="415.795758" xlink:href="#m786920481e" y="157.694386"/>
     <use style="fill:#e59b36;stroke:#e59b36;" x="445.153824" xlink:href="#m786920481e" y="171.636119"/>
     <use style="fill:#e59b36;stroke:#e59b36;" x="490.713297" xlink:href="#m786920481e" y="189.013893"/>
     <use style="fill:#e59b36;stroke:#e59b36;" x="537.911541" xlink:href="#m786920481e" y="201.392889"/>
     <use style="fill:#e59b36;stroke:#e59b36;" x="586.195134" xlink:href="#m786920481e" y="208.319799"/>
     <use style="fill:#e59b36;stroke:#e59b36;" x="634.862238" xlink:href="#m786920481e" y="210.970859"/>
     <use style="fill:#e59b36;stroke:#e59b36;" x="683.573435" xlink:href="#m786920481e" y="211.45798"/>
     <use style="fill:#e59b36;stroke:#e59b36;" x="732.285515" xlink:href="#m786920481e" y="212.131049"/>
     <use style="fill:#e59b36;stroke:#e59b36;" x="780.927881" xlink:href="#m786920481e" y="215.34997"/>
     <use style="fill:#e59b36;stroke:#e59b36;" x="829.058205" xlink:href="#m786920481e" y="223.464789"/>
     <use style="fill:#e59b36;stroke:#e59b36;" x="875.567019" xlink:href="#m786920481e" y="238.499747"/>
     <use style="fill:#e59b36;stroke:#e59b36;" x="918.820792" xlink:href="#m786920481e" y="261.325093"/>
     <use style="fill:#e59b36;stroke:#e59b36;" x="957.536107" xlink:href="#m786920481e" y="291.153594"/>
     <use style="fill:#e59b36;stroke:#e59b36;" x="980.136525" xlink:href="#m786920481e" y="314.582178"/>
     <use style="fill:#e59b36;stroke:#e59b36;" x="990.699979" xlink:href="#m786920481e" y="326.912985"/>
    </g>
   </g>
   <g id="line2d_21">
    <path clip-path="url(#pb2d17a7fb2)" d="M 401.283781 150.43421 
L 429.817711 164.142526 
L 458.916129 176.624906 
L 488.669619 187.430656 
L 519.088919 196.191726 
L 550.059907 202.730159 
L 581.413741 207.106704 
L 612.969304 209.652951 
L 644.608434 210.883881 
L 676.266976 211.402729 
L 707.928041 211.851428 
L 739.574341 212.877215 
L 771.155429 215.127343 
L 802.547489 219.242461 
L 833.511346 225.810332 
L 863.706574 235.306735 
L 892.702823 247.984982 
L 920.107851 263.817298 
L 945.6258 282.540323 
L 969.149343 303.723255 
L 990.699979 326.912985 
" style="fill:none;stroke:#53adb5;stroke-linecap:square;stroke-width:1.5;"/>
   </g>
   <g id="line2d_22">
    <path clip-path="url(#pb2d17a7fb2)" d="M 401.283781 150.43421 
L 415.794099 157.694386 
L 445.045993 171.846136 
L 490.231259 190.14063 
L 537.013433 203.977029 
L 584.985642 212.796207 
L 633.492507 217.622344 
L 682.136939 220.430641 
L 730.770755 223.47402 
L 779.209098 229.051755 
L 826.899178 239.479264 
L 872.631567 256.751588 
L 914.708712 281.695299 
L 951.854381 313.469863 
L 973.199718 338.053615 
L 983.103817 350.922317 
" style="fill:none;stroke:#71313e;stroke-dasharray:9.6,2.4,1.5,2.4;stroke-dashoffset:0;stroke-width:1.5;"/>
    <defs>
     <path d="M 0 3 
C 0.795609 3 1.55874 2.683901 2.12132 2.12132 
C 2.683901 1.55874 3 0.795609 3 0 
C 3 -0.795609 2.683901 -1.55874 2.12132 -2.12132 
C 1.55874 -2.683901 0.795609 -3 0 -3 
C -0.795609 -3 -1.55874 -2.683901 -2.12132 -2.12132 
C -2.683901 -1.55874 -3 -0.795609 -3 0 
C -3 0.795609 -2.683901 1.55874 -2.12132 2.12132 
C -1.55874 2.683901 -0.795609 3 0 3 
z
" id="m96cc943ee9" style="stroke:#71313e;"/>
    </defs>
    <g clip-path="url(#pb2d17a7fb2)">
     <use style="fill:#71313e;stroke:#71313e;" x="401.283781" xlink:href="#m96cc943ee9" y="150.43421"/>
     <use style="fill:#71313e;stroke:#71313e;" x="415.794099" xlink:href="#m96cc943ee9" y="157.694386"/>
     <use style="fill:#71313e;stroke:#71313e;" x="445.045993" xlink:href="#m96cc943ee9" y="171.846136"/>
     <use style="fill:#71313e;stroke:#71313e;" x="490.231259" xlink:href="#m96cc943ee9" y="190.14063"/>
     <use style="fill:#71313e;stroke:#71313e;" x="537.013433" xlink:href="#m96cc943ee9" y="203.977029"/>
     <use style="fill:#71313e;stroke:#71313e;" x="584.985642" xlink:href="#m96cc943ee9" y="212.796207"/>
     <use style="fill:#71313e;stroke:#71313e;" x="633.492507" xlink:href="#m96cc943ee9" y="217.622344"/>
     <use style="fill:#71313e;stroke:#71313e;" x="682.136939" xlink:href="#m96cc943ee9" y="220.430641"/>
     <use style="fill:#71313e;stroke:#71313e;" x="730.770755" xlink:href="#m96cc943ee9" y="223.47402"/>
     <use style="fill:#71313e;stroke:#71313e;" x="779.209098" xlink:href="#m96cc943ee9" y="229.051755"/>
     <use style="fill:#71313e;stroke:#71313e;" x="826.899178" xlink:href="#m96cc943ee9" y="239.479264"/>
     <use style="fill:#71313e;stroke:#71313e;" x="872.631567" xlink:href="#m96cc943ee9" y="256.751588"/>
     <use style="fill:#71313e;stroke:#71313e;" x="914.708712" xlink:href="#m96cc943ee9" y="281.695299"/>
     <use style="fill:#71313e;stroke:#71313e;" x="951.854381" xlink:href="#m96cc943ee9" y="313.469863"/>
     <use style="fill:#71313e;stroke:#71313e;" x="973.199718" xlink:href="#m96cc943ee9" y="338.053615"/>
     <use style="fill:#71313e;stroke:#71313e;" x="983.103817" xlink:href="#m96cc943ee9" y="350.922317"/>
    </g>
   </g>
   <g id="line2d_23">
    <path clip-path="url(#pb2d17a7fb2)" d="M 401.283781 150.43421 
L 429.753577 164.274327 
L 458.683559 177.14677 
L 488.200304 188.588832 
L 518.36056 198.214331 
L 549.091707 205.818684 
L 580.253768 211.428327 
L 611.676567 215.334007 
L 643.233311 218.012142 
L 674.83937 220.03233 
L 706.449553 222.010028 
L 738.015973 224.572801 
L 769.457126 228.353405 
L 800.618942 233.982523 
L 831.233767 242.039363 
L 860.936217 252.990664 
L 889.278124 267.078042 
L 915.861124 284.260178 
L 940.39531 304.259801 
L 962.793012 326.634521 
L 983.103817 350.922317 
" style="fill:none;stroke:#2ae2d2;stroke-linecap:square;stroke-width:1.5;"/>
   </g>
   <g id="line2d_24">
    <path clip-path="url(#pb2d17a7fb2)" d="M 401.283781 150.43421 
L 415.792751 157.694386 
L 444.95236 172.029755 
L 489.815589 191.07208 
L 536.216409 206.095402 
L 583.85896 216.480872 
L 632.124877 223.200561 
L 680.581774 228.170615 
L 728.996731 233.578669 
L 777.072961 241.637765 
L 824.138698 254.554044 
L 868.890824 274.199163 
L 909.608194 301.284792 
L 945.073968 334.907374 
L 965.145228 360.532567 
L 974.384548 373.882402 
" style="fill:none;stroke:#4ee2e4;stroke-dasharray:9.6,2.4,1.5,2.4;stroke-dashoffset:0;stroke-width:1.5;"/>
    <defs>
     <path d="M 0 3 
C 0.795609 3 1.55874 2.683901 2.12132 2.12132 
C 2.683901 1.55874 3 0.795609 3 0 
C 3 -0.795609 2.683901 -1.55874 2.12132 -2.12132 
C 1.55874 -2.683901 0.795609 -3 0 -3 
C -0.795609 -3 -1.55874 -2.683901 -2.12132 -2.12132 
C -2.683901 -1.55874 -3 -0.795609 -3 0 
C -3 0.795609 -2.683901 1.55874 -2.12132 2.12132 
C -1.55874 2.683901 -0.795609 3 0 3 
z
" id="m424598df2d" style="stroke:#4ee2e4;"/>
    </defs>
    <g clip-path="url(#pb2d17a7fb2)">
     <use style="fill:#4ee2e4;stroke:#4ee2e4;" x="401.283781" xlink:href="#m424598df2d" y="150.43421"/>
     <use style="fill:#4ee2e4;stroke:#4ee2e4;" x="415.792751" xlink:href="#m424598df2d" y="157.694386"/>
     <use style="fill:#4ee2e4;stroke:#4ee2e4;" x="444.95236" xlink:href="#m424598df2d" y="172.029755"/>
     <use style="fill:#4ee2e4;stroke:#4ee2e4;" x="489.815589" xlink:href="#m424598df2d" y="191.07208"/>
     <use style="fill:#4ee2e4;stroke:#4ee2e4;" x="536.216409" xlink:href="#m424598df2d" y="206.095402"/>
     <use style="fill:#4ee2e4;stroke:#4ee2e4;" x="583.85896" xlink:href="#m424598df2d" y="216.480872"/>
     <use style="fill:#4ee2e4;stroke:#4ee2e4;" x="632.124877" xlink:href="#m424598df2d" y="223.200561"/>
     <use style="fill:#4ee2e4;stroke:#4ee2e4;" x="680.581774" xlink:href="#m424598df2d" y="228.170615"/>
     <use style="fill:#4ee2e4;stroke:#4ee2e4;" x="728.996731" xlink:href="#m424598df2d" y="233.578669"/>
     <use style="fill:#4ee2e4;stroke:#4ee2e4;" x="777.072961" xlink:href="#m424598df2d" y="241.637765"/>
     <use style="fill:#4ee2e4;stroke:#4ee2e4;" x="824.138698" xlink:href="#m424598df2d" y="254.554044"/>
     <use style="fill:#4ee2e4;stroke:#4ee2e4;" x="868.890824" xlink:href="#m424598df2d" y="274.199163"/>
     <use style="fill:#4ee2e4;stroke:#4ee2e4;" x="909.608194" xlink:href="#m424598df2d" y="301.284792"/>
     <use style="fill:#4ee2e4;stroke:#4ee2e4;" x="945.073968" xlink:href="#m424598df2d" y="334.907374"/>
     <use style="fill:#4ee2e4;stroke:#4ee2e4;" x="965.145228" xlink:href="#m424598df2d" y="360.532567"/>
     <use style="fill:#4ee2e4;stroke:#4ee2e4;" x="974.384548" xlink:href="#m424598df2d" y="373.882402"/>
    </g>
   </g>
   <g id="line2d_25">
    <path clip-path="url(#pb2d17a7fb2)" d="M 401.283781 150.43421 
L 429.698069 164.387105 
L 458.482551 177.583721 
L 487.792255 189.545648 
L 517.717305 199.876279 
L 548.216133 208.356162 
L 579.170837 214.996194 
L 610.420191 220.072541 
L 641.832689 224.045876 
L 673.309159 227.468965 
L 704.781322 230.938998 
L 736.172823 235.061595 
L 767.370845 240.44392 
L 798.189176 247.686913 
L 828.331956 257.337284 
L 857.412931 269.828497 
L 884.976397 285.370932 
L 910.630866 303.900065 
L 934.10421 325.12524 
L 955.331937 348.604006 
L 974.384548 373.882402 
" style="fill:none;stroke:#e2c9c1;stroke-linecap:square;stroke-width:1.5;"/>
   </g>
   <g id="line2d_26">
    <path clip-path="url(#pb2d17a7fb2)" d="M 401.283781 150.43421 
L 415.790356 157.694386 
L 444.793054 172.338886 
L 489.035652 192.743525 
L 534.635563 209.996671 
L 581.498181 223.419562 
L 629.092341 233.857142 
L 676.921088 243.086882 
L 724.585096 253.17922 
L 771.561461 266.227143 
L 816.922639 284.261552 
L 859.147458 308.88786 
L 896.453197 340.514551 
L 927.763469 378.041072 
L 944.716396 405.83 
L 952.339695 420.165334 
" style="fill:none;stroke:#386341;stroke-dasharray:9.6,2.4,1.5,2.4;stroke-dashoffset:0;stroke-width:1.5;"/>
    <defs>
     <path d="M 0 3 
C 0.795609 3 1.55874 2.683901 2.12132 2.12132 
C 2.683901 1.55874 3 0.795609 3 0 
C 3 -0.795609 2.683901 -1.55874 2.12132 -2.12132 
C 1.55874 -2.683901 0.795609 -3 0 -3 
C -0.795609 -3 -1.55874 -2.683901 -2.12132 -2.12132 
C -2.683901 -1.55874 -3 -0.795609 -3 0 
C -3 0.795609 -2.683901 1.55874 -2.12132 2.12132 
C -1.55874 2.683901 -0.795609 3 0 3 
z
" id="m9ba3b26614" style="stroke:#386341;"/>
    </defs>
    <g clip-path="url(#pb2d17a7fb2)">
     <use style="fill:#386341;stroke:#386341;" x="401.283781" xlink:href="#m9ba3b26614" y="150.43421"/>
     <use style="fill:#386341;stroke:#386341;" x="415.790356" xlink:href="#m9ba3b26614" y="157.694386"/>
     <use style="fill:#386341;stroke:#386341;" x="444.793054" xlink:href="#m9ba3b26614" y="172.338886"/>
     <use style="fill:#386341;stroke:#386341;" x="489.035652" xlink:href="#m9ba3b26614" y="192.743525"/>
     <use style="fill:#386341;stroke:#386341;" x="534.635563" xlink:href="#m9ba3b26614" y="209.996671"/>
     <use style="fill:#386341;stroke:#386341;" x="581.498181" xlink:href="#m9ba3b26614" y="223.419562"/>
     <use style="fill:#386341;stroke:#386341;" x="629.092341" xlink:href="#m9ba3b26614" y="233.857142"/>
     <use style="fill:#386341;stroke:#386341;" x="676.921088" xlink:href="#m9ba3b26614" y="243.086882"/>
     <use style="fill:#386341;stroke:#386341;" x="724.585096" xlink:href="#m9ba3b26614" y="253.17922"/>
     <use style="fill:#386341;stroke:#386341;" x="771.561461" xlink:href="#m9ba3b26614" y="266.227143"/>
     <use style="fill:#386341;stroke:#386341;" x="816.922639" xlink:href="#m9ba3b26614" y="284.261552"/>
     <use style="fill:#386341;stroke:#386341;" x="859.147458" xlink:href="#m9ba3b26614" y="308.88786"/>
     <use style="fill:#386341;stroke:#386341;" x="896.453197" xlink:href="#m9ba3b26614" y="340.514551"/>
     <use style="fill:#386341;stroke:#386341;" x="927.763469" xlink:href="#m9ba3b26614" y="378.041072"/>
     <use style="fill:#386341;stroke:#386341;" x="944.716396" xlink:href="#m9ba3b26614" y="405.83"/>
     <use style="fill:#386341;stroke:#386341;" x="952.339695" xlink:href="#m9ba3b26614" y="420.165334"/>
    </g>
   </g>
   <g id="line2d_27">
    <path clip-path="url(#pb2d17a7fb2)" d="M 401.283781 150.43421 
L 429.600246 164.5817 
L 458.114219 178.356822 
L 487.017579 191.272963 
L 516.455653 202.923951 
L 546.442058 213.075352 
L 576.901196 221.713967 
L 607.692795 229.081446 
L 638.678078 235.60121 
L 669.73015 241.790053 
L 700.735334 248.212598 
L 731.560157 255.441704 
L 762.027258 264.046953 
L 791.88137 274.580933 
L 820.763064 287.52618 
L 848.23708 303.240578 
L 873.828617 321.853402 
L 897.161794 343.233957 
L 918.007178 367.04725 
L 936.357986 392.839398 
L 952.339695 420.165334 
" style="fill:none;stroke:#a371f0;stroke-linecap:square;stroke-width:1.5;"/>
   </g>
   <g id="line2d_28">
    <path clip-path="url(#pb2d17a7fb2)" d="M 401.283781 150.43421 
L 415.788203 157.694386 
L 444.660711 172.594029 
L 488.346379 194.149031 
L 533.192731 213.26655 
L 579.243521 229.278673 
L 626.037253 242.961593 
L 673.021159 256.002124 
L 719.65467 270.343297 
L 765.222054 287.914856 
L 808.588631 310.528137 
L 848.074568 339.509715 
L 881.884468 374.987826 
L 909.097832 415.704694 
L 923.053851 445.18768 
L 929.135623 460.278378 
" style="fill:none;stroke:#6a0ef1;stroke-dasharray:9.6,2.4,1.5,2.4;stroke-dashoffset:0;stroke-width:1.5;"/>
    <defs>
     <path d="M 0 3 
C 0.795609 3 1.55874 2.683901 2.12132 2.12132 
C 2.683901 1.55874 3 0.795609 3 0 
C 3 -0.795609 2.683901 -1.55874 2.12132 -2.12132 
C 1.55874 -2.683901 0.795609 -3 0 -3 
C -0.795609 -3 -1.55874 -2.683901 -2.12132 -2.12132 
C -2.683901 -1.55874 -3 -0.795609 -3 0 
C -3 0.795609 -2.683901 1.55874 -2.12132 2.12132 
C -1.55874 2.683901 -0.795609 3 0 3 
z
" id="m1935af40b9" style="stroke:#6a0ef1;"/>
    </defs>
    <g clip-path="url(#pb2d17a7fb2)">
     <use style="fill:#6a0ef1;stroke:#6a0ef1;" x="401.283781" xlink:href="#m1935af40b9" y="150.43421"/>
     <use style="fill:#6a0ef1;stroke:#6a0ef1;" x="415.788203" xlink:href="#m1935af40b9" y="157.694386"/>
     <use style="fill:#6a0ef1;stroke:#6a0ef1;" x="444.660711" xlink:href="#m1935af40b9" y="172.594029"/>
     <use style="fill:#6a0ef1;stroke:#6a0ef1;" x="488.346379" xlink:href="#m1935af40b9" y="194.149031"/>
     <use style="fill:#6a0ef1;stroke:#6a0ef1;" x="533.192731" xlink:href="#m1935af40b9" y="213.26655"/>
     <use style="fill:#6a0ef1;stroke:#6a0ef1;" x="579.243521" xlink:href="#m1935af40b9" y="229.278673"/>
     <use style="fill:#6a0ef1;stroke:#6a0ef1;" x="626.037253" xlink:href="#m1935af40b9" y="242.961593"/>
     <use style="fill:#6a0ef1;stroke:#6a0ef1;" x="673.021159" xlink:href="#m1935af40b9" y="256.002124"/>
     <use style="fill:#6a0ef1;stroke:#6a0ef1;" x="719.65467" xlink:href="#m1935af40b9" y="270.343297"/>
     <use style="fill:#6a0ef1;stroke:#6a0ef1;" x="765.222054" xlink:href="#m1935af40b9" y="287.914856"/>
     <use style="fill:#6a0ef1;stroke:#6a0ef1;" x="808.588631" xlink:href="#m1935af40b9" y="310.528137"/>
     <use style="fill:#6a0ef1;stroke:#6a0ef1;" x="848.074568" xlink:href="#m1935af40b9" y="339.509715"/>
     <use style="fill:#6a0ef1;stroke:#6a0ef1;" x="881.884468" xlink:href="#m1935af40b9" y="374.987826"/>
     <use style="fill:#6a0ef1;stroke:#6a0ef1;" x="909.097832" xlink:href="#m1935af40b9" y="415.704694"/>
     <use style="fill:#6a0ef1;stroke:#6a0ef1;" x="923.053851" xlink:href="#m1935af40b9" y="445.18768"/>
     <use style="fill:#6a0ef1;stroke:#6a0ef1;" x="929.135623" xlink:href="#m1935af40b9" y="460.278378"/>
    </g>
   </g>
   <g id="line2d_29">
    <path clip-path="url(#pb2d17a7fb2)" d="M 401.283781 150.43421 
L 429.517001 164.743499 
L 457.793238 179.004172 
L 486.328047 192.722998 
L 515.310048 205.481797 
L 544.792199 217.045222 
L 574.729091 227.394004 
L 604.996837 236.751153 
L 635.449981 245.516669 
L 665.937917 254.178839 
L 696.308403 263.267108 
L 726.379318 273.312475 
L 755.919177 284.835 
L 784.616859 298.327253 
L 812.064621 314.201022 
L 837.793758 332.737593 
L 861.323738 353.990624 
L 882.302329 377.772264 
L 900.545136 403.713673 
L 916.098891 431.358752 
L 929.135623 460.278378 
" style="fill:none;stroke:#7265f3;stroke-linecap:square;stroke-width:1.5;"/>
   </g>
   <g id="line2d_30">
    <path clip-path="url(#pb2d17a7fb2)" d="M 401.283781 150.43421 
L 415.787014 157.694386 
L 444.568425 172.774266 
L 487.901799 195.012142 
L 532.260428 215.198867 
L 577.782346 232.58842 
L 624.031728 247.897572 
L 670.430357 262.727782 
L 716.379061 278.943229 
L 761.093505 298.394918 
L 803.370339 322.81255 
L 841.47965 353.43067 
L 873.625255 390.290719 
L 898.944461 432.091514 
L 911.538258 462.106588 
L 916.926065 477.422084 
" style="fill:none;stroke:#94e31d;stroke-dasharray:9.6,2.4,1.5,2.4;stroke-dashoffset:0;stroke-width:1.5;"/>
    <defs>
     <path d="M 0 3 
C 0.795609 3 1.55874 2.683901 2.12132 2.12132 
C 2.683901 1.55874 3 0.795609 3 0 
C 3 -0.795609 2.683901 -1.55874 2.12132 -2.12132 
C 1.55874 -2.683901 0.795609 -3 0 -3 
C -0.795609 -3 -1.55874 -2.683901 -2.12132 -2.12132 
C -2.683901 -1.55874 -3 -0.795609 -3 0 
C -3 0.795609 -2.683901 1.55874 -2.12132 2.12132 
C -1.55874 2.683901 -0.795609 3 0 3 
z
" id="m15f09b3e6e" style="stroke:#94e31d;"/>
    </defs>
    <g clip-path="url(#pb2d17a7fb2)">
     <use style="fill:#94e31d;stroke:#94e31d;" x="401.283781" xlink:href="#m15f09b3e6e" y="150.43421"/>
     <use style="fill:#94e31d;stroke:#94e31d;" x="415.787014" xlink:href="#m15f09b3e6e" y="157.694386"/>
     <use style="fill:#94e31d;stroke:#94e31d;" x="444.568425" xlink:href="#m15f09b3e6e" y="172.774266"/>
     <use style="fill:#94e31d;stroke:#94e31d;" x="487.901799" xlink:href="#m15f09b3e6e" y="195.012142"/>
     <use style="fill:#94e31d;stroke:#94e31d;" x="532.260428" xlink:href="#m15f09b3e6e" y="215.198867"/>
     <use style="fill:#94e31d;stroke:#94e31d;" x="577.782346" xlink:href="#m15f09b3e6e" y="232.58842"/>
     <use style="fill:#94e31d;stroke:#94e31d;" x="624.031728" xlink:href="#m15f09b3e6e" y="247.897572"/>
     <use style="fill:#94e31d;stroke:#94e31d;" x="670.430357" xlink:href="#m15f09b3e6e" y="262.727782"/>
     <use style="fill:#94e31d;stroke:#94e31d;" x="716.379061" xlink:href="#m15f09b3e6e" y="278.943229"/>
     <use style="fill:#94e31d;stroke:#94e31d;" x="761.093505" xlink:href="#m15f09b3e6e" y="298.394918"/>
     <use style="fill:#94e31d;stroke:#94e31d;" x="803.370339" xlink:href="#m15f09b3e6e" y="322.81255"/>
     <use style="fill:#94e31d;stroke:#94e31d;" x="841.47965" xlink:href="#m15f09b3e6e" y="353.43067"/>
     <use style="fill:#94e31d;stroke:#94e31d;" x="873.625255" xlink:href="#m15f09b3e6e" y="390.290719"/>
     <use style="fill:#94e31d;stroke:#94e31d;" x="898.944461" xlink:href="#m15f09b3e6e" y="432.091514"/>
     <use style="fill:#94e31d;stroke:#94e31d;" x="911.538258" xlink:href="#m15f09b3e6e" y="462.106588"/>
     <use style="fill:#94e31d;stroke:#94e31d;" x="916.926065" xlink:href="#m15f09b3e6e" y="477.422084"/>
    </g>
   </g>
   <g id="line2d_31">
    <path clip-path="url(#pb2d17a7fb2)" d="M 401.283781 150.43421 
L 429.460768 164.851857 
L 457.582326 179.414593 
L 485.881724 193.607181 
L 514.569907 207.001652 
L 543.724743 219.34422 
L 573.318913 230.596294 
L 603.234897 240.963645 
L 633.323773 250.824651 
L 663.424695 260.644799 
L 693.369621 270.931788 
L 722.958427 282.194979 
L 751.940788 294.932571 
L 779.987007 309.614616 
L 806.673767 326.628652 
L 831.522027 346.231069 
L 854.050299 368.452007 
L 873.915562 393.086761 
L 890.950453 419.757634 
L 905.222976 448.010068 
L 916.926065 477.422084 
" style="fill:none;stroke:#836a6c;stroke-linecap:square;stroke-width:1.5;"/>
   </g>
   <g id="line2d_32">
    <path clip-path="url(#pb2d17a7fb2)" d="M 401.283781 150.43421 
L 415.784899 157.694386 
L 444.437966 173.025598 
L 487.179352 196.371695 
L 530.682557 218.327273 
L 575.20377 238.131658 
L 620.370073 256.403567 
L 665.555785 274.628794 
L 710.049107 294.534487 
L 752.919321 317.813864 
L 792.813546 345.996812 
L 827.898151 380.07389 
L 856.393607 419.853574 
L 877.586073 463.917864 
L 887.233331 495.022811 
L 891.122197 510.794207 
" style="fill:none;stroke:#30b0ca;stroke-dasharray:9.6,2.4,1.5,2.4;stroke-dashoffset:0;stroke-width:1.5;"/>
    <defs>
     <path d="M 0 3 
C 0.795609 3 1.55874 2.683901 2.12132 2.12132 
C 2.683901 1.55874 3 0.795609 3 0 
C 3 -0.795609 2.683901 -1.55874 2.12132 -2.12132 
C 1.55874 -2.683901 0.795609 -3 0 -3 
C -0.795609 -3 -1.55874 -2.683901 -2.12132 -2.12132 
C -2.683901 -1.55874 -3 -0.795609 -3 0 
C -3 0.795609 -2.683901 1.55874 -2.12132 2.12132 
C -1.55874 2.683901 -0.795609 3 0 3 
z
" id="me95b59afb3" style="stroke:#30b0ca;"/>
    </defs>
    <g clip-path="url(#pb2d17a7fb2)">
     <use style="fill:#30b0ca;stroke:#30b0ca;" x="401.283781" xlink:href="#me95b59afb3" y="150.43421"/>
     <use style="fill:#30b0ca;stroke:#30b0ca;" x="415.784899" xlink:href="#me95b59afb3" y="157.694386"/>
     <use style="fill:#30b0ca;stroke:#30b0ca;" x="444.437966" xlink:href="#me95b59afb3" y="173.025598"/>
     <use style="fill:#30b0ca;stroke:#30b0ca;" x="487.179352" xlink:href="#me95b59afb3" y="196.371695"/>
     <use style="fill:#30b0ca;stroke:#30b0ca;" x="530.682557" xlink:href="#me95b59afb3" y="218.327273"/>
     <use style="fill:#30b0ca;stroke:#30b0ca;" x="575.20377" xlink:href="#me95b59afb3" y="238.131658"/>
     <use style="fill:#30b0ca;stroke:#30b0ca;" x="620.370073" xlink:href="#me95b59afb3" y="256.403567"/>
     <use style="fill:#30b0ca;stroke:#30b0ca;" x="665.555785" xlink:href="#me95b59afb3" y="274.628794"/>
     <use style="fill:#30b0ca;stroke:#30b0ca;" x="710.049107" xlink:href="#me95b59afb3" y="294.534487"/>
     <use style="fill:#30b0ca;stroke:#30b0ca;" x="752.919321" xlink:href="#me95b59afb3" y="317.813864"/>
     <use style="fill:#30b0ca;stroke:#30b0ca;" x="792.813546" xlink:href="#me95b59afb3" y="345.996812"/>
     <use style="fill:#30b0ca;stroke:#30b0ca;" x="827.898151" xlink:href="#me95b59afb3" y="380.07389"/>
     <use style="fill:#30b0ca;stroke:#30b0ca;" x="856.393607" xlink:href="#me95b59afb3" y="419.853574"/>
     <use style="fill:#30b0ca;stroke:#30b0ca;" x="877.586073" xlink:href="#me95b59afb3" y="463.917864"/>
     <use style="fill:#30b0ca;stroke:#30b0ca;" x="887.233331" xlink:href="#me95b59afb3" y="495.022811"/>
     <use style="fill:#30b0ca;stroke:#30b0ca;" x="891.122197" xlink:href="#me95b59afb3" y="510.794207"/>
    </g>
   </g>
   <g id="line2d_33">
    <path clip-path="url(#pb2d17a7fb2)" d="M 401.283781 150.43421 
L 429.376745 165.010096 
L 457.250248 180.043167 
L 485.151223 195.005743 
L 513.326163 209.452823 
L 541.886262 223.123189 
L 570.830371 235.96474 
L 600.055772 248.15672 
L 629.408127 260.046942 
L 658.707167 272.067028 
L 687.754206 284.686937 
L 716.311739 298.374415 
L 744.088998 313.580825 
L 770.715978 330.721555 
L 795.736395 350.121484 
L 818.651067 371.970819 
L 838.98115 396.236659 
L 856.409475 422.669013 
L 870.811194 450.86604 
L 882.303143 480.376007 
L 891.122197 510.794207 
" style="fill:none;stroke:#13811e;stroke-linecap:square;stroke-width:1.5;"/>
   </g>
   <g id="line2d_34">
    <path clip-path="url(#pb2d17a7fb2)" d="M 401.283781 150.43421 
L 415.783795 157.694386 
L 444.357096 173.181985 
L 486.76238 197.128287 
L 529.783668 220.002304 
L 573.751574 240.989321 
L 618.313326 260.669491 
L 662.815568 280.483124 
L 706.488887 302.106137 
L 748.335117 327.156785 
L 786.93842 357.060232 
L 820.431357 392.678594 
L 847.061086 433.705444 
L 866.196791 478.675494 
L 874.402918 510.174417 
L 877.562804 526.099643 
" style="fill:none;stroke:#67a440;stroke-dasharray:9.6,2.4,1.5,2.4;stroke-dashoffset:0;stroke-width:1.5;"/>
    <defs>
     <path d="M 0 3 
C 0.795609 3 1.55874 2.683901 2.12132 2.12132 
C 2.683901 1.55874 3 0.795609 3 0 
C 3 -0.795609 2.683901 -1.55874 2.12132 -2.12132 
C 1.55874 -2.683901 0.795609 -3 0 -3 
C -0.795609 -3 -1.55874 -2.683901 -2.12132 -2.12132 
C -2.683901 -1.55874 -3 -0.795609 -3 0 
C -3 0.795609 -2.683901 1.55874 -2.12132 2.12132 
C -1.55874 2.683901 -0.795609 3 0 3 
z
" id="m7735eca6ac" style="stroke:#67a440;"/>
    </defs>
    <g clip-path="url(#pb2d17a7fb2)">
     <use style="fill:#67a440;stroke:#67a440;" x="401.283781" xlink:href="#m7735eca6ac" y="150.43421"/>
     <use style="fill:#67a440;stroke:#67a440;" x="415.783795" xlink:href="#m7735eca6ac" y="157.694386"/>
     <use style="fill:#67a440;stroke:#67a440;" x="444.357096" xlink:href="#m7735eca6ac" y="173.181985"/>
     <use style="fill:#67a440;stroke:#67a440;" x="486.76238" xlink:href="#m7735eca6ac" y="197.128287"/>
     <use style="fill:#67a440;stroke:#67a440;" x="529.783668" xlink:href="#m7735eca6ac" y="220.002304"/>
     <use style="fill:#67a440;stroke:#67a440;" x="573.751574" xlink:href="#m7735eca6ac" y="240.989321"/>
     <use style="fill:#67a440;stroke:#67a440;" x="618.313326" xlink:href="#m7735eca6ac" y="260.669491"/>
     <use style="fill:#67a440;stroke:#67a440;" x="662.815568" xlink:href="#m7735eca6ac" y="280.483124"/>
     <use style="fill:#67a440;stroke:#67a440;" x="706.488887" xlink:href="#m7735eca6ac" y="302.106137"/>
     <use style="fill:#67a440;stroke:#67a440;" x="748.335117" xlink:href="#m7735eca6ac" y="327.156785"/>
     <use style="fill:#67a440;stroke:#67a440;" x="786.93842" xlink:href="#m7735eca6ac" y="357.060232"/>
     <use style="fill:#67a440;stroke:#67a440;" x="820.431357" xlink:href="#m7735eca6ac" y="392.678594"/>
     <use style="fill:#67a440;stroke:#67a440;" x="847.061086" xlink:href="#m7735eca6ac" y="433.705444"/>
     <use style="fill:#67a440;stroke:#67a440;" x="866.196791" xlink:href="#m7735eca6ac" y="478.675494"/>
     <use style="fill:#67a440;stroke:#67a440;" x="874.402918" xlink:href="#m7735eca6ac" y="510.174417"/>
     <use style="fill:#67a440;stroke:#67a440;" x="877.562804" xlink:href="#m7735eca6ac" y="526.099643"/>
    </g>
   </g>
   <g id="line2d_35">
    <path clip-path="url(#pb2d17a7fb2)" d="M 401.283781 150.43421 
L 429.326183 165.104468 
L 457.055517 180.40195 
L 484.730214 195.777807 
L 512.615914 210.773386 
L 540.843892 225.113045 
L 569.427266 238.731603 
L 598.268104 251.797355 
L 627.207768 264.646097 
L 656.05545 277.696396 
L 684.596893 291.403737 
L 712.576895 306.217245 
L 739.686544 322.565224 
L 765.538895 340.834563 
L 789.665522 361.317202 
L 811.562142 384.16905 
L 830.756166 409.325995 
L 846.946821 436.517376 
L 860.032084 465.332409 
L 870.152105 495.324215 
L 877.562804 526.099643 
" style="fill:none;stroke:#a86d90;stroke-linecap:square;stroke-width:1.5;"/>
   </g>
   <g id="line2d_36">
    <path clip-path="url(#pb2d17a7fb2)" d="M 401.283781 150.43421 
L 415.781838 157.694386 
L 444.242571 173.402276 
L 486.091336 198.308515 
L 528.273142 222.691324 
L 571.197767 245.738999 
L 614.567285 267.94176 
L 657.697761 290.618743 
L 699.747893 315.288584 
L 739.630502 343.398476 
L 775.851113 376.181601 
L 806.509701 414.295975 
L 829.91113 457.271415 
L 845.558012 503.594775 
L 851.348289 535.641647 
L 853.289408 551.768849 
" style="fill:none;stroke:#f65a56;stroke-dasharray:9.6,2.4,1.5,2.4;stroke-dashoffset:0;stroke-width:1.5;"/>
    <defs>
     <path d="M 0 3 
C 0.795609 3 1.55874 2.683901 2.12132 2.12132 
C 2.683901 1.55874 3 0.795609 3 0 
C 3 -0.795609 2.683901 -1.55874 2.12132 -2.12132 
C 1.55874 -2.683901 0.795609 -3 0 -3 
C -0.795609 -3 -1.55874 -2.683901 -2.12132 -2.12132 
C -2.683901 -1.55874 -3 -0.795609 -3 0 
C -3 0.795609 -2.683901 1.55874 -2.12132 2.12132 
C -1.55874 2.683901 -0.795609 3 0 3 
z
" id="m532c7da53b" style="stroke:#f65a56;"/>
    </defs>
    <g clip-path="url(#pb2d17a7fb2)">
     <use style="fill:#f65a56;stroke:#f65a56;" x="401.283781" xlink:href="#m532c7da53b" y="150.43421"/>
     <use style="fill:#f65a56;stroke:#f65a56;" x="415.781838" xlink:href="#m532c7da53b" y="157.694386"/>
     <use style="fill:#f65a56;stroke:#f65a56;" x="444.242571" xlink:href="#m532c7da53b" y="173.402276"/>
     <use style="fill:#f65a56;stroke:#f65a56;" x="486.091336" xlink:href="#m532c7da53b" y="198.308515"/>
     <use style="fill:#f65a56;stroke:#f65a56;" x="528.273142" xlink:href="#m532c7da53b" y="222.691324"/>
     <use style="fill:#f65a56;stroke:#f65a56;" x="571.197767" xlink:href="#m532c7da53b" y="245.738999"/>
     <use style="fill:#f65a56;stroke:#f65a56;" x="614.567285" xlink:href="#m532c7da53b" y="267.94176"/>
     <use style="fill:#f65a56;stroke:#f65a56;" x="657.697761" xlink:href="#m532c7da53b" y="290.618743"/>
     <use style="fill:#f65a56;stroke:#f65a56;" x="699.747893" xlink:href="#m532c7da53b" y="315.288584"/>
     <use style="fill:#f65a56;stroke:#f65a56;" x="739.630502" xlink:href="#m532c7da53b" y="343.398476"/>
     <use style="fill:#f65a56;stroke:#f65a56;" x="775.851113" xlink:href="#m532c7da53b" y="376.181601"/>
     <use style="fill:#f65a56;stroke:#f65a56;" x="806.509701" xlink:href="#m532c7da53b" y="414.295975"/>
     <use style="fill:#f65a56;stroke:#f65a56;" x="829.91113" xlink:href="#m532c7da53b" y="457.271415"/>
     <use style="fill:#f65a56;stroke:#f65a56;" x="845.558012" xlink:href="#m532c7da53b" y="503.594775"/>
     <use style="fill:#f65a56;stroke:#f65a56;" x="851.348289" xlink:href="#m532c7da53b" y="535.641647"/>
     <use style="fill:#f65a56;stroke:#f65a56;" x="853.289408" xlink:href="#m532c7da53b" y="551.768849"/>
    </g>
   </g>
   <g id="line2d_37">
    <path clip-path="url(#pb2d17a7fb2)" d="M 401.283781 150.43421 
L 429.250682 165.242642 
L 456.7506 180.948679 
L 484.046552 196.988483 
L 511.430823 212.884615 
L 539.057825 228.357242 
L 566.959651 243.331441 
L 595.051322 257.950935 
L 623.171713 272.52037 
L 651.11757 287.421491 
L 678.655162 303.066851 
L 705.506281 319.859743 
L 731.338448 338.179748 
L 755.7436 358.36129 
L 778.239848 380.641455 
L 798.320207 405.122931 
L 815.526237 431.69675 
L 829.585199 460.065936 
L 840.43107 489.812639 
L 848.238366 520.50376 
L 853.289408 551.768849 
" style="fill:none;stroke:#ef82f8;stroke-linecap:square;stroke-width:1.5;"/>
   </g>
   <g id="line2d_38">
    <path clip-path="url(#pb2d17a7fb2)" d="M 401.283781 150.43421 
L 415.780827 157.694386 
L 444.165535 173.550612 
L 485.680694 199.008179 
L 527.36743 224.220121 
L 569.707241 248.311102 
L 612.424504 271.725273 
L 654.82081 295.723567 
L 696.018027 321.766685 
L 734.889914 351.231084 
L 769.910666 385.265516 
L 799.172737 424.435442 
L 821.01476 468.198211 
L 835.00429 515.024017 
L 839.661892 547.239147 
L 841.034223 563.416948 
" style="fill:none;stroke:#de7db3;stroke-dasharray:9.6,2.4,1.5,2.4;stroke-dashoffset:0;stroke-width:1.5;"/>
    <defs>
     <path d="M 0 3 
C 0.795609 3 1.55874 2.683901 2.12132 2.12132 
C 2.683901 1.55874 3 0.795609 3 0 
C 3 -0.795609 2.683901 -1.55874 2.12132 -2.12132 
C 1.55874 -2.683901 0.795609 -3 0 -3 
C -0.795609 -3 -1.55874 -2.683901 -2.12132 -2.12132 
C -2.683901 -1.55874 -3 -0.795609 -3 0 
C -3 0.795609 -2.683901 1.55874 -2.12132 2.12132 
C -1.55874 2.683901 -0.795609 3 0 3 
z
" id="m7fa4b42b09" style="stroke:#de7db3;"/>
    </defs>
    <g clip-path="url(#pb2d17a7fb2)">
     <use style="fill:#de7db3;stroke:#de7db3;" x="401.283781" xlink:href="#m7fa4b42b09" y="150.43421"/>
     <use style="fill:#de7db3;stroke:#de7db3;" x="415.780827" xlink:href="#m7fa4b42b09" y="157.694386"/>
     <use style="fill:#de7db3;stroke:#de7db3;" x="444.165535" xlink:href="#m7fa4b42b09" y="173.550612"/>
     <use style="fill:#de7db3;stroke:#de7db3;" x="485.680694" xlink:href="#m7fa4b42b09" y="199.008179"/>
     <use style="fill:#de7db3;stroke:#de7db3;" x="527.36743" xlink:href="#m7fa4b42b09" y="224.220121"/>
     <use style="fill:#de7db3;stroke:#de7db3;" x="569.707241" xlink:href="#m7fa4b42b09" y="248.311102"/>
     <use style="fill:#de7db3;stroke:#de7db3;" x="612.424504" xlink:href="#m7fa4b42b09" y="271.725273"/>
     <use style="fill:#de7db3;stroke:#de7db3;" x="654.82081" xlink:href="#m7fa4b42b09" y="295.723567"/>
     <use style="fill:#de7db3;stroke:#de7db3;" x="696.018027" xlink:href="#m7fa4b42b09" y="321.766685"/>
     <use style="fill:#de7db3;stroke:#de7db3;" x="734.889914" xlink:href="#m7fa4b42b09" y="351.231084"/>
     <use style="fill:#de7db3;stroke:#de7db3;" x="769.910666" xlink:href="#m7fa4b42b09" y="385.265516"/>
     <use style="fill:#de7db3;stroke:#de7db3;" x="799.172737" xlink:href="#m7fa4b42b09" y="424.435442"/>
     <use style="fill:#de7db3;stroke:#de7db3;" x="821.01476" xlink:href="#m7fa4b42b09" y="468.198211"/>
     <use style="fill:#de7db3;stroke:#de7db3;" x="835.00429" xlink:href="#m7fa4b42b09" y="515.024017"/>
     <use style="fill:#de7db3;stroke:#de7db3;" x="839.661892" xlink:href="#m7fa4b42b09" y="547.239147"/>
     <use style="fill:#de7db3;stroke:#de7db3;" x="841.034223" xlink:href="#m7fa4b42b09" y="563.416948"/>
    </g>
   </g>
   <g id="line2d_39">
    <path clip-path="url(#pb2d17a7fb2)" d="M 401.283781 150.43421 
L 429.201923 165.331332 
L 456.560203 181.282462 
L 483.629513 197.700286 
L 510.718185 214.092434 
L 537.999422 230.162365 
L 565.519395 245.819677 
L 593.198757 261.194918 
L 620.874947 276.577598 
L 648.338543 292.333502 
L 675.345992 308.859005 
L 701.608551 326.539037 
L 726.783658 345.732618 
L 750.454849 366.751146 
L 772.135834 389.807092 
L 791.320412 414.979138 
L 807.558606 442.138452 
L 820.591968 470.977139 
L 830.371733 501.07557 
L 837.087978 532.008454 
L 841.034223 563.416948 
" style="fill:none;stroke:#e3d132;stroke-linecap:square;stroke-width:1.5;"/>
   </g>
   <g id="line2d_40">
    <path clip-path="url(#pb2d17a7fb2)" d="M 401.283781 150.43421 
L 415.77919 157.694386 
L 444.071208 173.731809 
L 485.110154 199.954756 
L 526.063605 226.340289 
L 567.467711 252.008663 
L 609.09271 277.325718 
L 650.225269 303.450278 
L 689.95052 331.710075 
L 727.099531 363.33993 
L 760.11738 399.338045 
L 787.102779 440.12337 
L 806.457885 485.052662 
L 817.848553 532.588424 
L 820.7478 565.016783 
L 821.238512 581.24935 
" style="fill:none;stroke:#cb6af5;stroke-dasharray:9.6,2.4,1.5,2.4;stroke-dashoffset:0;stroke-width:1.5;"/>
    <defs>
     <path d="M 0 3 
C 0.795609 3 1.55874 2.683901 2.12132 2.12132 
C 2.683901 1.55874 3 0.795609 3 0 
C 3 -0.795609 2.683901 -1.55874 2.12132 -2.12132 
C 1.55874 -2.683901 0.795609 -3 0 -3 
C -0.795609 -3 -1.55874 -2.683901 -2.12132 -2.12132 
C -2.683901 -1.55874 -3 -0.795609 -3 0 
C -3 0.795609 -2.683901 1.55874 -2.12132 2.12132 
C -1.55874 2.683901 -0.795609 3 0 3 
z
" id="m7deeeefc53" style="stroke:#cb6af5;"/>
    </defs>
    <g clip-path="url(#pb2d17a7fb2)">
     <use style="fill:#cb6af5;stroke:#cb6af5;" x="401.283781" xlink:href="#m7deeeefc53" y="150.43421"/>
     <use style="fill:#cb6af5;stroke:#cb6af5;" x="415.77919" xlink:href="#m7deeeefc53" y="157.694386"/>
     <use style="fill:#cb6af5;stroke:#cb6af5;" x="444.071208" xlink:href="#m7deeeefc53" y="173.731809"/>
     <use style="fill:#cb6af5;stroke:#cb6af5;" x="485.110154" xlink:href="#m7deeeefc53" y="199.954756"/>
     <use style="fill:#cb6af5;stroke:#cb6af5;" x="526.063605" xlink:href="#m7deeeefc53" y="226.340289"/>
     <use style="fill:#cb6af5;stroke:#cb6af5;" x="567.467711" xlink:href="#m7deeeefc53" y="252.008663"/>
     <use style="fill:#cb6af5;stroke:#cb6af5;" x="609.09271" xlink:href="#m7deeeefc53" y="277.325718"/>
     <use style="fill:#cb6af5;stroke:#cb6af5;" x="650.225269" xlink:href="#m7deeeefc53" y="303.450278"/>
     <use style="fill:#cb6af5;stroke:#cb6af5;" x="689.95052" xlink:href="#m7deeeefc53" y="331.710075"/>
     <use style="fill:#cb6af5;stroke:#cb6af5;" x="727.099531" xlink:href="#m7deeeefc53" y="363.33993"/>
     <use style="fill:#cb6af5;stroke:#cb6af5;" x="760.11738" xlink:href="#m7deeeefc53" y="399.338045"/>
     <use style="fill:#cb6af5;stroke:#cb6af5;" x="787.102779" xlink:href="#m7deeeefc53" y="440.12337"/>
     <use style="fill:#cb6af5;stroke:#cb6af5;" x="806.457885" xlink:href="#m7deeeefc53" y="485.052662"/>
     <use style="fill:#cb6af5;stroke:#cb6af5;" x="817.848553" xlink:href="#m7deeeefc53" y="532.588424"/>
     <use style="fill:#cb6af5;stroke:#cb6af5;" x="820.7478" xlink:href="#m7deeeefc53" y="565.016783"/>
     <use style="fill:#cb6af5;stroke:#cb6af5;" x="821.238512" xlink:href="#m7deeeefc53" y="581.24935"/>
    </g>
   </g>
   <g id="line2d_41">
    <path clip-path="url(#pb2d17a7fb2)" d="M 401.283781 150.43421 
L 429.138908 165.443877 
L 456.30258 181.723327 
L 483.04604 198.666938 
L 509.697643 215.762061 
L 536.447028 232.706127 
L 563.354376 249.39912 
L 590.351344 265.950212 
L 617.275488 282.622486 
L 643.911152 299.750657 
L 670.004903 317.694872 
L 695.256777 336.801884 
L 719.313628 357.391078 
L 741.751246 379.732756 
L 762.081591 403.998763 
L 779.804133 430.230743 
L 794.485125 458.271957 
L 805.889158 487.801836 
L 813.992943 518.402633 
L 819.007232 549.664727 
L 821.238512 581.24935 
" style="fill:none;stroke:#30729d;stroke-linecap:square;stroke-width:1.5;"/>
   </g>
   <g id="line2d_42">
    <path clip-path="url(#pb2d17a7fb2)" d="M 401.283781 150.43421 
L 415.778232 157.694386 
L 444.00051 173.867264 
L 484.717001 200.590682 
L 525.184004 227.712985 
L 566.003152 254.294616 
L 606.973345 280.648482 
L 647.378731 307.871651 
L 686.282759 337.237114 
L 722.4924 369.922773 
L 754.434508 406.863581 
L 780.208356 448.410681 
L 798.247718 493.870671 
L 808.270255 541.70103 
L 810.249252 574.190707 
L 810.280086 590.426903 
" style="fill:none;stroke:#5def69;stroke-dasharray:9.6,2.4,1.5,2.4;stroke-dashoffset:0;stroke-width:1.5;"/>
    <defs>
     <path d="M 0 3 
C 0.795609 3 1.55874 2.683901 2.12132 2.12132 
C 2.683901 1.55874 3 0.795609 3 0 
C 3 -0.795609 2.683901 -1.55874 2.12132 -2.12132 
C 1.55874 -2.683901 0.795609 -3 0 -3 
C -0.795609 -3 -1.55874 -2.683901 -2.12132 -2.12132 
C -2.683901 -1.55874 -3 -0.795609 -3 0 
C -3 0.795609 -2.683901 1.55874 -2.12132 2.12132 
C -1.55874 2.683901 -0.795609 3 0 3 
z
" id="m77af8608a1" style="stroke:#5def69;"/>
    </defs>
    <g clip-path="url(#pb2d17a7fb2)">
     <use style="fill:#5def69;stroke:#5def69;" x="401.283781" xlink:href="#m77af8608a1" y="150.43421"/>
     <use style="fill:#5def69;stroke:#5def69;" x="415.778232" xlink:href="#m77af8608a1" y="157.694386"/>
     <use style="fill:#5def69;stroke:#5def69;" x="444.00051" xlink:href="#m77af8608a1" y="173.867264"/>
     <use style="fill:#5def69;stroke:#5def69;" x="484.717001" xlink:href="#m77af8608a1" y="200.590682"/>
     <use style="fill:#5def69;stroke:#5def69;" x="525.184004" xlink:href="#m77af8608a1" y="227.712985"/>
     <use style="fill:#5def69;stroke:#5def69;" x="566.003152" xlink:href="#m77af8608a1" y="254.294616"/>
     <use style="fill:#5def69;stroke:#5def69;" x="606.973345" xlink:href="#m77af8608a1" y="280.648482"/>
     <use style="fill:#5def69;stroke:#5def69;" x="647.378731" xlink:href="#m77af8608a1" y="307.871651"/>
     <use style="fill:#5def69;stroke:#5def69;" x="686.282759" xlink:href="#m77af8608a1" y="337.237114"/>
     <use style="fill:#5def69;stroke:#5def69;" x="722.4924" xlink:href="#m77af8608a1" y="369.922773"/>
     <use style="fill:#5def69;stroke:#5def69;" x="754.434508" xlink:href="#m77af8608a1" y="406.863581"/>
     <use style="fill:#5def69;stroke:#5def69;" x="780.208356" xlink:href="#m77af8608a1" y="448.410681"/>
     <use style="fill:#5def69;stroke:#5def69;" x="798.247718" xlink:href="#m77af8608a1" y="493.870671"/>
     <use style="fill:#5def69;stroke:#5def69;" x="808.270255" xlink:href="#m77af8608a1" y="541.70103"/>
     <use style="fill:#5def69;stroke:#5def69;" x="810.249252" xlink:href="#m77af8608a1" y="574.190707"/>
     <use style="fill:#5def69;stroke:#5def69;" x="810.280086" xlink:href="#m77af8608a1" y="590.426903"/>
    </g>
   </g>
   <g id="line2d_43">
    <path clip-path="url(#pb2d17a7fb2)" d="M 401.283781 150.43421 
L 429.093399 165.524729 
L 456.121954 182.026983 
L 482.645571 199.311614 
L 509.007324 216.848924 
L 535.414077 234.31987 
L 561.939807 251.608792 
L 588.523572 268.810005 
L 615.004385 286.170259 
L 641.164021 304.007998 
L 666.743332 322.668186 
L 691.435942 342.482125 
L 714.88258 363.753038 
L 736.654192 386.733923 
L 756.26105 411.578453 
L 773.204923 438.310888 
L 787.060098 466.760708 
L 797.603101 496.600832 
L 804.824151 527.414214 
L 808.945254 558.799092 
L 810.280086 590.426903 
" style="fill:none;stroke:#c328f6;stroke-linecap:square;stroke-width:1.5;"/>
   </g>
   <g id="line2d_44">
    <path clip-path="url(#pb2d17a7fb2)" d="M 401.283781 150.43421 
L 415.776898 157.694386 
L 443.92204 174.017653 
L 484.237419 201.348672 
L 524.081372 229.37883 
L 564.098853 257.154388 
L 604.126369 284.925745 
L 643.443866 313.708349 
L 681.100915 344.668138 
L 715.891782 378.869703 
L 746.243575 417.134456 
L 770.279981 459.71403 
L 786.49134 505.859959 
L 794.661284 554.044245 
L 795.412554 586.588103 
L 794.830593 602.815528 
" style="fill:none;stroke:#0ca01d;stroke-dasharray:9.6,2.4,1.5,2.4;stroke-dashoffset:0;stroke-width:1.5;"/>
    <defs>
     <path d="M 0 3 
C 0.795609 3 1.55874 2.683901 2.12132 2.12132 
C 2.683901 1.55874 3 0.795609 3 0 
C 3 -0.795609 2.683901 -1.55874 2.12132 -2.12132 
C 1.55874 -2.683901 0.795609 -3 0 -3 
C -0.795609 -3 -1.55874 -2.683901 -2.12132 -2.12132 
C -2.683901 -1.55874 -3 -0.795609 -3 0 
C -3 0.795609 -2.683901 1.55874 -2.12132 2.12132 
C -1.55874 2.683901 -0.795609 3 0 3 
z
" id="md54f58854f" style="stroke:#0ca01d;"/>
    </defs>
    <g clip-path="url(#pb2d17a7fb2)">
     <use style="fill:#0ca01d;stroke:#0ca01d;" x="401.283781" xlink:href="#md54f58854f" y="150.43421"/>
     <use style="fill:#0ca01d;stroke:#0ca01d;" x="415.776898" xlink:href="#md54f58854f" y="157.694386"/>
     <use style="fill:#0ca01d;stroke:#0ca01d;" x="443.92204" xlink:href="#md54f58854f" y="174.017653"/>
     <use style="fill:#0ca01d;stroke:#0ca01d;" x="484.237419" xlink:href="#md54f58854f" y="201.348672"/>
     <use style="fill:#0ca01d;stroke:#0ca01d;" x="524.081372" xlink:href="#md54f58854f" y="229.37883"/>
     <use style="fill:#0ca01d;stroke:#0ca01d;" x="564.098853" xlink:href="#md54f58854f" y="257.154388"/>
     <use style="fill:#0ca01d;stroke:#0ca01d;" x="604.126369" xlink:href="#md54f58854f" y="284.925745"/>
     <use style="fill:#0ca01d;stroke:#0ca01d;" x="643.443866" xlink:href="#md54f58854f" y="313.708349"/>
     <use style="fill:#0ca01d;stroke:#0ca01d;" x="681.100915" xlink:href="#md54f58854f" y="344.668138"/>
     <use style="fill:#0ca01d;stroke:#0ca01d;" x="715.891782" xlink:href="#md54f58854f" y="378.869703"/>
     <use style="fill:#0ca01d;stroke:#0ca01d;" x="746.243575" xlink:href="#md54f58854f" y="417.134456"/>
     <use style="fill:#0ca01d;stroke:#0ca01d;" x="770.279981" xlink:href="#md54f58854f" y="459.71403"/>
     <use style="fill:#0ca01d;stroke:#0ca01d;" x="786.49134" xlink:href="#md54f58854f" y="505.859959"/>
     <use style="fill:#0ca01d;stroke:#0ca01d;" x="794.661284" xlink:href="#md54f58854f" y="554.044245"/>
     <use style="fill:#0ca01d;stroke:#0ca01d;" x="795.412554" xlink:href="#md54f58854f" y="586.588103"/>
     <use style="fill:#0ca01d;stroke:#0ca01d;" x="794.830593" xlink:href="#md54f58854f" y="602.815528"/>
    </g>
   </g>
   <g id="line2d_45">
    <path clip-path="url(#pb2d17a7fb2)" d="M 401.283781 150.43421 
L 429.040765 165.616873 
L 455.905835 182.382843 
L 482.154324 200.082138 
L 508.145113 218.165131 
L 534.098099 236.304897 
L 560.098509 254.376388 
L 586.094628 272.456735 
L 611.927223 290.771575 
L 637.375972 309.614436 
L 662.178085 329.30114 
L 686.023605 350.132397 
L 708.550855 372.380296 
L 729.330948 396.266872 
L 747.878488 421.917099 
L 763.704163 449.330991 
L 776.397003 478.322414 
L 785.750582 508.560367 
L 791.771478 539.63417 
L 794.692276 571.156735 
L 794.830593 602.815528 
" style="fill:none;stroke:#83c478;stroke-linecap:square;stroke-width:1.5;"/>
   </g>
   <g id="line2d_46">
    <path clip-path="url(#pb2d17a7fb2)" d="M 401.283781 150.43421 
L 415.775934 157.694386 
L 443.855223 174.145222 
L 483.848901 201.949793 
L 523.20004 230.667053 
L 562.61048 259.294655 
L 601.949665 288.029231 
L 640.502663 317.823208 
L 677.30888 349.783684 
L 711.149867 384.91859 
L 740.445191 423.9912 
L 763.327284 467.195427 
L 778.319915 513.745521 
L 785.251528 562.118321 
L 785.182927 594.667936 
L 784.192686 610.874337 
" style="fill:none;stroke:#34cc88;stroke-dasharray:9.6,2.4,1.5,2.4;stroke-dashoffset:0;stroke-width:1.5;"/>
    <defs>
     <path d="M 0 3 
C 0.795609 3 1.55874 2.683901 2.12132 2.12132 
C 2.683901 1.55874 3 0.795609 3 0 
C 3 -0.795609 2.683901 -1.55874 2.12132 -2.12132 
C 1.55874 -2.683901 0.795609 -3 0 -3 
C -0.795609 -3 -1.55874 -2.683901 -2.12132 -2.12132 
C -2.683901 -1.55874 -3 -0.795609 -3 0 
C -3 0.795609 -2.683901 1.55874 -2.12132 2.12132 
C -1.55874 2.683901 -0.795609 3 0 3 
z
" id="m95a27b7ecc" style="stroke:#34cc88;"/>
    </defs>
    <g clip-path="url(#pb2d17a7fb2)">
     <use style="fill:#34cc88;stroke:#34cc88;" x="401.283781" xlink:href="#m95a27b7ecc" y="150.43421"/>
     <use style="fill:#34cc88;stroke:#34cc88;" x="415.775934" xlink:href="#m95a27b7ecc" y="157.694386"/>
     <use style="fill:#34cc88;stroke:#34cc88;" x="443.855223" xlink:href="#m95a27b7ecc" y="174.145222"/>
     <use style="fill:#34cc88;stroke:#34cc88;" x="483.848901" xlink:href="#m95a27b7ecc" y="201.949793"/>
     <use style="fill:#34cc88;stroke:#34cc88;" x="523.20004" xlink:href="#m95a27b7ecc" y="230.667053"/>
     <use style="fill:#34cc88;stroke:#34cc88;" x="562.61048" xlink:href="#m95a27b7ecc" y="259.294655"/>
     <use style="fill:#34cc88;stroke:#34cc88;" x="601.949665" xlink:href="#m95a27b7ecc" y="288.029231"/>
     <use style="fill:#34cc88;stroke:#34cc88;" x="640.502663" xlink:href="#m95a27b7ecc" y="317.823208"/>
     <use style="fill:#34cc88;stroke:#34cc88;" x="677.30888" xlink:href="#m95a27b7ecc" y="349.783684"/>
     <use style="fill:#34cc88;stroke:#34cc88;" x="711.149867" xlink:href="#m95a27b7ecc" y="384.91859"/>
     <use style="fill:#34cc88;stroke:#34cc88;" x="740.445191" xlink:href="#m95a27b7ecc" y="423.9912"/>
     <use style="fill:#34cc88;stroke:#34cc88;" x="763.327284" xlink:href="#m95a27b7ecc" y="467.195427"/>
     <use style="fill:#34cc88;stroke:#34cc88;" x="778.319915" xlink:href="#m95a27b7ecc" y="513.745521"/>
     <use style="fill:#34cc88;stroke:#34cc88;" x="785.251528" xlink:href="#m95a27b7ecc" y="562.118321"/>
     <use style="fill:#34cc88;stroke:#34cc88;" x="785.182927" xlink:href="#m95a27b7ecc" y="594.667936"/>
     <use style="fill:#34cc88;stroke:#34cc88;" x="784.192686" xlink:href="#m95a27b7ecc" y="610.874337"/>
    </g>
   </g>
   <g id="line2d_47">
    <path clip-path="url(#pb2d17a7fb2)" d="M 401.283781 150.43421 
L 428.996947 165.69312 
L 455.728994 182.669571 
L 481.757434 200.690104 
L 507.454968 219.186731 
L 533.056762 237.818021 
L 558.660942 256.444989 
L 584.224323 275.129801 
L 609.591002 294.081434 
L 634.540563 313.576524 
L 658.807603 333.914717 
L 682.078892 355.380978 
L 703.989693 378.231713 
L 724.109185 402.67303 
L 741.952779 428.81401 
L 757.035264 456.640243 
L 768.95429 485.955238 
L 777.514442 516.424534 
L 782.733622 547.640438 
L 784.85255 579.224576 
L 784.192686 610.874337 
" style="fill:none;stroke:#98d08d;stroke-linecap:square;stroke-width:1.5;"/>
   </g>
   <g id="line2d_48">
    <path clip-path="url(#pb2d17a7fb2)" d="M 401.283781 150.43421 
L 415.774824 157.694386 
L 443.786844 174.275813 
L 483.430701 202.583739 
L 522.236951 232.034291 
L 560.949485 261.599663 
L 599.471641 291.423576 
L 637.092175 322.391217 
L 672.848369 355.526722 
L 705.523101 391.751689 
L 733.547652 431.74624 
L 755.082379 475.636454 
L 768.697145 522.606388 
L 774.265031 571.154277 
L 773.307375 603.690149 
L 771.874936 619.863912 
" style="fill:none;stroke:#4bd496;stroke-dasharray:9.6,2.4,1.5,2.4;stroke-dashoffset:0;stroke-width:1.5;"/>
    <defs>
     <path d="M 0 3 
C 0.795609 3 1.55874 2.683901 2.12132 2.12132 
C 2.683901 1.55874 3 0.795609 3 0 
C 3 -0.795609 2.683901 -1.55874 2.12132 -2.12132 
C 1.55874 -2.683901 0.795609 -3 0 -3 
C -0.795609 -3 -1.55874 -2.683901 -2.12132 -2.12132 
C -2.683901 -1.55874 -3 -0.795609 -3 0 
C -3 0.795609 -2.683901 1.55874 -2.12132 2.12132 
C -1.55874 2.683901 -0.795609 3 0 3 
z
" id="m681251a371" style="stroke:#4bd496;"/>
    </defs>
    <g clip-path="url(#pb2d17a7fb2)">
     <use style="fill:#4bd496;stroke:#4bd496;" x="401.283781" xlink:href="#m681251a371" y="150.43421"/>
     <use style="fill:#4bd496;stroke:#4bd496;" x="415.774824" xlink:href="#m681251a371" y="157.694386"/>
     <use style="fill:#4bd496;stroke:#4bd496;" x="443.786844" xlink:href="#m681251a371" y="174.275813"/>
     <use style="fill:#4bd496;stroke:#4bd496;" x="483.430701" xlink:href="#m681251a371" y="202.583739"/>
     <use style="fill:#4bd496;stroke:#4bd496;" x="522.236951" xlink:href="#m681251a371" y="232.034291"/>
     <use style="fill:#4bd496;stroke:#4bd496;" x="560.949485" xlink:href="#m681251a371" y="261.599663"/>
     <use style="fill:#4bd496;stroke:#4bd496;" x="599.471641" xlink:href="#m681251a371" y="291.423576"/>
     <use style="fill:#4bd496;stroke:#4bd496;" x="637.092175" xlink:href="#m681251a371" y="322.391217"/>
     <use style="fill:#4bd496;stroke:#4bd496;" x="672.848369" xlink:href="#m681251a371" y="355.526722"/>
     <use style="fill:#4bd496;stroke:#4bd496;" x="705.523101" xlink:href="#m681251a371" y="391.751689"/>
     <use style="fill:#4bd496;stroke:#4bd496;" x="733.547652" xlink:href="#m681251a371" y="431.74624"/>
     <use style="fill:#4bd496;stroke:#4bd496;" x="755.082379" xlink:href="#m681251a371" y="475.636454"/>
     <use style="fill:#4bd496;stroke:#4bd496;" x="768.697145" xlink:href="#m681251a371" y="522.606388"/>
     <use style="fill:#4bd496;stroke:#4bd496;" x="774.265031" xlink:href="#m681251a371" y="571.154277"/>
     <use style="fill:#4bd496;stroke:#4bd496;" x="773.307375" xlink:href="#m681251a371" y="603.690149"/>
     <use style="fill:#4bd496;stroke:#4bd496;" x="771.874936" xlink:href="#m681251a371" y="619.863912"/>
    </g>
   </g>
   <g id="line2d_49">
    <path clip-path="url(#pb2d17a7fb2)" d="M 401.283781 150.43421 
L 428.951097 165.772023 
L 455.54056 182.969781 
L 481.328845 201.331747 
L 506.702244 220.270468 
L 531.908125 239.434476 
L 557.055235 258.674673 
L 582.108948 278.038589 
L 606.916474 297.717714 
L 631.257844 317.968673 
L 654.867233 339.068499 
L 677.431489 361.278731 
L 698.587109 384.832337 
L 717.906516 409.912753 
L 734.911197 436.608933 
L 749.124861 464.890443 
L 760.157296 494.552008 
L 767.82551 525.259178 
L 772.158032 556.611578 
L 773.40078 588.243254 
L 771.874936 619.863912 
" style="fill:none;stroke:#cbb789;stroke-linecap:square;stroke-width:1.5;"/>
   </g>
   <g id="line2d_50">
    <path clip-path="url(#pb2d17a7fb2)" d="M 401.283781 150.43421 
L 415.773857 157.694386 
L 443.723233 174.396942 
L 483.047057 203.154347 
L 521.356765 233.248924 
L 559.444241 263.614938 
L 597.246527 294.346067 
L 634.061336 326.267094 
L 668.925315 360.339059 
L 700.620865 397.421831 
L 727.58532 438.135763 
L 747.999053 482.554994 
L 760.468874 529.838468 
L 764.905419 578.500406 
L 763.212232 611.005432 
L 761.414549 627.1425 
" style="fill:none;stroke:#c4ad95;stroke-dasharray:9.6,2.4,1.5,2.4;stroke-dashoffset:0;stroke-width:1.5;"/>
    <defs>
     <path d="M 0 3 
C 0.795609 3 1.55874 2.683901 2.12132 2.12132 
C 2.683901 1.55874 3 0.795609 3 0 
C 3 -0.795609 2.683901 -1.55874 2.12132 -2.12132 
C 1.55874 -2.683901 0.795609 -3 0 -3 
C -0.795609 -3 -1.55874 -2.683901 -2.12132 -2.12132 
C -2.683901 -1.55874 -3 -0.795609 -3 0 
C -3 0.795609 -2.683901 1.55874 -2.12132 2.12132 
C -1.55874 2.683901 -0.795609 3 0 3 
z
" id="m98a66fa3b4" style="stroke:#c4ad95;"/>
    </defs>
    <g clip-path="url(#pb2d17a7fb2)">
     <use style="fill:#c4ad95;stroke:#c4ad95;" x="401.283781" xlink:href="#m98a66fa3b4" y="150.43421"/>
     <use style="fill:#c4ad95;stroke:#c4ad95;" x="415.773857" xlink:href="#m98a66fa3b4" y="157.694386"/>
     <use style="fill:#c4ad95;stroke:#c4ad95;" x="443.723233" xlink:href="#m98a66fa3b4" y="174.396942"/>
     <use style="fill:#c4ad95;stroke:#c4ad95;" x="483.047057" xlink:href="#m98a66fa3b4" y="203.154347"/>
     <use style="fill:#c4ad95;stroke:#c4ad95;" x="521.356765" xlink:href="#m98a66fa3b4" y="233.248924"/>
     <use style="fill:#c4ad95;stroke:#c4ad95;" x="559.444241" xlink:href="#m98a66fa3b4" y="263.614938"/>
     <use style="fill:#c4ad95;stroke:#c4ad95;" x="597.246527" xlink:href="#m98a66fa3b4" y="294.346067"/>
     <use style="fill:#c4ad95;stroke:#c4ad95;" x="634.061336" xlink:href="#m98a66fa3b4" y="326.267094"/>
     <use style="fill:#c4ad95;stroke:#c4ad95;" x="668.925315" xlink:href="#m98a66fa3b4" y="360.339059"/>
     <use style="fill:#c4ad95;stroke:#c4ad95;" x="700.620865" xlink:href="#m98a66fa3b4" y="397.421831"/>
     <use style="fill:#c4ad95;stroke:#c4ad95;" x="727.58532" xlink:href="#m98a66fa3b4" y="438.135763"/>
     <use style="fill:#c4ad95;stroke:#c4ad95;" x="747.999053" xlink:href="#m98a66fa3b4" y="482.554994"/>
     <use style="fill:#c4ad95;stroke:#c4ad95;" x="760.468874" xlink:href="#m98a66fa3b4" y="529.838468"/>
     <use style="fill:#c4ad95;stroke:#c4ad95;" x="764.905419" xlink:href="#m98a66fa3b4" y="578.500406"/>
     <use style="fill:#c4ad95;stroke:#c4ad95;" x="763.212232" xlink:href="#m98a66fa3b4" y="611.005432"/>
     <use style="fill:#c4ad95;stroke:#c4ad95;" x="761.414549" xlink:href="#m98a66fa3b4" y="627.1425"/>
    </g>
   </g>
   <g id="line2d_51">
    <path clip-path="url(#pb2d17a7fb2)" d="M 401.283781 150.43421 
L 428.908725 165.844413 
L 455.367221 183.241938 
L 480.935974 201.907687 
L 506.014164 221.235206 
L 530.86239 240.860562 
L 555.600954 260.622863 
L 580.203952 280.555736 
L 604.522771 300.834803 
L 628.338962 321.699838 
L 651.386673 343.410615 
L 673.352613 366.211608 
L 693.873693 390.318997 
L 712.524072 415.899884 
L 728.829367 443.02819 
L 742.319944 471.661081 
L 752.615278 501.586078 
L 759.542619 532.46845 
L 763.139489 563.91343 
L 763.656407 595.564939 
L 761.414549 627.1425 
" style="fill:none;stroke:#84b78a;stroke-linecap:square;stroke-width:1.5;"/>
   </g>
   <g id="patch_3">
    <path d="M 370.648721 652.815 
L 370.648721 88.02 
" style="fill:none;stroke:#000000;stroke-linecap:square;stroke-linejoin:miter;stroke-width:0.8;"/>
   </g>
   <g id="patch_4">
    <path d="M 1044.620029 652.815 
L 1044.620029 88.02 
" style="fill:none;stroke:#000000;stroke-linecap:square;stroke-linejoin:miter;stroke-width:0.8;"/>
   </g>
   <g id="patch_5">
    <path d="M 370.648721 652.815 
L 1044.620029 652.815 
" style="fill:none;stroke:#000000;stroke-linecap:square;stroke-linejoin:miter;stroke-width:0.8;"/>
   </g>
   <g id="patch_6">
    <path d="M 370.648721 88.02 
L 1044.620029 88.02 
" style="fill:none;stroke:#000000;stroke-linecap:square;stroke-linejoin:miter;stroke-width:0.8;"/>
   </g>
  </g>
 </g>
 <defs>
  <clipPath id="pb2d17a7fb2">
   <rect height="564.795" width="673.971307" x="370.648721" y="88.02"/>
  </clipPath>
 </defs>
</svg>
