<?xml version="1.0" encoding="utf-8" standalone="no"?>
<!DOCTYPE svg PUBLIC "-//W3C//DTD SVG 1.1//EN"
  "http://www.w3.org/Graphics/SVG/1.1/DTD/svg11.dtd">
<!-- Created with matplotlib (http://matplotlib.org/) -->
<svg height="733.5pt" version="1.1" viewBox="0 0 1380.75 733.5" width="1380.75pt" xmlns="http://www.w3.org/2000/svg" xmlns:xlink="http://www.w3.org/1999/xlink">
 <defs>
  <style type="text/css">
*{stroke-linecap:butt;stroke-linejoin:round;}
  </style>
 </defs>
 <g id="figure_1">
  <g id="patch_1">
   <path d="M 0 733.5 
L 1380.75 733.5 
L 1380.75 0 
L 0 0 
z
" style="fill:#ffffff;"/>
  </g>
  <g id="axes_1">
   <g id="patch_2">
    <path d="M 203.482402 652.815 
L 1211.786348 652.815 
L 1211.786348 88.02 
L 203.482402 88.02 
z
" style="fill:#ffffff;"/>
   </g>
   <g id="matplotlib.axis_1">
    <g id="xtick_1">
     <g id="line2d_1">
      <defs>
       <path d="M 0 0 
L 0 3.5 
" id="m9a980e2e4c" style="stroke:#000000;stroke-width:0.8;"/>
      </defs>
      <g>
       <use style="stroke:#000000;stroke-width:0.8;" x="253.208506" xlink:href="#m9a980e2e4c" y="652.815"/>
      </g>
     </g>
     <g id="text_1">
      <!-- −12.5 -->
      <defs>
       <path d="M 10.59375 35.5 
L 73.1875 35.5 
L 73.1875 27.203125 
L 10.59375 27.203125 
z
" id="DejaVuSans-2212"/>
       <path d="M 12.40625 8.296875 
L 28.515625 8.296875 
L 28.515625 63.921875 
L 10.984375 60.40625 
L 10.984375 69.390625 
L 28.421875 72.90625 
L 38.28125 72.90625 
L 38.28125 8.296875 
L 54.390625 8.296875 
L 54.390625 0 
L 12.40625 0 
z
" id="DejaVuSans-31"/>
       <path d="M 19.1875 8.296875 
L 53.609375 8.296875 
L 53.609375 0 
L 7.328125 0 
L 7.328125 8.296875 
Q 12.9375 14.109375 22.625 23.890625 
Q 32.328125 33.6875 34.8125 36.53125 
Q 39.546875 41.84375 41.421875 45.53125 
Q 43.3125 49.21875 43.3125 52.78125 
Q 43.3125 58.59375 39.234375 62.25 
Q 35.15625 65.921875 28.609375 65.921875 
Q 23.96875 65.921875 18.8125 64.3125 
Q 13.671875 62.703125 7.8125 59.421875 
L 7.8125 69.390625 
Q 13.765625 71.78125 18.9375 73 
Q 24.125 74.21875 28.421875 74.21875 
Q 39.75 74.21875 46.484375 68.546875 
Q 53.21875 62.890625 53.21875 53.421875 
Q 53.21875 48.921875 51.53125 44.890625 
Q 49.859375 40.875 45.40625 35.40625 
Q 44.1875 33.984375 37.640625 27.21875 
Q 31.109375 20.453125 19.1875 8.296875 
z
" id="DejaVuSans-32"/>
       <path d="M 10.6875 12.40625 
L 21 12.40625 
L 21 0 
L 10.6875 0 
z
" id="DejaVuSans-2e"/>
       <path d="M 10.796875 72.90625 
L 49.515625 72.90625 
L 49.515625 64.59375 
L 19.828125 64.59375 
L 19.828125 46.734375 
Q 21.96875 47.46875 24.109375 47.828125 
Q 26.265625 48.1875 28.421875 48.1875 
Q 40.625 48.1875 47.75 41.5 
Q 54.890625 34.8125 54.890625 23.390625 
Q 54.890625 11.625 47.5625 5.09375 
Q 40.234375 -1.421875 26.90625 -1.421875 
Q 22.3125 -1.421875 17.546875 -0.640625 
Q 12.796875 0.140625 7.71875 1.703125 
L 7.71875 11.625 
Q 12.109375 9.234375 16.796875 8.0625 
Q 21.484375 6.890625 26.703125 6.890625 
Q 35.15625 6.890625 40.078125 11.328125 
Q 45.015625 15.765625 45.015625 23.390625 
Q 45.015625 31 40.078125 35.4375 
Q 35.15625 39.890625 26.703125 39.890625 
Q 22.75 39.890625 18.8125 39.015625 
Q 14.890625 38.140625 10.796875 36.28125 
z
" id="DejaVuSans-35"/>
      </defs>
      <g transform="translate(237.88585 667.413437)scale(0.1 -0.1)">
       <use xlink:href="#DejaVuSans-2212"/>
       <use x="83.789062" xlink:href="#DejaVuSans-31"/>
       <use x="147.412109" xlink:href="#DejaVuSans-32"/>
       <use x="211.035156" xlink:href="#DejaVuSans-2e"/>
       <use x="242.822266" xlink:href="#DejaVuSans-35"/>
      </g>
     </g>
    </g>
    <g id="xtick_2">
     <g id="line2d_2">
      <g>
       <use style="stroke:#000000;stroke-width:0.8;" x="377.67002" xlink:href="#m9a980e2e4c" y="652.815"/>
      </g>
     </g>
     <g id="text_2">
      <!-- −10.0 -->
      <defs>
       <path d="M 31.78125 66.40625 
Q 24.171875 66.40625 20.328125 58.90625 
Q 16.5 51.421875 16.5 36.375 
Q 16.5 21.390625 20.328125 13.890625 
Q 24.171875 6.390625 31.78125 6.390625 
Q 39.453125 6.390625 43.28125 13.890625 
Q 47.125 21.390625 47.125 36.375 
Q 47.125 51.421875 43.28125 58.90625 
Q 39.453125 66.40625 31.78125 66.40625 
z
M 31.78125 74.21875 
Q 44.046875 74.21875 50.515625 64.515625 
Q 56.984375 54.828125 56.984375 36.375 
Q 56.984375 17.96875 50.515625 8.265625 
Q 44.046875 -1.421875 31.78125 -1.421875 
Q 19.53125 -1.421875 13.0625 8.265625 
Q 6.59375 17.96875 6.59375 36.375 
Q 6.59375 54.828125 13.0625 64.515625 
Q 19.53125 74.21875 31.78125 74.21875 
z
" id="DejaVuSans-30"/>
      </defs>
      <g transform="translate(362.347364 667.413437)scale(0.1 -0.1)">
       <use xlink:href="#DejaVuSans-2212"/>
       <use x="83.789062" xlink:href="#DejaVuSans-31"/>
       <use x="147.412109" xlink:href="#DejaVuSans-30"/>
       <use x="211.035156" xlink:href="#DejaVuSans-2e"/>
       <use x="242.822266" xlink:href="#DejaVuSans-30"/>
      </g>
     </g>
    </g>
    <g id="xtick_3">
     <g id="line2d_3">
      <g>
       <use style="stroke:#000000;stroke-width:0.8;" x="502.131534" xlink:href="#m9a980e2e4c" y="652.815"/>
      </g>
     </g>
     <g id="text_3">
      <!-- −7.5 -->
      <defs>
       <path d="M 8.203125 72.90625 
L 55.078125 72.90625 
L 55.078125 68.703125 
L 28.609375 0 
L 18.3125 0 
L 43.21875 64.59375 
L 8.203125 64.59375 
z
" id="DejaVuSans-37"/>
      </defs>
      <g transform="translate(489.990127 667.413437)scale(0.1 -0.1)">
       <use xlink:href="#DejaVuSans-2212"/>
       <use x="83.789062" xlink:href="#DejaVuSans-37"/>
       <use x="147.412109" xlink:href="#DejaVuSans-2e"/>
       <use x="179.199219" xlink:href="#DejaVuSans-35"/>
      </g>
     </g>
    </g>
    <g id="xtick_4">
     <g id="line2d_4">
      <g>
       <use style="stroke:#000000;stroke-width:0.8;" x="626.593047" xlink:href="#m9a980e2e4c" y="652.815"/>
      </g>
     </g>
     <g id="text_4">
      <!-- −5.0 -->
      <g transform="translate(614.451641 667.413437)scale(0.1 -0.1)">
       <use xlink:href="#DejaVuSans-2212"/>
       <use x="83.789062" xlink:href="#DejaVuSans-35"/>
       <use x="147.412109" xlink:href="#DejaVuSans-2e"/>
       <use x="179.199219" xlink:href="#DejaVuSans-30"/>
      </g>
     </g>
    </g>
    <g id="xtick_5">
     <g id="line2d_5">
      <g>
       <use style="stroke:#000000;stroke-width:0.8;" x="751.054561" xlink:href="#m9a980e2e4c" y="652.815"/>
      </g>
     </g>
     <g id="text_5">
      <!-- −2.5 -->
      <g transform="translate(738.913154 667.413437)scale(0.1 -0.1)">
       <use xlink:href="#DejaVuSans-2212"/>
       <use x="83.789062" xlink:href="#DejaVuSans-32"/>
       <use x="147.412109" xlink:href="#DejaVuSans-2e"/>
       <use x="179.199219" xlink:href="#DejaVuSans-35"/>
      </g>
     </g>
    </g>
    <g id="xtick_6">
     <g id="line2d_6">
      <g>
       <use style="stroke:#000000;stroke-width:0.8;" x="875.516074" xlink:href="#m9a980e2e4c" y="652.815"/>
      </g>
     </g>
     <g id="text_6">
      <!-- 0.0 -->
      <g transform="translate(867.564512 667.413437)scale(0.1 -0.1)">
       <use xlink:href="#DejaVuSans-30"/>
       <use x="63.623047" xlink:href="#DejaVuSans-2e"/>
       <use x="95.410156" xlink:href="#DejaVuSans-30"/>
      </g>
     </g>
    </g>
    <g id="xtick_7">
     <g id="line2d_7">
      <g>
       <use style="stroke:#000000;stroke-width:0.8;" x="999.977588" xlink:href="#m9a980e2e4c" y="652.815"/>
      </g>
     </g>
     <g id="text_7">
      <!-- 2.5 -->
      <g transform="translate(992.026025 667.413437)scale(0.1 -0.1)">
       <use xlink:href="#DejaVuSans-32"/>
       <use x="63.623047" xlink:href="#DejaVuSans-2e"/>
       <use x="95.410156" xlink:href="#DejaVuSans-35"/>
      </g>
     </g>
    </g>
    <g id="xtick_8">
     <g id="line2d_8">
      <g>
       <use style="stroke:#000000;stroke-width:0.8;" x="1124.439101" xlink:href="#m9a980e2e4c" y="652.815"/>
      </g>
     </g>
     <g id="text_8">
      <!-- 5.0 -->
      <g transform="translate(1116.487539 667.413437)scale(0.1 -0.1)">
       <use xlink:href="#DejaVuSans-35"/>
       <use x="63.623047" xlink:href="#DejaVuSans-2e"/>
       <use x="95.410156" xlink:href="#DejaVuSans-30"/>
      </g>
     </g>
    </g>
   </g>
   <g id="matplotlib.axis_2">
    <g id="ytick_1">
     <g id="line2d_9">
      <defs>
       <path d="M 0 0 
L -3.5 0 
" id="mcc3b8544a9" style="stroke:#000000;stroke-width:0.8;"/>
      </defs>
      <g>
       <use style="stroke:#000000;stroke-width:0.8;" x="203.482402" xlink:href="#mcc3b8544a9" y="575.227968"/>
      </g>
     </g>
     <g id="text_9">
      <!-- −6 -->
      <defs>
       <path d="M 33.015625 40.375 
Q 26.375 40.375 22.484375 35.828125 
Q 18.609375 31.296875 18.609375 23.390625 
Q 18.609375 15.53125 22.484375 10.953125 
Q 26.375 6.390625 33.015625 6.390625 
Q 39.65625 6.390625 43.53125 10.953125 
Q 47.40625 15.53125 47.40625 23.390625 
Q 47.40625 31.296875 43.53125 35.828125 
Q 39.65625 40.375 33.015625 40.375 
z
M 52.59375 71.296875 
L 52.59375 62.3125 
Q 48.875 64.0625 45.09375 64.984375 
Q 41.3125 65.921875 37.59375 65.921875 
Q 27.828125 65.921875 22.671875 59.328125 
Q 17.53125 52.734375 16.796875 39.40625 
Q 19.671875 43.65625 24.015625 45.921875 
Q 28.375 48.1875 33.59375 48.1875 
Q 44.578125 48.1875 50.953125 41.515625 
Q 57.328125 34.859375 57.328125 23.390625 
Q 57.328125 12.15625 50.6875 5.359375 
Q 44.046875 -1.421875 33.015625 -1.421875 
Q 20.359375 -1.421875 13.671875 8.265625 
Q 6.984375 17.96875 6.984375 36.375 
Q 6.984375 53.65625 15.1875 63.9375 
Q 23.390625 74.21875 37.203125 74.21875 
Q 40.921875 74.21875 44.703125 73.484375 
Q 48.484375 72.75 52.59375 71.296875 
z
" id="DejaVuSans-36"/>
      </defs>
      <g transform="translate(181.740215 579.027186)scale(0.1 -0.1)">
       <use xlink:href="#DejaVuSans-2212"/>
       <use x="83.789062" xlink:href="#DejaVuSans-36"/>
      </g>
     </g>
    </g>
    <g id="ytick_2">
     <g id="line2d_10">
      <g>
       <use style="stroke:#000000;stroke-width:0.8;" x="203.482402" xlink:href="#mcc3b8544a9" y="475.658757"/>
      </g>
     </g>
     <g id="text_10">
      <!-- −4 -->
      <defs>
       <path d="M 37.796875 64.3125 
L 12.890625 25.390625 
L 37.796875 25.390625 
z
M 35.203125 72.90625 
L 47.609375 72.90625 
L 47.609375 25.390625 
L 58.015625 25.390625 
L 58.015625 17.1875 
L 47.609375 17.1875 
L 47.609375 0 
L 37.796875 0 
L 37.796875 17.1875 
L 4.890625 17.1875 
L 4.890625 26.703125 
z
" id="DejaVuSans-34"/>
      </defs>
      <g transform="translate(181.740215 479.457975)scale(0.1 -0.1)">
       <use xlink:href="#DejaVuSans-2212"/>
       <use x="83.789062" xlink:href="#DejaVuSans-34"/>
      </g>
     </g>
    </g>
    <g id="ytick_3">
     <g id="line2d_11">
      <g>
       <use style="stroke:#000000;stroke-width:0.8;" x="203.482402" xlink:href="#mcc3b8544a9" y="376.089546"/>
      </g>
     </g>
     <g id="text_11">
      <!-- −2 -->
      <g transform="translate(181.740215 379.888765)scale(0.1 -0.1)">
       <use xlink:href="#DejaVuSans-2212"/>
       <use x="83.789062" xlink:href="#DejaVuSans-32"/>
      </g>
     </g>
    </g>
    <g id="ytick_4">
     <g id="line2d_12">
      <g>
       <use style="stroke:#000000;stroke-width:0.8;" x="203.482402" xlink:href="#mcc3b8544a9" y="276.520335"/>
      </g>
     </g>
     <g id="text_12">
      <!-- 0 -->
      <g transform="translate(190.119902 280.319554)scale(0.1 -0.1)">
       <use xlink:href="#DejaVuSans-30"/>
      </g>
     </g>
    </g>
    <g id="ytick_5">
     <g id="line2d_13">
      <g>
       <use style="stroke:#000000;stroke-width:0.8;" x="203.482402" xlink:href="#mcc3b8544a9" y="176.951124"/>
      </g>
     </g>
     <g id="text_13">
      <!-- 2 -->
      <g transform="translate(190.119902 180.750343)scale(0.1 -0.1)">
       <use xlink:href="#DejaVuSans-32"/>
      </g>
     </g>
    </g>
   </g>
   <g id="line2d_14">
    <path clip-path="url(#p1cce380f0c)" d="M 875.516074 276.520335 
L 881.775593 276.520335 
L 894.400167 276.520335 
L 913.664426 276.520335 
L 933.236758 276.520335 
L 953.028295 276.520335 
L 972.825487 276.520335 
L 992.269909 276.520335 
L 1011.046279 276.520335 
L 1029.308802 276.520335 
L 1047.861118 276.520335 
L 1067.442625 276.520335 
L 1087.341167 276.520335 
L 1106.453202 276.520335 
L 1118.537623 276.520335 
L 1124.439101 276.520335 
" style="fill:none;stroke:#8cdcb0;stroke-dasharray:9.6,2.4,1.5,2.4;stroke-dashoffset:0;stroke-width:1.5;"/>
    <defs>
     <path d="M 0 3 
C 0.795609 3 1.55874 2.683901 2.12132 2.12132 
C 2.683901 1.55874 3 0.795609 3 0 
C 3 -0.795609 2.683901 -1.55874 2.12132 -2.12132 
C 1.55874 -2.683901 0.795609 -3 0 -3 
C -0.795609 -3 -1.55874 -2.683901 -2.12132 -2.12132 
C -2.683901 -1.55874 -3 -0.795609 -3 0 
C -3 0.795609 -2.683901 1.55874 -2.12132 2.12132 
C -1.55874 2.683901 -0.795609 3 0 3 
z
" id="mb85a20cbe9" style="stroke:#8cdcb0;"/>
    </defs>
    <g clip-path="url(#p1cce380f0c)">
     <use style="fill:#8cdcb0;stroke:#8cdcb0;" x="875.516074" xlink:href="#mb85a20cbe9" y="276.520335"/>
     <use style="fill:#8cdcb0;stroke:#8cdcb0;" x="881.775593" xlink:href="#mb85a20cbe9" y="276.520335"/>
     <use style="fill:#8cdcb0;stroke:#8cdcb0;" x="894.400167" xlink:href="#mb85a20cbe9" y="276.520335"/>
     <use style="fill:#8cdcb0;stroke:#8cdcb0;" x="913.664426" xlink:href="#mb85a20cbe9" y="276.520335"/>
     <use style="fill:#8cdcb0;stroke:#8cdcb0;" x="933.236758" xlink:href="#mb85a20cbe9" y="276.520335"/>
     <use style="fill:#8cdcb0;stroke:#8cdcb0;" x="953.028295" xlink:href="#mb85a20cbe9" y="276.520335"/>
     <use style="fill:#8cdcb0;stroke:#8cdcb0;" x="972.825487" xlink:href="#mb85a20cbe9" y="276.520335"/>
     <use style="fill:#8cdcb0;stroke:#8cdcb0;" x="992.269909" xlink:href="#mb85a20cbe9" y="276.520335"/>
     <use style="fill:#8cdcb0;stroke:#8cdcb0;" x="1011.046279" xlink:href="#mb85a20cbe9" y="276.520335"/>
     <use style="fill:#8cdcb0;stroke:#8cdcb0;" x="1029.308802" xlink:href="#mb85a20cbe9" y="276.520335"/>
     <use style="fill:#8cdcb0;stroke:#8cdcb0;" x="1047.861118" xlink:href="#mb85a20cbe9" y="276.520335"/>
     <use style="fill:#8cdcb0;stroke:#8cdcb0;" x="1067.442625" xlink:href="#mb85a20cbe9" y="276.520335"/>
     <use style="fill:#8cdcb0;stroke:#8cdcb0;" x="1087.341167" xlink:href="#mb85a20cbe9" y="276.520335"/>
     <use style="fill:#8cdcb0;stroke:#8cdcb0;" x="1106.453202" xlink:href="#mb85a20cbe9" y="276.520335"/>
     <use style="fill:#8cdcb0;stroke:#8cdcb0;" x="1118.537623" xlink:href="#mb85a20cbe9" y="276.520335"/>
     <use style="fill:#8cdcb0;stroke:#8cdcb0;" x="1124.439101" xlink:href="#mb85a20cbe9" y="276.520335"/>
    </g>
   </g>
   <g id="line2d_15">
    <path clip-path="url(#p1cce380f0c)" d="M 875.516074 276.520335 
L 887.789525 276.520335 
L 900.199572 276.520335 
L 912.74528 276.520335 
L 925.419054 276.520335 
L 938.200134 276.520335 
L 951.049942 276.520335 
L 963.907142 276.520335 
L 976.683455 276.520335 
L 989.28471 276.520335 
L 1001.63347 276.520335 
L 1013.733186 276.520335 
L 1025.680268 276.520335 
L 1037.680928 276.520335 
L 1049.944293 276.520335 
L 1062.572156 276.520335 
L 1075.405014 276.520335 
L 1088.184321 276.520335 
L 1100.659695 276.520335 
L 1112.746374 276.520335 
L 1124.439101 276.520335 
" style="fill:none;stroke:#9c75e6;stroke-linecap:square;stroke-width:1.5;"/>
   </g>
   <g id="line2d_16">
    <path clip-path="url(#p1cce380f0c)" d="M 875.516074 276.520335 
L 881.801703 276.520335 
L 894.39871 279.382391 
L 911.898149 288.62909 
L 924.609512 304.413413 
L 933.338544 321.447833 
L 939.905425 344.829705 
L 946.609336 377.169821 
L 952.346678 416.862932 
L 958.746575 459.233772 
L 964.187882 500.64549 
L 971.023437 538.683836 
L 977.254827 572.414604 
L 984.014252 601.572177 
L 987.780079 618.916587 
L 989.957917 627.1425 
" style="fill:none;stroke:#57401b;stroke-dasharray:9.6,2.4,1.5,2.4;stroke-dashoffset:0;stroke-width:1.5;"/>
    <defs>
     <path d="M 0 3 
C 0.795609 3 1.55874 2.683901 2.12132 2.12132 
C 2.683901 1.55874 3 0.795609 3 0 
C 3 -0.795609 2.683901 -1.55874 2.12132 -2.12132 
C 1.55874 -2.683901 0.795609 -3 0 -3 
C -0.795609 -3 -1.55874 -2.683901 -2.12132 -2.12132 
C -2.683901 -1.55874 -3 -0.795609 -3 0 
C -3 0.795609 -2.683901 1.55874 -2.12132 2.12132 
C -1.55874 2.683901 -0.795609 3 0 3 
z
" id="m8aa3cf6759" style="stroke:#57401b;"/>
    </defs>
    <g clip-path="url(#p1cce380f0c)">
     <use style="fill:#57401b;stroke:#57401b;" x="875.516074" xlink:href="#m8aa3cf6759" y="276.520335"/>
     <use style="fill:#57401b;stroke:#57401b;" x="881.801703" xlink:href="#m8aa3cf6759" y="276.520335"/>
     <use style="fill:#57401b;stroke:#57401b;" x="894.39871" xlink:href="#m8aa3cf6759" y="279.382391"/>
     <use style="fill:#57401b;stroke:#57401b;" x="911.898149" xlink:href="#m8aa3cf6759" y="288.62909"/>
     <use style="fill:#57401b;stroke:#57401b;" x="924.609512" xlink:href="#m8aa3cf6759" y="304.413413"/>
     <use style="fill:#57401b;stroke:#57401b;" x="933.338544" xlink:href="#m8aa3cf6759" y="321.447833"/>
     <use style="fill:#57401b;stroke:#57401b;" x="939.905425" xlink:href="#m8aa3cf6759" y="344.829705"/>
     <use style="fill:#57401b;stroke:#57401b;" x="946.609336" xlink:href="#m8aa3cf6759" y="377.169821"/>
     <use style="fill:#57401b;stroke:#57401b;" x="952.346678" xlink:href="#m8aa3cf6759" y="416.862932"/>
     <use style="fill:#57401b;stroke:#57401b;" x="958.746575" xlink:href="#m8aa3cf6759" y="459.233772"/>
     <use style="fill:#57401b;stroke:#57401b;" x="964.187882" xlink:href="#m8aa3cf6759" y="500.64549"/>
     <use style="fill:#57401b;stroke:#57401b;" x="971.023437" xlink:href="#m8aa3cf6759" y="538.683836"/>
     <use style="fill:#57401b;stroke:#57401b;" x="977.254827" xlink:href="#m8aa3cf6759" y="572.414604"/>
     <use style="fill:#57401b;stroke:#57401b;" x="984.014252" xlink:href="#m8aa3cf6759" y="601.572177"/>
     <use style="fill:#57401b;stroke:#57401b;" x="987.780079" xlink:href="#m8aa3cf6759" y="618.916587"/>
     <use style="fill:#57401b;stroke:#57401b;" x="989.957917" xlink:href="#m8aa3cf6759" y="627.1425"/>
    </g>
   </g>
   <g id="line2d_17">
    <path clip-path="url(#p1cce380f0c)" d="M 875.516074 276.520335 
L 887.721946 278.167901 
L 899.547209 282.469013 
L 910.338982 289.101081 
L 919.330562 298.214462 
L 926.506164 308.7765 
L 932.202307 320.515891 
L 936.921321 334.652775 
L 941.256638 352.072083 
L 945.504907 373.076529 
L 949.471673 397.225353 
L 953.373926 423.492006 
L 957.385656 450.681163 
L 961.189732 477.791034 
L 965.040713 504.038588 
L 969.275677 528.862468 
L 973.499859 551.972201 
L 977.668217 573.218866 
L 981.925299 592.62473 
L 985.953115 610.515076 
L 989.957917 627.1425 
" style="fill:none;stroke:#bfcba3;stroke-linecap:square;stroke-width:1.5;"/>
   </g>
   <g id="line2d_18">
    <path clip-path="url(#p1cce380f0c)" d="M 875.516074 276.520335 
L 881.967692 276.520335 
L 893.465328 279.694248 
L 914.388047 284.409817 
L 918.982868 308.578144 
L 826.065195 410.267601 
L 853.975877 393.917189 
L 864.694835 416.178116 
L 856.145365 435.275053 
L 872.133713 452.965373 
L 835.831415 475.219175 
L 976.176589 460.608035 
L 643.73119 542.199968 
L 249.3144 572.432627 
L 418.121854 577.878269 
L 410.016804 585.537124 
" style="fill:none;stroke:#36d2c7;stroke-dasharray:9.6,2.4,1.5,2.4;stroke-dashoffset:0;stroke-width:1.5;"/>
    <defs>
     <path d="M 0 3 
C 0.795609 3 1.55874 2.683901 2.12132 2.12132 
C 2.683901 1.55874 3 0.795609 3 0 
C 3 -0.795609 2.683901 -1.55874 2.12132 -2.12132 
C 1.55874 -2.683901 0.795609 -3 0 -3 
C -0.795609 -3 -1.55874 -2.683901 -2.12132 -2.12132 
C -2.683901 -1.55874 -3 -0.795609 -3 0 
C -3 0.795609 -2.683901 1.55874 -2.12132 2.12132 
C -1.55874 2.683901 -0.795609 3 0 3 
z
" id="m181f79a877" style="stroke:#36d2c7;"/>
    </defs>
    <g clip-path="url(#p1cce380f0c)">
     <use style="fill:#36d2c7;stroke:#36d2c7;" x="875.516074" xlink:href="#m181f79a877" y="276.520335"/>
     <use style="fill:#36d2c7;stroke:#36d2c7;" x="881.967692" xlink:href="#m181f79a877" y="276.520335"/>
     <use style="fill:#36d2c7;stroke:#36d2c7;" x="893.465328" xlink:href="#m181f79a877" y="279.694248"/>
     <use style="fill:#36d2c7;stroke:#36d2c7;" x="914.388047" xlink:href="#m181f79a877" y="284.409817"/>
     <use style="fill:#36d2c7;stroke:#36d2c7;" x="918.982868" xlink:href="#m181f79a877" y="308.578144"/>
     <use style="fill:#36d2c7;stroke:#36d2c7;" x="826.065195" xlink:href="#m181f79a877" y="410.267601"/>
     <use style="fill:#36d2c7;stroke:#36d2c7;" x="853.975877" xlink:href="#m181f79a877" y="393.917189"/>
     <use style="fill:#36d2c7;stroke:#36d2c7;" x="864.694835" xlink:href="#m181f79a877" y="416.178116"/>
     <use style="fill:#36d2c7;stroke:#36d2c7;" x="856.145365" xlink:href="#m181f79a877" y="435.275053"/>
     <use style="fill:#36d2c7;stroke:#36d2c7;" x="872.133713" xlink:href="#m181f79a877" y="452.965373"/>
     <use style="fill:#36d2c7;stroke:#36d2c7;" x="835.831415" xlink:href="#m181f79a877" y="475.219175"/>
     <use style="fill:#36d2c7;stroke:#36d2c7;" x="976.176589" xlink:href="#m181f79a877" y="460.608035"/>
     <use style="fill:#36d2c7;stroke:#36d2c7;" x="643.73119" xlink:href="#m181f79a877" y="542.199968"/>
     <use style="fill:#36d2c7;stroke:#36d2c7;" x="249.3144" xlink:href="#m181f79a877" y="572.432627"/>
     <use style="fill:#36d2c7;stroke:#36d2c7;" x="418.121854" xlink:href="#m181f79a877" y="577.878269"/>
     <use style="fill:#36d2c7;stroke:#36d2c7;" x="410.016804" xlink:href="#m181f79a877" y="585.537124"/>
    </g>
   </g>
   <g id="line2d_19">
    <path clip-path="url(#p1cce380f0c)" d="M 875.516074 276.520335 
L 887.567215 278.093914 
L 899.878853 281.193874 
L 911.008825 286.953782 
L 913.460295 301.909165 
L 889.211559 339.144065 
L 850.021186 385.76994 
L 842.774497 400.552808 
L 854.627019 401.660014 
L 861.105122 412.53689 
L 860.529881 425.631362 
L 861.025745 437.787155 
L 864.506651 449.814772 
L 857.030586 462.54616 
L 871.249543 469.295001 
L 908.307222 470.929052 
L 825.517597 496.16013 
L 615.169102 536.372011 
L 404.383601 561.870341 
L 363.614418 574.493315 
L 410.016804 585.537124 
" style="fill:none;stroke:#3dd112;stroke-linecap:square;stroke-width:1.5;"/>
   </g>
   <g id="line2d_20">
    <path clip-path="url(#p1cce380f0c)" d="M 875.516074 276.520335 
L 881.737539 276.520335 
L 892.47076 281.672329 
L 899.619951 302.188165 
L 899.030507 319.994847 
L 872.525071 343.121016 
L 879.442139 358.99896 
L 891.311489 375.756216 
L 907.37752 386.235401 
L 866.263944 409.940302 
L 819.128754 407.491159 
L 865.933367 406.131434 
L 771.575689 428.206821 
L 662.279819 437.537113 
L 708.050502 435.775827 
L 707.334523 441.410449 
" style="fill:none;stroke:#6a001e;stroke-dasharray:9.6,2.4,1.5,2.4;stroke-dashoffset:0;stroke-width:1.5;"/>
    <defs>
     <path d="M 0 3 
C 0.795609 3 1.55874 2.683901 2.12132 2.12132 
C 2.683901 1.55874 3 0.795609 3 0 
C 3 -0.795609 2.683901 -1.55874 2.12132 -2.12132 
C 1.55874 -2.683901 0.795609 -3 0 -3 
C -0.795609 -3 -1.55874 -2.683901 -2.12132 -2.12132 
C -2.683901 -1.55874 -3 -0.795609 -3 0 
C -3 0.795609 -2.683901 1.55874 -2.12132 2.12132 
C -1.55874 2.683901 -0.795609 3 0 3 
z
" id="m52fbc83082" style="stroke:#6a001e;"/>
    </defs>
    <g clip-path="url(#p1cce380f0c)">
     <use style="fill:#6a001e;stroke:#6a001e;" x="875.516074" xlink:href="#m52fbc83082" y="276.520335"/>
     <use style="fill:#6a001e;stroke:#6a001e;" x="881.737539" xlink:href="#m52fbc83082" y="276.520335"/>
     <use style="fill:#6a001e;stroke:#6a001e;" x="892.47076" xlink:href="#m52fbc83082" y="281.672329"/>
     <use style="fill:#6a001e;stroke:#6a001e;" x="899.619951" xlink:href="#m52fbc83082" y="302.188165"/>
     <use style="fill:#6a001e;stroke:#6a001e;" x="899.030507" xlink:href="#m52fbc83082" y="319.994847"/>
     <use style="fill:#6a001e;stroke:#6a001e;" x="872.525071" xlink:href="#m52fbc83082" y="343.121016"/>
     <use style="fill:#6a001e;stroke:#6a001e;" x="879.442139" xlink:href="#m52fbc83082" y="358.99896"/>
     <use style="fill:#6a001e;stroke:#6a001e;" x="891.311489" xlink:href="#m52fbc83082" y="375.756216"/>
     <use style="fill:#6a001e;stroke:#6a001e;" x="907.37752" xlink:href="#m52fbc83082" y="386.235401"/>
     <use style="fill:#6a001e;stroke:#6a001e;" x="866.263944" xlink:href="#m52fbc83082" y="409.940302"/>
     <use style="fill:#6a001e;stroke:#6a001e;" x="819.128754" xlink:href="#m52fbc83082" y="407.491159"/>
     <use style="fill:#6a001e;stroke:#6a001e;" x="865.933367" xlink:href="#m52fbc83082" y="406.131434"/>
     <use style="fill:#6a001e;stroke:#6a001e;" x="771.575689" xlink:href="#m52fbc83082" y="428.206821"/>
     <use style="fill:#6a001e;stroke:#6a001e;" x="662.279819" xlink:href="#m52fbc83082" y="437.537113"/>
     <use style="fill:#6a001e;stroke:#6a001e;" x="708.050502" xlink:href="#m52fbc83082" y="435.775827"/>
     <use style="fill:#6a001e;stroke:#6a001e;" x="707.334523" xlink:href="#m52fbc83082" y="441.410449"/>
    </g>
   </g>
   <g id="line2d_21">
    <path clip-path="url(#p1cce380f0c)" d="M 875.516074 276.520335 
L 886.389498 279.663295 
L 894.069027 288.54595 
L 898.156494 300.775551 
L 898.250752 313.034827 
L 890.668909 326.131609 
L 879.23208 339.928705 
L 876.974403 351.768259 
L 882.244238 362.41714 
L 889.96345 372.600565 
L 898.240677 381.140553 
L 895.354557 391.130095 
L 873.896743 402.985095 
L 846.313007 408.129499 
L 835.199343 407.491463 
L 844.551362 408.121967 
L 822.949295 415.669261 
L 763.980197 426.851836 
L 705.174359 433.996251 
L 693.442513 436.343799 
L 707.334523 441.410449 
" style="fill:none;stroke:#0eb6b5;stroke-linecap:square;stroke-width:1.5;"/>
   </g>
   <g id="line2d_22">
    <path clip-path="url(#p1cce380f0c)" d="M 875.516074 276.520335 
L 882.896679 276.520335 
L 885.047687 290.855214 
L 859.460134 318.502968 
L 816.357614 311.058152 
L 815.772536 328.01988 
L 829.599317 345.31777 
L 767.780664 333.549951 
L 811.358501 345.481577 
L 797.308948 355.91081 
L 784.261767 349.428951 
L 789.33317 374.311854 
L 763.06776 379.272355 
L 728.768123 382.411269 
L 747.559729 381.494518 
L 753.328785 384.187041 
" style="fill:none;stroke:#4b6195;stroke-dasharray:9.6,2.4,1.5,2.4;stroke-dashoffset:0;stroke-width:1.5;"/>
    <defs>
     <path d="M 0 3 
C 0.795609 3 1.55874 2.683901 2.12132 2.12132 
C 2.683901 1.55874 3 0.795609 3 0 
C 3 -0.795609 2.683901 -1.55874 2.12132 -2.12132 
C 1.55874 -2.683901 0.795609 -3 0 -3 
C -0.795609 -3 -1.55874 -2.683901 -2.12132 -2.12132 
C -2.683901 -1.55874 -3 -0.795609 -3 0 
C -3 0.795609 -2.683901 1.55874 -2.12132 2.12132 
C -1.55874 2.683901 -0.795609 3 0 3 
z
" id="md7b3d50fce" style="stroke:#4b6195;"/>
    </defs>
    <g clip-path="url(#p1cce380f0c)">
     <use style="fill:#4b6195;stroke:#4b6195;" x="875.516074" xlink:href="#md7b3d50fce" y="276.520335"/>
     <use style="fill:#4b6195;stroke:#4b6195;" x="882.896679" xlink:href="#md7b3d50fce" y="276.520335"/>
     <use style="fill:#4b6195;stroke:#4b6195;" x="885.047687" xlink:href="#md7b3d50fce" y="290.855214"/>
     <use style="fill:#4b6195;stroke:#4b6195;" x="859.460134" xlink:href="#md7b3d50fce" y="318.502968"/>
     <use style="fill:#4b6195;stroke:#4b6195;" x="816.357614" xlink:href="#md7b3d50fce" y="311.058152"/>
     <use style="fill:#4b6195;stroke:#4b6195;" x="815.772536" xlink:href="#md7b3d50fce" y="328.01988"/>
     <use style="fill:#4b6195;stroke:#4b6195;" x="829.599317" xlink:href="#md7b3d50fce" y="345.31777"/>
     <use style="fill:#4b6195;stroke:#4b6195;" x="767.780664" xlink:href="#md7b3d50fce" y="333.549951"/>
     <use style="fill:#4b6195;stroke:#4b6195;" x="811.358501" xlink:href="#md7b3d50fce" y="345.481577"/>
     <use style="fill:#4b6195;stroke:#4b6195;" x="797.308948" xlink:href="#md7b3d50fce" y="355.91081"/>
     <use style="fill:#4b6195;stroke:#4b6195;" x="784.261767" xlink:href="#md7b3d50fce" y="349.428951"/>
     <use style="fill:#4b6195;stroke:#4b6195;" x="789.33317" xlink:href="#md7b3d50fce" y="374.311854"/>
     <use style="fill:#4b6195;stroke:#4b6195;" x="763.06776" xlink:href="#md7b3d50fce" y="379.272355"/>
     <use style="fill:#4b6195;stroke:#4b6195;" x="728.768123" xlink:href="#md7b3d50fce" y="382.411269"/>
     <use style="fill:#4b6195;stroke:#4b6195;" x="747.559729" xlink:href="#md7b3d50fce" y="381.494518"/>
     <use style="fill:#4b6195;stroke:#4b6195;" x="753.328785" xlink:href="#md7b3d50fce" y="384.187041"/>
    </g>
   </g>
   <g id="line2d_23">
    <path clip-path="url(#p1cce380f0c)" d="M 875.516074 276.520335 
L 882.329233 283.918001 
L 875.645375 299.34297 
L 858.23603 312.106149 
L 834.942335 314.540393 
L 819.238344 317.015577 
L 817.589191 326.368685 
L 821.498573 336.732917 
L 810.920928 340.515535 
L 787.798658 337.724512 
L 790.564787 339.97821 
L 803.353201 346.882651 
L 800.127607 352.379867 
L 791.740737 353.0014 
L 786.965102 355.724692 
L 785.909148 366.771954 
L 777.613238 375.559396 
L 760.206082 379.168901 
L 742.594061 381.203342 
L 741.338295 381.858457 
L 753.328785 384.187041 
" style="fill:none;stroke:#91a4c4;stroke-linecap:square;stroke-width:1.5;"/>
   </g>
   <g id="line2d_24">
    <path clip-path="url(#p1cce380f0c)" d="M 875.516074 276.520335 
L 881.990825 276.520335 
L 892.084212 291.082236 
L 878.646149 304.446321 
L 852.009243 301.404713 
L 839.539296 322.639182 
L 861.402861 329.669793 
L 835.261926 324.63868 
L 865.017834 333.133057 
L 860.372735 331.684396 
L 849.154951 359.042849 
L 847.344068 379.689445 
L 837.545157 400.857721 
L 816.358135 413.227654 
L 823.433294 411.230193 
L 828.653406 404.674168 
" style="fill:none;stroke:#8eb814;stroke-dasharray:9.6,2.4,1.5,2.4;stroke-dashoffset:0;stroke-width:1.5;"/>
    <defs>
     <path d="M 0 3 
C 0.795609 3 1.55874 2.683901 2.12132 2.12132 
C 2.683901 1.55874 3 0.795609 3 0 
C 3 -0.795609 2.683901 -1.55874 2.12132 -2.12132 
C 1.55874 -2.683901 0.795609 -3 0 -3 
C -0.795609 -3 -1.55874 -2.683901 -2.12132 -2.12132 
C -2.683901 -1.55874 -3 -0.795609 -3 0 
C -3 0.795609 -2.683901 1.55874 -2.12132 2.12132 
C -1.55874 2.683901 -0.795609 3 0 3 
z
" id="m994ff97076" style="stroke:#8eb814;"/>
    </defs>
    <g clip-path="url(#p1cce380f0c)">
     <use style="fill:#8eb814;stroke:#8eb814;" x="875.516074" xlink:href="#m994ff97076" y="276.520335"/>
     <use style="fill:#8eb814;stroke:#8eb814;" x="881.990825" xlink:href="#m994ff97076" y="276.520335"/>
     <use style="fill:#8eb814;stroke:#8eb814;" x="892.084212" xlink:href="#m994ff97076" y="291.082236"/>
     <use style="fill:#8eb814;stroke:#8eb814;" x="878.646149" xlink:href="#m994ff97076" y="304.446321"/>
     <use style="fill:#8eb814;stroke:#8eb814;" x="852.009243" xlink:href="#m994ff97076" y="301.404713"/>
     <use style="fill:#8eb814;stroke:#8eb814;" x="839.539296" xlink:href="#m994ff97076" y="322.639182"/>
     <use style="fill:#8eb814;stroke:#8eb814;" x="861.402861" xlink:href="#m994ff97076" y="329.669793"/>
     <use style="fill:#8eb814;stroke:#8eb814;" x="835.261926" xlink:href="#m994ff97076" y="324.63868"/>
     <use style="fill:#8eb814;stroke:#8eb814;" x="865.017834" xlink:href="#m994ff97076" y="333.133057"/>
     <use style="fill:#8eb814;stroke:#8eb814;" x="860.372735" xlink:href="#m994ff97076" y="331.684396"/>
     <use style="fill:#8eb814;stroke:#8eb814;" x="849.154951" xlink:href="#m994ff97076" y="359.042849"/>
     <use style="fill:#8eb814;stroke:#8eb814;" x="847.344068" xlink:href="#m994ff97076" y="379.689445"/>
     <use style="fill:#8eb814;stroke:#8eb814;" x="837.545157" xlink:href="#m994ff97076" y="400.857721"/>
     <use style="fill:#8eb814;stroke:#8eb814;" x="816.358135" xlink:href="#m994ff97076" y="413.227654"/>
     <use style="fill:#8eb814;stroke:#8eb814;" x="823.433294" xlink:href="#m994ff97076" y="411.230193"/>
     <use style="fill:#8eb814;stroke:#8eb814;" x="828.653406" xlink:href="#m994ff97076" y="404.674168"/>
    </g>
   </g>
   <g id="line2d_25">
    <path clip-path="url(#p1cce380f0c)" d="M 875.516074 276.520335 
L 885.415917 283.36134 
L 886.359672 294.532952 
L 877.43136 301.433646 
L 863.033169 303.320307 
L 849.977231 308.383298 
L 844.960179 318.794072 
L 850.754626 325.955867 
L 852.152801 327.652339 
L 844.877341 326.770956 
L 850.587717 328.960504 
L 860.796261 331.914242 
L 860.695044 334.419035 
L 855.285386 344.692459 
L 850.115492 360.292014 
L 847.259642 374.54693 
L 843.015485 388.081634 
L 834.859186 400.218619 
L 824.480898 408.59864 
L 821.600231 411.237399 
L 828.653406 404.674168 
" style="fill:none;stroke:#3c674a;stroke-linecap:square;stroke-width:1.5;"/>
   </g>
   <g id="line2d_26">
    <path clip-path="url(#p1cce380f0c)" d="M 875.516074 276.520335 
L 882.547053 276.520335 
L 892.281376 280.794789 
L 888.981828 273.859078 
L 862.906172 270.500942 
L 859.585161 290.997203 
L 876.652214 294.003774 
L 877.775905 263.017688 
L 885.980826 281.127753 
L 910.034992 303.693554 
L 866.976815 270.157317 
L 1165.95435 409.641242 
L 766.375478 307.803572 
L 962.451392 295.227478 
L 305.086799 392.555877 
L 373.244708 353.891853 
" style="fill:none;stroke:#fb0279;stroke-dasharray:9.6,2.4,1.5,2.4;stroke-dashoffset:0;stroke-width:1.5;"/>
    <defs>
     <path d="M 0 3 
C 0.795609 3 1.55874 2.683901 2.12132 2.12132 
C 2.683901 1.55874 3 0.795609 3 0 
C 3 -0.795609 2.683901 -1.55874 2.12132 -2.12132 
C 1.55874 -2.683901 0.795609 -3 0 -3 
C -0.795609 -3 -1.55874 -2.683901 -2.12132 -2.12132 
C -2.683901 -1.55874 -3 -0.795609 -3 0 
C -3 0.795609 -2.683901 1.55874 -2.12132 2.12132 
C -1.55874 2.683901 -0.795609 3 0 3 
z
" id="mb9db683b72" style="stroke:#fb0279;"/>
    </defs>
    <g clip-path="url(#p1cce380f0c)">
     <use style="fill:#fb0279;stroke:#fb0279;" x="875.516074" xlink:href="#mb9db683b72" y="276.520335"/>
     <use style="fill:#fb0279;stroke:#fb0279;" x="882.547053" xlink:href="#mb9db683b72" y="276.520335"/>
     <use style="fill:#fb0279;stroke:#fb0279;" x="892.281376" xlink:href="#mb9db683b72" y="280.794789"/>
     <use style="fill:#fb0279;stroke:#fb0279;" x="888.981828" xlink:href="#mb9db683b72" y="273.859078"/>
     <use style="fill:#fb0279;stroke:#fb0279;" x="862.906172" xlink:href="#mb9db683b72" y="270.500942"/>
     <use style="fill:#fb0279;stroke:#fb0279;" x="859.585161" xlink:href="#mb9db683b72" y="290.997203"/>
     <use style="fill:#fb0279;stroke:#fb0279;" x="876.652214" xlink:href="#mb9db683b72" y="294.003774"/>
     <use style="fill:#fb0279;stroke:#fb0279;" x="877.775905" xlink:href="#mb9db683b72" y="263.017688"/>
     <use style="fill:#fb0279;stroke:#fb0279;" x="885.980826" xlink:href="#mb9db683b72" y="281.127753"/>
     <use style="fill:#fb0279;stroke:#fb0279;" x="910.034992" xlink:href="#mb9db683b72" y="303.693554"/>
     <use style="fill:#fb0279;stroke:#fb0279;" x="866.976815" xlink:href="#mb9db683b72" y="270.157317"/>
     <use style="fill:#fb0279;stroke:#fb0279;" x="1165.95435" xlink:href="#mb9db683b72" y="409.641242"/>
     <use style="fill:#fb0279;stroke:#fb0279;" x="766.375478" xlink:href="#mb9db683b72" y="307.803572"/>
     <use style="fill:#fb0279;stroke:#fb0279;" x="962.451392" xlink:href="#mb9db683b72" y="295.227478"/>
     <use style="fill:#fb0279;stroke:#fb0279;" x="305.086799" xlink:href="#mb9db683b72" y="392.555877"/>
     <use style="fill:#fb0279;stroke:#fb0279;" x="373.244708" xlink:href="#mb9db683b72" y="353.891853"/>
    </g>
   </g>
   <g id="line2d_27">
    <path clip-path="url(#p1cce380f0c)" d="M 875.516074 276.520335 
L 886.258745 278.031415 
L 890.165677 277.967144 
L 885.891795 274.716796 
L 873.912604 272.741117 
L 863.72892 277.256766 
L 862.398223 286.826607 
L 868.839645 291.442607 
L 875.525925 284.97125 
L 878.323187 272.67166 
L 882.356091 273.188402 
L 891.173405 284.937088 
L 899.518389 294.398965 
L 893.992506 289.674365 
L 938.314869 305.087173 
L 1042.983138 358.252694 
L 987.32901 361.170853 
L 861.271378 319.933281 
L 838.7312 308.466798 
L 580.243142 349.838459 
L 373.244708 353.891853 
" style="fill:none;stroke:#dcb67e;stroke-linecap:square;stroke-width:1.5;"/>
   </g>
   <g id="line2d_28">
    <path clip-path="url(#p1cce380f0c)" d="M 875.516074 276.520335 
L 881.602471 276.520335 
L 893.174294 257.253949 
L 885.077376 240.587919 
L 859.962788 242.986656 
L 859.26645 231.943749 
L 895.776721 236.285733 
L 897.134239 229.418 
L 898.52393 235.19463 
L 922.163232 225.533391 
L 911.407737 215.158538 
L 994.379806 254.41286 
L 883.209772 225.945641 
L 937.309969 222.361584 
L 754.20068 249.414002 
L 773.351703 238.835888 
" style="fill:none;stroke:#da7681;stroke-dasharray:9.6,2.4,1.5,2.4;stroke-dashoffset:0;stroke-width:1.5;"/>
    <defs>
     <path d="M 0 3 
C 0.795609 3 1.55874 2.683901 2.12132 2.12132 
C 2.683901 1.55874 3 0.795609 3 0 
C 3 -0.795609 2.683901 -1.55874 2.12132 -2.12132 
C 1.55874 -2.683901 0.795609 -3 0 -3 
C -0.795609 -3 -1.55874 -2.683901 -2.12132 -2.12132 
C -2.683901 -1.55874 -3 -0.795609 -3 0 
C -3 0.795609 -2.683901 1.55874 -2.12132 2.12132 
C -1.55874 2.683901 -0.795609 3 0 3 
z
" id="mb8c9ceecdb" style="stroke:#da7681;"/>
    </defs>
    <g clip-path="url(#p1cce380f0c)">
     <use style="fill:#da7681;stroke:#da7681;" x="875.516074" xlink:href="#mb8c9ceecdb" y="276.520335"/>
     <use style="fill:#da7681;stroke:#da7681;" x="881.602471" xlink:href="#mb8c9ceecdb" y="276.520335"/>
     <use style="fill:#da7681;stroke:#da7681;" x="893.174294" xlink:href="#mb8c9ceecdb" y="257.253949"/>
     <use style="fill:#da7681;stroke:#da7681;" x="885.077376" xlink:href="#mb8c9ceecdb" y="240.587919"/>
     <use style="fill:#da7681;stroke:#da7681;" x="859.962788" xlink:href="#mb8c9ceecdb" y="242.986656"/>
     <use style="fill:#da7681;stroke:#da7681;" x="859.26645" xlink:href="#mb8c9ceecdb" y="231.943749"/>
     <use style="fill:#da7681;stroke:#da7681;" x="895.776721" xlink:href="#mb8c9ceecdb" y="236.285733"/>
     <use style="fill:#da7681;stroke:#da7681;" x="897.134239" xlink:href="#mb8c9ceecdb" y="229.418"/>
     <use style="fill:#da7681;stroke:#da7681;" x="898.52393" xlink:href="#mb8c9ceecdb" y="235.19463"/>
     <use style="fill:#da7681;stroke:#da7681;" x="922.163232" xlink:href="#mb8c9ceecdb" y="225.533391"/>
     <use style="fill:#da7681;stroke:#da7681;" x="911.407737" xlink:href="#mb8c9ceecdb" y="215.158538"/>
     <use style="fill:#da7681;stroke:#da7681;" x="994.379806" xlink:href="#mb8c9ceecdb" y="254.41286"/>
     <use style="fill:#da7681;stroke:#da7681;" x="883.209772" xlink:href="#mb8c9ceecdb" y="225.945641"/>
     <use style="fill:#da7681;stroke:#da7681;" x="937.309969" xlink:href="#mb8c9ceecdb" y="222.361584"/>
     <use style="fill:#da7681;stroke:#da7681;" x="754.20068" xlink:href="#mb8c9ceecdb" y="249.414002"/>
     <use style="fill:#da7681;stroke:#da7681;" x="773.351703" xlink:href="#mb8c9ceecdb" y="238.835888"/>
    </g>
   </g>
   <g id="line2d_29">
    <path clip-path="url(#p1cce380f0c)" d="M 875.516074 276.520335 
L 885.921131 267.515704 
L 889.213478 253.039258 
L 883.049907 244.145735 
L 870.706108 241.746615 
L 861.602483 239.320856 
L 863.860812 234.915045 
L 878.937542 234.254668 
L 893.048629 233.972475 
L 896.914136 231.736056 
L 898.293295 232.248116 
L 904.327792 232.164918 
L 914.529981 227.384198 
L 917.792993 221.598685 
L 931.060314 225.102554 
L 960.230172 239.966791 
L 944.685723 240.853455 
L 909.524401 229.323087 
L 903.029321 226.073401 
L 830.876396 237.551979 
L 773.351703 238.835888 
" style="fill:none;stroke:#3a1664;stroke-linecap:square;stroke-width:1.5;"/>
   </g>
   <g id="line2d_30">
    <path clip-path="url(#p1cce380f0c)" d="M 875.516074 276.520335 
L 881.811909 276.520335 
L 895.978352 270.235823 
L 893.00643 248.611383 
L 875.19726 238.049636 
L 863.020011 223.21201 
L 876.706964 196.034167 
L 889.473706 264.388161 
L 900.766575 266.299415 
L 876.813463 157.138607 
L 866.038258 113.6925 
L 892.370891 139.241185 
L 861.912462 125.311084 
L 869.333519 136.340585 
L 820.558578 139.161287 
L 823.008622 139.246468 
" style="fill:none;stroke:#0c2b4f;stroke-dasharray:9.6,2.4,1.5,2.4;stroke-dashoffset:0;stroke-width:1.5;"/>
    <defs>
     <path d="M 0 3 
C 0.795609 3 1.55874 2.683901 2.12132 2.12132 
C 2.683901 1.55874 3 0.795609 3 0 
C 3 -0.795609 2.683901 -1.55874 2.12132 -2.12132 
C 1.55874 -2.683901 0.795609 -3 0 -3 
C -0.795609 -3 -1.55874 -2.683901 -2.12132 -2.12132 
C -2.683901 -1.55874 -3 -0.795609 -3 0 
C -3 0.795609 -2.683901 1.55874 -2.12132 2.12132 
C -1.55874 2.683901 -0.795609 3 0 3 
z
" id="mfd9a576faf" style="stroke:#0c2b4f;"/>
    </defs>
    <g clip-path="url(#p1cce380f0c)">
     <use style="fill:#0c2b4f;stroke:#0c2b4f;" x="875.516074" xlink:href="#mfd9a576faf" y="276.520335"/>
     <use style="fill:#0c2b4f;stroke:#0c2b4f;" x="881.811909" xlink:href="#mfd9a576faf" y="276.520335"/>
     <use style="fill:#0c2b4f;stroke:#0c2b4f;" x="895.978352" xlink:href="#mfd9a576faf" y="270.235823"/>
     <use style="fill:#0c2b4f;stroke:#0c2b4f;" x="893.00643" xlink:href="#mfd9a576faf" y="248.611383"/>
     <use style="fill:#0c2b4f;stroke:#0c2b4f;" x="875.19726" xlink:href="#mfd9a576faf" y="238.049636"/>
     <use style="fill:#0c2b4f;stroke:#0c2b4f;" x="863.020011" xlink:href="#mfd9a576faf" y="223.21201"/>
     <use style="fill:#0c2b4f;stroke:#0c2b4f;" x="876.706964" xlink:href="#mfd9a576faf" y="196.034167"/>
     <use style="fill:#0c2b4f;stroke:#0c2b4f;" x="889.473706" xlink:href="#mfd9a576faf" y="264.388161"/>
     <use style="fill:#0c2b4f;stroke:#0c2b4f;" x="900.766575" xlink:href="#mfd9a576faf" y="266.299415"/>
     <use style="fill:#0c2b4f;stroke:#0c2b4f;" x="876.813463" xlink:href="#mfd9a576faf" y="157.138607"/>
     <use style="fill:#0c2b4f;stroke:#0c2b4f;" x="866.038258" xlink:href="#mfd9a576faf" y="113.6925"/>
     <use style="fill:#0c2b4f;stroke:#0c2b4f;" x="892.370891" xlink:href="#mfd9a576faf" y="139.241185"/>
     <use style="fill:#0c2b4f;stroke:#0c2b4f;" x="861.912462" xlink:href="#mfd9a576faf" y="125.311084"/>
     <use style="fill:#0c2b4f;stroke:#0c2b4f;" x="869.333519" xlink:href="#mfd9a576faf" y="136.340585"/>
     <use style="fill:#0c2b4f;stroke:#0c2b4f;" x="820.558578" xlink:href="#mfd9a576faf" y="139.161287"/>
     <use style="fill:#0c2b4f;stroke:#0c2b4f;" x="823.008622" xlink:href="#mfd9a576faf" y="139.246468"/>
    </g>
   </g>
   <g id="line2d_31">
    <path clip-path="url(#p1cce380f0c)" d="M 875.516074 276.520335 
L 887.466096 272.842163 
L 893.635343 263.100949 
L 891.034322 251.273131 
L 882.365373 242.238374 
L 872.616255 234.0074 
L 867.381168 223.195646 
L 870.915179 210.725737 
L 879.179875 217.768531 
L 887.407347 247.388182 
L 894.355132 261.645507 
L 893.573463 238.59369 
L 882.681675 184.43064 
L 872.893646 140.458129 
L 873.170615 124.623666 
L 881.891216 130.257796 
L 878.547134 132.514157 
L 867.694676 129.429041 
L 862.67099 132.755397 
L 841.188991 137.453463 
L 823.008622 139.246468 
" style="fill:none;stroke:#d69e9d;stroke-linecap:square;stroke-width:1.5;"/>
   </g>
   <g id="line2d_32">
    <path clip-path="url(#p1cce380f0c)" d="M 875.516074 276.520335 
L 882.87861 276.520335 
L 886.956937 263.304912 
L 876.610049 246.375338 
L 874.438673 226.227364 
L 864.707381 206.409397 
L 882.500091 193.688108 
L 886.172131 223.141136 
L 912.813207 211.452851 
L 899.373931 183.230969 
L 902.212753 162.342187 
L 897.503889 177.184777 
L 873.465765 179.415054 
L 915.24023 172.138128 
L 892.461919 175.291214 
L 894.15911 183.097227 
" style="fill:none;stroke:#7b0587;stroke-dasharray:9.6,2.4,1.5,2.4;stroke-dashoffset:0;stroke-width:1.5;"/>
    <defs>
     <path d="M 0 3 
C 0.795609 3 1.55874 2.683901 2.12132 2.12132 
C 2.683901 1.55874 3 0.795609 3 0 
C 3 -0.795609 2.683901 -1.55874 2.12132 -2.12132 
C 1.55874 -2.683901 0.795609 -3 0 -3 
C -0.795609 -3 -1.55874 -2.683901 -2.12132 -2.12132 
C -2.683901 -1.55874 -3 -0.795609 -3 0 
C -3 0.795609 -2.683901 1.55874 -2.12132 2.12132 
C -1.55874 2.683901 -0.795609 3 0 3 
z
" id="mec22612e99" style="stroke:#7b0587;"/>
    </defs>
    <g clip-path="url(#p1cce380f0c)">
     <use style="fill:#7b0587;stroke:#7b0587;" x="875.516074" xlink:href="#mec22612e99" y="276.520335"/>
     <use style="fill:#7b0587;stroke:#7b0587;" x="882.87861" xlink:href="#mec22612e99" y="276.520335"/>
     <use style="fill:#7b0587;stroke:#7b0587;" x="886.956937" xlink:href="#mec22612e99" y="263.304912"/>
     <use style="fill:#7b0587;stroke:#7b0587;" x="876.610049" xlink:href="#mec22612e99" y="246.375338"/>
     <use style="fill:#7b0587;stroke:#7b0587;" x="874.438673" xlink:href="#mec22612e99" y="226.227364"/>
     <use style="fill:#7b0587;stroke:#7b0587;" x="864.707381" xlink:href="#mec22612e99" y="206.409397"/>
     <use style="fill:#7b0587;stroke:#7b0587;" x="882.500091" xlink:href="#mec22612e99" y="193.688108"/>
     <use style="fill:#7b0587;stroke:#7b0587;" x="886.172131" xlink:href="#mec22612e99" y="223.141136"/>
     <use style="fill:#7b0587;stroke:#7b0587;" x="912.813207" xlink:href="#mec22612e99" y="211.452851"/>
     <use style="fill:#7b0587;stroke:#7b0587;" x="899.373931" xlink:href="#mec22612e99" y="183.230969"/>
     <use style="fill:#7b0587;stroke:#7b0587;" x="902.212753" xlink:href="#mec22612e99" y="162.342187"/>
     <use style="fill:#7b0587;stroke:#7b0587;" x="897.503889" xlink:href="#mec22612e99" y="177.184777"/>
     <use style="fill:#7b0587;stroke:#7b0587;" x="873.465765" xlink:href="#mec22612e99" y="179.415054"/>
     <use style="fill:#7b0587;stroke:#7b0587;" x="915.24023" xlink:href="#mec22612e99" y="172.138128"/>
     <use style="fill:#7b0587;stroke:#7b0587;" x="892.461919" xlink:href="#mec22612e99" y="175.291214"/>
     <use style="fill:#7b0587;stroke:#7b0587;" x="894.15911" xlink:href="#mec22612e99" y="183.097227"/>
    </g>
   </g>
   <g id="line2d_33">
    <path clip-path="url(#p1cce380f0c)" d="M 875.516074 276.520335 
L 883.833991 270.092133 
L 882.948439 258.376949 
L 878.295284 246.761945 
L 875.122261 234.264053 
L 871.545949 221.314493 
L 869.023422 209.253429 
L 874.519896 200.689892 
L 882.060201 203.122776 
L 887.96439 214.535939 
L 899.136178 216.095414 
L 906.704069 205.531455 
L 903.397433 189.479157 
L 900.988149 174.577108 
L 900.821608 168.165704 
L 897.302393 172.680344 
L 887.894827 177.521425 
L 884.957227 177.692924 
L 898.662674 174.964803 
L 900.366777 174.610134 
L 894.15911 183.097227 
" style="fill:none;stroke:#0cff6c;stroke-linecap:square;stroke-width:1.5;"/>
   </g>
   <g id="patch_3">
    <path d="M 203.482402 652.815 
L 203.482402 88.02 
" style="fill:none;stroke:#000000;stroke-linecap:square;stroke-linejoin:miter;stroke-width:0.8;"/>
   </g>
   <g id="patch_4">
    <path d="M 1211.786348 652.815 
L 1211.786348 88.02 
" style="fill:none;stroke:#000000;stroke-linecap:square;stroke-linejoin:miter;stroke-width:0.8;"/>
   </g>
   <g id="patch_5">
    <path d="M 203.482402 652.815 
L 1211.786348 652.815 
" style="fill:none;stroke:#000000;stroke-linecap:square;stroke-linejoin:miter;stroke-width:0.8;"/>
   </g>
   <g id="patch_6">
    <path d="M 203.482402 88.02 
L 1211.786348 88.02 
" style="fill:none;stroke:#000000;stroke-linecap:square;stroke-linejoin:miter;stroke-width:0.8;"/>
   </g>
  </g>
 </g>
 <defs>
  <clipPath id="p1cce380f0c">
   <rect height="564.795" width="1008.303945" x="203.482402" y="88.02"/>
  </clipPath>
 </defs>
</svg>
