<?xml version="1.0" encoding="utf-8" standalone="no"?>
<!DOCTYPE svg PUBLIC "-//W3C//DTD SVG 1.1//EN"
  "http://www.w3.org/Graphics/SVG/1.1/DTD/svg11.dtd">
<!-- Created with matplotlib (http://matplotlib.org/) -->
<svg height="733.5pt" version="1.1" viewBox="0 0 1380.75 733.5" width="1380.75pt" xmlns="http://www.w3.org/2000/svg" xmlns:xlink="http://www.w3.org/1999/xlink">
 <defs>
  <style type="text/css">
*{stroke-linecap:butt;stroke-linejoin:round;}
  </style>
 </defs>
 <g id="figure_1">
  <g id="patch_1">
   <path d="M 0 733.5 
L 1380.75 733.5 
L 1380.75 0 
L 0 0 
z
" style="fill:#ffffff;"/>
  </g>
  <g id="axes_1">
   <g id="patch_2">
    <path d="M 670.230637 652.815 
L 745.038113 652.815 
L 745.038113 88.02 
L 670.230637 88.02 
z
" style="fill:#ffffff;"/>
   </g>
   <g id="matplotlib.axis_1">
    <g id="xtick_1">
     <g id="line2d_1">
      <defs>
       <path d="M 0 0 
L 0 3.5 
" id="med7eacf386" style="stroke:#000000;stroke-width:0.8;"/>
      </defs>
      <g>
       <use style="stroke:#000000;stroke-width:0.8;" x="677.292323" xlink:href="#med7eacf386" y="652.815"/>
      </g>
     </g>
     <g id="text_1">
      <!-- −2.5 -->
      <defs>
       <path d="M 10.59375 35.5 
L 73.1875 35.5 
L 73.1875 27.203125 
L 10.59375 27.203125 
z
" id="DejaVuSans-2212"/>
       <path d="M 19.1875 8.296875 
L 53.609375 8.296875 
L 53.609375 0 
L 7.328125 0 
L 7.328125 8.296875 
Q 12.9375 14.109375 22.625 23.890625 
Q 32.328125 33.6875 34.8125 36.53125 
Q 39.546875 41.84375 41.421875 45.53125 
Q 43.3125 49.21875 43.3125 52.78125 
Q 43.3125 58.59375 39.234375 62.25 
Q 35.15625 65.921875 28.609375 65.921875 
Q 23.96875 65.921875 18.8125 64.3125 
Q 13.671875 62.703125 7.8125 59.421875 
L 7.8125 69.390625 
Q 13.765625 71.78125 18.9375 73 
Q 24.125 74.21875 28.421875 74.21875 
Q 39.75 74.21875 46.484375 68.546875 
Q 53.21875 62.890625 53.21875 53.421875 
Q 53.21875 48.921875 51.53125 44.890625 
Q 49.859375 40.875 45.40625 35.40625 
Q 44.1875 33.984375 37.640625 27.21875 
Q 31.109375 20.453125 19.1875 8.296875 
z
" id="DejaVuSans-32"/>
       <path d="M 10.6875 12.40625 
L 21 12.40625 
L 21 0 
L 10.6875 0 
z
" id="DejaVuSans-2e"/>
       <path d="M 10.796875 72.90625 
L 49.515625 72.90625 
L 49.515625 64.59375 
L 19.828125 64.59375 
L 19.828125 46.734375 
Q 21.96875 47.46875 24.109375 47.828125 
Q 26.265625 48.1875 28.421875 48.1875 
Q 40.625 48.1875 47.75 41.5 
Q 54.890625 34.8125 54.890625 23.390625 
Q 54.890625 11.625 47.5625 5.09375 
Q 40.234375 -1.421875 26.90625 -1.421875 
Q 22.3125 -1.421875 17.546875 -0.640625 
Q 12.796875 0.140625 7.71875 1.703125 
L 7.71875 11.625 
Q 12.109375 9.234375 16.796875 8.0625 
Q 21.484375 6.890625 26.703125 6.890625 
Q 35.15625 6.890625 40.078125 11.328125 
Q 45.015625 15.765625 45.015625 23.390625 
Q 45.015625 31 40.078125 35.4375 
Q 35.15625 39.890625 26.703125 39.890625 
Q 22.75 39.890625 18.8125 39.015625 
Q 14.890625 38.140625 10.796875 36.28125 
z
" id="DejaVuSans-35"/>
      </defs>
      <g transform="translate(665.150917 667.413437)scale(0.1 -0.1)">
       <use xlink:href="#DejaVuSans-2212"/>
       <use x="83.789062" xlink:href="#DejaVuSans-32"/>
       <use x="147.412109" xlink:href="#DejaVuSans-2e"/>
       <use x="179.199219" xlink:href="#DejaVuSans-35"/>
      </g>
     </g>
    </g>
    <g id="xtick_2">
     <g id="line2d_2">
      <g>
       <use style="stroke:#000000;stroke-width:0.8;" x="702.604695" xlink:href="#med7eacf386" y="652.815"/>
      </g>
     </g>
     <g id="text_2">
      <!-- 0.0 -->
      <defs>
       <path d="M 31.78125 66.40625 
Q 24.171875 66.40625 20.328125 58.90625 
Q 16.5 51.421875 16.5 36.375 
Q 16.5 21.390625 20.328125 13.890625 
Q 24.171875 6.390625 31.78125 6.390625 
Q 39.453125 6.390625 43.28125 13.890625 
Q 47.125 21.390625 47.125 36.375 
Q 47.125 51.421875 43.28125 58.90625 
Q 39.453125 66.40625 31.78125 66.40625 
z
M 31.78125 74.21875 
Q 44.046875 74.21875 50.515625 64.515625 
Q 56.984375 54.828125 56.984375 36.375 
Q 56.984375 17.96875 50.515625 8.265625 
Q 44.046875 -1.421875 31.78125 -1.421875 
Q 19.53125 -1.421875 13.0625 8.265625 
Q 6.59375 17.96875 6.59375 36.375 
Q 6.59375 54.828125 13.0625 64.515625 
Q 19.53125 74.21875 31.78125 74.21875 
z
" id="DejaVuSans-30"/>
      </defs>
      <g transform="translate(694.653132 667.413437)scale(0.1 -0.1)">
       <use xlink:href="#DejaVuSans-30"/>
       <use x="63.623047" xlink:href="#DejaVuSans-2e"/>
       <use x="95.410156" xlink:href="#DejaVuSans-30"/>
      </g>
     </g>
    </g>
    <g id="xtick_3">
     <g id="line2d_3">
      <g>
       <use style="stroke:#000000;stroke-width:0.8;" x="727.917066" xlink:href="#med7eacf386" y="652.815"/>
      </g>
     </g>
     <g id="text_3">
      <!-- 2.5 -->
      <g transform="translate(719.965503 667.413437)scale(0.1 -0.1)">
       <use xlink:href="#DejaVuSans-32"/>
       <use x="63.623047" xlink:href="#DejaVuSans-2e"/>
       <use x="95.410156" xlink:href="#DejaVuSans-35"/>
      </g>
     </g>
    </g>
   </g>
   <g id="matplotlib.axis_2">
    <g id="ytick_1">
     <g id="line2d_4">
      <defs>
       <path d="M 0 0 
L -3.5 0 
" id="m6f5be753c0" style="stroke:#000000;stroke-width:0.8;"/>
      </defs>
      <g>
       <use style="stroke:#000000;stroke-width:0.8;" x="670.230637" xlink:href="#m6f5be753c0" y="629.711434"/>
      </g>
     </g>
     <g id="text_4">
      <!-- −50 -->
      <g transform="translate(642.125949 633.510652)scale(0.1 -0.1)">
       <use xlink:href="#DejaVuSans-2212"/>
       <use x="83.789062" xlink:href="#DejaVuSans-35"/>
       <use x="147.412109" xlink:href="#DejaVuSans-30"/>
      </g>
     </g>
    </g>
    <g id="ytick_2">
     <g id="line2d_5">
      <g>
       <use style="stroke:#000000;stroke-width:0.8;" x="670.230637" xlink:href="#m6f5be753c0" y="528.461949"/>
      </g>
     </g>
     <g id="text_5">
      <!-- −40 -->
      <defs>
       <path d="M 37.796875 64.3125 
L 12.890625 25.390625 
L 37.796875 25.390625 
z
M 35.203125 72.90625 
L 47.609375 72.90625 
L 47.609375 25.390625 
L 58.015625 25.390625 
L 58.015625 17.1875 
L 47.609375 17.1875 
L 47.609375 0 
L 37.796875 0 
L 37.796875 17.1875 
L 4.890625 17.1875 
L 4.890625 26.703125 
z
" id="DejaVuSans-34"/>
      </defs>
      <g transform="translate(642.125949 532.261167)scale(0.1 -0.1)">
       <use xlink:href="#DejaVuSans-2212"/>
       <use x="83.789062" xlink:href="#DejaVuSans-34"/>
       <use x="147.412109" xlink:href="#DejaVuSans-30"/>
      </g>
     </g>
    </g>
    <g id="ytick_3">
     <g id="line2d_6">
      <g>
       <use style="stroke:#000000;stroke-width:0.8;" x="670.230637" xlink:href="#m6f5be753c0" y="427.212464"/>
      </g>
     </g>
     <g id="text_6">
      <!-- −30 -->
      <defs>
       <path d="M 40.578125 39.3125 
Q 47.65625 37.796875 51.625 33 
Q 55.609375 28.21875 55.609375 21.1875 
Q 55.609375 10.40625 48.1875 4.484375 
Q 40.765625 -1.421875 27.09375 -1.421875 
Q 22.515625 -1.421875 17.65625 -0.515625 
Q 12.796875 0.390625 7.625 2.203125 
L 7.625 11.71875 
Q 11.71875 9.328125 16.59375 8.109375 
Q 21.484375 6.890625 26.8125 6.890625 
Q 36.078125 6.890625 40.9375 10.546875 
Q 45.796875 14.203125 45.796875 21.1875 
Q 45.796875 27.640625 41.28125 31.265625 
Q 36.765625 34.90625 28.71875 34.90625 
L 20.21875 34.90625 
L 20.21875 43.015625 
L 29.109375 43.015625 
Q 36.375 43.015625 40.234375 45.921875 
Q 44.09375 48.828125 44.09375 54.296875 
Q 44.09375 59.90625 40.109375 62.90625 
Q 36.140625 65.921875 28.71875 65.921875 
Q 24.65625 65.921875 20.015625 65.03125 
Q 15.375 64.15625 9.8125 62.3125 
L 9.8125 71.09375 
Q 15.4375 72.65625 20.34375 73.4375 
Q 25.25 74.21875 29.59375 74.21875 
Q 40.828125 74.21875 47.359375 69.109375 
Q 53.90625 64.015625 53.90625 55.328125 
Q 53.90625 49.265625 50.4375 45.09375 
Q 46.96875 40.921875 40.578125 39.3125 
z
" id="DejaVuSans-33"/>
      </defs>
      <g transform="translate(642.125949 431.011682)scale(0.1 -0.1)">
       <use xlink:href="#DejaVuSans-2212"/>
       <use x="83.789062" xlink:href="#DejaVuSans-33"/>
       <use x="147.412109" xlink:href="#DejaVuSans-30"/>
      </g>
     </g>
    </g>
    <g id="ytick_4">
     <g id="line2d_7">
      <g>
       <use style="stroke:#000000;stroke-width:0.8;" x="670.230637" xlink:href="#m6f5be753c0" y="325.962979"/>
      </g>
     </g>
     <g id="text_7">
      <!-- −20 -->
      <g transform="translate(642.125949 329.762197)scale(0.1 -0.1)">
       <use xlink:href="#DejaVuSans-2212"/>
       <use x="83.789062" xlink:href="#DejaVuSans-32"/>
       <use x="147.412109" xlink:href="#DejaVuSans-30"/>
      </g>
     </g>
    </g>
    <g id="ytick_5">
     <g id="line2d_8">
      <g>
       <use style="stroke:#000000;stroke-width:0.8;" x="670.230637" xlink:href="#m6f5be753c0" y="224.713494"/>
      </g>
     </g>
     <g id="text_8">
      <!-- −10 -->
      <defs>
       <path d="M 12.40625 8.296875 
L 28.515625 8.296875 
L 28.515625 63.921875 
L 10.984375 60.40625 
L 10.984375 69.390625 
L 28.421875 72.90625 
L 38.28125 72.90625 
L 38.28125 8.296875 
L 54.390625 8.296875 
L 54.390625 0 
L 12.40625 0 
z
" id="DejaVuSans-31"/>
      </defs>
      <g transform="translate(642.125949 228.512712)scale(0.1 -0.1)">
       <use xlink:href="#DejaVuSans-2212"/>
       <use x="83.789062" xlink:href="#DejaVuSans-31"/>
       <use x="147.412109" xlink:href="#DejaVuSans-30"/>
      </g>
     </g>
    </g>
    <g id="ytick_6">
     <g id="line2d_9">
      <g>
       <use style="stroke:#000000;stroke-width:0.8;" x="670.230637" xlink:href="#m6f5be753c0" y="123.464009"/>
      </g>
     </g>
     <g id="text_9">
      <!-- 0 -->
      <g transform="translate(656.868137 127.263227)scale(0.1 -0.1)">
       <use xlink:href="#DejaVuSans-30"/>
      </g>
     </g>
    </g>
   </g>
   <g id="line2d_10">
    <path clip-path="url(#p23714aedce)" d="M 702.604695 123.464009 
L 703.877725 123.464009 
L 706.445248 123.464009 
L 710.363119 123.464009 
L 714.343644 123.464009 
L 718.368749 123.464009 
L 722.395005 123.464009 
L 726.349516 123.464009 
L 730.168162 123.464009 
L 733.882304 123.464009 
L 737.655383 123.464009 
L 741.637774 123.464009 
" style="fill:none;stroke:#949663;stroke-dasharray:9.6,2.4,1.5,2.4;stroke-dashoffset:0;stroke-width:1.5;"/>
    <defs>
     <path d="M 0 3 
C 0.795609 3 1.55874 2.683901 2.12132 2.12132 
C 2.683901 1.55874 3 0.795609 3 0 
C 3 -0.795609 2.683901 -1.55874 2.12132 -2.12132 
C 1.55874 -2.683901 0.795609 -3 0 -3 
C -0.795609 -3 -1.55874 -2.683901 -2.12132 -2.12132 
C -2.683901 -1.55874 -3 -0.795609 -3 0 
C -3 0.795609 -2.683901 1.55874 -2.12132 2.12132 
C -1.55874 2.683901 -0.795609 3 0 3 
z
" id="ma5131f0319" style="stroke:#949663;"/>
    </defs>
    <g clip-path="url(#p23714aedce)">
     <use style="fill:#949663;stroke:#949663;" x="702.604695" xlink:href="#ma5131f0319" y="123.464009"/>
     <use style="fill:#949663;stroke:#949663;" x="703.877725" xlink:href="#ma5131f0319" y="123.464009"/>
     <use style="fill:#949663;stroke:#949663;" x="706.445248" xlink:href="#ma5131f0319" y="123.464009"/>
     <use style="fill:#949663;stroke:#949663;" x="710.363119" xlink:href="#ma5131f0319" y="123.464009"/>
     <use style="fill:#949663;stroke:#949663;" x="714.343644" xlink:href="#ma5131f0319" y="123.464009"/>
     <use style="fill:#949663;stroke:#949663;" x="718.368749" xlink:href="#ma5131f0319" y="123.464009"/>
     <use style="fill:#949663;stroke:#949663;" x="722.395005" xlink:href="#ma5131f0319" y="123.464009"/>
     <use style="fill:#949663;stroke:#949663;" x="726.349516" xlink:href="#ma5131f0319" y="123.464009"/>
     <use style="fill:#949663;stroke:#949663;" x="730.168162" xlink:href="#ma5131f0319" y="123.464009"/>
     <use style="fill:#949663;stroke:#949663;" x="733.882304" xlink:href="#ma5131f0319" y="123.464009"/>
     <use style="fill:#949663;stroke:#949663;" x="737.655383" xlink:href="#ma5131f0319" y="123.464009"/>
     <use style="fill:#949663;stroke:#949663;" x="741.637774" xlink:href="#ma5131f0319" y="123.464009"/>
    </g>
   </g>
   <g id="line2d_11">
    <path clip-path="url(#p23714aedce)" d="M 702.604695 123.464009 
L 704.32984 123.464009 
L 706.068224 123.464009 
L 707.820004 123.464009 
L 709.584987 123.464009 
L 711.36278 123.464009 
L 713.152327 123.464009 
L 714.951983 123.464009 
L 716.759231 123.464009 
L 718.570229 123.464009 
L 720.380406 123.464009 
L 722.183436 123.464009 
L 723.97277 123.464009 
L 725.742383 123.464009 
L 727.486863 123.464009 
L 729.20579 123.464009 
L 730.90466 123.464009 
L 732.670648 123.464009 
L 734.686733 123.464009 
L 737.373335 123.464009 
L 741.637774 123.464009 
" style="fill:none;stroke:#8b2d22;stroke-linecap:square;stroke-width:1.5;"/>
   </g>
   <g id="line2d_12">
    <path clip-path="url(#p23714aedce)" d="M 702.604695 123.464009 
L 703.899445 123.464009 
L 706.319515 125.047099 
L 707.469475 129.136627 
L 708.761027 141.008153 
L 710.027726 166.173601 
L 711.307441 210.591916 
L 712.555489 278.177552 
L 713.767074 366.763197 
L 714.93716 466.183635 
L 716.131688 560.308632 
L 717.390385 627.1425 
" style="fill:none;stroke:#a13521;stroke-dasharray:9.6,2.4,1.5,2.4;stroke-dashoffset:0;stroke-width:1.5;"/>
    <defs>
     <path d="M 0 3 
C 0.795609 3 1.55874 2.683901 2.12132 2.12132 
C 2.683901 1.55874 3 0.795609 3 0 
C 3 -0.795609 2.683901 -1.55874 2.12132 -2.12132 
C 1.55874 -2.683901 0.795609 -3 0 -3 
C -0.795609 -3 -1.55874 -2.683901 -2.12132 -2.12132 
C -2.683901 -1.55874 -3 -0.795609 -3 0 
C -3 0.795609 -2.683901 1.55874 -2.12132 2.12132 
C -1.55874 2.683901 -0.795609 3 0 3 
z
" id="maf05168467" style="stroke:#a13521;"/>
    </defs>
    <g clip-path="url(#p23714aedce)">
     <use style="fill:#a13521;stroke:#a13521;" x="702.604695" xlink:href="#maf05168467" y="123.464009"/>
     <use style="fill:#a13521;stroke:#a13521;" x="703.899445" xlink:href="#maf05168467" y="123.464009"/>
     <use style="fill:#a13521;stroke:#a13521;" x="706.319515" xlink:href="#maf05168467" y="125.047099"/>
     <use style="fill:#a13521;stroke:#a13521;" x="707.469475" xlink:href="#maf05168467" y="129.136627"/>
     <use style="fill:#a13521;stroke:#a13521;" x="708.761027" xlink:href="#maf05168467" y="141.008153"/>
     <use style="fill:#a13521;stroke:#a13521;" x="710.027726" xlink:href="#maf05168467" y="166.173601"/>
     <use style="fill:#a13521;stroke:#a13521;" x="711.307441" xlink:href="#maf05168467" y="210.591916"/>
     <use style="fill:#a13521;stroke:#a13521;" x="712.555489" xlink:href="#maf05168467" y="278.177552"/>
     <use style="fill:#a13521;stroke:#a13521;" x="713.767074" xlink:href="#maf05168467" y="366.763197"/>
     <use style="fill:#a13521;stroke:#a13521;" x="714.93716" xlink:href="#maf05168467" y="466.183635"/>
     <use style="fill:#a13521;stroke:#a13521;" x="716.131688" xlink:href="#maf05168467" y="560.308632"/>
     <use style="fill:#a13521;stroke:#a13521;" x="717.390385" xlink:href="#maf05168467" y="627.1425"/>
    </g>
   </g>
   <g id="line2d_13">
    <path clip-path="url(#p23714aedce)" d="M 702.604695 123.464009 
L 704.271197 123.898788 
L 705.655085 125.018789 
L 706.609497 126.61254 
L 707.248261 128.985084 
L 707.802257 132.686323 
L 708.372781 138.241719 
L 708.948498 146.154534 
L 709.521252 156.942375 
L 710.093572 171.146192 
L 710.667195 189.266522 
L 711.238929 211.681872 
L 711.805129 238.684078 
L 712.364529 270.201992 
L 712.91669 306.002288 
L 713.461162 345.43309 
L 713.998377 387.627369 
L 714.555788 433.375473 
L 715.192537 485.396741 
L 716.042133 547.760487 
L 717.390385 627.1425 
" style="fill:none;stroke:#d82491;stroke-linecap:square;stroke-width:1.5;"/>
   </g>
   <g id="line2d_14">
    <path clip-path="url(#p23714aedce)" d="M 702.604695 123.464009 
L 708.051824 123.464009 
L 709.431723 124.408546 
L 702.471648 120.325671 
L 702.0956 126.04437 
L 700.12362 132.935904 
L 702.174089 145.564192 
L 700.880889 164.421077 
L 702.602403 189.127236 
L 702.16646 216.840014 
L 703.135368 243.084078 
L 702.388131 261.738522 
" style="fill:none;stroke:#419b60;stroke-dasharray:9.6,2.4,1.5,2.4;stroke-dashoffset:0;stroke-width:1.5;"/>
    <defs>
     <path d="M 0 3 
C 0.795609 3 1.55874 2.683901 2.12132 2.12132 
C 2.683901 1.55874 3 0.795609 3 0 
C 3 -0.795609 2.683901 -1.55874 2.12132 -2.12132 
C 1.55874 -2.683901 0.795609 -3 0 -3 
C -0.795609 -3 -1.55874 -2.683901 -2.12132 -2.12132 
C -2.683901 -1.55874 -3 -0.795609 -3 0 
C -3 0.795609 -2.683901 1.55874 -2.12132 2.12132 
C -1.55874 2.683901 -0.795609 3 0 3 
z
" id="m2c2c44c1c0" style="stroke:#419b60;"/>
    </defs>
    <g clip-path="url(#p23714aedce)">
     <use style="fill:#419b60;stroke:#419b60;" x="702.604695" xlink:href="#m2c2c44c1c0" y="123.464009"/>
     <use style="fill:#419b60;stroke:#419b60;" x="708.051824" xlink:href="#m2c2c44c1c0" y="123.464009"/>
     <use style="fill:#419b60;stroke:#419b60;" x="709.431723" xlink:href="#m2c2c44c1c0" y="124.408546"/>
     <use style="fill:#419b60;stroke:#419b60;" x="702.471648" xlink:href="#m2c2c44c1c0" y="120.325671"/>
     <use style="fill:#419b60;stroke:#419b60;" x="702.0956" xlink:href="#m2c2c44c1c0" y="126.04437"/>
     <use style="fill:#419b60;stroke:#419b60;" x="700.12362" xlink:href="#m2c2c44c1c0" y="132.935904"/>
     <use style="fill:#419b60;stroke:#419b60;" x="702.174089" xlink:href="#m2c2c44c1c0" y="145.564192"/>
     <use style="fill:#419b60;stroke:#419b60;" x="700.880889" xlink:href="#m2c2c44c1c0" y="164.421077"/>
     <use style="fill:#419b60;stroke:#419b60;" x="702.602403" xlink:href="#m2c2c44c1c0" y="189.127236"/>
     <use style="fill:#419b60;stroke:#419b60;" x="702.16646" xlink:href="#m2c2c44c1c0" y="216.840014"/>
     <use style="fill:#419b60;stroke:#419b60;" x="703.135368" xlink:href="#m2c2c44c1c0" y="243.084078"/>
     <use style="fill:#419b60;stroke:#419b60;" x="702.388131" xlink:href="#m2c2c44c1c0" y="261.738522"/>
    </g>
   </g>
   <g id="line2d_15">
    <path clip-path="url(#p23714aedce)" d="M 702.604695 123.464009 
L 707.364691 123.62435 
L 708.122844 123.599126 
L 706.629431 122.797852 
L 704.413452 121.971312 
L 702.836414 122.447579 
L 702.146806 124.439928 
L 701.638712 127.201387 
L 701.040195 130.398338 
L 700.800866 134.387217 
L 701.162996 139.499329 
L 701.593852 145.822926 
L 701.568594 153.393535 
L 701.381556 162.194693 
L 701.559973 172.180778 
L 702.028177 183.177274 
L 702.33363 194.941845 
L 702.390098 207.695368 
L 702.540114 222.198003 
L 702.78958 239.588787 
L 702.388131 261.738522 
" style="fill:none;stroke:#7044b1;stroke-linecap:square;stroke-width:1.5;"/>
   </g>
   <g id="line2d_16">
    <path clip-path="url(#p23714aedce)" d="M 702.604695 123.464009 
L 704.47153 123.464009 
L 704.262172 120.105318 
L 701.186089 132.145864 
L 701.242561 131.616413 
L 697.668496 134.150935 
L 702.582158 138.787854 
L 698.957845 144.985748 
L 702.369883 151.860648 
L 701.31931 159.791577 
L 700.118027 167.428527 
L 701.110034 172.5048 
" style="fill:none;stroke:#293f96;stroke-dasharray:9.6,2.4,1.5,2.4;stroke-dashoffset:0;stroke-width:1.5;"/>
    <defs>
     <path d="M 0 3 
C 0.795609 3 1.55874 2.683901 2.12132 2.12132 
C 2.683901 1.55874 3 0.795609 3 0 
C 3 -0.795609 2.683901 -1.55874 2.12132 -2.12132 
C 1.55874 -2.683901 0.795609 -3 0 -3 
C -0.795609 -3 -1.55874 -2.683901 -2.12132 -2.12132 
C -2.683901 -1.55874 -3 -0.795609 -3 0 
C -3 0.795609 -2.683901 1.55874 -2.12132 2.12132 
C -1.55874 2.683901 -0.795609 3 0 3 
z
" id="m9cef6cd975" style="stroke:#293f96;"/>
    </defs>
    <g clip-path="url(#p23714aedce)">
     <use style="fill:#293f96;stroke:#293f96;" x="702.604695" xlink:href="#m9cef6cd975" y="123.464009"/>
     <use style="fill:#293f96;stroke:#293f96;" x="704.47153" xlink:href="#m9cef6cd975" y="123.464009"/>
     <use style="fill:#293f96;stroke:#293f96;" x="704.262172" xlink:href="#m9cef6cd975" y="120.105318"/>
     <use style="fill:#293f96;stroke:#293f96;" x="701.186089" xlink:href="#m9cef6cd975" y="132.145864"/>
     <use style="fill:#293f96;stroke:#293f96;" x="701.242561" xlink:href="#m9cef6cd975" y="131.616413"/>
     <use style="fill:#293f96;stroke:#293f96;" x="697.668496" xlink:href="#m9cef6cd975" y="134.150935"/>
     <use style="fill:#293f96;stroke:#293f96;" x="702.582158" xlink:href="#m9cef6cd975" y="138.787854"/>
     <use style="fill:#293f96;stroke:#293f96;" x="698.957845" xlink:href="#m9cef6cd975" y="144.985748"/>
     <use style="fill:#293f96;stroke:#293f96;" x="702.369883" xlink:href="#m9cef6cd975" y="151.860648"/>
     <use style="fill:#293f96;stroke:#293f96;" x="701.31931" xlink:href="#m9cef6cd975" y="159.791577"/>
     <use style="fill:#293f96;stroke:#293f96;" x="700.118027" xlink:href="#m9cef6cd975" y="167.428527"/>
     <use style="fill:#293f96;stroke:#293f96;" x="701.110034" xlink:href="#m9cef6cd975" y="172.5048"/>
    </g>
   </g>
   <g id="line2d_17">
    <path clip-path="url(#p23714aedce)" d="M 702.604695 123.464009 
L 704.064934 122.856217 
L 703.956015 122.682492 
L 703.081504 125.011397 
L 702.064931 128.6879 
L 701.411008 131.137659 
L 701.032168 131.893842 
L 700.339621 132.311387 
L 699.364952 133.2455 
L 699.126866 134.683241 
L 700.124281 136.545716 
L 701.116608 138.779104 
L 700.900122 141.330417 
L 700.21689 144.126221 
L 700.363615 147.091655 
L 701.221416 150.217922 
L 701.777956 153.541634 
L 701.620733 157.184606 
L 701.049422 161.366594 
L 700.581817 166.35485 
L 701.110034 172.5048 
" style="fill:none;stroke:#fbd76f;stroke-linecap:square;stroke-width:1.5;"/>
   </g>
   <g id="line2d_18">
    <path clip-path="url(#p23714aedce)" d="M 702.604695 123.464009 
L 705.73237 123.464009 
L 703.863854 123.270314 
L 703.802321 135.994535 
L 703.229888 113.6925 
L 696.51871 130.641814 
L 689.47434 140.141353 
L 684.33268 141.042956 
L 686.699298 143.524761 
L 684.205304 153.045261 
L 673.630976 146.094656 
L 674.984532 150.752666 
" style="fill:none;stroke:#5e2ac3;stroke-dasharray:9.6,2.4,1.5,2.4;stroke-dashoffset:0;stroke-width:1.5;"/>
    <defs>
     <path d="M 0 3 
C 0.795609 3 1.55874 2.683901 2.12132 2.12132 
C 2.683901 1.55874 3 0.795609 3 0 
C 3 -0.795609 2.683901 -1.55874 2.12132 -2.12132 
C 1.55874 -2.683901 0.795609 -3 0 -3 
C -0.795609 -3 -1.55874 -2.683901 -2.12132 -2.12132 
C -2.683901 -1.55874 -3 -0.795609 -3 0 
C -3 0.795609 -2.683901 1.55874 -2.12132 2.12132 
C -1.55874 2.683901 -0.795609 3 0 3 
z
" id="mafc344a2d7" style="stroke:#5e2ac3;"/>
    </defs>
    <g clip-path="url(#p23714aedce)">
     <use style="fill:#5e2ac3;stroke:#5e2ac3;" x="702.604695" xlink:href="#mafc344a2d7" y="123.464009"/>
     <use style="fill:#5e2ac3;stroke:#5e2ac3;" x="705.73237" xlink:href="#mafc344a2d7" y="123.464009"/>
     <use style="fill:#5e2ac3;stroke:#5e2ac3;" x="703.863854" xlink:href="#mafc344a2d7" y="123.270314"/>
     <use style="fill:#5e2ac3;stroke:#5e2ac3;" x="703.802321" xlink:href="#mafc344a2d7" y="135.994535"/>
     <use style="fill:#5e2ac3;stroke:#5e2ac3;" x="703.229888" xlink:href="#mafc344a2d7" y="113.6925"/>
     <use style="fill:#5e2ac3;stroke:#5e2ac3;" x="696.51871" xlink:href="#mafc344a2d7" y="130.641814"/>
     <use style="fill:#5e2ac3;stroke:#5e2ac3;" x="689.47434" xlink:href="#mafc344a2d7" y="140.141353"/>
     <use style="fill:#5e2ac3;stroke:#5e2ac3;" x="684.33268" xlink:href="#mafc344a2d7" y="141.042956"/>
     <use style="fill:#5e2ac3;stroke:#5e2ac3;" x="686.699298" xlink:href="#mafc344a2d7" y="143.524761"/>
     <use style="fill:#5e2ac3;stroke:#5e2ac3;" x="684.205304" xlink:href="#mafc344a2d7" y="153.045261"/>
     <use style="fill:#5e2ac3;stroke:#5e2ac3;" x="673.630976" xlink:href="#mafc344a2d7" y="146.094656"/>
     <use style="fill:#5e2ac3;stroke:#5e2ac3;" x="674.984532" xlink:href="#mafc344a2d7" y="150.752666"/>
    </g>
   </g>
   <g id="line2d_19">
    <path clip-path="url(#p23714aedce)" d="M 702.604695 123.464009 
L 704.771209 123.611661 
L 704.473129 124.880569 
L 703.964135 128.069206 
L 703.774686 130.478139 
L 703.607303 128.058434 
L 703.048383 122.469328 
L 701.594689 120.248241 
L 699.125696 124.012594 
L 696.118913 130.05208 
L 693.029224 135.057253 
L 690.098447 138.437604 
L 687.56627 140.209319 
L 685.873507 141.064615 
L 685.450014 141.9095 
L 685.785433 143.403323 
L 685.767906 146.002888 
L 684.431634 148.850413 
L 681.001654 149.587317 
L 676.383318 148.361256 
L 674.984532 150.752666 
" style="fill:none;stroke:#669f6b;stroke-linecap:square;stroke-width:1.5;"/>
   </g>
   <g id="patch_3">
    <path d="M 670.230637 652.815 
L 670.230637 88.02 
" style="fill:none;stroke:#000000;stroke-linecap:square;stroke-linejoin:miter;stroke-width:0.8;"/>
   </g>
   <g id="patch_4">
    <path d="M 745.038113 652.815 
L 745.038113 88.02 
" style="fill:none;stroke:#000000;stroke-linecap:square;stroke-linejoin:miter;stroke-width:0.8;"/>
   </g>
   <g id="patch_5">
    <path d="M 670.230637 652.815 
L 745.038113 652.815 
" style="fill:none;stroke:#000000;stroke-linecap:square;stroke-linejoin:miter;stroke-width:0.8;"/>
   </g>
   <g id="patch_6">
    <path d="M 670.230637 88.02 
L 745.038113 88.02 
" style="fill:none;stroke:#000000;stroke-linecap:square;stroke-linejoin:miter;stroke-width:0.8;"/>
   </g>
  </g>
 </g>
 <defs>
  <clipPath id="p23714aedce">
   <rect height="564.795" width="74.807477" x="670.230637" y="88.02"/>
  </clipPath>
 </defs>
</svg>
